<svg id="Layer_6" data-name="Layer 6" xmlns="http://www.w3.org/2000/svg" viewBox="0 0 633.64 276.44"><defs><style>.cls-1,.cls-10,.cls-11,.cls-12,.cls-13,.cls-14,.cls-15,.cls-2,.cls-3,.cls-4,.cls-5,.cls-6,.cls-7,.cls-8,.cls-9{fill:none;stroke-miterlimit:10;}.cls-1,.cls-11,.cls-12,.cls-13,.cls-14,.cls-15,.cls-2,.cls-3,.cls-5,.cls-8{stroke:#a7a9ac;}.cls-2{stroke-width:0.93px;}.cls-4{stroke:#ead0d0;}.cls-5{stroke-width:0.94px;}.cls-6,.cls-7,.cls-9{stroke:#263168;}.cls-6{stroke-width:0.84px;}.cls-7{stroke-width:1.06px;}.cls-8{stroke-width:1.06px;}.cls-10{stroke:#eabd80;}.cls-11{stroke-width:0.93px;}.cls-12{stroke-width:0.95px;}.cls-13{stroke-width:0.84px;}.cls-14{stroke-width:0.95px;}.cls-15{stroke-width:1.27px;}</style></defs><title>FRENCH MOI_ PARIS</title><line class="cls-1" x1="0.45" y1="275.94" x2="633.64" y2="275.94"/><path class="cls-1" d="M88.52,350.33c12.64-8.57,24.87-4.32,38.11-8.17,11-3.21,24.18-1.48,31.94,7,2,2.12,3.53,4.63,5.86,6.33s5.14,2.43,7.68,3.73a20,20,0,0,1,10.55,14.94" transform="translate(-86.02 -158.39)"/><line class="cls-1" x1="52.52" y1="203.65" x2="52.52" y2="267.64"/><path class="cls-1" d="M114.41,369.28c.29.33.54.69.82,1L138.58,395l22.69-24.19" transform="translate(-86.02 -158.39)"/><path class="cls-1" d="M168,382.63c-1.6.13-3.2.35-4.8.35H150.56a1.72,1.72,0,0,1,.36-1.27V370.27" transform="translate(-86.02 -158.39)"/><path class="cls-1" d="M106.93,379.91c-.24.24.49.56.51.22,0,0,16.68-.4,16.79-.64V363.63" transform="translate(-86.02 -158.39)"/><line class="cls-2" x1="480.11" y1="156.22" x2="480.11" y2="249.42"/><path class="cls-2" d="M536.26,330.24,566.19,366l27.86-27" transform="translate(-86.02 -158.39)"/><path class="cls-2" d="M601.94,351.83c-1.87.13-21.21,0-21.21,0l.93-17.67" transform="translate(-86.02 -158.39)"/><path class="cls-2" d="M529,345.13s19.75.8,19.88.55l1.78-14.32" transform="translate(-86.02 -158.39)"/><path class="cls-3" d="M490,332.74c-.7-8.81,4.47-17.5,12-22.46a36.41,36.41,0,0,1,15.64-5.5c2.9-.36,6-.11,8.81-.86,3.66-1,4.93-3.32,7.66-5.62a41.44,41.44,0,0,1,20.7-8.89c10.52-1.49,21.37.65,31,5,5.28,2.39,10.46,5.79,13.92,10.43,2.73,3.65,4.41,9.95,9,11.91,4.73,2.05,9.88,2.3,14.61,5.16,6,3.61,10.94,9.21,12.37,15.91" transform="translate(-86.02 -158.39)"/><path class="cls-4" d="M86.47,259.36c.15-.23,198.19,0,198.19,0" transform="translate(-86.02 -158.39)"/><path class="cls-4" d="M291.19,259.34h55.06" transform="translate(-86.02 -158.39)"/><path class="cls-4" d="M86.07,167.81c8,.84,15.61-2.49,23.14-4.83,30.47-9.48,67.42-2.06,89.39,18,4.27,3.89,8.25,8.34,14.07,10.37,9.89,3.45,20.86-1.24,31.45-2.61,19.79-2.56,40.84,8.45,46.72,24.43,1.13,3.08,1.9,6.49,4.73,8.67,3.34,2.56,8.38,2.57,12.91,2.5,11.79-.17,24.56.47,33.64,6.75s12.11,16.34,14.77,25.79" transform="translate(-86.02 -158.39)"/><polyline class="cls-5" points="220.08 194.34 218.75 144.03 232.52 133.8 244.17 143.5 244.17 160.76 255.29 164.34 255.82 173.64"/><path class="cls-6" d="M146.25,219.37c1.63.45,3.13-.9,4.6-1.74a8.45,8.45,0,0,1,9.08.6c1.4,1.07,2.59,2.64,4.33,2.86a4.85,4.85,0,0,0,4.11-2.06c1-1.24,1.74-2.7,2.83-3.87a8.28,8.28,0,0,1,7.63-2.41" transform="translate(-86.02 -158.39)"/><path class="cls-6" d="M215.59,285.86a2.89,2.89,0,0,0,2.17-.4,13.89,13.89,0,0,1,11.91.39,5.35,5.35,0,0,0,2,.78,3.25,3.25,0,0,0,2.55-1.26,25.41,25.41,0,0,0,1.63-2.45,10.5,10.5,0,0,1,6.67-4.39" transform="translate(-86.02 -158.39)"/><path class="cls-6" d="M174.29,307.67c.4.2.84-.06,1.24-.28a6.67,6.67,0,0,1,6.83.27,2.6,2.6,0,0,0,1.15.55,1.76,1.76,0,0,0,1.46-.88,15.84,15.84,0,0,0,.93-1.73,6.12,6.12,0,0,1,3.83-3.08" transform="translate(-86.02 -158.39)"/><path class="cls-7" d="M644.71,253.52a2.16,2.16,0,0,0,1.68-.34,10.09,10.09,0,0,1,9.17.32,3.85,3.85,0,0,0,1.54.65,2.43,2.43,0,0,0,2-1,20.74,20.74,0,0,0,1.26-2,8.09,8.09,0,0,1,5.14-3.63" transform="translate(-86.02 -158.39)"/><polyline class="cls-1" points="73 183.28 191.51 183.16 195.18 191.82 191.42 191.66 78.8 191.66"/><line class="cls-1" x1="191.06" y1="191.66" x2="191.38" y2="236.81"/><polygon class="cls-1" points="94.7 191.33 82.27 191.33 82.27 180.55 88.08 174.3 94.7 180.55 94.7 191.33"/><polygon class="cls-1" points="140.3 191.33 127.88 191.33 127.88 180.55 133.69 174.3 140.3 180.55 140.3 191.33"/><polygon class="cls-1" points="162.9 191.33 150.48 191.33 150.48 180.55 156.28 174.3 162.9 180.55 162.9 191.33"/><polygon class="cls-1" points="185.38 191.33 172.95 191.33 172.95 180.55 178.76 174.3 185.38 180.55 185.38 191.33"/><rect class="cls-1" x="106.26" y="197.98" width="10.13" height="18.44"/><rect class="cls-1" x="129.47" y="197.98" width="10.13" height="18.44"/><rect class="cls-1" x="152.36" y="197.98" width="10.13" height="18.44"/><rect class="cls-1" x="174.26" y="197.98" width="10.13" height="18.44"/><polygon class="cls-1" points="117.54 191.33 105.12 191.33 105.12 180.55 110.92 174.3 117.54 180.55 117.54 191.33"/><line class="cls-1" x1="107.2" y1="222.27" x2="190.89" y2="222.27"/><path class="cls-8" d="M305.83,379.89l8.79,5.95" transform="translate(-86.02 -158.39)"/><path class="cls-8" d="M314.72,371c-.1.56-.15,1.12-.25,1.68V417.1" transform="translate(-86.02 -158.39)"/><path class="cls-8" d="M314.64,394.48q5.57-8.73,11.82-17c.11-.15.23-.3.34-.46" transform="translate(-86.02 -158.39)"/><polyline class="cls-1" points="390.31 181.15 390.31 127.76 399.24 117.71 404.82 117.71 409.85 117.71 410.78 149.15"/><line class="cls-1" x1="404.27" y1="106.73" x2="404.82" y2="117.71"/><path class="cls-4" d="M622.1,262.33H526.85" transform="translate(-86.02 -158.39)"/><path class="cls-4" d="M641.45,261.59h71.07" transform="translate(-86.02 -158.39)"/><path class="cls-4" d="M526.85,258.16a15.59,15.59,0,0,1,14.85-13.47c3.79,0,7.57,1.35,11.3.69-.34-3.24,1.51-6.42,4.08-8.41a21.13,21.13,0,0,1,9-3.6,69,69,0,0,1,22.27-.14c3.28.59,6.76,1.49,9.86.26,4-1.57,5.84-6,8.2-9.51,3.42-5.13,15-9.83,20.62-10.58" transform="translate(-86.02 -158.39)"/><path class="cls-4" d="M636.56,211.63c9.46-1.82,19.51-1.46,28.42,2.22a36.39,36.39,0,0,1,13.43,9.53c3.05,3.46,4.62,12.34,9,13.8,2.61.87,6.91-.55,9.55-.9,3.62-.47,7.31-.88,10.9.05a15.65,15.65,0,0,1,5.64,2.77" transform="translate(-86.02 -158.39)"/><path class="cls-9" d="M659.4,231.89a12.91,12.91,0,0,1,10.14,2.28c1.36,1,2.79,2.39,4.47,2.13s2.67-2.15,3.91-3.42a12.13,12.13,0,0,1,4.11-2.52,18.73,18.73,0,0,1,7-1.86" transform="translate(-86.02 -158.39)"/><path class="cls-10" d="M527.9,246.85a38.78,38.78,0,1,1,63.19-16" transform="translate(-86.02 -158.39)"/><g id="dtmoFu"><path class="cls-11" d="M636,193.8c.12,5.43.11,10.87.4,16.29.37,6.76.75,13.52,1.31,20.28S639,244.14,639.79,251c.5,4.19,1.22,8.34,1.86,12.51.89,5.82,2,11.61,3.38,17.35.48,2,1,4.06,1.49,6.09a8.29,8.29,0,0,1,.13.87" transform="translate(-86.02 -158.39)"/><path class="cls-12" d="M648.78,330.14c-4.22-8-8.84-26.17-9-26.17l-16-.15c-1.1,1.9-1.48,6.14-3.12,9" transform="translate(-86.02 -158.39)"/><path class="cls-12" d="M637.55,330.25C647,331,655,329,664,331v9c0,1-1,1-2.34,1.1" transform="translate(-86.02 -158.39)"/><path class="cls-12" d="M661.54,341c-6.24-.86-12.58-.6-18.86-.36" transform="translate(-86.02 -158.39)"/><path class="cls-11" d="M627.76,193.8c-.13,5.18-.19,10.37-.4,15.54s-.48,10.46-.88,15.67c-.53,7-1.14,14-2,20.9-.87,7.54-1.89,15-3.27,22.51-.74,4-1.52,8-2.44,11.95a70.43,70.43,0,0,0-1.7,7.45" transform="translate(-86.02 -158.39)"/><path class="cls-12" d="M647.78,293.7a77.4,77.4,0,0,0,1.36,8.54,131.63,131.63,0,0,0,5.42,19.23c.94,2.66,2.23,5.19,3.35,7.78a6.92,6.92,0,0,1,.25.89" transform="translate(-86.02 -158.39)"/><path class="cls-12" d="M616,293.7c-.41,5.38-3.06,10.7-4.51,15.89" transform="translate(-86.02 -158.39)"/><path class="cls-12" d="M631.89,201.44c0,11.64.13,40.41.13,52" transform="translate(-86.02 -158.39)"/><path class="cls-12" d="M647.65,293.57c-.4-.45-.83-.22-1.25-.22h-29c-1.21,0-2.42-.08-3.63,0-.87.08-1.22-.5-1.13-2.12a19.85,19.85,0,0,1,.16-3.33c1.47-.13,18-.26,24.75-.16q6.26.09,12.51,0c.87,0,1.23.51,1.13,2.12,0,.61,0,1.24,0,1.85,0,1.19-.25,1.64-.88,1.65a4.85,4.85,0,0,0-2.5.21" transform="translate(-86.02 -158.39)"/><path class="cls-12" d="M661.66,341.23c1.44,6.24,5.16,12.67,8.16,18.3" transform="translate(-86.02 -158.39)"/><path class="cls-12" d="M632.64,184.5c-.37,0-6.79-.49-6.79.16v8.88h12.07v-8.91C636.15,184.24,634.39,184.57,632.64,184.5Z" transform="translate(-86.02 -158.39)"/><path class="cls-13" d="M631.89,161.05v18.67" transform="translate(-86.02 -158.39)"/><path class="cls-14" d="M636.29,184.14v-4.42h-8.71a29.53,29.53,0,0,0-.16,4.59" transform="translate(-86.02 -158.39)"/><path class="cls-12" d="M631.89,247.83" transform="translate(-86.02 -158.39)"/><path class="cls-12" d="M631.89,240.44" transform="translate(-86.02 -158.39)"/><path class="cls-12" d="M627.32,287.29a181.78,181.78,0,0,0,4.7-33.81c1.51,10.58,3.14,25.56,5.49,33.81" transform="translate(-86.02 -158.39)"/></g><path class="cls-12" d="M639.6,385.72c.93-7.28,8.41-11.86,15.5-13.78s14.79-2.42,20.91-6.47a43.76,43.76,0,0,0,7.08-6.39c3.88-4,7.92-8,12.77-10.73s10.63-4.27,16.06-3" transform="translate(-86.02 -158.39)"/><path class="cls-15" d="M432.52,355.27h75.16c0,20.93-.09-1.11-.09,19.82" transform="translate(-86.02 -158.39)"/><path class="cls-8" d="M285.51,379.51c1.38-10.83,12.37-19.48,23.22-18.26a24.79,24.79,0,0,0,5.42.43c3.29-.38,5.92-2.79,8.81-4.42,8.21-4.64,19.67-2.35,25.46,5.09,2.13,2.74,3.52,6,5.64,8.73s5.38,5,8.81,4.58" transform="translate(-86.02 -158.39)"/></svg>