<svg id="Layer_3" data-name="Layer 3" xmlns="http://www.w3.org/2000/svg" xmlns:xlink="http://www.w3.org/1999/xlink" viewBox="0 0 377.07 278.59"><defs><style>.cls-1{fill:none;}.cls-2{fill:#fff;}.cls-3{fill:#151314;}.cls-4{fill:#414042;}.cls-5{fill:#ee203d;}.cls-6{fill:#010101;}.cls-7{fill:#58bada;}.cls-8{fill:#1f2a51;}.cls-9{fill:#eabd80;}.cls-10{fill:#264423;}.cls-11{fill:#ead0d0;}.cls-12{fill:#231f20;}.cls-13{clip-path:url(#clip-path);}.cls-14{fill:#263168;}.cls-15{fill:#575b75;}.cls-16{fill:#58595b;}.cls-17{clip-path:url(#clip-path-2);}</style><clipPath id="clip-path" transform="translate(0 -0.01)"><path class="cls-1" d="M256.45,164.9a27.47,27.47,0,0,0-7.18-7.36c-1.93-1.38-3.94-2.65-5.93-4l-3.07-2c-1.3-.86-2.6-1.72-4-2.5a67.58,67.58,0,0,0-7.37-3.69c-2.33-1-4.72-1.88-7.08-2.82s-4.57-1.9-6.86-2.85c-1-.42-2.09-.92-3.14-1.28a7.39,7.39,0,0,1-2.83-1.27,5.51,5.51,0,0,1-1.4-2.73,35.94,35.94,0,0,1-.55-4,61.22,61.22,0,0,1-.21-7.78v-1c0-1.13.11-2.27.17-3.41,0-.66.06-1.32.11-2a.89.89,0,0,0,0-.23l-.52-.07h-.14l-3.71-.55-4.06-.6c-2.17-.31-4.33-.61-6.5-.9l-6.08-.83-6.16-.81c-3.62-.35-7.25-.63-10.87-.9-.12.27-.23.53-.35.79-.59,1.29-1.18,2.57-1.78,3.85l-.45,1.34c-.26.64-.52,1.29-.73,2h0a28.11,28.11,0,0,0-.74,3.27c-.09.61-.15,1.22-.23,1.84s-.17,1.31-.2,2a9.77,9.77,0,0,0,.06,1.08c.06.46.14.93.23,1.39s.16.91.27,1.35a11.87,11.87,0,0,0,.41,1.32c.18.47.35.94.53,1.4s.52,1.15.82,1.71q.28.48.6.93l.07.08c.3.38.62.73,1,1.09l0,.07c.36.39.71.79,1.08,1.17l.84.86c.28.3.55.61.82.92.45.52.89,1.05,1.35,1.56.12.12.23.25.35.38l.15.14c.41.4.83.79,1.27,1.17l.68.61.53.36c.5.38,1,.78,1.49,1.14a62.28,62.28,0,0,0,6.83,4.43,80.82,80.82,0,0,0,7.58,3.6c2.22.92,4.48,1.75,6.71,2.65s4.66,1.9,7,2.82,4.54,1.79,6.82,2.67,4.64,1.81,6.94,2.78,4.49,2,6.73,3l6.07,2.8a53.91,53.91,0,0,1,5,2.63c.51.34,1,.7,1.51,1.08l.53.5a2.85,2.85,0,0,1,.23.26c.13.2.26.4.38.61a3.23,3.23,0,0,1,.19.39l.15.48c.07.4.13.8.17,1.2a74.09,74.09,0,0,1-.2,8.43c-.09,1.27-.18,2.54-.28,3.81-.25,3.14-.64,6.27-1.07,9.39-.2.8-.4,1.6-.59,2.41-.58,2.47-1,5-1.55,7.46q-.72,3.38-1.55,6.72a1.39,1.39,0,0,0,0,.73c.25.93,2.47.86,3.24,1l2.34.49c1.62.35,3.22.71,4.84,1.09,2.89.67,4-.37,4.63-3,2.41-9.49,4.69-19,7-28.52a71.37,71.37,0,0,0,2.14-11.87A15.35,15.35,0,0,0,256.45,164.9Z"/></clipPath><clipPath id="clip-path-2" transform="translate(0 -0.01)"><path class="cls-1" d="M232.82,102.15c.75.37,2.75-.35,2.75-.35,2.18-.49,4.29-1.26,6.19-1.76,1.23-.32,3.1-1,3.1-1,.7-.92-.36-2.94-.66-4.09-2-7.5-4.06-15.24-8.91-21.29s-13.26-10-20.52-7.22a25.49,25.49,0,0,0-4.91,2.7c-7.08,5-14.45,10-20.8,15.86-5.52,5.11-10.93,9.82-15.18,16.16-1.95,2.91-4.58,6.55-5.43,10,1.73,1,5,.74,7,1l12.75,1.55c8.23,1,16.46,2,24.7,2.93.69.07,2.28.55,2.95.27,0-.44.4-2.37.49-3.05l6.66-24C226.24,78.1,232,101.53,232.82,102.15Z"/></clipPath></defs><title>girl-bike</title><path class="cls-2" d="M260,40a7.27,7.27,0,0,1,2.46,2.25.89.89,0,0,1,.19.46c0,.42-.53.59-.92.74-1.67.65-2.23,2.67-3,4.3a13.78,13.78,0,0,1-8.64,7.19,19.84,19.84,0,0,1-11.42-.28,1.53,1.53,0,0,0-.84-.09,1.37,1.37,0,0,0-.57.44c-3.42,4-4.17,9.6-6.66,14.07a1.38,1.38,0,0,1-.44.54,1.41,1.41,0,0,1-1.29-.06c-1.36-.56-2.52-1.48-3.82-2.14A21,21,0,0,1,222.66,66a.85.85,0,0,1-.37-.38.87.87,0,0,1,0-.53c.47-2.09,1.37-4,2-6.1a44.68,44.68,0,0,0,1.31-11.25,11.16,11.16,0,0,0-.15-2.77,14,14,0,0,0-.86-2.31,25.84,25.84,0,0,1-2-9.22,4.12,4.12,0,0,1,.21-1.64c.38-.87,1.28-1.39,1.9-2.11.48-.55.79-1.23,1.29-1.76a6.06,6.06,0,0,1,1.86-1.24,28.3,28.3,0,0,1,6.83-2.17,27.72,27.72,0,0,1,3.51-.5c.79,0,1.92.22,2.48-.52a2.15,2.15,0,0,0,.35-.82,23.7,23.7,0,0,1,6.6-10.82,4.25,4.25,0,0,1,2.14-1.28,4.73,4.73,0,0,1,2.71.7c1.42.69,2.84,1.38,4.2,2.2,2,1.24,4,2.8,6.38,3.23.82.15,1.81.23,2.22,1a2.21,2.21,0,0,1,.22,1,38.85,38.85,0,0,1-1,11.38C264.25,30.93,260.8,40.42,260,40Z" transform="translate(0 -0.01)"/><path class="cls-3" d="M247.85,36.39a1.82,1.82,0,0,1-.2-1v-.14a2,2,0,0,1,.1-.88,1.79,1.79,0,0,1,.52-.78,1.88,1.88,0,0,1,.77-.39,1.54,1.54,0,0,1,.74,0,1.84,1.84,0,0,1,1.2,1.35,2.17,2.17,0,0,1-.31,1.75,1.84,1.84,0,0,1-1.45.83h0A1.5,1.5,0,0,1,247.85,36.39Z" transform="translate(0 -0.01)"/><path class="cls-4" d="M260.46,44.69a.26.26,0,0,0-.11.1l-.1.18a.44.44,0,0,1-.08.1.18.18,0,0,1-.21,0c-.07,0-.09-.12-.15-.16s-.15,0-.22-.09a.31.31,0,0,1,0-.25,1,1,0,0,1,.31-.55,1,1,0,0,1,.56-.24,3.68,3.68,0,0,0,1-.23,8.11,8.11,0,0,0,.92-.49c.24-.13.39-.26.16-.49a20.75,20.75,0,0,0-1.6-1.35,10.28,10.28,0,0,1-1.31-1.41c-.28-.35-1-1.29-.68-1.75.13-.16.27-.25.42-.06.37.48.67,1,1.08,1.47a13.93,13.93,0,0,0,1.08,1c.38.32.75.64,1.11,1,.17.15.32.3.48.46a2.26,2.26,0,0,1,.54.65.89.89,0,0,1-.06.89,1.74,1.74,0,0,1-.72.54,5.77,5.77,0,0,1-.79.29l-.72.23a2.4,2.4,0,0,1-.59.13A.92.92,0,0,0,260.46,44.69Z" transform="translate(0 -0.01)"/><path class="cls-5" d="M255.41,50.51a2.29,2.29,0,0,1-.63-.19,4.08,4.08,0,0,1-.72-.44A3.89,3.89,0,0,1,253,48.65a3.69,3.69,0,0,1-.29-.64.89.89,0,0,1,0-.75c.57-1,1.32,1,1.63,1.29a3.37,3.37,0,0,0,2.69,1c.16,0,.36,0,.4.14a.17.17,0,0,1,0,.14C257.16,50.46,256,50.58,255.41,50.51Z" transform="translate(0 -0.01)"/><path class="cls-2" d="M252.84,13.12c-.05-.18-.13-.36-.19-.54a2,2,0,0,0-.2-.38c.06-.11.11-.24.17-.35a5.3,5.3,0,0,1,.33-.57c0,.62,0,1.25,0,1.85v.2Z" transform="translate(0 -0.01)"/><path class="cls-4" d="M222.12,64.21c-.24-.19-.25-.93.19-2q.25-.66.48-1.32c.14-.44.27-.88.4-1.32s.29-1,.43-1.42.29-.88.43-1.33l.24-.85c.1-.41.2-.82.28-1.23s.17-.95.25-1.42c.16-.89.3-1.78.42-2.68,0-.47.1-.94.12-1.42s0-1,0-1.52V46.22a1.41,1.41,0,0,1,0-.29.41.41,0,0,1,.13-.25.37.37,0,0,1,.62.28,2.24,2.24,0,0,0,.11.5c0,.17.08.47.11.7a13.55,13.55,0,0,1,.11,1.43,18.6,18.6,0,0,1-.11,2.79c-.1,1-.24,1.94-.39,2.91a21.77,21.77,0,0,1-.63,2.77c-.28.92-.59,1.82-.87,2.74-.14.45-.27.9-.42,1.34s-.34,1-.54,1.41C223,64,222.39,64.42,222.12,64.21Z" transform="translate(0 -0.01)"/><path class="cls-6" d="M226.38,50.45a.88.88,0,0,1-.25.79A16,16,0,0,1,220.9,51c-6.46-1.58-12.49-5.45-18.22-8.7-1.51-.86-17.33-9.49-17.09-10.11,1.5-3.89,3.4-7.76,6.53-10.51s7.75-4.13,11.58-2.49c1.4.61,2.7,1.6,4.22,1.67,2.81.12,4.66-2.78,6-5.22,3.14-5.52,7.55-11,13.42-13.77C232.08-.34,238.88,0,244.06.06a17.48,17.48,0,0,1,1.77.09,15.85,15.85,0,0,1,1.68.26c1,.21,2.06.46,3.08.73a18.32,18.32,0,0,1,3.12,1.09A7.53,7.53,0,0,1,255,3a5.83,5.83,0,0,1,1,.93,1.35,1.35,0,0,1,.31.53,1.23,1.23,0,0,1,0,.54,1.25,1.25,0,0,1-.31.69,4.71,4.71,0,0,1-.69.65c-.36.3-.75.58-1.12.88l-.23.18-.21.19h0a12.91,12.91,0,0,1,1.32-.85,5.18,5.18,0,0,1,.76-.34,5.78,5.78,0,0,1,.91-.23A8.66,8.66,0,0,1,258.36,6a15.25,15.25,0,0,1,3.22.4,16.81,16.81,0,0,1,3.15,1.1A24.28,24.28,0,0,1,267.5,9.1,15.38,15.38,0,0,1,270,11a12.07,12.07,0,0,1,3.21,4.92,10.71,10.71,0,0,1,.54,2.62,14.9,14.9,0,0,1,0,1.89,6.65,6.65,0,0,1-.14,1.08,4.79,4.79,0,0,1-.21.64v.11a2.28,2.28,0,0,1-.1.52v-.12c-.06.27-.08.56-.16.83a2.35,2.35,0,0,1-.23.57,3,3,0,0,1-.26.42h0l-.06.08-.17.21a1.61,1.61,0,0,1-.34.24l-.16.09a1.88,1.88,0,0,1-.25.24,1.76,1.76,0,0,1-.42.24,3.75,3.75,0,0,1-.65.2l-.71.16a30.27,30.27,0,0,1-3.13.59l-.75.07a4.21,4.21,0,0,1-.71,0,1.27,1.27,0,0,1-.69-.28,1.25,1.25,0,0,1-.3-.42,3.82,3.82,0,0,1-.19-.66c-.19-.8-.32-1.61-.5-2.42-.12-.52-.27-1-.43-1.57s-.29-.84-.45-1.26c-.05,1.42-.1,2.84-.28,4.25a10.81,10.81,0,0,1-.31,1.48,1.12,1.12,0,0,1-.11.34,1.12,1.12,0,0,1-1.21.9h-.35c-1.07,0-2.14-.07-3.21-.13l-2.84-.18a10.71,10.71,0,0,1-1.39-.12,4.28,4.28,0,0,1-.87-.15,1.76,1.76,0,0,1-.92-.56l-.17-.27L251,25.4a1.56,1.56,0,0,1-.2-.56v-.3c0-.27-.06-.54-.07-.81s0-.43,0-.64v-.9a27.14,27.14,0,0,0-.1-2.85,2.36,2.36,0,0,0-.05-.6h0v-.23h0l-.09-1v-.44h0V16.8c0-.55-.1-1.1-.14-1.65a10.85,10.85,0,0,0-.16-1.32,1.36,1.36,0,0,0-.13-.42c-.05-.14-.06-.36-.11-.52-.79.17-1.23,1.27-1.56,1.92-.46.88-.87,1.79-1.29,2.69s-.91,1.86-1.41,2.76-1.06,1.84-1.6,2.75-1,1.75-1.59,2.6A20.76,20.76,0,0,1,240.61,28a19.62,19.62,0,0,1-2.4,2.25c-1.08.87-3,2.36-4.51,1.71-.93-.39-1.35-1.38-2-2.14a4.19,4.19,0,0,0-3.28-1.53c-6.24.22-2.63,8-2.13,11.33A94.87,94.87,0,0,1,226.38,50.45Zm39.09-27.39v0h0Zm-11.83-3.4Zm-3.19-7.6.12-.11v-.11a1.51,1.51,0,0,0-.11.22Zm2.91-7.23Z" transform="translate(0 -0.01)"/><ellipse class="cls-2" cx="326.03" cy="228.68" rx="50.5" ry="48.8"/><path class="cls-3" d="M326,278c-28.14,0-51-22.13-51-49.34s22.9-49.34,51-49.34,51,22.13,51,49.34S354.17,278,326,278Zm0-97.6c-27.55,0-50,21.65-50,48.26S298.48,277,326,277s50-21.65,50-48.26S353.58,180.43,326,180.43Z" transform="translate(0 -0.01)"/><ellipse class="cls-2" cx="147.46" cy="228.61" rx="51.47" ry="49.44"/><path class="cls-3" d="M147.46,278.6c-28.68,0-52-22.42-52-50s23.33-50,52-50,52,22.42,52,50S176.14,278.6,147.46,278.6Zm0-98.88c-28.08,0-50.93,21.94-50.93,48.9s22.85,48.9,50.93,48.9,50.93-21.94,50.93-48.9S175.54,179.72,147.46,179.72Z" transform="translate(0 -0.01)"/><path class="cls-2" d="M109.58,229.82c0,19.31,16.66,35,37.21,35a39.05,39.05,0,0,0,14.9-2.92" transform="translate(0 -0.01)"/><path class="cls-3" d="M146.89,265.28h-.1c-20.77,0-37.67-15.9-37.67-35.46H110c0,19,16.49,34.53,36.75,34.53h.1a38.37,38.37,0,0,0,14.62-2.88l.36.86A39.29,39.29,0,0,1,146.89,265.28Z" transform="translate(0 -0.01)"/><path class="cls-2" d="M356.64,249.36c11.75-15.33,8-37.89-8.28-50.39a38.92,38.92,0,0,0-13.61-6.74" transform="translate(0 -0.01)"/><path class="cls-3" d="M357,249.64l-.74-.56c11.56-15.08,7.88-37.4-8.19-49.74a38.44,38.44,0,0,0-13.45-6.66l.24-.9a39.32,39.32,0,0,1,13.77,6.82C365.13,211.26,368.88,234.15,357,249.64Z" transform="translate(0 -0.01)"/><rect class="cls-3" y="196.44" width="42.98" height="0.93"/><rect class="cls-3" x="28" y="189.44" width="42.98" height="0.93"/><path class="cls-7" d="M195.87,134.43l-.38-.19.62.3Z" transform="translate(0 -0.01)"/><path class="cls-8" d="M225,178.83a6.77,6.77,0,0,0,0-1c-.07-.73-.13-1.45-.23-2.17s-.24-1.54-.37-2.31c-.29-1.62-.63-3.23-1.06-4.81-.21-.76-.43-1.51-.65-2.27-.3-1-.64-1.91-1-2.86l.15.44a38.59,38.59,0,0,0-1.64-4c-.44-.92-.91-1.83-1.39-2.73a21.89,21.89,0,0,0-1.45-2.28c-.51-.74-.86-1.22-1.33-1.81-.2-.25-.4-.5-.61-.74-.44-.49-.87-1-1.35-1.49l-.13-.13c-.8-1.12-1.65-2.2-2.53-3.26a58.5,58.5,0,0,0-7.17-7.34l-1.83-1.51c-.63-.51-1.25-.94-1.89-1.4s-1.08-.71-1.61-1c-.27-.18-.54-.35-.82-.51-.84-.49-1.7-.95-2.58-1.39a10.41,10.41,0,0,0-1.63-.64,9.71,9.71,0,0,0-2.83-.43,9.39,9.39,0,0,0-2.74.32,10,10,0,0,0-1.89.71l-.19.09-1.56-.92a14.91,14.91,0,0,0-3.08-1.37,7.56,7.56,0,0,0-3.92-.14,6.41,6.41,0,0,0-4.33,3.54,6.25,6.25,0,0,0,0,5,8.51,8.51,0,0,0,1.71,2.45,11.11,11.11,0,0,0,1.26,1.11,20.7,20.7,0,0,0,2,1.36c1,.63,2.1,1.22,3.16,1.83,4.68,2.7,8.24,5.23,11.54,9.61.56.75,1.11,1.51,1.66,2.27,1,1.43,1.9,2.86,2.83,4.31,1.25,2,2.5,4,3.78,5.94.66,1,1.32,2,2,3.06.2.3.41.59.62.89l.18.63c.24.86.43,1.72.63,2.59.12.69.23,1.38.32,2.07,0,.42.1.84.13,1.26s0,.63.05.95v2.55c0,.85-.08,1.61-.14,2.42a68.55,68.55,0,0,1-1.28,7.67l-.06.25c-.21.91-.43,1.82-.64,2.73.06-.29.13-.58.2-.87-.12.5-.25,1-.34,1.52a9.51,9.51,0,0,0-.16,2.5c-.1.24-.19.49-.27.74a7,7,0,0,0,1.8,7.15,7.69,7.69,0,0,0,5.13,2.12h.16a7.69,7.69,0,0,0,3.75-.95,10.5,10.5,0,0,0,2.34-1.8A15.8,15.8,0,0,0,217,205.3l.4-.53c.38-.51.74-1,1.09-1.55s.81-1.31,1.17-2c.27-.45.52-.92.77-1.38.33-.62.65-1.24.94-1.88a51.79,51.79,0,0,0,1.88-5c.2-.61.36-1.24.51-1.86.26-1.07.49-2.13.71-3.2.12-.61.21-1.23.27-1.84.11-1.07.23-2.13.28-3.19v-2.28A11.55,11.55,0,0,0,225,178.83Z" transform="translate(0 -0.01)"/><path class="cls-6" d="M256,34.37a8.33,8.33,0,0,0-3.07-4.26,6,6,0,0,0-.68-.43,9.91,9.91,0,0,0-3-1,9.11,9.11,0,0,0-1.65-.14,6,6,0,0,0-.85,0,5.19,5.19,0,0,0-.79.12,8.15,8.15,0,0,0-5.33,4.13c-2.18,3.45-2,8.28,2.09,10.43.24.13.48.25.73.36s.5.2.75.29a12.27,12.27,0,0,0,1.57.46c4.76,1.14,8.3-1.82,9.85-5.77a13.11,13.11,0,0,0,.48-1.46A5,5,0,0,0,256,34.37Zm-.73,2.37a5.39,5.39,0,0,1-.22.88c-.1.26-.21.52-.32.78-.21.47-.43.94-.68,1.4-.18.29-.38.57-.59.85a10.05,10.05,0,0,1-.82.91A7.39,7.39,0,0,1,251,42.79a7.73,7.73,0,0,1-6.61.13c-.33-.14-.67-.29-1-.45s-.59-.36-.87-.56a7.64,7.64,0,0,1-.62-.51,5.33,5.33,0,0,1-.4-.42,4.84,4.84,0,0,1-.33-.46,3.72,3.72,0,0,1-.27-.48c-.09-.22-.17-.45-.25-.68-.11-.41-.19-.82-.26-1.24a7.48,7.48,0,0,1-.09-.95c0-.32,0-.59,0-.88a5.12,5.12,0,0,1,.19-1c.69-2.88,3.25-5.71,6.36-5.92a8.5,8.5,0,0,1,3.13.38,8.88,8.88,0,0,1,3.56,2.13A6.32,6.32,0,0,1,255.26,36.74Z" transform="translate(0 -0.01)"/><path class="cls-4" d="M245.72,55.94a23.89,23.89,0,0,1-3.27-.26c-.51-.07-1-.16-1.53-.26s-1-.2-1.5-.32-1.1-.26-1.64-.43-1-.35-1.53-.56l-1.09-.47-.51-.24-.32-.17a.53.53,0,0,1-.3-.29.5.5,0,0,1,.14-.54.57.57,0,0,1,.59-.07h.06l.22.06c1.25.32,2.39,1.11,3.63,1.52a20.38,20.38,0,0,0,4.44.92A20,20,0,0,0,252,53.64a11.13,11.13,0,0,0,3.09-1.71,15.25,15.25,0,0,0,4.38-7.35.52.52,0,0,1,.1-.23c.16-.17.46-.05.56.16a1,1,0,0,1,0,.67,15,15,0,0,1-3.54,6.48A13.22,13.22,0,0,1,255,53.09l-.11.08.08-.06a13.08,13.08,0,0,1-1.27.82,14.55,14.55,0,0,1-1.43.7,15.93,15.93,0,0,1-3.09,1,14.53,14.53,0,0,1-1.61.24,16,16,0,0,1-1.7.08Z" transform="translate(0 -0.01)"/><path class="cls-4" d="M261.15,37.63a.41.41,0,0,1,0-.36,3.49,3.49,0,0,1,.15-.34v0l.48-1a41.25,41.25,0,0,0,2.2-5.27c.4-1.14.67-2.3,1.15-3.4a.19.19,0,0,1,.11-.15c.06,0,.25.15.27.32a9.37,9.37,0,0,1-1,4.69c-.37.91-.72,1.82-1.1,2.71a13.16,13.16,0,0,1-1.5,2.54,1,1,0,0,1-.28.27.53.53,0,0,1-.18,0A.28.28,0,0,1,261.15,37.63Z" transform="translate(0 -0.01)"/><path class="cls-4" d="M232,66.73h0a.58.58,0,0,1-.16-.19,1,1,0,0,1-.12-.32,1,1,0,0,1,0-.42,1.89,1.89,0,0,1,.1-.41l.27-.74c.16-.46.35-.9.54-1.35s.43-1,.65-1.5.39-.85.58-1.27.38-.84.58-1.25a19.55,19.55,0,0,1,2.67-4.68,1.86,1.86,0,0,1,.66-.55.78.78,0,0,1,.84.08c.12.11-2.94,5-3.21,5.61v-.06c-.4.91-.79,1.83-1.18,2.75s-.78,1.87-1.13,2.82a1.05,1.05,0,0,1-.11.31,2.7,2.7,0,0,1-.14.4,1.39,1.39,0,0,1-.51.64.94.94,0,0,1-.22.12Z" transform="translate(0 -0.01)"/><path class="cls-6" d="M262.44,47.21a1,1,0,0,1-1-.94,2.9,2.9,0,0,0,3.12-.56c2.73-2.23,4-8,1.6-10.82-1.4-1.62-3.9-.78-5.2.51-.19.19-.37.38-.55.58l-.54.61a3.47,3.47,0,0,1-.45.41,1.08,1.08,0,0,1-.49.21,1.23,1.23,0,0,1-.54,0l-.36-.12-.35-.09h-.07c-.24-.06-.47-.11-.71-.15H256a.47.47,0,0,1-.29-.14.27.27,0,0,1-.11-.37l0,0a.52.52,0,0,1,.28-.22,3.45,3.45,0,0,1,.42-.14,3.29,3.29,0,0,1,2,.3.63.63,0,0,0,.38.06.58.58,0,0,0,.27-.19,13.08,13.08,0,0,1,3.2-2.54,5.15,5.15,0,0,1,2.09-.36,3.27,3.27,0,0,1,2.63,1.24,5.19,5.19,0,0,1,1.33,2.75,8.4,8.4,0,0,1-.06,3,13.87,13.87,0,0,1-.65,2.78,8.17,8.17,0,0,1-1.22,2.1C265.39,46.3,264.09,47.41,262.44,47.21Z" transform="translate(0 -0.01)"/><circle class="cls-2" cx="325.58" cy="229.18" r="8.74"/><path class="cls-3" d="M325.58,238.39a9.2,9.2,0,1,1,9.21-9.2A9.2,9.2,0,0,1,325.58,238.39Zm0-17.47a8.28,8.28,0,1,0,8.28,8.27A8.29,8.29,0,0,0,325.58,220.92Z" transform="translate(0 -0.01)"/><circle class="cls-2" cx="149.58" cy="224.18" r="8.74"/><path class="cls-3" d="M149.58,233.39a9.2,9.2,0,1,1,9.2-9.2A9.2,9.2,0,0,1,149.58,233.39Zm0-17.47a8.28,8.28,0,1,0,8.27,8.27A8.29,8.29,0,0,0,149.58,215.92Z" transform="translate(0 -0.01)"/><path class="cls-5" d="M269.33,229.3a37.69,37.69,0,0,1,.6-8.48,59,59,0,0,1,9.37-24.33A40.81,40.81,0,0,1,290.17,185a75.55,75.55,0,0,1,20-9.9,60.43,60.43,0,0,1,13.72-2.58c2-.11,12.32-.75,11.34,2.51-.54,1.78-3.23,2.66-4.86,2.46-.75-.09-1.5-.15-2.26-.21-.93,0-1.87-.09-2.81-.08s-2,0-2.95.08-1.91.16-2.87.27-1.94.29-2.91.47-1.84.41-2.75.66A68.77,68.77,0,0,0,292.39,189a44.59,44.59,0,0,0-15.17,18.67,48.94,48.94,0,0,0-3.54,25.13,2.1,2.1,0,0,1-.08,1.24c-.52,1-2.13.49-2.84-.41A8.14,8.14,0,0,1,269.33,229.3Z" transform="translate(0 -0.01)"/><path class="cls-5" d="M147.64,175.55c10.89-.64,23.46,3.81,32.4,9.89s14.53,15.77,18.62,25.53c.59,1.4,2,3.7,3.66,2.63,1.3-.81,1.14-3.36.86-4.6-.73-3.34-2.57-6.33-4.47-9.18a88.28,88.28,0,0,0-16.39-19,52.84,52.84,0,0,0-12.68-7.9c-4.37-1.92-8.33-2.47-13-3a68.29,68.29,0,0,0-20.33.76c-13.14,2.5-24.13,10.27-33.63,19.45a48.21,48.21,0,0,0-9.17,11.34,3.68,3.68,0,0,0-.62,2.71c1,3.36,5.17-1,6-2,6-7.44,12.71-14.49,20.88-19.5C128.47,177.36,137.7,176.14,147.64,175.55Z" transform="translate(0 -0.01)"/><path class="cls-5" d="M192.22,180.1l4.05,7.47c1.82,3.38,3.6,6.77,5.41,10.15,1.37,2.55,2.39,5.2,4,7.71a4.61,4.61,0,0,0,1.24,1.47c3.3,2.21,2.87-1.64,1.84-3.67q-6.7-13.17-13.39-26.35l-6.73-13.17c-.93-1.83-1.74-4.58-3.07-6.13s-2.83-1.39-4.72-1.4c-.33,0-.76.07-.85.39a.84.84,0,0,0,.17.59c3.46,5.77,6.23,12,9.38,18,.48.9,1,1.81,1.45,2.7S191.81,179.3,192.22,180.1Z" transform="translate(0 -0.01)"/><path class="cls-5" d="M211.21,203.64a74.86,74.86,0,0,0-14,1.57l-1.53.31c-5.24,1.07-10.47,2.32-15.66,3.62s-10.12,2.56-15.13,4c-3.65,1-7.11,2.33-10.74,3.27-3.19.82-6.5,2.31-7.67,5.48-1.27,3.44,1.29,7.39,4.82,8.44,5.41,1.59,10.47,1.29,16.06,1.56,5.29.25,10.58.64,15.86,1.12s10.65,1,16,1.53c10.39,1,29,4.61,32.93-8.57a16.49,16.49,0,0,0,.63-3.11C233.83,211.83,222.64,203.53,211.21,203.64Z" transform="translate(0 -0.01)"/><path class="cls-5" d="M196.78,216Z" transform="translate(0 -0.01)"/><path class="cls-5" d="M307.25,211.65q-3.6-5.46-7-11.08a356.51,356.51,0,0,1-27.53-56.27c-.17-.44-.34-.88-.52-1.31l-.51.92c-.56,1-1.14,2-1.73,3-1.26,2.05-2.56,4-3.89,6s-2.84,4.14-4.29,6.16c-8,11-16.25,22.6-28,29.85-7.86,4.83-19.09,5.39-27.91,3.44-1.61-.36-12.1-3.44-6.74-6.16,1.5-.76,4.94.32,6.56.53,2.44.32,4.88.67,7.33.89,4.78.44,9.69.42,14.27-1.18,5.83-2,10.51-6.39,14.88-10.75a129.27,129.27,0,0,0,10-10.93c3-3.84,5.23-8.12,8-12.08l1.22-1.75a134.08,134.08,0,0,0,7.43-11.83c.26-.48.51-1,.78-1.43a3.21,3.21,0,0,1,.19-.31,4.1,4.1,0,0,1,.65-.84,2.87,2.87,0,0,1,.44-.34,3.73,3.73,0,0,1,.64-.3,2.12,2.12,0,0,1,.71-.06,2.4,2.4,0,0,1,1,.32,6.18,6.18,0,0,1,2.22,2.87c.3.6.56,1.22.82,1.86,1.86,4.68,3.3,9.51,5.21,14.2q3,7.26,6.29,14.39,6.63,14.23,14.62,27.79,5.13,8.72,10.79,17.1a60.29,60.29,0,0,0,6.81,8.47c1,1.05,2.64,3.16,4,3.67s3-.45,3.71,1.47a2.35,2.35,0,0,1-.81,2.66c-3.61,2.56-8.25-2.91-10.07-5.36Q311.81,218.59,307.25,211.65Z" transform="translate(0 -0.01)"/><path class="cls-5" d="M322.32,128.38l.13-.09Z" transform="translate(0 -0.01)"/><path class="cls-5" d="M229.64,221.3a1.24,1.24,0,0,1-.54-.32,1.66,1.66,0,0,1-.3-.49,4,4,0,0,1-.3-1.27,7.23,7.23,0,0,1,.1-1.8,5.66,5.66,0,0,1,.65-1.73c.63-1.17,1.25-2.36,1.92-3.49s1.39-2.23,2.1-3.33c1.47-2.27,3-4.51,4.48-6.75l4.63-6.92c1.52-2.26,3-4.53,4.56-6.81s3-4.51,4.47-6.77l4.52-6.94q2.26-3.48,4.51-7l4.52-6.94c1.55-2.38,3.1-4.78,4.63-7.2s2.87-4.61,4.24-7l.35-.6a3.4,3.4,0,0,1,.57-.74,1.88,1.88,0,0,1,1.07-.51A1.79,1.79,0,0,1,277,145a3.17,3.17,0,0,1,1.28,2,4.9,4.9,0,0,1,.08.94,5.81,5.81,0,0,1,0,.59,3,3,0,0,1-.83,1.84,3,3,0,0,1-.35.27l-.35.61L275.74,153c-.7,1.16-1.4,2.3-2.12,3.44q-2.24,3.54-4.5,7l-4.49,6.89-4.5,6.94q-2.28,3.51-4.57,7L251,191.23c-1.53,2.3-3.07,4.59-4.6,6.88l-4.55,6.78-4.52,6.79c-.73,1.12-1.45,2.25-2.17,3.4s-1.32,2.25-1.94,3.42c-.16.29-.31.58-.47.86a4,4,0,0,1-1.09,1.27,2.5,2.5,0,0,1-1,.51l-.35.06A1.5,1.5,0,0,1,229.64,221.3Z" transform="translate(0 -0.01)"/><path class="cls-3" d="M174.64,156.89h-.51c-.11-1.51-.12-3.36.66-4.06a1.56,1.56,0,0,1,.82-.33c2.45-.39,4.77.84,7.24.8h.93c.85,0,5.71-1.52,4.18,2.25-.64,1.57-3,1.55-4,1.7s-1.88.2-2.83.26h-1.49C178,157.42,176.29,157.07,174.64,156.89Z" transform="translate(0 -0.01)"/><path class="cls-3" d="M188,151.55l-.56-.05c-1.68-.15-3.35-.26-5-.36-.93,0-1.87-.08-2.81-.12-1.72,0-3.45-.06-5.17-.06H167a18.64,18.64,0,0,1-2.67-.13,2,2,0,0,1-.67-.18,25.67,25.67,0,0,1-3.27-.43c-.42-.08-.83-.18-1.24-.3a10.47,10.47,0,0,1-1.32-.49,4.48,4.48,0,0,1-.6-.35,3,3,0,0,1-1.05-1.06,2.52,2.52,0,0,1-.32-1.54,2,2,0,0,1,.18-.68,2.7,2.7,0,0,1,.36-.64,2.49,2.49,0,0,1,1-.73,6.72,6.72,0,0,1,1-.28h.11c.83-.18,1.67-.33,2.5-.48l2.43-.42c1-.16,2-.3,3-.39h.36c.82-.08,1.63-.11,2.45-.12s1.76,0,2.64.07a11.63,11.63,0,0,1,2.55.43c.2.06.41.12.61.2s.45.19.67.3a6.46,6.46,0,0,1,1.1.67c.27.18.52.39.77.59l.74.59.77.59.8.53c.43.24.86.47,1.31.68.74.31,1.51.57,2.26.84l1.14.43c.36.16.73.32,1.1.46.76.3,1.55.5,2.31.77a6.07,6.07,0,0,1,.59.24,2.44,2.44,0,0,1,.43.28.75.75,0,0,1,.24.41.72.72,0,0,1-.15.55.93.93,0,0,1-.8.31Zm-21.45-7.4h0Z" transform="translate(0 -0.01)"/><path class="cls-6" d="M280,117.13c.05-.86-.31-1.6-1.73-2.08-3.08-1-5.71,3.66-8.89,2.3-.93-.39-1.48-1.28-2.85-.89a5.33,5.33,0,0,0-1.22.54l-.64.37a2.08,2.08,0,0,0-.34.24c-.69.25-1.38.51-2.07.7l-2.67.72-1.29.35c-.39.1-.79.19-1.18.33a1.85,1.85,0,0,0-.45.21.87.87,0,0,0-.45-.06c-.63.1-1.07.93-1.36,1.73a16.29,16.29,0,0,0-.75,3.23,14.84,14.84,0,0,0-.16,2A7.3,7.3,0,0,0,254,128a4,4,0,0,0,.21.83,3.6,3.6,0,0,0,.29.55,2.61,2.61,0,0,0,.27.31.9.9,0,0,0,.78.23,3.66,3.66,0,0,0,.79-.2h.26a1.59,1.59,0,0,0,.57-.14,6.1,6.1,0,0,0,.87-.47l1.6-1h0l2.68-1.37,2.65-1.31,2.53-1.29.62-.3.42-.23a2,2,0,0,0,.46-.41,3.42,3.42,0,0,0,.45-.73c.29-.7,3.24-2.23,4-2,1.71.59.58,2.67,2,3.7.29.22.67.33.88.63.33.48,0,1.13-.36,1.59-1.19,1.52-2.81,2.58-4.08,4-1.76,2-1.64,2.8-2.19,4.93-.11.42-.58.61-.9.9-1,.91-.53,2.59.06,3.84a1.8,1.8,0,0,0,.82,1,1.66,1.66,0,0,0,.7.07,6.72,6.72,0,0,0,4.36-1.54,3.32,3.32,0,0,0,.61-4.26,1.21,1.21,0,0,1-1.52-.78.94.94,0,0,1,0-.16c-.22-1.73,2.63-3.78,3.78-4.6a12.51,12.51,0,0,0,2.65-2.22,3.44,3.44,0,0,0,.72-3.24,8.29,8.29,0,0,0-1.54-2C278.27,120.78,279.88,118.74,280,117.13Z" transform="translate(0 -0.01)"/><polygon class="cls-6" points="294.79 112.9 294.8 112.9 294.8 112.9 294.79 112.9"/><polygon class="cls-6" points="294.83 112.9 294.83 112.9 294.83 112.9 294.83 112.9"/><rect class="cls-3" x="239.42" y="227.93" width="3.37" height="23.02" rx="0.89" transform="matrix(0.15, -0.99, 0.99, 0.15, -31.49, 442.3)"/><path class="cls-2" d="M309,130.73c.07-.09.12-.18.18-.27l.19-.12h.1l.14-.06.21-.08.23-.07.32-.08.81-.19c.79-.16,1.61-.27,2.39-.47l.36-.11H314l.59-.17h0l-.06.07a9.39,9.39,0,0,1-1.77,1.56,8.3,8.3,0,0,1-2.42.8,6.22,6.22,0,0,1-2.15.16A6.31,6.31,0,0,0,309,130.73Z" transform="translate(0 -0.01)"/><path class="cls-2" d="M301.22,133.63a2.85,2.85,0,0,0,.91-1.59,7.06,7.06,0,0,0,1.17-.41c.33-.15.64-.33,1-.46s.8-.25,1.19-.4.64-.29,1-.44a1.4,1.4,0,0,1,.66-.19,9.64,9.64,0,0,1-1.34,1.37c-.27.23-.5.48-.79.7a5.1,5.1,0,0,1-.89.48,21.15,21.15,0,0,1-2,.91,7,7,0,0,1-1.34.44h0Z" transform="translate(0 -0.01)"/><path class="cls-2" d="M296.29,133.79a3.68,3.68,0,0,0,.85-1.21l.29-.06c.33-.08.67-.13,1-.19s.79-.15,1.17-.19a1.29,1.29,0,0,0,.16.17.91.91,0,0,0,.22.11,3.39,3.39,0,0,1-.33.42,2.39,2.39,0,0,1-.74.6l-1.49.7a8.74,8.74,0,0,1-2.14.61A5.11,5.11,0,0,0,296.29,133.79Z" transform="translate(0 -0.01)"/><path class="cls-2" d="M291.12,133.09c.61-.12,1.22-.24,1.82-.38l.49-.11.46-.08h.34a2.33,2.33,0,0,1,.46.08l-.23.29a5,5,0,0,1-1.33,1.13,4.17,4.17,0,0,1-1.75.58,8.68,8.68,0,0,0-1,.27l-.17.09A2.13,2.13,0,0,0,291.12,133.09Z" transform="translate(0 -0.01)"/><path class="cls-2" d="M287.58,133.61a1.75,1.75,0,0,0,.82.09h.4a2.18,2.18,0,0,1-.43.48,3.19,3.19,0,0,1-1.23.44,8.76,8.76,0,0,1-2.89,0c-.36,0-.73-.09-1.09-.1a4.86,4.86,0,0,1,1.14-.57A9.84,9.84,0,0,1,287.58,133.61Z" transform="translate(0 -0.01)"/><path class="cls-2" d="M277.64,135.83a.44.44,0,0,0-.23-.27h0a1.12,1.12,0,0,0-.2-.18h0a.91.91,0,0,1-.11-.16h0c0-.09-.07-.18-.1-.27h0v-.07h0a.09.09,0,0,0,0-.07h0l.14-.21a1.84,1.84,0,0,0,.17-.38c1.74-.08,3.17-1.21,4.91-1.35a9.87,9.87,0,0,1,1.33.06h.07a7,7,0,0,0-1.73.87C280.64,134.37,279.19,136.06,277.64,135.83Z" transform="translate(0 -0.01)"/><path class="cls-2" d="M321.3,128.3a.75.75,0,0,1-.16.15c-.19.16-.41.31-.62.46s-.35.29-.55.42h-.05l-.15.07-.24.1a3.6,3.6,0,0,0-.62.39,1,1,0,0,1-.34.22c-.26.07-.54.06-.79.12a5.86,5.86,0,0,0-1,.33A3.93,3.93,0,0,1,315,131h-.06c.34-.27.66-.56,1-.84a3.69,3.69,0,0,0,1.22-1.41,5.77,5.77,0,0,0,1.61-.54c.5-.23,1-.44,1.53-.62a4.64,4.64,0,0,1,.64-.17h.1a.61.61,0,0,1,.16.28v.56Z" transform="translate(0 -0.01)"/><path class="cls-2" d="M319.4,134c-.08,1.42-.25,2.84-.33,4.26-.13,2.58-.61,5.13-.84,7.71a53.27,53.27,0,0,1-1.64,8.21c-.19.77-.39,1.55-.61,2.32a4.93,4.93,0,0,0-1.25.34c-.51.2-1.08.27-1.61.43l-1.75.51a18.8,18.8,0,0,1-1.79.6.38.38,0,0,0-.24.13,17.41,17.41,0,0,0-2.39.22c-.82.12-1.56.49-2.37.59a.35.35,0,0,0-.32.22,9.58,9.58,0,0,0-2.62,0,13,13,0,0,0-1.53.31,4,4,0,0,0-.69.23,4.14,4.14,0,0,1-.72.38.34.34,0,0,0-.24.16,13.83,13.83,0,0,0-1.58-.13,14.5,14.5,0,0,0-2.46.21,8,8,0,0,0-1.69.27,7.44,7.44,0,0,0-1.54-.34,11.19,11.19,0,0,0-3,.22l-.73.13a39.07,39.07,0,0,1-2.65-6.78c-.88-2.87-1.84-5.7-2.9-8.52-.56-1.51-1-3-1.6-4.54a23.55,23.55,0,0,1-1.66-4.14,6,6,0,0,0,2.93-1.38.89.89,0,0,0,.23,0c.28,0,.57-.08.85-.06a8.19,8.19,0,0,1,1.09.25,13.13,13.13,0,0,0,2.15.32,8.24,8.24,0,0,0,2.47-.25.73.73,0,0,0,.43.38,3.09,3.09,0,0,0,1.33.34,6.22,6.22,0,0,0,1.47-.37c.68-.18,1.3-.26,1.92-.47a5.42,5.42,0,0,0,1.27.12,10.5,10.5,0,0,0,3-.47c.6-.19,1.18-.46,1.76-.69.45.54,1.76.42,2.39.28a15.06,15.06,0,0,0,2.85-1c.37-.17.76-.31,1.11-.5a7.36,7.36,0,0,0,1.18-.9l.18-.16a6.23,6.23,0,0,0,2.94.18,12.29,12.29,0,0,0,3-.6,5.14,5.14,0,0,0,1.11-.59.37.37,0,0,0,.23.28,4.07,4.07,0,0,0,2,.06c.62-.1,1.21-.31,1.84-.36a3.38,3.38,0,0,0,1-.17V132C319.44,132.65,319.44,133.3,319.4,134Z" transform="translate(0 -0.01)"/><path class="cls-9" d="M286.62,161.38Z" transform="translate(0 -0.01)"/><path class="cls-9" d="M303.64,159.8Z" transform="translate(0 -0.01)"/><path class="cls-9" d="M304.49,159.65h0Z" transform="translate(0 -0.01)"/><path class="cls-9" d="M304.43,159.66Z" transform="translate(0 -0.01)"/><path class="cls-9" d="M309.5,130.3Z" transform="translate(0 -0.01)"/><path class="cls-9" d="M276.87,134.68Z" transform="translate(0 -0.01)"/><polygon class="cls-9" points="277.4 135.54 277.4 135.54 277.4 135.54 277.4 135.54"/><path class="cls-9" d="M277.41,135.55Z" transform="translate(0 -0.01)"/><path class="cls-9" d="M277.33,135.48Z" transform="translate(0 -0.01)"/><path class="cls-9" d="M322.59,128c-.08-.27,0-.56-.13-.83-.27-.67-.2-1.09-.91-1.23a4.49,4.49,0,0,0-2.18.24c-.39.11-.79.23-1.18.38s-.7.32-1.07.46a5.75,5.75,0,0,1-1.54.24H315a9.3,9.3,0,0,0-1.57.32c-.86.24-1.76.35-2.65.51a11.93,11.93,0,0,0-2.27.55l-.3-.09a5.21,5.21,0,0,0-2.51.16c-.5.17-1,.42-1.46.59s-1,.28-1.55.49c-.25.1-.49.23-.74.34a2.73,2.73,0,0,1-.57.19,7,7,0,0,0-.89.27,6.12,6.12,0,0,0-1.6,0c-.45.05-.89.12-1.33.19a3.11,3.11,0,0,0-.68.11,2,2,0,0,1-.43.07,1.11,1.11,0,0,0-.51.1,6.19,6.19,0,0,0-2.14-.25,15.8,15.8,0,0,0-2.72.55c-1,.22-2,.38-3,.63a2.21,2.21,0,0,0-1-.61,6.85,6.85,0,0,0-1.75-.18h-2.84a8.14,8.14,0,0,0-3.21.81c-.45.2-.89.44-1.35.63s-1.1.29-1.6.54c-.19.1-.34.27-.26.47v.1l-.16.1a1.28,1.28,0,0,0-.66,1,1.92,1.92,0,0,0,.38,1,2.34,2.34,0,0,0,1.1.81,2.47,2.47,0,0,0,.6.13.33.33,0,0,0,0,.14,12.73,12.73,0,0,0,1.13,3.77c.55,1.51.94,3,1.43,4.57.92,2.86,2.41,5.78,3.24,8.66.4,1.4.81,2.8,1.31,4.17s1.35,2.79,1.93,4.21c.35.87.6,1.47,1.74,1.66a17.35,17.35,0,0,0,3.67.25,68.44,68.44,0,0,0,10-1.1c3.37-.56,6.73-1.19,10-2a22.82,22.82,0,0,1,2.62-.66,3.32,3.32,0,0,0,1.94-.7,3.6,3.6,0,0,0,.78-2.18c.18-.94.52-1.87.76-2.8.52-2,1-4,1.37-6,.48-2.48.77-5,1-7.52.19-2,.31-3.93.49-5.89a23.47,23.47,0,0,0,.13-5.68,5.16,5.16,0,0,0,1.39-1.1A.82.82,0,0,0,322.59,128ZM309,130.73c.07-.09.12-.18.18-.27l.19-.12h.1l.14-.06.21-.08.23-.07.32-.08.81-.19c.79-.16,1.61-.27,2.39-.47l.36-.11H314l.59-.17h0l-.06.07a9.39,9.39,0,0,1-1.77,1.56,8.3,8.3,0,0,1-2.42.8,6.22,6.22,0,0,1-2.15.16,6.31,6.31,0,0,0,.81-1Zm-7.81,2.9a2.85,2.85,0,0,0,.91-1.59,7.06,7.06,0,0,0,1.17-.41c.33-.15.64-.33,1-.46s.8-.25,1.19-.4.64-.29,1-.44a1.4,1.4,0,0,1,.66-.19,9.64,9.64,0,0,1-1.34,1.37c-.27.23-.5.48-.79.7a5.1,5.1,0,0,1-.89.48,21.15,21.15,0,0,1-2,.91,7,7,0,0,1-1.34.44h0Zm-4.93.16a3.68,3.68,0,0,0,.85-1.21l.29-.06c.33-.08.67-.13,1-.19s.79-.15,1.17-.19a1.29,1.29,0,0,0,.16.17.91.91,0,0,0,.22.11,3.39,3.39,0,0,1-.33.42,2.39,2.39,0,0,1-.74.6l-1.49.7a8.74,8.74,0,0,1-2.14.61A5.11,5.11,0,0,0,296.29,133.79Zm-5.17-.7c.61-.12,1.22-.24,1.82-.38l.49-.11.46-.08h.34a2.33,2.33,0,0,1,.46.08l-.23.29a5,5,0,0,1-1.33,1.13,4.17,4.17,0,0,1-1.75.58,8.68,8.68,0,0,0-1,.27l-.17.09a2.13,2.13,0,0,0,.91-1.87Zm-3.54.52a1.75,1.75,0,0,0,.82.09h.4a2.18,2.18,0,0,1-.43.48,3.19,3.19,0,0,1-1.23.44,8.76,8.76,0,0,1-2.89,0c-.36,0-.73-.09-1.09-.1a4.86,4.86,0,0,1,1.14-.57,9.84,9.84,0,0,1,3.28-.34Zm-9.94,2.22a.44.44,0,0,0-.23-.27h0a1.12,1.12,0,0,0-.2-.18h0a.91.91,0,0,1-.11-.16h0c0-.09-.07-.18-.1-.27h0v-.07h0a.09.09,0,0,0,0-.07h0l.14-.21a1.84,1.84,0,0,0,.17-.38c1.74-.08,3.17-1.21,4.91-1.35a9.87,9.87,0,0,1,1.33.06h.07a7,7,0,0,0-1.73.87C280.64,134.37,279.19,136.06,277.64,135.83Zm12.52,26.91a9.21,9.21,0,0,1-1.57-.18c-.43-.12-.58-.48-.73-.87a10.17,10.17,0,0,1,3.73-.09,4.9,4.9,0,0,1,.55.13.55.55,0,0,0,.27.25,7.84,7.84,0,0,0,2,.61h0a24.25,24.25,0,0,1-4.26.15Zm6.72-.42a.63.63,0,0,0-.28-.2,8.82,8.82,0,0,0-1.52-.44,11,11,0,0,1,2.07-.1,12.75,12.75,0,0,1,2.12.31l.19.06c-.82.13-1.73.26-2.59.35Zm6.82-1.06-1.5.25a.71.71,0,0,0-.31-.13,17.63,17.63,0,0,1-2.27-.6,6.48,6.48,0,0,1,.87-.21,11.32,11.32,0,0,1,1.74-.21,8.78,8.78,0,0,1,1.7.11c.57.11,1.11.31,1.66.46h0Zm5.1-1a1,1,0,0,0-1,0h-.24a4.46,4.46,0,0,1-.87-.17c-.29-.06-.61-.16-.92-.24.39-.07.77-.16,1.17-.22a14,14,0,0,1,2.5-.11,11,11,0,0,1,1.15.15,4.24,4.24,0,0,0,.72,0c-.83.23-1.67.43-2.52.63Zm6.07-1.46-.22.07a.5.5,0,0,0-.28-.12,9.58,9.58,0,0,0-1.31-.06c-.44,0-.85-.1-1.29-.13h-.07c.54-.12,1.08-.22,1.61-.37s1.07-.22,1.59-.35a6.75,6.75,0,0,0,.76-.25v.15c-.19.5-.26.89-.8,1.09Zm4.54-24.88c-.08,1.42-.25,2.84-.33,4.26-.13,2.58-.61,5.13-.84,7.71a53.27,53.27,0,0,1-1.64,8.21c-.19.77-.39,1.55-.61,2.32a4.93,4.93,0,0,0-1.25.34c-.51.2-1.08.27-1.61.43l-1.75.51a18.8,18.8,0,0,1-1.79.6.38.38,0,0,0-.24.13,17.41,17.41,0,0,0-2.39.22c-.82.12-1.56.49-2.37.59a.35.35,0,0,0-.32.22,9.58,9.58,0,0,0-2.62,0,13,13,0,0,0-1.53.31,4,4,0,0,0-.69.23,4.14,4.14,0,0,1-.72.38.34.34,0,0,0-.24.16,13.83,13.83,0,0,0-1.58-.13,14.5,14.5,0,0,0-2.46.21,8,8,0,0,0-1.69.27,7.44,7.44,0,0,0-1.54-.34,11.19,11.19,0,0,0-3,.22l-.73.13a39.07,39.07,0,0,1-2.65-6.78c-.88-2.87-1.84-5.7-2.9-8.52-.56-1.51-1-3-1.6-4.54a23.55,23.55,0,0,1-1.66-4.14,6,6,0,0,0,2.93-1.38.89.89,0,0,0,.23,0c.28,0,.57-.08.85-.06a8.19,8.19,0,0,1,1.09.25,13.13,13.13,0,0,0,2.15.32,8.24,8.24,0,0,0,2.47-.25.73.73,0,0,0,.43.38,3.09,3.09,0,0,0,1.33.34,6.22,6.22,0,0,0,1.47-.37c.68-.18,1.3-.26,1.92-.47a5.42,5.42,0,0,0,1.27.12,10.5,10.5,0,0,0,3-.47c.6-.19,1.18-.46,1.76-.69.45.54,1.76.42,2.39.28a15.06,15.06,0,0,0,2.85-1c.37-.17.76-.31,1.11-.5a7.36,7.36,0,0,0,1.18-.9l.18-.16a6.23,6.23,0,0,0,2.94.18,12.29,12.29,0,0,0,3-.6,5.14,5.14,0,0,0,1.11-.59.37.37,0,0,0,.23.28,4.07,4.07,0,0,0,2.05.06c.62-.1,1.21-.31,1.84-.36a3.38,3.38,0,0,0,1-.17v.76c0,.73,0,1.38,0,2Zm1.9-5.63a.75.75,0,0,1-.16.15c-.19.16-.41.31-.62.46s-.35.29-.55.42h-.05l-.15.07-.24.1a3.6,3.6,0,0,0-.62.39,1,1,0,0,1-.34.22c-.26.07-.54.06-.79.12a5.86,5.86,0,0,0-1,.33A3.93,3.93,0,0,1,315,131H315c.34-.27.66-.56,1-.84a3.69,3.69,0,0,0,1.22-1.41,5.77,5.77,0,0,0,1.61-.54c.5-.23,1-.44,1.53-.62a4.64,4.64,0,0,1,.64-.17h.1a.61.61,0,0,1,.16.28v.56Z" transform="translate(0 -0.01)"/><path class="cls-9" d="M295.51,158a4.31,4.31,0,0,1-1.13.13c-.57.07-1.12.19-1.7.22-1.29.07-2.59,0-3.88.11-.57.05-.57.62,0,.68a27.56,27.56,0,0,0,4.26.1,16.1,16.1,0,0,0,1.82-.21,1.85,1.85,0,0,0,1.34-.51C296.52,158.16,295.87,157.85,295.51,158Z" transform="translate(0 -0.01)"/><path class="cls-9" d="M298.3,156.23l-.33.07h-1a6.18,6.18,0,0,0-.77.13c-.55.07-1.1.13-1.64.21s-1,.3-1.58.41-.35.63.11.61.93-.16,1.41-.22,1-.08,1.52-.11.93-.16,1.4-.16a2.54,2.54,0,0,0,1.25-.2c.14-.08.32-.21.29-.37A.55.55,0,0,0,298.3,156.23Z" transform="translate(0 -0.01)"/><path class="cls-9" d="M304.88,156.45a11.47,11.47,0,0,0-2.47.33c-.4.1-.8.17-1.2.24a4.29,4.29,0,0,0-.6.13,3.83,3.83,0,0,1-.58.16.26.26,0,1,0,0,.51,4.82,4.82,0,0,0,1.2,0c.45,0,.9-.06,1.34-.12a14,14,0,0,1,2.33-.22c.32,0,.67-.2.67-.49S305.19,156.44,304.88,156.45Z" transform="translate(0 -0.01)"/><path class="cls-9" d="M302.8,154.3a1.21,1.21,0,0,0-.65-.07l-.5.08-1.12.11-1.11.12a5.54,5.54,0,0,0-1.22.11c-.2.06-.34.22-.26.4h0c0,.22.35.29.54.17s.62.05.94,0,.78,0,1.18-.06.75,0,1.12-.07a4.07,4.07,0,0,0,.61-.08l.36-.14a.29.29,0,0,0,.11-.57Z" transform="translate(0 -0.01)"/><path class="cls-9" d="M313.27,155.38c-.12-.34-.55-.42-.9-.38-.79.09-1.57.27-2.34.43-.38.08-.75.15-1.13.21a7.69,7.69,0,0,0-1.07.17h-.09c-.21,0-.46.13-.46.34s.25.34.46.34h.13a3.71,3.71,0,0,0,1.15.06,11.22,11.22,0,0,0,1.29-.11c.82-.09,1.65-.22,2.45-.39C313.09,156,313.39,155.7,313.27,155.38Z" transform="translate(0 -0.01)"/><path class="cls-9" d="M309,153.9a3.18,3.18,0,0,0-1.23,0l-.52.08h-.43l-1.06.07a10.67,10.67,0,0,0-1.12.13.32.32,0,0,0-.26.37.32.32,0,0,0,.26.26c.4.06.8.11,1.2.13h1.06a11.3,11.3,0,0,0,1.16-.08,2.06,2.06,0,0,0,1.17-.4C309.44,154.3,309.31,154,309,153.9Z" transform="translate(0 -0.01)"/><path class="cls-9" d="M292.1,151.89c-.26-.38-1-.31-1.47-.29s-1,.07-1.55.14a23.42,23.42,0,0,1-2.78.14c-.22,0-.48.13-.48.35s.26.35.48.36a21.32,21.32,0,0,0,2.88.08c.47,0,.93-.08,1.4-.09s1.26.07,1.52-.32A.32.32,0,0,0,292.1,151.89Z" transform="translate(0 -0.01)"/><path class="cls-9" d="M296.13,152.77a4.82,4.82,0,0,0-.76,0l-.66.13c-.4.07-.81.13-1.22.17-.84.1-1.7.16-2.54.23-.2,0-.42.1-.42.3s.22.3.42.31a20.29,20.29,0,0,0,2.7.06,7,7,0,0,0,2.76-.48C296.88,153.3,296.64,152.76,296.13,152.77Z" transform="translate(0 -0.01)"/><path class="cls-9" d="M299.34,150.63a7.59,7.59,0,0,0-1.43.1,7.42,7.42,0,0,0-1.23.17c-.83.15-1.67.32-2.52.4-.19,0-.41.1-.42.31s.23.29.42.31a10.29,10.29,0,0,0,1.36,0c.43,0,.86-.06,1.29-.1l1.29-.14a7.43,7.43,0,0,0,1.43-.09A.53.53,0,0,0,300,151C300,150.78,299.64,150.65,299.34,150.63Z" transform="translate(0 -0.01)"/><path class="cls-9" d="M295.24,149.09a20.41,20.41,0,0,0-2.45.37c-.85.1-1.71,0-2.56.12-.19,0-.4.11-.4.3s.22.29.4.3a19.08,19.08,0,0,0,2.62.12c.8,0,1.58-.27,2.39-.25.3,0,.65-.19.65-.48S295.54,149.09,295.24,149.09Z" transform="translate(0 -0.01)"/><path class="cls-9" d="M289.86,148.36a9.28,9.28,0,0,0-1.29-.05h-1.15a4.43,4.43,0,0,0-1.15.08,2.23,2.23,0,0,0-.51.19,2.34,2.34,0,0,0-.49.27c-.27.23,0,.6.32.57s.64-.18,1-.22h1a11.34,11.34,0,0,0,2.33,0,.44.44,0,0,0,.32-.52A.43.43,0,0,0,289.86,148.36Z" transform="translate(0 -0.01)"/><path class="cls-9" d="M298.24,147.44a3.92,3.92,0,0,0-1.67,0c-.54,0-1.08.05-1.61,0s-1,0-1.57,0a3.63,3.63,0,0,0-.81.16,2.5,2.5,0,0,0-.64.25h0a.24.24,0,0,0-.14.31.24.24,0,0,0,.06.09c.37.45,1,.2,1.5.14a10.56,10.56,0,0,1,1.59.05,10.82,10.82,0,0,0,1.61,0,4,4,0,0,0,.91-.07,1.56,1.56,0,0,0,.89-.27.41.41,0,0,0,0-.58Z" transform="translate(0 -0.01)"/><path class="cls-9" d="M293.64,145.76c-1,0-2,.13-3,.17l-1.5.07a4.69,4.69,0,0,0-1.58.18c-.31.14-.2.39,0,.5h0a4.69,4.69,0,0,0,1.58.18l1.5.07c1,0,2-.09,3-.14.33,0,.7-.19.7-.52S294,145.77,293.64,145.76Z" transform="translate(0 -0.01)"/><path class="cls-9" d="M310.14,148.72c-.12-.35-.65-.42-1-.29h-.45a4,4,0,0,0-.68.17,4.19,4.19,0,0,0-.61.11l-.65.14h-.32a3.43,3.43,0,0,0-.56.07,1,1,0,0,0-.84.51c-.07.16.09.31.25.36a.53.53,0,0,0,.52-.12c-.06.05,0,0,.05,0h.48a8.4,8.4,0,0,0,1-.07,3.5,3.5,0,0,0,1.19-.14h.81c.36.08.8-.08.83-.45A.57.57,0,0,0,310.14,148.72Z" transform="translate(0 -0.01)"/><path class="cls-9" d="M316.05,147.87a4,4,0,0,0-1.2,0,8.9,8.9,0,0,0-1,.19c-.3,0-.71,0-1.07,0a7.87,7.87,0,0,0-1.19.12.3.3,0,0,0-.24.35.3.3,0,0,0,.24.24,11.19,11.19,0,0,0,2.31.18,3.83,3.83,0,0,0,.58-.07l.28,0h1.32a.48.48,0,0,0,.46-.44A.65.65,0,0,0,316.05,147.87Z" transform="translate(0 -0.01)"/><path class="cls-9" d="M312.86,146.42a9,9,0,0,0-2.37.17,6.1,6.1,0,0,1-1.05.21,2.94,2.94,0,0,0-1.28.2.26.26,0,0,0-.08.36l.08.08a2.58,2.58,0,0,0,1.23.18,6.67,6.67,0,0,0,1.26-.15,4.81,4.81,0,0,1,1-.13h1.18c.29,0,.6-.15.64-.41S313.2,146.44,312.86,146.42Z" transform="translate(0 -0.01)"/><path class="cls-9" d="M308.64,145.09a2.75,2.75,0,0,0-.57-.05h-.41l-.92.07-1.83.17c-.21,0-.46.12-.46.34s.25.33.46.34a14,14,0,0,0,1.83,0,17.29,17.29,0,0,0,1.9-.11.41.41,0,0,0,.47-.34.42.42,0,0,0-.34-.47h-.13Z" transform="translate(0 -0.01)"/><path class="cls-9" d="M315,144.78a1.48,1.48,0,0,0-.62-.11,1.34,1.34,0,0,0-.44.1h-.28l-.6-.06a6.61,6.61,0,0,0-1.09,0,7.5,7.5,0,0,0-1.16.14c-.42.1-.42.54,0,.64a7.51,7.51,0,0,0,1.16.15h.9a9.48,9.48,0,0,0,1.07.14,1.67,1.67,0,0,0,.62-.12l.18-.07h.06a.57.57,0,0,0,.49-.32A.43.43,0,0,0,315,144.78Z" transform="translate(0 -0.01)"/><path class="cls-9" d="M312.64,143.3a.77.77,0,0,0-.85,0h-.58a8.27,8.27,0,0,0-1,.11l-.84.16c-.35.07-.7.12-1,.17h-.48c-.19-.17-.61-.13-.61.15s.13.29.29.38c-.12-.06.06,0,.09.06h.08a1.94,1.94,0,0,0,.33.07,5.94,5.94,0,0,0,1.46-.06l1-.14a9.19,9.19,0,0,1,1.05,0,1.69,1.69,0,0,0,1.11-.32.38.38,0,0,0,0-.54Z" transform="translate(0 -0.01)"/><path class="cls-9" d="M308.74,142.07a.81.81,0,0,0-.92-.38l-.53.08h-.41l-1.06,0-1,.08h-.62a.66.66,0,0,0-.49-.14c-.21,0-.48.16-.46.38v.13a.39.39,0,0,0,.27.35,4,4,0,0,0,1.14.2h1.08a11.62,11.62,0,0,0,2.43-.12C308.56,142.68,308.86,142.39,308.74,142.07Z" transform="translate(0 -0.01)"/><path class="cls-9" d="M314,141.22a5.42,5.42,0,0,0-1.13.08l-.49.06-.44,0-1.07.07h-.8a.3.3,0,0,0-.31.2.24.24,0,0,0,.15.22,3,3,0,0,0,2,.44c.71,0,1.42-.12,2.13-.12.33,0,.69-.2.69-.51S314.32,141.22,314,141.22Z" transform="translate(0 -0.01)"/><path class="cls-9" d="M302.47,142.3l-.05-.09a.29.29,0,0,0-.12-.1.79.79,0,0,0-.3-.08h-.73a.71.71,0,0,0-.31-.16,7.66,7.66,0,0,0-1.79,0h-.85l-.52,0a2,2,0,0,0-.48.09.32.32,0,0,0-.19.41.3.3,0,0,0,.19.19,2,2,0,0,0,.48.09l.46.05h2.33a.91.91,0,0,0,.7-.16H302a.61.61,0,0,0,.3-.08.42.42,0,0,0,.17-.18Z" transform="translate(0 -0.01)"/><path class="cls-9" d="M304.11,140.3h-1.29a7.2,7.2,0,0,0-1.22.19,11.76,11.76,0,0,1-1.18.11c-.2,0-.42.11-.42.31s.22.29.42.31a8.24,8.24,0,0,0,1.22.08c.39,0,.76-.11,1.15-.11h1.29c.43,0,1.33.09,1.33-.48S304.53,140.3,304.11,140.3Z" transform="translate(0 -0.01)"/><path class="cls-9" d="M311.76,140a1.38,1.38,0,0,0-.63-.17h-1.49c-.34,0-.67.05-1,.07l-.44.05a.75.75,0,0,0-.26-.05h-1.56a.47.47,0,0,0-.27.14.39.39,0,0,0-.11.22.44.44,0,0,0,.07.19.61.61,0,0,0,.31.18h1.56a.57.57,0,0,0,.26,0h.44l1,.08h1.52a1.39,1.39,0,0,0,.63-.18.35.35,0,0,0,0-.49S311.77,140,311.76,140Z" transform="translate(0 -0.01)"/><path class="cls-9" d="M308.1,138.3a5.72,5.72,0,0,0-1.24.1,7.57,7.57,0,0,1-1.26,0,11.13,11.13,0,0,0-1.26.23l-.65.07a5.77,5.77,0,0,0-.59.09c-.47,0-.47.52,0,.54.14,0,.38.06.59.09a4.85,4.85,0,0,0,.76.05c.41,0,.83-.08,1.24-.09h.65a4.45,4.45,0,0,0,.73,0c.4,0,.79-.14,1.2-.19a.5.5,0,0,0,.46-.52A.61.61,0,0,0,308.1,138.3Z" transform="translate(0 -0.01)"/><path class="cls-9" d="M315.5,135.46a3.12,3.12,0,0,0-1.32-.13,6.64,6.64,0,0,0-1.09.06c-.29.05-.57.13-.86.19a2.4,2.4,0,0,1-.46,0,.45.45,0,0,0-.52,0h-.05a.34.34,0,0,0-.25.18.3.3,0,0,0,.2.36,3.76,3.76,0,0,0,2.05.05h.94a3.29,3.29,0,0,0,1.36-.13.32.32,0,0,0,.35-.32.35.35,0,0,0-.35-.34Z" transform="translate(0 -0.01)"/><path class="cls-9" d="M317.75,133.76H317l-.86.08h-.66a6.36,6.36,0,0,0-.76.14.36.36,0,0,0-.35.34c0,.18.17.3.35.34a5.29,5.29,0,0,0,.79.08h2.16c.27,0,.63-.16.61-.45A.58.58,0,0,0,317.75,133.76Z" transform="translate(0 -0.01)"/><path class="cls-9" d="M289.34,142.81a15.18,15.18,0,0,1-2.86,0,4.17,4.17,0,0,0-1.17-.07c-.41.06-.8.32-.56.7a.42.42,0,0,0,.51.08h.39c.26,0,.51.12.77.18a12.43,12.43,0,0,0,2.92.12c.31,0,.66-.19.66-.49S289.64,142.81,289.34,142.81Z" transform="translate(0 -0.01)"/><path class="cls-9" d="M284.52,140.79c-.3,0-.61,0-.91.08l-.36,0h-.93a3.78,3.78,0,0,0-.95,0,.28.28,0,1,0,0,.56c.27.05.52.12.78.18a3.72,3.72,0,0,0,.81.09c.52,0,1-.09,1.56-.08.28,0,.65-.18.64-.47A.61.61,0,0,0,284.52,140.79Z" transform="translate(0 -0.01)"/><path class="cls-9" d="M293.11,140.9a2.88,2.88,0,0,0-.83-.06h-2a26.54,26.54,0,0,0-2.82.2.39.39,0,1,0,0,.78c.94.1,1.87.19,2.82.2h2a2.88,2.88,0,0,0,.83-.06c.27-.08.54-.24.54-.52S293.38,141,293.11,140.9Z" transform="translate(0 -0.01)"/><path class="cls-9" d="M288.21,138.9a3.6,3.6,0,0,0-1.18-.05,8.84,8.84,0,0,0-1,.13,4.41,4.41,0,0,1-.89,0,2,2,0,0,0-1.1.14l.21-.09h-.2a.31.31,0,0,0-.31.34.41.41,0,0,0,.42.28h.11a2.32,2.32,0,0,0,.38.07l.48.07a5.57,5.57,0,0,0,1,0c.69-.06,1.37-.18,2.05-.29C288.64,139.49,288.64,139,288.21,138.9Z" transform="translate(0 -0.01)"/><path class="cls-9" d="M295.88,139.3a3.71,3.71,0,0,0-1.48-.15h-1.3a16.18,16.18,0,0,1-2.41.07c-.18,0-.39,0-.45.19s.09.29.25.33.31.14.48.19a2.4,2.4,0,0,0,.7.13c.44,0,.89.05,1.33.06h1.4a3.71,3.71,0,0,0,1.48-.15.38.38,0,0,0,.16-.51A.41.41,0,0,0,295.88,139.3Z" transform="translate(0 -0.01)"/><path class="cls-9" d="M292,137.5a15,15,0,0,0-2.68,0c-.4,0-.79.17-1.19.21s-.75-.07-1.13-.05c-.18,0-.37.08-.4.25a.32.32,0,0,0,.29.33,2,2,0,0,1,.53.14,2,2,0,0,0,.69.15,6.51,6.51,0,0,0,1.25-.07c.87-.08,1.76,0,2.64,0,.3,0,.65-.18.65-.48S292.32,137.51,292,137.5Z" transform="translate(0 -0.01)"/><path class="cls-9" d="M304.64,137.17a7.19,7.19,0,0,0-1.1-.39,2,2,0,0,0-.77,0,1.62,1.62,0,0,0-.41.13h-2.44a.61.61,0,0,0-.56.17.3.3,0,0,0,.05.42l0,0,.23.14-.15-.19c.24.44.89.51,1.39.53s.88,0,1.32,0a2.61,2.61,0,0,0,.88-.13l.15-.05h.32l.34.05a1.4,1.4,0,0,0,.78-.15C304.9,137.69,305,137.3,304.64,137.17Z" transform="translate(0 -0.01)"/><path class="cls-10" d="M311.92,123.87h-.31a6.61,6.61,0,0,0-3.17,1.17l.38-3a6.93,6.93,0,0,0-3.49.75,14,14,0,0,0,.2-7.66,12.9,12.9,0,0,0-5.22,5.81l-.44-4.15a7.73,7.73,0,0,0-4,3.76,12.26,12.26,0,0,0-1.11-3.54,9.09,9.09,0,0,0-2.86,4,5.5,5.5,0,0,0-4.25-4.47l.08,5c-.49-.54-1.53-1-1.79-.33a1.09,1.09,0,0,0,0,.62l.57,2.3a6,6,0,0,0-3.72-2.05,8.59,8.59,0,0,0,2,4.76c-.69-.39-2.18-1-3-.58-1.16.53-.32.36-.7,1.39a2.84,2.84,0,0,0-.15,1.23,1.13,1.13,0,0,0-.51,1.52,1.15,1.15,0,0,0,.62.55,8.38,8.38,0,0,0,2.47.52,10,10,0,0,1,1.34,0c.29.07.55.3.85.37.75.17,1.51,0,2.26.17a9.29,9.29,0,0,0,2.47,0A45.47,45.47,0,0,0,295.5,131a5.61,5.61,0,0,0,3.39.18,27.11,27.11,0,0,0,4.8-1,10.05,10.05,0,0,0,1.66-.78,1.76,1.76,0,0,0,1.4.35c1.72-.29,7.2-1.69,7.22-3.91A2.16,2.16,0,0,0,311.92,123.87Z" transform="translate(0 -0.01)"/><path class="cls-11" d="M284.45,115.86a1.24,1.24,0,0,1,0-.85.92.92,0,0,1,1.12-.32,2.83,2.83,0,0,1,1,.78c-.13-.57.55-1.07,1.13-1a2.13,2.13,0,0,1,1.35,1.07,4,4,0,0,1,1.16-2.29c.22-.22.56-.43.85-.3a.89.89,0,0,1,.3.31c1,1.54,2.41,7.56-.46,8.23-.8.18-3.12-1.49-3.75-1.94A6.74,6.74,0,0,1,284.45,115.86Z" transform="translate(0 -0.01)"/><path class="cls-11" d="M295.64,122.48a1.23,1.23,0,0,1,.6-.61.93.93,0,0,1,1,.52,2.46,2.46,0,0,1,.17,1.23,1,1,0,0,1,1.41-.06.57.57,0,0,1,.11.11,2,2,0,0,1,.23,1.67,4.19,4.19,0,0,1,2.45-.89c.32,0,.71.07.82.36a.64.64,0,0,1,0,.43c-.33,1.8-3.55,7.11-6.1,5.67-.72-.4-1.23-3.17-1.38-3.92A6.61,6.61,0,0,1,295.64,122.48Z" transform="translate(0 -0.01)"/><path class="cls-11" d="M301.48,112.88a1.27,1.27,0,0,1,.6-.61.92.92,0,0,1,1,.52,2.46,2.46,0,0,1,.17,1.23,1,1,0,0,1,1.41-.11.57.57,0,0,1,.11.11,2,2,0,0,1,.23,1.68,4.19,4.19,0,0,1,2.45-.89c.32,0,.71.06.83.36a.79.79,0,0,1,0,.43c-.33,1.8-3.55,7.11-6.1,5.67-.72-.4-1.23-3.17-1.38-3.92A6.68,6.68,0,0,1,301.48,112.88Z" transform="translate(0 -0.01)"/><path class="cls-5" d="M153.48,219.86c-1.92,2.5-3.26,5.21-1.95,7.34,2.46,4,6.47-4.4,7.67-5.78,3.76-4.32,7.55-8.6,11.28-12.94q7.52-8.76,14.87-17.67c2.46-3,5-5.9,7.34-9a5,5,0,0,0,1.37-2.77c.08-.65-.1-3.66-1.38-3.15-3.35,1.35-5,5.58-7.34,8.45-4.77,5.77-9.89,11.24-15,16.71-4,4.29-8,8.58-11.75,13C157.47,215.47,155.23,217.58,153.48,219.86Z" transform="translate(0 -0.01)"/><path class="cls-12" d="M212.51,233.94a91.36,91.36,0,0,1-10.39-.79c-1.35-.16-2.7-.31-4-.44-10.86-1.05-21.94-1.8-32.65-2.53l-5.22-.35c-3.42-.24-8.2-.83-10.21-3.21a3.78,3.78,0,0,1-.89-2.91c.39-3.89,5.5-5.47,8.88-6.51l1.11-.35c4.81-1.58,9.73-3,14.63-4.37,5.93-1.6,12-3,18-4.23,6.31-1.26,12-2.31,17.88-2.38h.14a22.1,22.1,0,0,1,16,6.68,12.87,12.87,0,0,1,3.57,10.15,13.91,13.91,0,0,1-.55,2.73,11,11,0,0,1-2.2,4c-2.38,2.69-6.17,4.16-11.6,4.49C214.18,233.91,213.35,233.94,212.51,233.94Zm-2.87-27.21c-5.8.08-11.45,1.12-17.72,2.37-6,1.21-12,2.62-18,4.22-4.88,1.31-9.79,2.78-14.59,4.36l-1.12.35c-3.16,1-7.94,2.45-8.27,5.77a2.88,2.88,0,0,0,.69,2.26c2,2.37,7.72,2.77,9.6,2.9l5.22.35c10.72.73,21.8,1.49,32.67,2.54,1.35.13,2.7.28,4.06.43A72.29,72.29,0,0,0,215,233c5.19-.32,8.79-1.69,11-4.19a10.17,10.17,0,0,0,2-3.64,13.12,13.12,0,0,0,.52-2.55,12.08,12.08,0,0,0-3.35-9.49,21.27,21.27,0,0,0-15.39-6.39Z" transform="translate(0 -0.01)"/><path class="cls-12" d="M215.23,230.11a9.64,9.64,0,1,1,9.71-9.63A9.68,9.68,0,0,1,215.23,230.11Zm0-18.58a9,9,0,1,0,9,8.95A9,9,0,0,0,215.23,211.53Z" transform="translate(0 -0.01)"/><rect class="cls-5" x="234.54" y="11.8" width="1.12" height="12.84" transform="translate(101.77 212.7) rotate(-60)"/><path class="cls-3" d="M225,229.87c.65.69,1.31,1.37,2,2,1.28,1.19,2.54,2.4,3.8,3.61.36.34,1.69,1.24,1.67,1.77s-1.22,1.1-1.76,1a1.11,1.11,0,0,1-.5-.35,150.49,150.49,0,0,1-13.55-15,2.4,2.4,0,0,0-1.6-1c-.6-.21-1.19-.41-1.3-1.15a1.9,1.9,0,0,1,1.89-1.91l.29,0h.17a1.36,1.36,0,0,1,.39.17l.17.14a2.34,2.34,0,0,1,.33.49,1.46,1.46,0,0,1,.12.5,1.09,1.09,0,0,1,0,.36,1.5,1.5,0,0,1-.31.76C216.64,221.47,224.64,229.52,225,229.87Zm10.48,12.34Zm6.49-1Zm-16.34-2.72Z" transform="translate(0 -0.01)"/><path class="cls-7" d="M209.64,135.44h.11c-.06.12-.11.24-.16.37C209.57,135.7,209.64,135.57,209.64,135.44Z" transform="translate(0 -0.01)"/><path class="cls-2" d="M238.78,215a1.19,1.19,0,0,0-.74.16,1.12,1.12,0,0,0-.34.63,95.11,95.11,0,0,0-3.15,17.64,1.5,1.5,0,0,0,1.16,1.9c4.95,1.86,18.56,1.92,21.94-3-3.94-2.19-8.95-.81-11.63-5.68-1.75-3.2.76-6.29-.6-9.49C244.64,215.3,240.64,215,238.78,215Z" transform="translate(0 -0.01)"/><path class="cls-12" d="M244.36,237a27.59,27.59,0,0,1-8.79-1.21,2.26,2.26,0,0,1-1.18-.82,2.3,2.3,0,0,1-.24-1.54,96.17,96.17,0,0,1,3.15-17.67,1.55,1.55,0,0,1,.46-.82,1.6,1.6,0,0,1,1-.27c1.83,0,6.11.24,7,2.42a8.25,8.25,0,0,1,.21,4.73c-.25,1.62-.48,3.16.37,4.71,1.62,2.95,4.16,3.48,6.84,4a16.13,16.13,0,0,1,4.63,1.48l.39.22-.25.37C255.78,235.82,249.8,237,244.36,237Zm-5.72-21.52a.79.79,0,0,0-.39.11,1.07,1.07,0,0,0-.15.35A95.41,95.41,0,0,0,235,233.5a1.59,1.59,0,0,0,.12,1,1.65,1.65,0,0,0,.75.48c2.54,1,7.22,1.37,11.41,1,4.76-.39,8.21-1.62,9.79-3.49a17,17,0,0,0-4-1.17c-2.75-.58-5.58-1.17-7.39-4.45-1-1.8-.72-3.55-.46-5.23a7.58,7.58,0,0,0-.16-4.3c-.58-1.41-3.61-1.91-6.26-1.91h-.14Z" transform="translate(0 -0.01)"/><g class="cls-13"><path class="cls-14" d="M256.45,164.9a27.47,27.47,0,0,0-7.18-7.36c-1.93-1.38-3.94-2.65-5.93-4l-3.07-2c-1.3-.86-2.6-1.72-4-2.5a67.58,67.58,0,0,0-7.37-3.69c-2.33-1-4.72-1.88-7.08-2.82s-4.57-1.9-6.86-2.85c-1-.42-2.09-.92-3.14-1.28a7.39,7.39,0,0,1-2.83-1.27,5.51,5.51,0,0,1-1.4-2.73,35.94,35.94,0,0,1-.55-4,61.22,61.22,0,0,1-.21-7.78v-1c0-1.13.11-2.27.17-3.41,0-.66.06-1.32.11-2a.89.89,0,0,0,0-.23l-.52-.07h-.14l-3.71-.55-4.06-.6c-2.17-.31-4.33-.61-6.5-.9l-6.08-.83-6.16-.81c-3.62-.35-7.25-.63-10.87-.9-.12.27-.23.53-.35.79-.59,1.29-1.18,2.57-1.78,3.85l-.45,1.34c-.26.64-.52,1.29-.73,2h0a28.11,28.11,0,0,0-.74,3.27c-.09.61-.15,1.22-.23,1.84s-.17,1.31-.2,2a9.77,9.77,0,0,0,.06,1.08c.06.46.14.93.23,1.39s.16.91.27,1.35a11.87,11.87,0,0,0,.41,1.32c.18.47.35.94.53,1.4s.52,1.15.82,1.71q.28.48.6.93l.07.08c.3.38.62.73,1,1.09l0,.07c.36.39.71.79,1.08,1.17l.84.86c.28.3.55.61.82.92.45.52.89,1.05,1.35,1.56.12.12.23.25.35.38l.15.14c.41.4.83.79,1.27,1.17l.68.61.53.36c.5.38,1,.78,1.49,1.14a62.28,62.28,0,0,0,6.83,4.43,80.82,80.82,0,0,0,7.58,3.6c2.22.92,4.48,1.75,6.71,2.65s4.66,1.9,7,2.82,4.54,1.79,6.82,2.67,4.64,1.81,6.94,2.78,4.49,2,6.73,3l6.07,2.8a53.91,53.91,0,0,1,5,2.63c.51.34,1,.7,1.51,1.08l.53.5a2.85,2.85,0,0,1,.23.26c.13.2.26.4.38.61a3.23,3.23,0,0,1,.19.39l.15.48c.07.4.13.8.17,1.2a74.09,74.09,0,0,1-.2,8.43c-.09,1.27-.18,2.54-.28,3.81-.25,3.14-.64,6.27-1.07,9.39-.2.8-.4,1.6-.59,2.41-.58,2.47-1,5-1.55,7.46q-.72,3.38-1.55,6.72a1.39,1.39,0,0,0,0,.73c.25.93,2.47.86,3.24,1l2.34.49c1.62.35,3.22.71,4.84,1.09,2.89.67,4-.37,4.63-3,2.41-9.49,4.69-19,7-28.52a71.37,71.37,0,0,0,2.14-11.87A15.35,15.35,0,0,0,256.45,164.9Z" transform="translate(0 -0.01)"/><path class="cls-15" d="M167.1,135.27l-.66-.7c.48-.46,1-1,1.61-1.63s1.21-1.26,1.73-1.74a3.26,3.26,0,0,0,1-1.31,2.8,2.8,0,0,0,0-1.11,64.86,64.86,0,0,1-.32-10.87c-.48-.11-1-.22-1.59-.33-1-.2-2-.4-2.79-.59l.22-.94c.78.18,1.79.38,2.76.58.73.15,1.44.29,2,.42l.41.09,0,.41a64.1,64.1,0,0,0,.29,11.08,4,4,0,0,1,0,1.54,4.07,4.07,0,0,1-1.28,1.76c-.47.44-1.08,1.07-1.66,1.68S167.6,134.81,167.1,135.27Z" transform="translate(0 -0.01)"/><path class="cls-15" d="M207.2,120c-.26,0-26.37-4.41-39-7l.2-.95c12.62,2.58,38.72,6.95,39,7Z" transform="translate(0 -0.01)"/><path class="cls-15" d="M180.2,128.3l-.4-.88c3.93-1.8,7-5.7,8.66-11l.92.28C187.65,122.28,184.39,126.38,180.2,128.3Z" transform="translate(0 -0.01)"/></g><path class="cls-3" d="M232.88,234.09a1,1,0,0,0,.1.81,1.64,1.64,0,0,0,.82.46c6.82,2.27,14.32,2.91,21.69,2.75,2.5-.06,5.16-.25,7.18-1.46,1.06-.63,1.92-1.66,1.7-2.72-.33-1.62-2.75-2.22-4.74-2.5a9.52,9.52,0,0,0-3.53,0,12.85,12.85,0,0,0-2.06.87,17.72,17.72,0,0,1-8.64,1.24c-4-.31-7.1-1.73-10.77-2.68A5.59,5.59,0,0,0,232.88,234.09Z" transform="translate(0 -0.01)"/><path class="cls-15" d="M241.42,217.61l-.92-.28c4-12.65,8.05-25.72,7.33-39.1-.18-3.21-.67-7.34-2.88-10.77-2.35-3.67-6.41-6.11-9.68-7.83a169.77,169.77,0,0,0-19.8-8.35c-8.72-3.26-17.74-6.62-25.61-11.75-2.9-1.9-6.53-4.55-8.75-8.27-3.45-5.7-3.15-12.71-2.31-19.43l1,.12c-.82,6.55-1.12,13.36,2.18,18.81,2.12,3.55,5.63,6.11,8.45,8,7.78,5.08,16.75,8.42,25.42,11.66a169.7,169.7,0,0,1,19.91,8.4c3.38,1.77,7.58,4.3,10.05,8.17,2.33,3.62,2.84,7.91,3,11.23C249.53,191.73,245.41,204.89,241.42,217.61Z" transform="translate(0 -0.01)"/><path class="cls-2" d="M242.73,99.53a32.57,32.57,0,0,0,2.19,7.86,10.88,10.88,0,0,0,5.6,5.69,16.33,16.33,0,0,0,5.85.74,39.69,39.69,0,0,1,10.73,1.48l2.91.85a2.64,2.64,0,0,1,1.32.69.67.67,0,0,1-.07.94.54.54,0,0,1-.29.15,4.13,4.13,0,0,1-1.66-.32s1,3.48,1,3.82a4.87,4.87,0,0,1-1.89,3.55,8.81,8.81,0,0,1-1.75.91,10.93,10.93,0,0,1-3,1c-2,.24-.3-1.12-.18-1.88a4,4,0,0,0-.28-1.91c-1.77-5.35-8.4-3.38-13-3.34-2.51,0-5.13,0-7.37-1.1a8.47,8.47,0,0,1-1.94-1.36c-2.64-2.46-3.78-6.47-4.65-10.12l-1.34-5.65" transform="translate(0 -0.01)"/><path class="cls-16" d="M263.26,127.28a.94.94,0,0,1-.87-.36c-.26-.42.05-.9.35-1.37a2.56,2.56,0,0,0,.34-.65,3.57,3.57,0,0,0-.25-1.7c-1.32-4-5.53-3.62-9.59-3.27-1.07.1-2.08.18-3,.19h0c-2.57,0-5.21,0-7.53-1.14a8.81,8.81,0,0,1-2-1.43c-2.74-2.55-3.9-6.67-4.77-10.32l-1.34-5.66.8-.18,1.34,5.65c.84,3.54,2,7.51,4.53,9.91a7.68,7.68,0,0,0,1.85,1.29c2.15,1.06,4.7,1.06,7.18,1.06.91,0,1.91-.09,3-.18,4.18-.36,8.92-.77,10.43,3.8a4.55,4.55,0,0,1,.3,2.08,3,3,0,0,1-.47,1c-.09.13-.21.33-.28.46a2.07,2.07,0,0,0,.47,0,10.11,10.11,0,0,0,2.87-.91,8.53,8.53,0,0,0,1.7-.88,4.43,4.43,0,0,0,1.71-3.24c0-.21-.52-2-1-3.68l-.24-.81.79.32a3.63,3.63,0,0,0,1.49.29h0s0,0,0,0a.25.25,0,0,0,0-.36,2.19,2.19,0,0,0-1.09-.56l-2.95-.86a39.2,39.2,0,0,0-10.61-1.46,16.47,16.47,0,0,1-6-.76,11.32,11.32,0,0,1-5.85-5.92,32.92,32.92,0,0,1-2.21-8l.81-.12a31.87,31.87,0,0,0,2.16,7.76,10.46,10.46,0,0,0,5.39,5.48,15.8,15.8,0,0,0,5.66.7,40.15,40.15,0,0,1,10.86,1.5l2.91.85a3,3,0,0,1,1.5.79,1.09,1.09,0,0,1-.09,1.55,1.21,1.21,0,0,1-.47.23,5.24,5.24,0,0,1-1.15-.1,32.54,32.54,0,0,1,.81,3.2,5.29,5.29,0,0,1-2.05,3.88,9.86,9.86,0,0,1-1.85,1,10.75,10.75,0,0,1-3.08,1A4.05,4.05,0,0,1,263.26,127.28Z" transform="translate(0 -0.01)"/><rect class="cls-3" x="60.46" y="277.13" width="80.93" height="0.93"/><rect class="cls-3" x="267.63" y="276.58" width="51.9" height="0.93"/><path class="cls-3" d="M249.52,33.86a3.8,3.8,0,0,1,1.13,2.56,3.52,3.52,0,0,0,.23-2,2.16,2.16,0,0,0-1.14-1.56,6.08,6.08,0,0,0-2.44-.15,6.66,6.66,0,0,1-2-.58C245.55,34,248.45,33.07,249.52,33.86Z" transform="translate(0 -0.01)"/><path class="cls-3" d="M255.48,229.87l.85-.11a2.55,2.55,0,0,0,.31,1.62.38.38,0,0,1,.11-.28l.8-1c.08.07.19.11.28.18a.28.28,0,0,1,.14.28.38.38,0,0,1-.09.13,6.45,6.45,0,0,1-1.25,1.14.4.4,0,0,1-.25.09C255.94,231.85,255.6,229.86,255.48,229.87Z" transform="translate(0 -0.01)"/><path class="cls-2" d="M290.16,162.74a9.21,9.21,0,0,1-1.57-.18c-.43-.12-.58-.48-.73-.87a10.17,10.17,0,0,1,3.73-.09,4.9,4.9,0,0,1,.55.13.55.55,0,0,0,.27.25,7.84,7.84,0,0,0,2,.61h0a24.25,24.25,0,0,1-4.26.15Z" transform="translate(0 -0.01)"/><path class="cls-2" d="M296.88,162.32a.63.63,0,0,0-.28-.2,8.82,8.82,0,0,0-1.52-.44,11,11,0,0,1,2.07-.1,12.75,12.75,0,0,1,2.12.31l.19.06c-.82.13-1.73.26-2.59.35Z" transform="translate(0 -0.01)"/><path class="cls-2" d="M303.7,161.26l-1.5.25a.71.71,0,0,0-.31-.13,17.63,17.63,0,0,1-2.27-.6,6.48,6.48,0,0,1,.87-.21,11.32,11.32,0,0,1,1.74-.21,8.78,8.78,0,0,1,1.7.11c.57.11,1.11.31,1.66.46h0Z" transform="translate(0 -0.01)"/><path class="cls-2" d="M308.8,160.26a1,1,0,0,0-1,0h-.24a4.46,4.46,0,0,1-.87-.17c-.29-.06-.61-.16-.92-.24.39-.07.77-.16,1.17-.22a14,14,0,0,1,2.5-.11,11,11,0,0,1,1.15.15,4.24,4.24,0,0,0,.72,0c-.83.23-1.67.43-2.52.63Z" transform="translate(0 -0.01)"/><path class="cls-2" d="M314.87,158.8l-.22.07a.5.5,0,0,0-.28-.12,9.58,9.58,0,0,0-1.31-.06c-.44,0-.85-.1-1.29-.13h-.07c.54-.12,1.08-.22,1.61-.37s1.07-.22,1.59-.35a6.75,6.75,0,0,0,.76-.25v.15c-.19.5-.26.89-.8,1.09Z" transform="translate(0 -0.01)"/><g class="cls-17"><path class="cls-2" d="M232.82,102.15c.75.37,2.75-.35,2.75-.35,2.18-.49,4.29-1.26,6.19-1.76,1.23-.32,3.1-1,3.1-1,.7-.92-.36-2.94-.66-4.09-2-7.5-4.06-15.24-8.91-21.29s-13.26-10-20.52-7.22a25.49,25.49,0,0,0-4.91,2.7c-7.08,5-14.45,10-20.8,15.86-5.52,5.11-10.93,9.82-15.18,16.16-1.95,2.91-4.58,6.55-5.43,10,1.73,1,5,.74,7,1l12.75,1.55c8.23,1,16.46,2,24.7,2.93.69.07,2.28.55,2.95.27,0-.44.4-2.37.49-3.05l6.66-24C226.24,78.1,232,101.53,232.82,102.15Z" transform="translate(0 -0.01)"/><path d="M257.67,69.28c-10.18.31-20.27-.24-30.44-.69L196.11,67.2a.84.84,0,1,0-.07,1.67l31.11,1.38c10.17.46,20.26,1,30.45.7C258.84,70.91,258.93,69.25,257.67,69.28Z" transform="translate(0 -0.01)"/><path d="M251.51,71.33c-7.18,0-14.37-.33-21.38-.65l-3-.14-20.27-.9L196,69.15a1.18,1.18,0,0,1-1.05-.61,1.13,1.13,0,0,1,.05-1.11,1.23,1.23,0,0,1,1.1-.52l34.13,1.52c9,.42,18.25.84,27.42.57h0a1,1,0,0,1,1.19,1,1.21,1.21,0,0,1-1.25,1.23C255.58,71.3,253.54,71.33,251.51,71.33Zm-55.46-3.84a.63.63,0,0,0-.55.25.53.53,0,0,0,0,.53.63.63,0,0,0,.57.31l10.85.48,20.26.91,3,.13c9,.41,18.26.84,27.43.56a.65.65,0,0,0,.7-.63c0-.23-.17-.46-.61-.46-9.19.28-18.48-.15-27.46-.56L196.1,67.49Z" transform="translate(0 -0.01)"/><path d="M257,75c-10.19.3-20.28-.24-30.45-.7l-31.12-1.39a.84.84,0,1,0-.07,1.67l31.11,1.39c10.17.45,20.27,1,30.45.7C258.17,76.6,258.27,74.93,257,75Z" transform="translate(0 -0.01)"/><path d="M250.84,77c-7.18,0-14.37-.33-21.38-.65l-34.11-1.52a1.2,1.2,0,0,1-1-.62,1.11,1.11,0,0,1,0-1.1,1.16,1.16,0,0,1,1.1-.52l10.85.48,20.27.9,3,.14c9,.41,18.25.83,27.43.56h0a1.17,1.17,0,0,1,1,.5,1.11,1.11,0,0,1,0,1.1,1.27,1.27,0,0,1-1.12.64Q253.9,77,250.84,77Zm-55.46-3.84a.62.62,0,0,0-.55.26.53.53,0,0,0,0,.53.64.64,0,0,0,.57.3l34.11,1.53c9,.41,18.26.83,27.43.56a.7.7,0,0,0,.63-.34.55.55,0,0,0,0-.53.58.58,0,0,0-.54-.22h0c-9.19.27-18.48-.15-27.47-.57l-3-.13-20.27-.91-10.84-.48Z" transform="translate(0 -0.01)"/><path d="M244.56,80.57c-14.9-.41-29.86-1.1-44.7-2.42a12.5,12.5,0,0,0-2.39-.3c-.94-.08-2.36-.23-3.13.39-1,.84.62,1.93,1.51,1.24h.51a11.87,11.87,0,0,1,1.33.08c.34,0,.68.08,1,.12.17,0,.77.2.34,0v0a1.52,1.52,0,0,0,.52.15c14.92,1.33,29.95,2,44.93,2.44C245.91,82.28,246,80.61,244.56,80.57Z" transform="translate(0 -0.01)"/><path d="M244.55,82.53h-.05c-17.31-.48-31.6-1.25-44.95-2.45a1,1,0,0,1-.29,0,1,1,0,0,1-.36,0l-.22,0-.47,0c-.18,0-.36,0-.55-.06a10,10,0,0,0-1.29-.08H196a1.57,1.57,0,0,1-2-.34,1,1,0,0,1,.21-1.4c.81-.67,2.18-.56,3.17-.47l.59,0a10.57,10.57,0,0,1,2,.28c13.23,1.17,27.42,1.94,44.62,2.41a1.35,1.35,0,0,1,1.19.63,1.07,1.07,0,0,1,0,1A1.32,1.32,0,0,1,244.55,82.53ZM198.9,79.26l.29.13a1.07,1.07,0,0,0,.41.12c13.34,1.19,27.61,2,44.92,2.44a.8.8,0,0,0,.71-.3.47.47,0,0,0,0-.46.77.77,0,0,0-.69-.33h0c-17.21-.47-31.42-1.24-44.72-2.42a9.43,9.43,0,0,0-2-.27l-.59,0c-.85-.07-2.13-.17-2.76.34-.25.2-.29.4-.13.6a1,1,0,0,0,1.28.19l.06,0h.07l.14,0h.41a11,11,0,0,1,1.29.08l.63.07.46.05.11,0Z" transform="translate(0 -0.01)"/><path d="M252.7,95.12c-5.1-.3-10.1,1.13-15.12,1.77a33.45,33.45,0,0,1-7.34.36c-2.11-.19-4.2-.53-6.3-.85a2.58,2.58,0,0,1,.21,1.73c1.29.19,2.57.38,3.86.55a26.32,26.32,0,0,0,7,.13c2.89-.37,5.75-.63,8.61-1.24a30.73,30.73,0,0,1,4.27-.52,37.19,37.19,0,0,1,4.71-.27A.84.84,0,1,0,252.7,95.12Z" transform="translate(0 -0.01)"/><path d="M232.15,99.27A30.87,30.87,0,0,1,228,99c-1.29-.17-2.57-.36-3.86-.55l-.31,0,.07-.31a2.21,2.21,0,0,0-.19-1.52l-.26-.51,1.22.19c1.84.28,3.75.57,5.63.74a33.81,33.81,0,0,0,7.28-.35c1.55-.2,3.13-.48,4.66-.75a45.55,45.55,0,0,1,10.51-1h0a1.13,1.13,0,1,1-.16,2.24,21.32,21.32,0,0,0-3.29.15c-.46,0-.92.09-1.38.12a30.33,30.33,0,0,0-4.23.51c-2.28.48-4.58.76-6.82,1l-1.82.22A22.68,22.68,0,0,1,232.15,99.27Zm-7.66-1.38c1.18.17,2.37.35,3.56.5a25.64,25.64,0,0,0,6.9.13l1.82-.22c2.22-.26,4.52-.54,6.77-1a31.9,31.9,0,0,1,4.31-.53c.46,0,.91-.07,1.37-.12a23.64,23.64,0,0,1,3.38-.15c.47,0,.68-.24.69-.52s-.13-.54-.61-.57a45.17,45.17,0,0,0-10.37,1c-1.54.28-3.13.56-4.69.76a34.87,34.87,0,0,1-7.4.36c-1.9-.17-3.82-.47-5.67-.75l-.16,0A2.87,2.87,0,0,1,224.49,97.89Z" transform="translate(0 -0.01)"/><path d="M224,98.66c-10.57-1.66-21.15-3.31-31.78-4.53-3.12-.36-6.25-.68-9.36-1.12s-6.28-1.24-9.47-1.45a.84.84,0,1,0-.15,1.66c2.78.18,5.5.85,8.25,1.27s5.57.74,8.36,1.05q8.37.94,16.69,2.14c5.56.8,11.1,1.67,16.64,2.54l.14,0A2.4,2.4,0,0,1,224,98.66Z" transform="translate(0 -0.01)"/><path d="M223.54,100.58l-.39-.07c-5.39-.85-11.06-1.73-16.69-2.54s-11.14-1.52-16.68-2.14c-2.59-.29-5.53-.62-8.37-1-.94-.15-1.88-.32-2.82-.49a46.19,46.19,0,0,0-5.4-.78,1.13,1.13,0,0,1-1.14-1.19,1.17,1.17,0,0,1,1.32-1,51.72,51.72,0,0,1,6,.86c1.14.21,2.33.43,3.5.59,2.44.35,4.92.63,7.33.9l2,.22c10.22,1.17,20,2.69,31.79,4.54l.57.09-.41.4a2.22,2.22,0,0,0-.6,1.39Zm-50.28-8.74a.57.57,0,0,0-.63.52c0,.25.13.54.59.57a47,47,0,0,1,5.48.79c.93.17,1.86.34,2.79.49,2.84.43,5.77.76,8.36,1.05,5.54.62,11.16,1.34,16.7,2.14s11.19,1.68,16.48,2.51a2.67,2.67,0,0,1,.39-1c-11.54-1.82-21.21-3.3-31.27-4.45l-2-.23c-2.41-.27-4.9-.55-7.34-.9-1.18-.16-2.37-.38-3.53-.59a50.85,50.85,0,0,0-5.92-.86Z" transform="translate(0 -0.01)"/><path d="M241.32,105.77c-2.42-.17-4.86-.73-7.28-1s-4.93-.56-7.39-.88q-7.47-1-15-1.9c-10-1.21-20-2.31-30-3.13-5.75-.47-11.51-.86-17.28-1.13a.84.84,0,1,0-.08,1.67c20.09,1,40.08,3.28,60,5.87,2.87.37,5.74.73,8.61,1.06,1.4.16,2.8.32,4.19.5s2.71.52,4.08.62A.84.84,0,1,0,241.32,105.77Z" transform="translate(0 -0.01)"/><path d="M241.32,107.73h-.11a20.28,20.28,0,0,1-2.48-.35c-.54-.1-1.08-.19-1.61-.26-1.4-.19-2.79-.35-4.19-.5-3.06-.35-6.07-.73-8.61-1.06-19.1-2.48-39.58-4.91-60-5.88a1.13,1.13,0,0,1-1.17-1.17,1.15,1.15,0,0,1,1.29-1.07c5.57.27,11.38.65,17.28,1.13,9,.74,18.53,1.74,30,3.14,4.34.53,9.1,1.13,15,1.9,2.35.3,4.75.58,7.07.84l.31,0c1,.12,2.05.28,3.06.45,1.38.22,2.82.46,4.21.55a1.16,1.16,0,0,1,1.16,1.22A1.11,1.11,0,0,1,241.32,107.73Zm-77-9.72a.56.56,0,0,0-.63.52c0,.25.14.55.62.57,20.44,1,40.93,3.39,60,5.87,2.54.33,5.55.72,8.61,1.06,1.39.16,2.79.32,4.19.5.55.08,1.1.17,1.64.27a22,22,0,0,0,2.42.35c.48,0,.66-.24.68-.49s-.17-.57-.63-.6h0c-1.42-.1-2.87-.34-4.27-.56-1-.17-2-.33-3-.45l-.32,0c-2.32-.26-4.72-.54-7.08-.84-5.86-.77-10.62-1.37-15-1.9-11.47-1.4-21-2.39-30-3.13-5.89-.49-11.69-.87-17.26-1.13Z" transform="translate(0 -0.01)"/><path d="M232.88,115.22,167,108.41a.84.84,0,1,0-.17,1.66l65.86,6.81A.84.84,0,1,0,232.88,115.22Z" transform="translate(0 -0.01)"/><path d="M232.84,117.18h-.17l-65.86-6.81a1.18,1.18,0,0,1-1-.68,1.11,1.11,0,0,1,.12-1.1,1.2,1.2,0,0,1,1.13-.45l65.86,6.8a1.2,1.2,0,0,1,1,.68,1.11,1.11,0,0,1-.11,1.1A1.18,1.18,0,0,1,232.84,117.18Zm-66-8.48a.6.6,0,0,0-.51.22.53.53,0,0,0-.05.53.63.63,0,0,0,.55.34l65.86,6.8a.63.63,0,0,0,.61-.22.54.54,0,0,0,.06-.52.64.64,0,0,0-.55-.34L167,108.7Z" transform="translate(0 -0.01)"/><path d="M233.66,109.65l-65.87-6.81a.84.84,0,1,0-.17,1.66l65.86,6.81A.84.84,0,1,0,233.66,109.65Z" transform="translate(0 -0.01)"/><path d="M233.62,111.6h-.17l-65.86-6.8a1.2,1.2,0,0,1-1-.68,1.11,1.11,0,0,1,.12-1.1,1.18,1.18,0,0,1,1.13-.45l65.86,6.8a1.2,1.2,0,0,1,1,.68,1.11,1.11,0,0,1-.11,1.1A1.17,1.17,0,0,1,233.62,111.6Zm-66-8.48a.61.61,0,0,0-.51.23.53.53,0,0,0-.05.53.63.63,0,0,0,.55.34l65.86,6.8a.63.63,0,0,0,.61-.22.56.56,0,0,0,.06-.53.62.62,0,0,0-.55-.33l-65.87-6.81Z" transform="translate(0 -0.01)"/><path d="M225.29,94a28.9,28.9,0,0,1-5.08-.38c-1.8-.19-3.6-.38-5.4-.6-3.83-.46-7.66-1-11.5-1.39a178.25,178.25,0,0,1-21.89-3.8.84.84,0,1,1,.4-1.62A173.87,173.87,0,0,0,203.67,90c3.76.43,7.51.93,11.26,1.37,1.72.21,3.43.39,5.15.57a29,29,0,0,0,5.09.38A.85.85,0,1,1,225.29,94Z" transform="translate(0 -0.01)"/><path d="M224.53,94.36a24.29,24.29,0,0,1-3.08-.26L220.18,94c-2.12-.22-3.83-.41-5.4-.6l-3.92-.48c-2.53-.31-5.05-.63-7.58-.92a176.66,176.66,0,0,1-21.93-3.8,1.2,1.2,0,0,1-.91-.81,1.13,1.13,0,0,1,.26-1.08,1.19,1.19,0,0,1,1.19-.29,173.93,173.93,0,0,0,21.82,3.78c2.18.24,4.36.52,6.54.79l4.72.58c1.71.2,3.43.39,5.14.56l1.28.16a19.19,19.19,0,0,0,3.76.23,1.15,1.15,0,0,1,1.3,1.05,1.14,1.14,0,0,1-1.14,1.21Q224.92,94.36,224.53,94.36Zm-43-7.86a.53.53,0,0,0-.41.16.55.55,0,0,0-.13.52.65.65,0,0,0,.5.41,177.2,177.2,0,0,0,21.85,3.79q3.79.44,7.59.92l3.92.48c1.56.19,3.28.38,5.38.59l1.29.16a19.89,19.89,0,0,0,3.75.23h0c.47,0,.62-.34.6-.59a.58.58,0,0,0-.68-.53,19.4,19.4,0,0,1-3.87-.23l-1.27-.15c-1.72-.18-3.44-.37-5.15-.57l-4.72-.58c-2.18-.27-4.36-.54-6.54-.79a173.57,173.57,0,0,1-21.89-3.79A.83.83,0,0,0,181.53,86.5Z" transform="translate(0 -0.01)"/><path d="M263.75,88.93c-5.82.14-11.65.77-17.43,1.44-2.87.33-5.73.69-8.6,1a55.35,55.35,0,0,1-9.35.6.84.84,0,1,0-.11,1.66,51.48,51.48,0,0,0,8.68-.5c3-.29,5.9-.65,8.85-1,5.92-.69,11.89-1.38,17.85-1.53C264.88,90.56,265,88.89,263.75,88.93Z" transform="translate(0 -0.01)"/><path d="M229.81,94c-.53,0-1.05,0-1.57,0a1.19,1.19,0,0,1-1-.64,1.1,1.1,0,0,1,.07-1.11,1.19,1.19,0,0,1,1.12-.49,41.66,41.66,0,0,0,7.54-.41l1.76-.19c2-.21,4.05-.45,6.08-.69l2.52-.3c5.88-.68,11.64-1.3,17.46-1.44h0a1,1,0,0,1,1.13,1,1.23,1.23,0,0,1-1.27,1.23c-6.06.15-12.31.88-17.83,1.53l-1.59.19c-2.38.28-4.83.57-7.26.8l-1.55.16A52.33,52.33,0,0,1,229.81,94Zm-1.54-1.72a.62.62,0,0,0-.52.24.56.56,0,0,0,0,.53.66.66,0,0,0,.57.33,41.08,41.08,0,0,0,7.08-.35l1.56-.16c2.41-.24,4.87-.53,7.24-.81l1.59-.18c5.53-.65,11.8-1.39,17.89-1.54a.66.66,0,0,0,.71-.64c0-.29-.2-.47-.59-.45-5.8.15-11.54.77-17.41,1.45l-2.51.29c-2,.24-4.06.48-6.09.69l-1.75.2a41.87,41.87,0,0,1-7.65.41Z" transform="translate(0 -0.01)"/><path d="M267.59,83.57c-2.53,0-5.07.61-7.58.9s-5.18.55-7.77.75c-5.36.43-10.74.63-16.12.67a256.12,256.12,0,0,1-31.69-1.79c-2.88-.34-5.75-.74-8.6-1.3-1.36-.27-2.72-.58-4.08-.9a16.57,16.57,0,0,0-3.8-.73.84.84,0,1,0,0,1.67,15.69,15.69,0,0,1,3.5.73c1.2.28,2.41.56,3.63.8,2.52.51,5.06.89,7.62,1.2,5.18.64,10.39,1.17,15.6,1.53a231.43,231.43,0,0,0,31.71,0c2.94-.19,5.87-.46,8.8-.78s5.87-1,8.78-1A.84.84,0,1,0,267.59,83.57Z" transform="translate(0 -0.01)"/><path d="M233.61,87.91c-5.2,0-10.31-.18-15.3-.52s-10.2-.86-15.62-1.53c-2.94-.36-5.37-.75-7.64-1.21-1.25-.25-2.49-.53-3.64-.8-.32-.07-.65-.17-1-.26a9,9,0,0,0-2.45-.46h0a1.24,1.24,0,0,1-.9-.34,1.11,1.11,0,0,1-.33-.78A1.13,1.13,0,0,1,188,80.88a12.33,12.33,0,0,1,3,.51l.89.23c1.3.3,2.69.62,4.08.9,2.48.49,5.12.89,8.57,1.29a252.25,252.25,0,0,0,31.65,1.79c5.68,0,10.95-.26,16.11-.66,2.52-.2,5.13-.46,7.76-.76.86-.1,1.75-.23,2.61-.36a38.06,38.06,0,0,1,5-.54h0a1.13,1.13,0,1,1,0,2.25,44,44,0,0,0-5.59.59c-1.05.16-2.12.32-3.17.44-3.05.33-6,.59-8.81.78Q241.74,87.91,233.61,87.91ZM188,82.55a10,10,0,0,1,2.57.48c.33.1.65.19,1,.26,1.15.27,2.38.55,3.62.8,2.26.46,4.68.84,7.6,1.2,5.41.66,10.65,1.18,15.59,1.52a230.92,230.92,0,0,0,31.67,0c2.79-.19,5.75-.46,8.78-.79,1-.11,2.11-.27,3.15-.43a43.09,43.09,0,0,1,5.67-.6.57.57,0,0,0,.64-.56c0-.27-.21-.54-.67-.53h0a37,37,0,0,0-4.91.53c-.87.13-1.76.26-2.64.36-2.63.31-5.25.56-7.78.76-5.17.41-10.45.63-16.14.67a253.87,253.87,0,0,1-31.73-1.8c-3.46-.4-6.12-.8-8.61-1.3-1.4-.28-2.8-.6-4.1-.9l-.91-.23a11.59,11.59,0,0,0-2.82-.49.61.61,0,0,0-.57.28.53.53,0,0,0,0,.53.62.62,0,0,0,.59.28Z" transform="translate(0 -0.01)"/></g></svg>