<svg id="Layer_2" data-name="Layer 2" xmlns="http://www.w3.org/2000/svg" xmlns:xlink="http://www.w3.org/1999/xlink" viewBox="0 0 377.06 278.6"><defs><style>.cls-1,.cls-15,.cls-16,.cls-19,.cls-20{fill:none;}.cls-2,.cls-5,.cls-6{fill:#fff;}.cls-3{fill:#ee203d;}.cls-4{fill:#010101;}.cls-20,.cls-5,.cls-6{stroke:#151314;}.cls-15,.cls-16,.cls-19,.cls-20,.cls-5,.cls-6{stroke-miterlimit:10;}.cls-5{stroke-width:1.08px;}.cls-20,.cls-6{stroke-width:0.93px;}.cls-7{clip-path:url(#clip-path);}.cls-8{fill:#58bada;}.cls-9{fill:#1f2a51;}.cls-10{fill:#414042;}.cls-11{fill:#151314;}.cls-12{fill:#eabd80;}.cls-13{fill:#264423;}.cls-14{fill:#ead0d0;}.cls-15,.cls-16{stroke:#231f20;}.cls-15{stroke-width:0.87px;}.cls-16{stroke-width:0.69px;}.cls-17{fill:#58595b;}.cls-18{fill:#263168;}.cls-19{stroke:#575b75;stroke-width:0.97px;}</style><clipPath id="clip-path" transform="translate(-181.36 -214.7)"><path class="cls-1" d="M411.15,311.65l.06.23a4.75,4.75,0,0,0,.7,1.88,3.35,3.35,0,0,0,2.92,1.19c3.37-.18,8.38-.47,11.42-2a1.26,1.26,0,0,0,.59-.48,1.35,1.35,0,0,0,0-1c-.93-3.74-2.82-7.77-4.14-11.5a38.87,38.87,0,0,0-6.07-11.58c-4.85-6.05-13.26-10-20.52-7.22a25.54,25.54,0,0,0-4.91,2.7,177.26,177.26,0,0,0-37.84,33.42c-.84,1-1.72,2.13-1.64,3.43.13,2.16,2.64,3.2,4.74,3.73a212.21,212.21,0,0,0,38.82,6,2.53,2.53,0,0,0,1.37-.17,2.59,2.59,0,0,0,1-1.72q3.33-12,6.66-24C407.32,293.8,410.26,307.6,411.15,311.65Z"/></clipPath></defs><title>FRENCH MOI_ GIRL</title><path class="cls-2" d="M403.41,278.12a4,4,0,0,0-.21,2.86,5.81,5.81,0,0,0,2.95,2.09c8.06,3.47,8.92-9.8,12.55-14.06a1,1,0,0,1,.57-.4,1.27,1.27,0,0,1,.74.23,6.16,6.16,0,0,0,2.21.52c4.09.42,8.44.81,12.11-1.06a10.81,10.81,0,0,0,5.09-5.55c.72-1.79,1.24-4.07,3.09-4.63.61-.18,1.49-.39,1.38-1a1.15,1.15,0,0,0-.43-.57l-2.22-1.81a7.68,7.68,0,0,0,2.2-2.94,30,30,0,0,0,3.09-11.29c.25-3.67-.27-7.6-2.58-10.45a13.85,13.85,0,0,0-4.56-3.5,12.29,12.29,0,0,0-5.11-1.55,11.77,11.77,0,0,0-4.71.95,19.91,19.91,0,0,0-8.79,6.88c-1.86,2.58-3.4,5.85-6.46,6.72-1.6.46-3.34.13-5,.47a6.19,6.19,0,0,0-4.14,3.13,11.06,11.06,0,0,0-.93,5.16,52.49,52.49,0,0,0,1.54,12.6c.39,1.55,1.19,3.2,1.23,4.8a23.31,23.31,0,0,1-1,5.73C405.76,272.75,404.17,275.75,403.41,278.12Z" transform="translate(-181.36 -214.7)"/><path class="cls-3" d="M436.77,265.21a2.29,2.29,0,0,1-.63-.19,4.08,4.08,0,0,1-.72-.44,3.89,3.89,0,0,1-1.09-1.23,3.69,3.69,0,0,1-.29-.64.93.93,0,0,1,0-.75c.57-1,1.32,1,1.63,1.29a3.37,3.37,0,0,0,2.69,1c.16,0,.36,0,.4.14a.22.22,0,0,1,0,.14C438.52,265.16,437.37,265.28,436.77,265.21Z" transform="translate(-181.36 -214.7)"/><path class="cls-2" d="M434.2,227.82c-.05-.18-.13-.36-.19-.54a1.72,1.72,0,0,0-.2-.38c.06-.11.11-.24.17-.35a6.48,6.48,0,0,1,.33-.57c0,.62,0,1.25-.05,1.85v.2A1.6,1.6,0,0,0,434.2,227.82Z" transform="translate(-181.36 -214.7)"/><path class="cls-4" d="M407.53,259.5c-.26,1.61.09,3.21-.08,4.85a1.82,1.82,0,0,1-.4,1.14,1.67,1.67,0,0,1-.79.41,8,8,0,0,1-4-.19c-6.46-1.58-12.49-5.45-18.22-8.7-1.51-.86-17.33-9.49-17.09-10.11,1.5-3.89,3.4-7.76,6.53-10.51s7.75-4.13,11.58-2.49c1.4.61,2.7,1.6,4.22,1.67,2.81.12,4.66-2.78,6-5.22,3.14-5.52,7.55-11,13.42-13.77,4.74-2.22,11.54-1.88,16.72-1.82q.88,0,1.77.09a15.85,15.85,0,0,1,1.68.26c1,.21,2.06.46,3.08.73a18.58,18.58,0,0,1,3.12,1.09,7.53,7.53,0,0,1,1.25.75,5.83,5.83,0,0,1,1.05.93,1.35,1.35,0,0,1,.31.53,1.24,1.24,0,0,1,0,.54,1.28,1.28,0,0,1-.31.69,4.25,4.25,0,0,1-.69.65c-.36.3-.75.58-1.12.88l-.23.18-.21.19,0,0a14.11,14.11,0,0,1,1.32-.85,5.7,5.7,0,0,1,.76-.34,5.78,5.78,0,0,1,.91-.23,8.66,8.66,0,0,1,1.61-.11,15.09,15.09,0,0,1,3.22.4,16.32,16.32,0,0,1,3.15,1.1,23.45,23.45,0,0,1,2.77,1.56,15.65,15.65,0,0,1,2.49,1.91,12.19,12.19,0,0,1,3.21,4.92,10.27,10.27,0,0,1,.54,2.62,14.91,14.91,0,0,1,0,1.89,6.51,6.51,0,0,1-.14,1.08,4.79,4.79,0,0,1-.21.64l0,.11c0,.18-.06.35-.1.52l0-.12c-.06.27-.08.56-.16.83a2.35,2.35,0,0,1-.23.57,3.66,3.66,0,0,1-.26.42l0,0-.06.08a1.73,1.73,0,0,1-.17.21,1.61,1.61,0,0,1-.34.24l-.16.09a1.9,1.9,0,0,1-.25.24,2.18,2.18,0,0,1-.42.24,3.5,3.5,0,0,1-.65.2l-.71.16a30.27,30.27,0,0,1-3.13.59l-.75.07a4.21,4.21,0,0,1-.71,0,1.29,1.29,0,0,1-.69-.28,1.21,1.21,0,0,1-.3-.42,4.1,4.1,0,0,1-.19-.66c-.19-.8-.32-1.61-.5-2.42-.12-.52-.27-1.05-.43-1.57s-.29-.84-.45-1.26c-.05,1.42-.1,2.84-.28,4.25a10.81,10.81,0,0,1-.31,1.48c0,.11-.07.23-.11.34a1.35,1.35,0,0,1-.55.76,1.31,1.31,0,0,1-.66.14h-.35c-1.07,0-2.14-.07-3.21-.13l-2.84-.18c-.47,0-.93-.06-1.39-.12a4.94,4.94,0,0,1-.87-.15,1.81,1.81,0,0,1-.92-.56l-.17-.27-.11-.16a1.64,1.64,0,0,1-.2-.56l0-.3c0-.27-.06-.54-.07-.81s0-.43,0-.64v-.9c0-.95,0-1.9-.1-2.85,0-.21,0-.41-.05-.6v0l0-.23v0l-.09-1c0-.14,0-.29,0-.44v0l0-.44,0,.17c-.05-.55-.1-1.1-.14-1.65s-.08-.89-.16-1.32c0-.14-.08-.28-.13-.42s-.06-.36-.11-.52c-.79.17-1.23,1.27-1.56,1.92-.46.88-.87,1.79-1.29,2.69s-.91,1.86-1.41,2.76-1.06,1.84-1.6,2.75-1,1.75-1.59,2.6a20.5,20.5,0,0,1-1.85,2.43,19.72,19.72,0,0,1-2.4,2.25c-1.08.87-3,2.36-4.51,1.71-.93-.39-1.35-1.38-2-2.14a4.18,4.18,0,0,0-3.28-1.53c-6.24.22-2.63,8-2.13,11.33A15.92,15.92,0,0,1,407.53,259.5Zm39.3-21.74v.05l0-.16a.29.29,0,0,0,0,.09h0v0h0ZM435,234.36v0h0Zm-3.19-7.6.12-.11s0-.08,0-.11A1.64,1.64,0,0,0,431.82,226.76Zm2.91-7.23,0,0h0Z" transform="translate(-181.36 -214.7)"/><ellipse class="cls-5" cx="326.03" cy="228.69" rx="50.5" ry="48.8"/><ellipse class="cls-5" cx="147.46" cy="228.62" rx="51.47" ry="49.44"/><path class="cls-6" d="M290.94,444.52c0,19.31,16.66,35,37.21,35a39,39,0,0,0,14.9-2.92" transform="translate(-181.36 -214.7)"/><path class="cls-6" d="M538,464.06c11.75-15.33,8-37.89-8.28-50.39a39.06,39.06,0,0,0-13.61-6.74" transform="translate(-181.36 -214.7)"/><line class="cls-6" y1="196.91" x2="42.98" y2="196.91"/><line class="cls-6" x1="28" y1="189.91" x2="70.98" y2="189.91"/><g class="cls-7"><path class="cls-2" d="M412.37,311.37a4.47,4.47,0,0,0,1.57,2.49,4.41,4.41,0,0,0,2.39.43q3,0,5.9-.12c1.16,0,2.47-.15,3.17-1.07s.46-2.28.16-3.43c-2-7.5-4.06-15.24-8.91-21.29s-13.26-10-20.52-7.22a25.54,25.54,0,0,0-4.91,2.7,177.26,177.26,0,0,0-37.84,33.42c-.84,1-1.72,2.13-1.64,3.43.13,2.16,2.64,3.2,4.74,3.73a212.21,212.21,0,0,0,38.82,6,2.53,2.53,0,0,0,1.37-.17,2.59,2.59,0,0,0,1-1.72q3.33-12,6.66-24C407.6,292.8,409.92,307.7,412.37,311.37Z" transform="translate(-181.36 -214.7)"/><path class="cls-4" d="M412,315a1.36,1.36,0,0,1-1-2.1c.68-1.17,2.95-.76,4.1-.77s2.41,0,3.62-.05c2.27-.06,4.51-.65,6.76-.64.78,0,1.89-.28,2.59.06s1.27,1.27.87,1.86-2.79.49-3.48.56c-2.88.28-5.77.52-8.65.76-1.2.1-2.4.19-3.59.32l-.48.05h-.25A2.18,2.18,0,0,1,412,315Z" transform="translate(-181.36 -214.7)"/><path class="cls-4" d="M411.46,309.43a2.59,2.59,0,0,1-1.14-.52.92.92,0,0,1-.44-.82,1.44,1.44,0,0,1,.54-.77,2.9,2.9,0,0,1,1.14-.52,3.16,3.16,0,0,1,.69-.05l.42,0,.93,0,1.76-.06,3.61-.09,3.41-.11c.6,0,1.2,0,1.81,0l.87,0c1,.08,1.18.68,1.36,1.58a.69.69,0,0,1,0,.45c-.13.28-.52.33-.84.33l-4.25.07c-.83,0-1.64,0-2.47.1-1.21.1-2.43.18-3.64.26l-1.75.13-.92.07-.6,0A2.59,2.59,0,0,1,411.46,309.43Z" transform="translate(-181.36 -214.7)"/><path class="cls-4" d="M409.41,304.7a1.4,1.4,0,0,1-.44-.58c-.66-1.61.8-1.83,2.06-1.93l1.86-.14c2.39-.19,4.78-.38,7.17-.6.93-.09,2.68-.6,3.55-.09.5.29,1.21,1.84.73,2.28a.5.5,0,0,1-.29.09c-2.08.19-4,.14-6.12.4s-4.06.49-6.09.73A3.61,3.61,0,0,1,409.41,304.7Z" transform="translate(-181.36 -214.7)"/><path class="cls-4" d="M408.38,300.31a2.38,2.38,0,0,1-1.26-.43,1.12,1.12,0,0,1-.55-.75,1.07,1.07,0,0,1,.36-.75,2.53,2.53,0,0,1,1.29-.68,7.44,7.44,0,0,1,1-.09l.79-.05c2.45-.18,4.89-.41,7.33-.66.87-.1,1.75-.19,2.62-.21h.79l.71.05c1.91.16,1.37,2.06-.2,2.31-2.22.35-4.54.2-6.77.55-1.14.18-2.28.32-3.42.45l-.19,0h0l-.16,0h.06l-.48.05h0l.15,0-.15,0-.94.1c-.31,0-.62.08-.93.08Z" transform="translate(-181.36 -214.7)"/><path class="cls-4" d="M407.76,295.83a1.08,1.08,0,0,1-.75-1c-.2-1.34,1-1.5,2.1-1.62l.9-.1h-.12l.82-.1.29,0-.16,0,.19,0h.17l.2,0h.16c1.16-.14,2.33-.27,3.5-.37.58-.05,1.16-.1,1.74-.13.95-.05,2.3-.28,3.15.23s1,1.16.2,1.67-2.56.26-3.49.31a29.71,29.71,0,0,0-3.27.35l-3.53.67A4.8,4.8,0,0,1,407.76,295.83Z" transform="translate(-181.36 -214.7)"/><path class="cls-4" d="M410.93,291a2.27,2.27,0,0,1-1.14-.37,1.71,1.71,0,0,1-.39-.37.63.63,0,0,1-.12-.4,1,1,0,0,1,.16-.46,1.34,1.34,0,0,1,.4-.42,2.43,2.43,0,0,1,1-.44,5.54,5.54,0,0,1,.91,0h.16c1.19,0,2.38,0,3.57.08.6,0,1.2.06,1.8.13.33,0,.65.07,1,.13.83.15.25.71.6,1.31.06.12.14.27.05.36s-.15.05-.24.05a30.1,30.1,0,0,0-6.64.33,7.78,7.78,0,0,1-1,.11Z" transform="translate(-181.36 -214.7)"/><path class="cls-4" d="M412.52,287.34c-.73,0-1.4-.18-1.62-.73a.9.9,0,0,1,0-.13l0-.13a1.41,1.41,0,0,1,.17-.32,2.11,2.11,0,0,1,.93-.64,1.76,1.76,0,0,1,.45-.12,4.1,4.1,0,0,1,.61,0l.77,0,1.52.06c.59,0,2.22,0,2.6.54.67,1-.75,1.21-1.45,1.09a6.34,6.34,0,0,0-2,.19A10.89,10.89,0,0,1,412.52,287.34Zm-1.64-.84h0v0Z" transform="translate(-181.36 -214.7)"/><path class="cls-4" d="M409.08,284.59a2.54,2.54,0,0,1-.78-.18l-.42-.18-.88-.37-1.49-.62c-1.1-.45-2.21-.88-3.31-1.32l-1.89-.78c-.29-.12-.57-.24-.84-.38s-.34-.16-.51-.26l-.28-.16-.1-.08a1,1,0,0,1-.2-.22.59.59,0,0,1-.07-.53.65.65,0,0,1,.41-.38h0l.18-.05a.59.59,0,0,1,.19,0h.27l.4.08,1,.26c.52.14,1,.3,1.56.46,1.13.34,2.27.69,3.4,1.05l3.4,1.09a2.72,2.72,0,0,1,.5.19,2.32,2.32,0,0,1,.66.49,1.54,1.54,0,0,1,.49,1,.73.73,0,0,1-.43.67,2.19,2.19,0,0,1-1.06.26Z" transform="translate(-181.36 -214.7)"/><path class="cls-4" d="M403.93,287.79c-1.08-.44-2.15-.9-3.23-1.35a48.14,48.14,0,0,0-7.37-2.42,2.41,2.41,0,0,1-1-.41,3.15,3.15,0,0,1,1.52-1.16,3.19,3.19,0,0,1,1.27,0,21.39,21.39,0,0,1,3.91.72l3.5,1.15,3.23,1.09c.18.07.38.14.55.22a2.61,2.61,0,0,1,.88.73,1.85,1.85,0,0,1,.34,1,.88.88,0,0,1-.06.28.75.75,0,0,1-.22.25,2,2,0,0,1-.9.42,1.77,1.77,0,0,1-.45.05A5.18,5.18,0,0,1,403.93,287.79Z" transform="translate(-181.36 -214.7)"/><path class="cls-4" d="M406.42,291.72a4.09,4.09,0,0,1-1.31,0,12.11,12.11,0,0,1-3.22-1,22.58,22.58,0,0,0-4-.76c-2.81-.53-5.59-1.19-8.37-1.83a10.57,10.57,0,0,1-2.94-1,1.63,1.63,0,0,1,1.3-1.1,5.08,5.08,0,0,1,1.82.05c1.93.29,4,.45,5.85.91,2.09.5,4.13,1.26,6.18,1.89,1.36.42,3.57.64,4.61,1.62C407.11,291.27,406.93,291.6,406.42,291.72Z" transform="translate(-181.36 -214.7)"/><path class="cls-4" d="M402.77,295.78a23.46,23.46,0,0,1-2.48-.36,39.2,39.2,0,0,1-4.06-.54c-2.19-.43-4.35-1.29-6.49-1.89l-2.2-.6c-2.3-.58-4.69-.8-7-1.51-.09,0-.19-.07-.22-.15a.25.25,0,0,1,0-.19c.55-1.61,2.07-1.28,3.49-1,2.92.65,5.84,1.29,8.73,2l6.79,1.57c.65.14,6.22.9,4.28,2.47A1.5,1.5,0,0,1,402.77,295.78Z" transform="translate(-181.36 -214.7)"/><path class="cls-4" d="M404.74,300.82a1.16,1.16,0,0,1-.12.34,1,1,0,0,1-.46.49,1.5,1.5,0,0,1-1.22-.22,13.56,13.56,0,0,0-3.74-1.17,43.81,43.81,0,0,1-4.81-1l-6.67-1.8c-2.7-.73-5.34-1.42-8.09-1.95a10.73,10.73,0,0,1-3.21-.66c-.77-.45-1.06-1.14-.12-1.53.79-.32,2.21.18,3,.31,1.18.18,2.35.39,3.52.61,2.4.45,4.78,1,7.17,1.51l6.83,1.54c2.46.55,5,.69,7.05,2.14a1.7,1.7,0,0,1,.88,1.15A.9.9,0,0,1,404.74,300.82Z" transform="translate(-181.36 -214.7)"/><path class="cls-4" d="M404.19,305.08a1.16,1.16,0,0,1-.09.49,1.3,1.3,0,0,1-.3.54c-.45.43-1.21.21-1.8,0a33,33,0,0,0-6.95-1.65c-2.37-.35-4.74-1.05-7.08-1.59s-4.5-1.05-6.76-1.54c-1.17-.25-2.34-.51-3.52-.74s-2.47-.47-3.7-.69c-.89-.15-3.3-.09-3.58-1.18a1.06,1.06,0,0,1,.77-1.15,3.34,3.34,0,0,1,1.54,0c3.43.43,6.69,1.44,10.14,1.85,2.46.44,4.9.92,7.35,1.4,2.64.52,5.26,1.12,7.85,1.83,1.32.37,2.64.77,3.94,1.21C402.86,304.1,404.14,304.22,404.19,305.08Z" transform="translate(-181.36 -214.7)"/><path class="cls-4" d="M404.26,311.21a4.88,4.88,0,0,1-2.94.41c-1.19-.25-2.39-.51-3.59-.75l-6.9-1.4-7-1.4c-2.42-.48-4.84-1-7.26-1.4-3.23-.6-6.41-1.66-9.64-2.4-.56-.13-1.23-.35-1.36-.89a1,1,0,0,1,.85-1.12,3.39,3.39,0,0,1,1.58.08c6.07,1.28,12.11,2.54,18.23,3.48q3.56.54,7.11,1.15a53,53,0,0,1,9.76,2.18,2.86,2.86,0,0,1,.93.49C404.84,310.37,404.75,310.88,404.26,311.21Z" transform="translate(-181.36 -214.7)"/><path class="cls-4" d="M402.92,315a1,1,0,0,1,0,.24c-.5,2.27-5.87-.32-7.28-.58-2.42-.43-4.84-.84-7.27-1.25l-7-1.17-7-1.18L367,309.81l-2.45-.42c-.65-.11-2.8-.13-3.17-.73a1,1,0,0,1,.16-1.08,1.83,1.83,0,0,1,1.08-.51,5.82,5.82,0,0,1,1.86.12c1.65.3,3.29.64,4.91,1,1.31.31,2.5.24,3.78.46h-.06c2.47.31,4.93.66,7.39,1l7.11,1a43,43,0,0,1,6.83,1.19c1.83.58,3.7,1.05,5.55,1.53C401,313.61,403,313.74,402.92,315Z" transform="translate(-181.36 -214.7)"/><path class="cls-4" d="M402.32,319.8a1.88,1.88,0,0,1-1.19,1.09c-1.08.45-3-.32-4-.5l-7.19-1.19q-3.44-.58-6.87-1.21t-7.14-1.25q-3.5-.58-7-1.08l-3.09-.43-1.42-.18h0c-2.42-.32-5-.46-7.32-1.36a1.18,1.18,0,0,1-.54-.35c-.31-.39,0-1,.38-1.27a3.85,3.85,0,0,1,2.77-.26c4,.64,7.89,1.41,11.89,1.86q3.74.42,7.46.94c2.32.31,4.63.68,6.95,1l7.33,1.07q3.56.51,7.1,1.09C401.67,318,402.57,318.94,402.32,319.8Z" transform="translate(-181.36 -214.7)"/><path class="cls-4" d="M401.19,327.55a1.82,1.82,0,0,1-.29.52c-.64.87-1,.47-2.25.32-2.34-.27-4.68-.69-7-1.09q-3.93-.66-7.83-1.4c-2.48-.46-5-.94-7.44-1.39-2.66-.48-5.33-.93-8-1.38s-5.08-.87-7.61-1.34c-1.86-.35-3.72-.72-5.57-1.15-1.49-.33-3.55-.53-4.18-2a1.51,1.51,0,0,1,1.17-1.17,4.89,4.89,0,0,1,1.83,0,90,90,0,0,1,10.31,2.06c3.07.77,6.29,1,9.45,1.43,2.64.39,5.26.81,7.89,1.25s5.1.86,7.65,1.27C391.1,323.71,402.27,324.48,401.19,327.55Z" transform="translate(-181.36 -214.7)"/></g><path class="cls-8" d="M377.23,349.13l-.38-.19.62.3Z" transform="translate(-181.36 -214.7)"/><path class="cls-9" d="M406.31,393.53c0-.33,0-.66-.05-1-.07-.73-.13-1.45-.23-2.17s-.24-1.54-.37-2.31c-.29-1.62-.63-3.23-1.06-4.81-.21-.76-.43-1.51-.65-2.27-.3-1-.64-1.91-1-2.86l.15.44a36.66,36.66,0,0,0-1.64-4c-.44-.92-.91-1.83-1.39-2.73s-.94-1.54-1.45-2.28-.86-1.22-1.33-1.81c-.2-.25-.4-.5-.61-.74-.44-.49-.87-1-1.35-1.49l-.13-.13c-.8-1.12-1.65-2.2-2.53-3.26a58.47,58.47,0,0,0-7.17-7.34c-.61-.51-1.2-1-1.83-1.51s-1.25-.94-1.89-1.4-1.08-.71-1.61-1.05c-.27-.18-.54-.35-.82-.51-.84-.49-1.7-.95-2.58-1.39a10.08,10.08,0,0,0-1.63-.64,9.71,9.71,0,0,0-2.83-.43,9.35,9.35,0,0,0-2.74.32,10.39,10.39,0,0,0-1.89.71l-.19.09-1.56-.92a14.91,14.91,0,0,0-3.08-1.37,7.56,7.56,0,0,0-3.92-.14,6.41,6.41,0,0,0-4.33,3.54,6.25,6.25,0,0,0,0,5.05,8.27,8.27,0,0,0,1.71,2.45,12.19,12.19,0,0,0,1.26,1.11,19.54,19.54,0,0,0,2,1.36c1,.63,2.1,1.22,3.16,1.83,4.68,2.7,8.24,5.23,11.54,9.61.56.75,1.11,1.51,1.66,2.27,1,1.43,1.9,2.86,2.83,4.31,1.25,2,2.5,4,3.78,5.94.66,1,1.32,2,2,3.06.2.3.41.59.62.89l.18.63c.24.86.43,1.72.63,2.59.12.69.23,1.38.32,2.07.05.42.1.84.13,1.26s0,.63.05.95c0,.85,0,1.7,0,2.55s-.08,1.61-.14,2.42a68.55,68.55,0,0,1-1.28,7.67l-.06.25c-.21.91-.43,1.82-.64,2.73.06-.29.13-.58.2-.87-.12.5-.25,1-.34,1.52a9.49,9.49,0,0,0-.16,2.5c-.1.24-.19.49-.27.74a7,7,0,0,0,1.8,7.15,7.67,7.67,0,0,0,5.13,2.12h.16a7.71,7.71,0,0,0,3.75-.95,10.34,10.34,0,0,0,2.34-1.8,15.8,15.8,0,0,0,1.35-1.48l.4-.53c.38-.51.74-1,1.09-1.55s.81-1.31,1.17-2c.27-.45.52-.92.77-1.38.33-.62.65-1.24.94-1.88a51.61,51.61,0,0,0,1.88-5c.2-.61.36-1.24.51-1.86.26-1.07.49-2.13.71-3.2.12-.61.21-1.23.27-1.84.11-1.07.23-2.13.28-3.19,0-.76,0-1.52,0-2.28C406.39,394.73,406.34,394.13,406.31,393.53Z" transform="translate(-181.36 -214.7)"/><path class="cls-4" d="M437.35,249.07a8.32,8.32,0,0,0-3.07-4.26,6,6,0,0,0-.68-.43,10,10,0,0,0-3-1,9.19,9.19,0,0,0-1.65-.14,6,6,0,0,0-.85,0,5.19,5.19,0,0,0-.79.12,8.13,8.13,0,0,0-5.33,4.13c-2.18,3.45-2,8.28,2.09,10.43.24.13.48.25.73.36s.5.2.75.29a12.27,12.27,0,0,0,1.57.46c4.76,1.14,8.3-1.82,9.85-5.77a14.66,14.66,0,0,0,.48-1.46A5,5,0,0,0,437.35,249.07Zm-.73,2.37a5.39,5.39,0,0,1-.22.88c-.1.26-.21.52-.32.78-.21.47-.43.94-.68,1.4-.18.29-.38.57-.59.85a10.05,10.05,0,0,1-.82.91,7.39,7.39,0,0,1-1.61,1.23,7.73,7.73,0,0,1-6.61.13q-.5-.21-1-.45c-.3-.18-.59-.36-.87-.56a7.64,7.64,0,0,1-.62-.51,5.33,5.33,0,0,1-.4-.42,4.84,4.84,0,0,1-.33-.46,3.72,3.72,0,0,1-.27-.48c-.09-.22-.17-.45-.25-.68-.11-.41-.19-.82-.26-1.24s-.07-.63-.09-.95,0-.59,0-.88.11-.65.19-1c.69-2.88,3.25-5.71,6.36-5.92a8.5,8.5,0,0,1,3.13.38,8.77,8.77,0,0,1,3.56,2.13A6.34,6.34,0,0,1,436.62,251.44Z" transform="translate(-181.36 -214.7)"/><path class="cls-10" d="M403.48,278.91c-.24-.19-.25-.93.19-2.05q.25-.66.48-1.32c.14-.44.27-.88.4-1.32s.29-1,.43-1.42.29-.88.43-1.33a33.6,33.6,0,0,0,1.06-4.4c.08-.43.21-.93.63-1.07a.3.3,0,0,1,.33.06c.57.66,0,2.26-.09,3a21.77,21.77,0,0,1-.63,2.77c-.28.92-.59,1.82-.87,2.74-.14.45-.27.9-.42,1.34s-.34.95-.54,1.41C404.31,278.65,403.75,279.12,403.48,278.91Z" transform="translate(-181.36 -214.7)"/><path class="cls-10" d="M427.08,270.64a23.89,23.89,0,0,1-3.27-.26c-.51-.07-1-.16-1.53-.26s-1-.2-1.5-.32-1.1-.26-1.64-.43c-1.1-.33-2.25-1.24-3.39-.58a1.2,1.2,0,0,1-.34.17.3.3,0,0,1-.32-.13.47.47,0,0,1,0-.17c.15-2.83,3.82-.4,5,0a20.26,20.26,0,0,0,4.44.92,19.92,19.92,0,0,0,8.93-1.19,11.22,11.22,0,0,0,3.09-1.71,15.25,15.25,0,0,0,4.38-7.35.48.48,0,0,1,.1-.23c.16-.17.46-.05.56.16a1,1,0,0,1,0,.67,15,15,0,0,1-3.54,6.48,14.1,14.1,0,0,1-1.65,1.43l-.11.08.08-.06a13.08,13.08,0,0,1-1.27.82,14.55,14.55,0,0,1-1.43.7,16.29,16.29,0,0,1-3.09,1,14.53,14.53,0,0,1-1.61.24,16.25,16.25,0,0,1-1.7.08Z" transform="translate(-181.36 -214.7)"/><path class="cls-10" d="M441.73,259.34c-.25.12-.47.18-.58.07-.39-.35.14-.91.46-1.09.5-.27,1.91-.27,1.9-1.14a.76.76,0,0,0-.27-.48,19.52,19.52,0,0,1-2.73-2.65c-.23-.33-.73-1.26,0-1.24a.57.57,0,0,1,.51.44v.05c.23.29.48.55.73.82s.7.68,1.08,1c.67.59,2.18,1.71,1.41,2.82a1.55,1.55,0,0,1-.62.45c-.3.13-.6.25-.91.36S442.09,259.16,441.73,259.34Z" transform="translate(-181.36 -214.7)"/><path class="cls-10" d="M442.54,252.7a.38.38,0,0,1,0-.36,3.42,3.42,0,0,1,.13-.34l0,.05.45-1a40.34,40.34,0,0,0,2-5.4c.24-.79.41-1.59.64-2.38.06-.2.21-1.09.41-1.18.36-.16.44.35.42.62a22.67,22.67,0,0,1-1.85,7.14,12.44,12.44,0,0,1-1.43,2.63,1.24,1.24,0,0,1-.28.28.45.45,0,0,1-.19.05A.31.31,0,0,1,442.54,252.7Z" transform="translate(-181.36 -214.7)"/><path class="cls-10" d="M413.34,281.43s-.06,0,0,0a.58.58,0,0,1-.16-.19,1,1,0,0,1-.12-.32,1.18,1.18,0,0,1,0-.42,2,2,0,0,1,.1-.41l.27-.74c.16-.46.35-.9.54-1.35s.43-1,.65-1.5.39-.85.58-1.27.38-.84.58-1.25a19.45,19.45,0,0,1,2.67-4.68,1.84,1.84,0,0,1,.66-.55c1.15-.5.23,1,0,1.32a33.6,33.6,0,0,0-2.3,4.1c-.45,1-.81,2-1.22,3s-.78,1.87-1.13,2.82c0,.1-.07.2-.11.31a3.17,3.17,0,0,1-.14.4,1.44,1.44,0,0,1-.51.64.94.94,0,0,1-.22.12A.29.29,0,0,1,413.34,281.43Z" transform="translate(-181.36 -214.7)"/><path class="cls-4" d="M443.8,261.91a1,1,0,0,1-1-.94,2.89,2.89,0,0,0,3.12-.56c2.73-2.23,4-8,1.6-10.82-1.4-1.62-3.9-.78-5.2.51-.19.19-.37.38-.55.58l-.54.61a2.92,2.92,0,0,1-.45.41,1.08,1.08,0,0,1-.49.21,1.1,1.1,0,0,1-.54,0l-.36-.12-.35-.09h-.07c-.24-.06-.47-.11-.71-.15l-.56,0-.33,0a.47.47,0,0,1-.29-.14A.27.27,0,0,1,437,251a.52.52,0,0,1,.28-.22,3,3,0,0,1,.42-.14,3.32,3.32,0,0,1,2,.3.65.65,0,0,0,.38.06.64.64,0,0,0,.27-.19,13,13,0,0,1,3.2-2.54,5.15,5.15,0,0,1,2.09-.36,3.26,3.26,0,0,1,2.63,1.24,5.23,5.23,0,0,1,1.33,2.75,8.46,8.46,0,0,1-.06,3,13.87,13.87,0,0,1-.65,2.78,8.17,8.17,0,0,1-1.22,2.1C446.75,261,445.45,262.11,443.8,261.91Z" transform="translate(-181.36 -214.7)"/><circle class="cls-6" cx="325.58" cy="229.19" r="8.74"/><circle class="cls-6" cx="149.58" cy="224.19" r="8.74"/><path class="cls-3" d="M450.69,444a37.71,37.71,0,0,1,.6-8.48,59,59,0,0,1,9.37-24.33,40.85,40.85,0,0,1,10.87-11.54,75.45,75.45,0,0,1,20-9.9,60.39,60.39,0,0,1,13.72-2.58c2-.11,12.32-.75,11.34,2.51-.54,1.78-3.23,2.66-4.86,2.46-.75-.09-1.5-.15-2.26-.21-.93-.05-1.87-.09-2.81-.08s-2,0-2.95.08-1.91.16-2.87.27-1.94.29-2.91.47-1.84.41-2.75.66a68.75,68.75,0,0,0-21.43,10.33,44.57,44.57,0,0,0-15.17,18.67,49,49,0,0,0-3.54,25.13,2.08,2.08,0,0,1-.08,1.24c-.52,1-2.13.49-2.84-.41A8.18,8.18,0,0,1,450.69,444Z" transform="translate(-181.36 -214.7)"/><path class="cls-3" d="M329,390.25c10.89-.64,23.46,3.81,32.4,9.89s14.53,15.77,18.62,25.53c.59,1.4,1.95,3.7,3.66,2.63,1.3-.81,1.14-3.36.86-4.6-.73-3.34-2.57-6.33-4.47-9.18a87.94,87.94,0,0,0-16.39-19A52.81,52.81,0,0,0,351,387.62c-4.37-1.92-8.33-2.47-13-3a68.3,68.3,0,0,0-20.33.76c-13.14,2.5-24.13,10.27-33.63,19.45a48.27,48.27,0,0,0-9.17,11.34,3.68,3.68,0,0,0-.62,2.71c1,3.36,5.17-1,6-2,5.95-7.44,12.71-14.49,20.88-19.5C309.83,392.06,319.06,390.84,329,390.25Z" transform="translate(-181.36 -214.7)"/><path class="cls-3" d="M373.58,394.8c1.35,2.49,2.71,5,4.05,7.47,1.82,3.38,3.6,6.77,5.41,10.15,1.37,2.55,2.39,5.2,4,7.71a4.53,4.53,0,0,0,1.24,1.47c3.3,2.21,2.87-1.64,1.84-3.67q-6.7-13.17-13.39-26.35L370,378.41c-.93-1.83-1.74-4.58-3.07-6.13-1.2-1.4-2.83-1.39-4.72-1.4-.33,0-.76.07-.85.39a.82.82,0,0,0,.17.59c3.46,5.77,6.23,12,9.38,18,.48.9,1,1.81,1.45,2.7S373.17,394,373.58,394.8Z" transform="translate(-181.36 -214.7)"/><path class="cls-3" d="M392.57,418.34a74.77,74.77,0,0,0-14,1.57l-1.53.31c-5.24,1.07-10.47,2.32-15.66,3.62s-10.12,2.56-15.13,4c-3.65,1-7.11,2.33-10.74,3.27-3.19.82-6.5,2.31-7.67,5.48-1.27,3.44,1.29,7.39,4.82,8.44,5.41,1.59,10.47,1.29,16.06,1.56,5.29.25,10.58.64,15.86,1.12s10.65,1,16,1.53c10.39,1,29,4.61,32.93-8.57a16.35,16.35,0,0,0,.63-3.11C415.19,426.53,404,418.23,392.57,418.34Z" transform="translate(-181.36 -214.7)"/><path class="cls-3" d="M378.14,430.73v0h0Z" transform="translate(-181.36 -214.7)"/><path class="cls-3" d="M488.61,426.35q-3.6-5.46-7-11.08A357.39,357.39,0,0,1,454.08,359c-.17-.44-.34-.88-.52-1.31l-.51.92c-.56,1-1.14,2-1.73,3-1.26,2.05-2.56,4-3.89,6s-2.84,4.14-4.29,6.16c-8,11-16.25,22.6-28,29.85-7.86,4.83-19.09,5.39-27.91,3.44-1.61-.36-12.1-3.44-6.74-6.16,1.5-.76,4.94.32,6.56.53,2.44.32,4.88.67,7.33.89,4.78.44,9.69.42,14.27-1.18,5.83-2,10.51-6.39,14.88-10.75a127.14,127.14,0,0,0,10-10.93c3-3.84,5.23-8.12,8-12.08l1.22-1.75a132.83,132.83,0,0,0,7.43-11.83c.26-.48.51-1,.78-1.43a3.21,3.21,0,0,1,.19-.31,3.92,3.92,0,0,1,.65-.84,2.87,2.87,0,0,1,.44-.34,3.37,3.37,0,0,1,.64-.3,1.9,1.9,0,0,1,.71-.06,2.43,2.43,0,0,1,1,.32,6.22,6.22,0,0,1,2.22,2.87c.3.6.56,1.22.82,1.86,1.86,4.68,3.3,9.51,5.21,14.2q3,7.26,6.29,14.39,6.63,14.24,14.62,27.79,5.13,8.71,10.79,17.1a60.29,60.29,0,0,0,6.81,8.47c1,1.05,2.64,3.16,4,3.67s3-.45,3.71,1.47a2.35,2.35,0,0,1-.81,2.66c-3.61,2.56-8.25-2.91-10.07-5.36Q493.17,433.29,488.61,426.35Z" transform="translate(-181.36 -214.7)"/><path class="cls-3" d="M504.35,343.15l.13-.09Z" transform="translate(-181.36 -214.7)"/><path class="cls-3" d="M411,436a1.21,1.21,0,0,1-.54-.32,1.84,1.84,0,0,1-.3-.49,4.21,4.21,0,0,1-.3-1.27,7.18,7.18,0,0,1,.1-1.8,5.69,5.69,0,0,1,.65-1.73c.63-1.17,1.25-2.36,1.92-3.49s1.39-2.23,2.1-3.33c1.47-2.27,3-4.51,4.48-6.75l4.63-6.92c1.52-2.26,3-4.53,4.56-6.81s3-4.51,4.47-6.77l4.52-6.94q2.26-3.48,4.51-7l4.52-6.94c1.55-2.38,3.1-4.78,4.63-7.2s2.87-4.61,4.24-7l.35-.6a3.3,3.3,0,0,1,.57-.74,1.88,1.88,0,0,1,1.07-.51,1.79,1.79,0,0,1,1.15.29,3.19,3.19,0,0,1,1.28,2,5,5,0,0,1,.08.94,5.68,5.68,0,0,1,0,.59,3,3,0,0,1-.83,1.84,3,3,0,0,1-.35.27l-.35.61-1.06,1.78c-.7,1.16-1.4,2.3-2.12,3.44q-2.24,3.54-4.5,7t-4.49,6.89l-4.5,6.94q-2.28,3.51-4.57,7t-4.57,6.95c-1.53,2.3-3.07,4.59-4.6,6.88l-4.55,6.78c-1.51,2.26-3,4.51-4.52,6.79-.73,1.12-1.45,2.25-2.17,3.4s-1.32,2.25-1.94,3.42c-.16.29-.31.58-.47.86a4.12,4.12,0,0,1-1.09,1.27,2.55,2.55,0,0,1-1,.51l-.35.06A1.52,1.52,0,0,1,411,436Z" transform="translate(-181.36 -214.7)"/><path class="cls-11" d="M356,371.59l-.51,0c-.11-1.51-.12-3.36.66-4.06a1.57,1.57,0,0,1,.82-.33c2.45-.39,4.77.84,7.24.8h.93c.85,0,5.71-1.52,4.18,2.25-.64,1.57-3,1.55-4,1.7s-1.88.2-2.83.26c-.19,0-.39,0-.58,0H361C359.34,372.12,357.65,371.77,356,371.59Z" transform="translate(-181.36 -214.7)"/><path class="cls-11" d="M369.35,366.25l-.56-.05c-1.68-.15-3.35-.26-5-.36-.93,0-1.87-.08-2.81-.12-1.72,0-3.45-.06-5.17-.06h-4.93c-.84,0-1.69,0-2.53,0s-1.79,0-2.67-.13a1.9,1.9,0,0,1-.67-.18,25.67,25.67,0,0,1-3.27-.43c-.42-.08-.83-.18-1.24-.3a9.92,9.92,0,0,1-1.32-.49,5.88,5.88,0,0,1-.6-.35,3,3,0,0,1-1.05-1.06,2.52,2.52,0,0,1-.32-1.54,2,2,0,0,1,.18-.68,2.7,2.7,0,0,1,.36-.64,2.46,2.46,0,0,1,1-.73,6.17,6.17,0,0,1,1-.28h0l.11,0h0c.83-.18,1.67-.33,2.5-.48s1.62-.29,2.43-.42c1-.16,2-.3,3-.39h-.1l.4,0h.06c.82-.08,1.63-.11,2.45-.12s1.76,0,2.64.07a11.63,11.63,0,0,1,2.55.43c.2.06.41.12.61.2s.45.19.67.3a6.88,6.88,0,0,1,1.1.67c.27.18.52.39.77.59l.74.59.77.59.8.53c.43.24.86.47,1.31.68.74.31,1.51.57,2.26.84l1.14.43c.36.16.73.32,1.1.46.76.3,1.55.5,2.31.77a6.07,6.07,0,0,1,.59.24,2.44,2.44,0,0,1,.43.28.73.73,0,0,1,.24.41.72.72,0,0,1-.15.55.94.94,0,0,1-.8.31ZM347.82,364Zm.08-5.15.21,0-.21,0Z" transform="translate(-181.36 -214.7)"/><path class="cls-4" d="M461.36,331.83c.05-.86-.31-1.6-1.73-2.08-3.08-1-5.71,3.66-8.89,2.3-.93-.39-1.48-1.28-2.85-.89a5.23,5.23,0,0,0-1.22.54l-.64.37a1.91,1.91,0,0,0-.34.24c-.69.25-1.38.51-2.07.7l-2.67.72-1.29.35c-.39.1-.79.19-1.18.33a2.27,2.27,0,0,0-.45.21.85.85,0,0,0-.45-.06c-.63.1-1.07.93-1.36,1.73a16.5,16.5,0,0,0-.75,3.23,15.27,15.27,0,0,0-.16,2,8.49,8.49,0,0,0,.09,1.14,4.39,4.39,0,0,0,.21.83,3.55,3.55,0,0,0,.29.55,2.73,2.73,0,0,0,.27.31.91.91,0,0,0,.78.23,3.66,3.66,0,0,0,.79-.2H438a1.65,1.65,0,0,0,.57-.14,6.18,6.18,0,0,0,.87-.47l1.6-1,0,0,2.68-1.37,2.65-1.31,2.53-1.29.62-.3a4.36,4.36,0,0,0,.42-.23,1.94,1.94,0,0,0,.46-.41,3.1,3.1,0,0,0,.45-.73c.29-.7,3.24-2.23,4-2,1.71.59.58,2.67,2,3.7.29.22.67.33.88.63.33.48,0,1.13-.36,1.59-1.19,1.52-2.81,2.58-4.08,4-1.76,2-1.64,2.8-2.19,4.93-.11.42-.58.61-.9.9-1,.91-.53,2.59.06,3.84a1.79,1.79,0,0,0,.82,1,1.66,1.66,0,0,0,.7.07,6.71,6.71,0,0,0,4.36-1.54,3.32,3.32,0,0,0,.61-4.26,1.21,1.21,0,0,1-1.56-.94c-.22-1.73,2.63-3.78,3.78-4.6a12.6,12.6,0,0,0,2.65-2.22,3.43,3.43,0,0,0,.72-3.24A8.36,8.36,0,0,0,460.8,337C459.63,335.48,461.24,333.44,461.36,331.83Z" transform="translate(-181.36 -214.7)"/><polygon class="cls-4" points="294.79 112.91 294.8 112.91 294.8 112.91 294.79 112.91"/><polygon class="cls-4" points="294.83 112.91 294.83 112.91 294.83 112.91 294.83 112.91"/><rect class="cls-11" x="410.91" y="452.49" width="23.02" height="3.37" rx="0.89" transform="translate(-109.19 -272.43) rotate(8.54)"/><path class="cls-2" d="M490.39,345.43c.07-.09.12-.18.18-.27l.19-.12.1,0,.14-.06.21-.08.23-.07.32-.08.81-.19c.79-.16,1.61-.27,2.39-.47l.36-.11.07,0,.59-.17h0l-.06.07a9.43,9.43,0,0,1-1.77,1.56,8.2,8.2,0,0,1-2.42.8,6.3,6.3,0,0,1-2.15.16A6.21,6.21,0,0,0,490.39,345.43Z" transform="translate(-181.36 -214.7)"/><path class="cls-2" d="M482.58,348.33a2.87,2.87,0,0,0,.91-1.59,6.76,6.76,0,0,0,1.17-.41c.33-.15.64-.33,1-.46s.8-.25,1.19-.4.64-.29,1-.44a1.39,1.39,0,0,1,.66-.19,9.11,9.11,0,0,1-1.34,1.37c-.27.23-.5.48-.79.7a5.42,5.42,0,0,1-.89.48,19.56,19.56,0,0,1-2,.91,7.48,7.48,0,0,1-1.34.44h0C482.27,348.62,482.42,348.48,482.58,348.33Z" transform="translate(-181.36 -214.7)"/><path class="cls-2" d="M477.65,348.49a3.76,3.76,0,0,0,.85-1.21l.29-.06c.33-.08.67-.13,1-.19s.79-.15,1.17-.19a.85.85,0,0,0,.16.17.91.91,0,0,0,.22.11,4.35,4.35,0,0,1-.33.42,2.36,2.36,0,0,1-.74.6l-1.49.7a8.62,8.62,0,0,1-2.14.61A5.37,5.37,0,0,0,477.65,348.49Z" transform="translate(-181.36 -214.7)"/><path class="cls-2" d="M472.48,347.79c.61-.12,1.22-.24,1.82-.38l.49-.11.46-.08h.34a3,3,0,0,1,.46.08l-.23.29a5,5,0,0,1-1.33,1.13,4.22,4.22,0,0,1-1.75.58,8.48,8.48,0,0,0-1,.27,1.52,1.52,0,0,0-.17.09A2.12,2.12,0,0,0,472.48,347.79Z" transform="translate(-181.36 -214.7)"/><path class="cls-2" d="M468.94,348.31a1.75,1.75,0,0,0,.82.09l.4,0a2,2,0,0,1-.43.48,3.3,3.3,0,0,1-1.23.44,8.76,8.76,0,0,1-2.89,0c-.36,0-.73-.09-1.09-.1a4.86,4.86,0,0,1,1.14-.57A9.69,9.69,0,0,1,468.94,348.31Z" transform="translate(-181.36 -214.7)"/><path class="cls-2" d="M459,350.53a.44.44,0,0,0-.23-.27h0v0h0l0,0,0,0,0,0a1.12,1.12,0,0,0-.2-.18h0l0,0a.91.91,0,0,1-.11-.16l0,0a1.69,1.69,0,0,1-.1-.27v0a.23.23,0,0,1,0-.07s0,0,0,0v0h0a.15.15,0,0,0,0-.07h0l.14-.21a1.63,1.63,0,0,0,.17-.38c1.74-.08,3.17-1.21,4.91-1.35a9.87,9.87,0,0,1,1.33.06h.07a7.2,7.2,0,0,0-1.73.87C462,349.07,460.55,350.76,459,350.53Z" transform="translate(-181.36 -214.7)"/><path class="cls-2" d="M502.66,343a1.14,1.14,0,0,1-.16.15c-.19.16-.41.31-.62.46s-.35.29-.55.42c.05,0,0,0-.05,0l-.15.07-.24.1a3.6,3.6,0,0,0-.62.39.94.94,0,0,1-.34.22c-.26.07-.54.06-.79.12a6.27,6.27,0,0,0-1,.33,4,4,0,0,1-1.78.43h-.06c.34-.27.66-.56,1-.84a3.67,3.67,0,0,0,1.22-1.41,5.66,5.66,0,0,0,1.61-.54,14.81,14.81,0,0,1,1.53-.62,4.94,4.94,0,0,1,.64-.17h.1l0,0a.64.64,0,0,1,.16.28c0,.14,0,.3,0,.45a.54.54,0,0,1,0,.11Z" transform="translate(-181.36 -214.7)"/><path class="cls-2" d="M500.76,348.65c-.08,1.42-.25,2.84-.33,4.26-.13,2.58-.61,5.13-.84,7.71a53,53,0,0,1-1.64,8.21c-.19.77-.39,1.55-.61,2.32a4.85,4.85,0,0,0-1.25.34c-.51.2-1.08.27-1.61.43l-1.75.51a18.8,18.8,0,0,1-1.79.6.37.37,0,0,0-.24.13,17.26,17.26,0,0,0-2.39.22c-.82.12-1.56.49-2.37.59a.33.33,0,0,0-.32.22,9.58,9.58,0,0,0-2.62,0,13,13,0,0,0-1.53.31,4,4,0,0,0-.69.23,4.14,4.14,0,0,1-.72.38.34.34,0,0,0-.24.16,13.83,13.83,0,0,0-1.58-.13,13.55,13.55,0,0,0-2.46.21,8.52,8.52,0,0,0-1.69.27,7.17,7.17,0,0,0-1.54-.34,11,11,0,0,0-3,.22l-.73.13a39.21,39.21,0,0,1-2.65-6.78c-.88-2.87-1.84-5.7-2.9-8.52-.56-1.51-1-3-1.6-4.54a23.55,23.55,0,0,1-1.66-4.14,5.91,5.91,0,0,0,2.93-1.38.79.79,0,0,0,.23,0c.28,0,.57-.08.85-.06a8.19,8.19,0,0,1,1.09.25,13,13,0,0,0,2.15.32,8.37,8.37,0,0,0,2.47-.25.74.74,0,0,0,.43.38,3.16,3.16,0,0,0,1.33.34,6.1,6.1,0,0,0,1.47-.37c.68-.18,1.3-.26,1.92-.47a5.37,5.37,0,0,0,1.27.12,10.31,10.31,0,0,0,3-.47c.6-.19,1.18-.46,1.76-.69.45.54,1.76.42,2.39.28a14.82,14.82,0,0,0,2.85-1c.37-.17.76-.31,1.11-.5a7.5,7.5,0,0,0,1.18-.9l.18-.16a6.21,6.21,0,0,0,2.94.18,12.24,12.24,0,0,0,3-.6,5.11,5.11,0,0,0,1.11-.59.36.36,0,0,0,.23.28,4.07,4.07,0,0,0,2.05.06c.62-.1,1.21-.31,1.84-.36a3.46,3.46,0,0,0,1-.17c0,.26,0,.52,0,.76C500.8,347.35,500.8,348,500.76,348.65Z" transform="translate(-181.36 -214.7)"/><path class="cls-12" d="M467.47,376h0Z" transform="translate(-181.36 -214.7)"/><path class="cls-12" d="M485,374.5h0l-.1,0Z" transform="translate(-181.36 -214.7)"/><path class="cls-12" d="M485.85,374.35l.11,0-.11,0h0Z" transform="translate(-181.36 -214.7)"/><path class="cls-12" d="M485.79,374.36h0Z" transform="translate(-181.36 -214.7)"/><path class="cls-12" d="M490.86,345l0,0Z" transform="translate(-181.36 -214.7)"/><path class="cls-12" d="M458.23,349.38h0Z" transform="translate(-181.36 -214.7)"/><polygon class="cls-12" points="277.4 135.55 277.4 135.55 277.4 135.55 277.4 135.55"/><path class="cls-12" d="M458.77,350.25h0Z" transform="translate(-181.36 -214.7)"/><path class="cls-12" d="M458.69,350.18l0,0,0,0h0A.28.28,0,0,0,458.69,350.18Z" transform="translate(-181.36 -214.7)"/><path class="cls-12" d="M504.62,342.81c-.08-.27,0-.56-.13-.83a2.14,2.14,0,0,0-1.58-1.3,4.49,4.49,0,0,0-2.18.24c-.39.11-.79.23-1.18.38s-.7.32-1.07.46a5.57,5.57,0,0,1-1.54.24l-.35,0h-.19a10,10,0,0,0-1.57.32c-.86.24-1.76.35-2.65.51a11.83,11.83,0,0,0-2.27.55l-.3-.09a5.19,5.19,0,0,0-2.51.16c-.5.17-1,.42-1.46.59s-1.05.28-1.55.49c-.25.1-.49.23-.74.34a2.92,2.92,0,0,1-.57.19,6.14,6.14,0,0,0-.89.27,6.57,6.57,0,0,0-1.6,0c-.45.05-.89.12-1.33.19-.23,0-.46.06-.68.11a1.84,1.84,0,0,1-.43.07,1.13,1.13,0,0,0-.51.1,6.33,6.33,0,0,0-2.14-.25,15.61,15.61,0,0,0-2.72.55c-1,.22-2,.38-3,.63a2.16,2.16,0,0,0-1-.61,6.85,6.85,0,0,0-1.75-.18c-.95,0-1.9,0-2.84,0a8.06,8.06,0,0,0-3.21.81c-.45.2-.89.44-1.35.63s-1.1.29-1.6.54c-.19.1-.34.27-.26.47l0,.1-.16.1a1.26,1.26,0,0,0-.66,1,1.9,1.9,0,0,0,.38,1l0,0h0a2.32,2.32,0,0,0,1.1.81,2.38,2.38,0,0,0,.6.13.34.34,0,0,0,0,.14,12.58,12.58,0,0,0,1.13,3.77c.55,1.51.94,3.05,1.43,4.57.92,2.86,1.9,5.7,2.73,8.58.4,1.4.81,2.8,1.31,4.17s1.35,2.79,1.93,4.21c.35.87.6,1.47,1.74,1.66a22.52,22.52,0,0,0,4.18.33,69.56,69.56,0,0,0,10-1.1c3.37-.56,6.73-1.19,10-2,.72-.17,1.41-.42,2.12-.6a16.69,16.69,0,0,0,2-.4,3.06,3.06,0,0,0,1.84-2.32c.85-3,1.6-5.94,2.18-8.94.31-1.61.46-3.2.62-4.82s.49-3.27.63-4.92.26-3.31.39-5a15.46,15.46,0,0,0,0-4.35,5.2,5.2,0,0,0,1.39-1.1A.83.83,0,0,0,504.62,342.81Zm-14.23,2.62c.07-.09.12-.18.18-.27l.19-.12.1,0,.14-.06.21-.08.23-.07.32-.08.81-.19c.79-.16,1.61-.27,2.39-.47l.36-.11.07,0,.59-.17h0l-.06.07a9.43,9.43,0,0,1-1.77,1.56,8.2,8.2,0,0,1-2.42.8,6.3,6.3,0,0,1-2.15.16A6.21,6.21,0,0,0,490.39,345.43Zm-7.81,2.9a2.87,2.87,0,0,0,.91-1.59,6.76,6.76,0,0,0,1.17-.41c.33-.15.64-.33,1-.46s.8-.25,1.19-.4.64-.29,1-.44a1.39,1.39,0,0,1,.66-.19,9.11,9.11,0,0,1-1.34,1.37c-.27.23-.5.48-.79.7a5.42,5.42,0,0,1-.89.48,19.56,19.56,0,0,1-2,.91,7.48,7.48,0,0,1-1.34.44h0C482.27,348.62,482.42,348.48,482.58,348.33Zm-4.93.16a3.76,3.76,0,0,0,.85-1.21l.29-.06c.33-.08.67-.13,1-.19s.79-.15,1.17-.19a.85.85,0,0,0,.16.17.91.91,0,0,0,.22.11,4.35,4.35,0,0,1-.33.42,2.36,2.36,0,0,1-.74.6l-1.49.7a8.62,8.62,0,0,1-2.14.61A5.37,5.37,0,0,0,477.65,348.49Zm-5.17-.7c.61-.12,1.22-.24,1.82-.38l.49-.11.46-.08h.34a3,3,0,0,1,.46.08l-.23.29a5,5,0,0,1-1.33,1.13,4.22,4.22,0,0,1-1.75.58,8.48,8.48,0,0,0-1,.27,1.52,1.52,0,0,0-.17.09A2.12,2.12,0,0,0,472.48,347.79Zm-3.54.52a1.75,1.75,0,0,0,.82.09l.4,0a2,2,0,0,1-.43.48,3.3,3.3,0,0,1-1.23.44,8.76,8.76,0,0,1-2.89,0c-.36,0-.73-.09-1.09-.1a4.86,4.86,0,0,1,1.14-.57A9.69,9.69,0,0,1,468.94,348.31ZM459,350.53a.44.44,0,0,0-.23-.27h0v0h0l0,0,0,0,0,0a1.12,1.12,0,0,0-.2-.18h0l0,0a.91.91,0,0,1-.11-.16l0,0a1.69,1.69,0,0,1-.1-.27v0a.23.23,0,0,1,0-.07s0,0,0,0v0h0a.15.15,0,0,0,0-.07h0l.14-.21a1.63,1.63,0,0,0,.17-.38c1.74-.08,3.17-1.21,4.91-1.35a9.87,9.87,0,0,1,1.33.06h.07a7.2,7.2,0,0,0-1.73.87C462,349.07,460.55,350.76,459,350.53Zm12.52,26.91a9.21,9.21,0,0,1-1.57-.18c-.43-.12-.58-.48-.73-.87a10,10,0,0,1,3.73-.09,4.9,4.9,0,0,1,.55.13.55.55,0,0,0,.27.25,7.83,7.83,0,0,0,2,.61h0A24.25,24.25,0,0,1,471.51,377.44Zm6.72-.42a.63.63,0,0,0-.28-.2,9.5,9.5,0,0,0-1.52-.44,11,11,0,0,1,2.07-.1,12.6,12.6,0,0,1,2.12.31l.19.06C480,376.78,479.09,376.91,478.23,377Zm6.82-1.06-1.5.25a.76.76,0,0,0-.31-.13,19,19,0,0,1-2.27-.6,6.48,6.48,0,0,1,.87-.21,11.32,11.32,0,0,1,1.74-.21,8.73,8.73,0,0,1,1.7.11c.57.11,1.11.31,1.66.46h0Zm5.1-1a1,1,0,0,0-1,0l-.24,0c-.29,0-.58-.11-.87-.17s-.61-.16-.92-.24c.39-.07.77-.16,1.17-.22a14,14,0,0,1,2.5-.11c.39,0,.77.11,1.15.15s.48,0,.72,0C491.84,374.6,491,374.8,490.15,375Zm6.07-1.46-.22.07a.56.56,0,0,0-.28-.12,11.38,11.38,0,0,0-1.31-.06c-.44,0-.85-.1-1.29-.13h-.07c.54-.12,1.08-.22,1.61-.37s1.07-.22,1.59-.35a6.75,6.75,0,0,0,.76-.25c0,.05,0,.1,0,.15C496.83,372.94,496.76,373.33,496.22,373.53Zm4.54-24.88c-.08,1.42-.25,2.84-.33,4.26-.13,2.58-.61,5.13-.84,7.71a53,53,0,0,1-1.64,8.21c-.19.77-.39,1.55-.61,2.32a4.85,4.85,0,0,0-1.25.34c-.51.2-1.08.27-1.61.43l-1.75.51a18.8,18.8,0,0,1-1.79.6.37.37,0,0,0-.24.13,17.26,17.26,0,0,0-2.39.22c-.82.12-1.56.49-2.37.59a.33.33,0,0,0-.32.22,9.58,9.58,0,0,0-2.62,0,13,13,0,0,0-1.53.31,4,4,0,0,0-.69.23,4.14,4.14,0,0,1-.72.38.34.34,0,0,0-.24.16,13.83,13.83,0,0,0-1.58-.13,13.55,13.55,0,0,0-2.46.21,8.52,8.52,0,0,0-1.69.27,7.17,7.17,0,0,0-1.54-.34,11,11,0,0,0-3,.22l-.73.13a39.21,39.21,0,0,1-2.65-6.78c-.88-2.87-1.84-5.7-2.9-8.52-.56-1.51-1-3-1.6-4.54a23.55,23.55,0,0,1-1.66-4.14,5.91,5.91,0,0,0,2.93-1.38.79.79,0,0,0,.23,0c.28,0,.57-.08.85-.06a8.19,8.19,0,0,1,1.09.25,13,13,0,0,0,2.15.32,8.37,8.37,0,0,0,2.47-.25.74.74,0,0,0,.43.38,3.16,3.16,0,0,0,1.33.34,6.1,6.1,0,0,0,1.47-.37c.68-.18,1.3-.26,1.92-.47a5.37,5.37,0,0,0,1.27.12,10.31,10.31,0,0,0,3-.47c.6-.19,1.18-.46,1.76-.69.45.54,1.76.42,2.39.28a14.82,14.82,0,0,0,2.85-1c.37-.17.76-.31,1.11-.5a7.5,7.5,0,0,0,1.18-.9l.18-.16a6.21,6.21,0,0,0,2.94.18,12.24,12.24,0,0,0,3-.6,5.11,5.11,0,0,0,1.11-.59.36.36,0,0,0,.23.28,4.07,4.07,0,0,0,2.05.06c.62-.1,1.21-.31,1.84-.36a3.46,3.46,0,0,0,1-.17c0,.26,0,.52,0,.76C500.8,347.35,500.8,348,500.76,348.65Zm1.9-5.63a1.14,1.14,0,0,1-.16.15c-.19.16-.41.31-.62.46s-.35.29-.55.42c.05,0,0,0-.05,0l-.15.07-.24.1a3.6,3.6,0,0,0-.62.39.94.94,0,0,1-.34.22c-.26.07-.54.06-.79.12a6.27,6.27,0,0,0-1,.33,4,4,0,0,1-1.78.43h-.06c.34-.27.66-.56,1-.84a3.67,3.67,0,0,0,1.22-1.41,5.66,5.66,0,0,0,1.61-.54,14.81,14.81,0,0,1,1.53-.62,4.94,4.94,0,0,1,.64-.17h.1l0,0a.64.64,0,0,1,.16.28c0,.14,0,.3,0,.45a.54.54,0,0,1,0,.11Z" transform="translate(-181.36 -214.7)"/><path class="cls-12" d="M476.87,372.72a4.17,4.17,0,0,1-1.13.13c-.57.07-1.12.19-1.7.22-1.29.07-2.59,0-3.88.11-.57.05-.57.62,0,.68a27.56,27.56,0,0,0,4.26.1c.61,0,1.21-.14,1.82-.21a1.85,1.85,0,0,0,1.34-.51C477.88,372.86,477.23,372.55,476.87,372.72Z" transform="translate(-181.36 -214.7)"/><path class="cls-12" d="M479.66,370.93a3.2,3.2,0,0,0-.33.07l-.18,0c-.28,0-.54,0-.82,0s-.51.1-.77.13c-.55.07-1.1.13-1.64.21s-1,.3-1.58.41-.35.63.11.61.93-.16,1.41-.22,1-.08,1.52-.11.93-.16,1.4-.16a2.64,2.64,0,0,0,1.25-.2c.14-.08.32-.21.29-.37A.56.56,0,0,0,479.66,370.93Z" transform="translate(-181.36 -214.7)"/><path class="cls-12" d="M486.24,371.15a11.47,11.47,0,0,0-2.47.33c-.4.1-.8.17-1.2.24a3.75,3.75,0,0,0-.6.13,3.83,3.83,0,0,1-.58.16c-.31,0-.39.47,0,.51a4.81,4.81,0,0,0,1.2,0c.45-.05.9-.06,1.34-.12a14,14,0,0,1,2.33-.22c.32,0,.67-.2.67-.49S486.55,371.14,486.24,371.15Z" transform="translate(-181.36 -214.7)"/><path class="cls-12" d="M484.16,369a1.19,1.19,0,0,0-.65-.07l-.5.08-1.12.11-1.11.12a5.54,5.54,0,0,0-1.22.11c-.2.06-.34.22-.26.4v0c0,.22.35.29.54.17s.62.05.94,0,.78,0,1.18-.06.75,0,1.12-.07a4.25,4.25,0,0,0,.61-.08,3.42,3.42,0,0,0,.36-.14c.16,0,.32-.13.34-.29A.34.34,0,0,0,484.16,369Z" transform="translate(-181.36 -214.7)"/><path class="cls-12" d="M494.63,370.08c-.12-.34-.55-.42-.9-.38-.79.09-1.57.27-2.34.43-.38.08-.75.15-1.13.21a7.69,7.69,0,0,0-1.07.17h-.09c-.21,0-.46.13-.46.34s.25.34.46.34h.13a4,4,0,0,0,1.15.06c.43,0,.86-.06,1.29-.11.82-.09,1.65-.22,2.45-.39C494.45,370.68,494.75,370.4,494.63,370.08Z" transform="translate(-181.36 -214.7)"/><path class="cls-12" d="M490.31,368.6a3.19,3.19,0,0,0-1.23,0l-.52.08-.26,0h-.17l-1.06.07c-.37,0-.75.09-1.12.13a.32.32,0,0,0,0,.63,11.9,11.9,0,0,0,1.2.13h1.06a11.11,11.11,0,0,0,1.16-.08,2,2,0,0,0,1.17-.4C490.8,369,490.67,368.69,490.31,368.6Z" transform="translate(-181.36 -214.7)"/><path class="cls-12" d="M473.46,366.59c-.26-.38-1-.31-1.47-.29s-1,.07-1.55.14a23.42,23.42,0,0,1-2.78.14c-.22,0-.48.13-.48.35s.26.35.48.36a21.32,21.32,0,0,0,2.88.08c.47-.05.93-.08,1.4-.09s1.26.07,1.52-.32A.32.32,0,0,0,473.46,366.59Z" transform="translate(-181.36 -214.7)"/><path class="cls-12" d="M477.49,367.47a3.88,3.88,0,0,0-.76,0l-.66.13c-.4.07-.81.13-1.22.17-.84.1-1.7.16-2.54.23-.2,0-.42.1-.42.3s.22.3.42.31a20.29,20.29,0,0,0,2.7.06,7.07,7.07,0,0,0,2.76-.48C478.24,368,478,367.46,477.49,367.47Z" transform="translate(-181.36 -214.7)"/><path class="cls-12" d="M480.7,365.33a7.65,7.65,0,0,0-1.43.1c-.41,0-.82.1-1.23.17-.83.15-1.67.32-2.52.4-.19,0-.41.1-.42.31s.23.29.42.31a8.83,8.83,0,0,0,1.36,0c.43,0,.86-.06,1.29-.1l1.29-.14c.47,0,1,0,1.43-.09a.53.53,0,0,0,.49-.56C481.32,365.48,481,365.35,480.7,365.33Z" transform="translate(-181.36 -214.7)"/><path class="cls-12" d="M476.6,363.79a19.82,19.82,0,0,0-2.45.37c-.85.1-1.71,0-2.56.12-.19,0-.4.11-.4.3s.22.29.4.3a19.15,19.15,0,0,0,2.62.12c.8,0,1.58-.27,2.39-.25.3,0,.65-.19.65-.48S476.9,363.79,476.6,363.79Z" transform="translate(-181.36 -214.7)"/><path class="cls-12" d="M471.22,363.06a9.28,9.28,0,0,0-1.29-.05c-.38,0-.77,0-1.15,0a4.4,4.4,0,0,0-1.15.08,2.42,2.42,0,0,0-.51.19,2.91,2.91,0,0,0-.49.27c-.27.23,0,.6.32.57s.64-.18,1-.22a2.59,2.59,0,0,1,.41,0l.55,0a12.09,12.09,0,0,0,2.33,0A.43.43,0,0,0,471.22,363.06Z" transform="translate(-181.36 -214.7)"/><path class="cls-12" d="M479.6,362.14a4.08,4.08,0,0,0-1.67,0c-.54,0-1.08.05-1.61,0s-1.05,0-1.57,0a3.75,3.75,0,0,0-.81.16,2.37,2.37,0,0,0-.64.25h0a.24.24,0,0,0-.08.4c.37.45,1,.2,1.5.14a10.52,10.52,0,0,1,1.59.05,12.36,12.36,0,0,0,1.61,0c.3,0,.61,0,.91-.07a1.59,1.59,0,0,0,.89-.27A.41.41,0,0,0,479.6,362.14Z" transform="translate(-181.36 -214.7)"/><path class="cls-12" d="M475,360.46c-1,0-2,.13-3,.17l-1.5.07a4.6,4.6,0,0,0-1.58.18c-.31.14-.2.39,0,.5h0a4.6,4.6,0,0,0,1.58.18l1.5.07c1,0,2-.09,3-.14.33,0,.7-.19.7-.52S475.32,360.47,475,360.46Z" transform="translate(-181.36 -214.7)"/><path class="cls-12" d="M491.5,363.42c-.12-.35-.65-.42-1-.29.05,0,0,0,0,0h-.1l-.35,0a3.75,3.75,0,0,0-.68.17c-.15,0-.41.07-.61.11l-.65.14-.12,0h0l-.2,0a3.43,3.43,0,0,0-.56.07,1,1,0,0,0-.84.51c-.07.16.09.31.25.36a.51.51,0,0,0,.52-.12c-.06.05,0,0,.05,0s.08,0,.05,0l.06,0,.12,0h.25a8.76,8.76,0,0,0,1-.07c.4,0,.78,0,1.19-.14l.17,0h.33l.31,0c.36.08.8-.08.83-.45A.56.56,0,0,0,491.5,363.42Z" transform="translate(-181.36 -214.7)"/><path class="cls-12" d="M497.41,362.57a4,4,0,0,0-1.2,0c-.35,0-.7.16-1,.19s-.71,0-1.07,0a8,8,0,0,0-1.19.12.3.3,0,0,0,0,.59,11.87,11.87,0,0,0,2.31.18,3.68,3.68,0,0,0,.58-.07l.28-.05s.21,0,.12,0c.4,0,.8,0,1.2,0,.23,0,.46-.22.46-.44S497.64,362.62,497.41,362.57Z" transform="translate(-181.36 -214.7)"/><path class="cls-12" d="M494.22,361.12a9,9,0,0,0-2.37.17,6.3,6.3,0,0,1-1.05.21,2.83,2.83,0,0,0-1.28.2.26.26,0,0,0,0,.44,2.53,2.53,0,0,0,1.23.18,6.58,6.58,0,0,0,1.26-.15,5.09,5.09,0,0,1,1-.13c.39,0,.79,0,1.18,0h0c.29,0,.6-.15.64-.41S494.56,361.14,494.22,361.12Z" transform="translate(-181.36 -214.7)"/><path class="cls-12" d="M490,359.79a2.75,2.75,0,0,0-.57-.05l-.41,0-.92.07-1.83.17c-.21,0-.46.12-.46.34s.25.33.46.34a15.94,15.94,0,0,0,1.83,0,17.29,17.29,0,0,0,1.9-.11.41.41,0,1,0,0-.81Z" transform="translate(-181.36 -214.7)"/><path class="cls-12" d="M496.39,359.48a1.45,1.45,0,0,0-.62-.11,1.34,1.34,0,0,0-.44.1h-.28l-.6-.06a5.67,5.67,0,0,0-1.09,0,7.36,7.36,0,0,0-1.16.14c-.42.1-.42.54,0,.64a9,9,0,0,0,1.16.15l.52,0h.38a9.48,9.48,0,0,0,1.07.14,1.85,1.85,0,0,0,.62-.12l.18-.07c.05,0,.07,0,.06,0a.57.57,0,0,0,.49-.32A.43.43,0,0,0,496.39,359.48Z" transform="translate(-181.36 -214.7)"/><path class="cls-12" d="M494,358a.77.77,0,0,0-.85,0H493l-.43,0a8.94,8.94,0,0,0-1,.11l-.84.16c-.35.07-.7.12-1,.17l-.14,0h-.34c-.19-.17-.61-.13-.61.15s.13.29.29.38c-.12-.06.06,0,.09.06l.08,0a1.76,1.76,0,0,0,.33.07,6,6,0,0,0,1.46-.06l1-.14a7.36,7.36,0,0,1,1.05,0,1.71,1.71,0,0,0,1.11-.32A.38.38,0,0,0,494,358Z" transform="translate(-181.36 -214.7)"/><path class="cls-12" d="M490.1,356.77a.82.82,0,0,0-.92-.38l-.53.08h-.41l-1.06.05-1,.08-.49,0h-.13a.65.65,0,0,0-.49-.14c-.21,0-.48.16-.46.38l0,.13a.38.38,0,0,0,.27.35,3.9,3.9,0,0,0,1.14.2c.36,0,.72,0,1.08,0a11.62,11.62,0,0,0,2.43-.12C489.92,357.38,490.22,357.09,490.1,356.77Z" transform="translate(-181.36 -214.7)"/><path class="cls-12" d="M495.35,355.92c-.37,0-.75,0-1.13.08l-.49.06-.44.05-1.07.07a6.37,6.37,0,0,0-.75,0h-.05a.3.3,0,0,0-.31.2c0,.11.06.17.15.22a3,3,0,0,0,2,.44c.71,0,1.42-.12,2.13-.12.33,0,.69-.2.69-.51S495.68,355.92,495.35,355.92Z" transform="translate(-181.36 -214.7)"/><path class="cls-12" d="M483.83,357l-.05-.09a.29.29,0,0,0-.12-.1.74.74,0,0,0-.3-.08c-.24,0-.49,0-.73,0a.71.71,0,0,0-.31-.16,7.66,7.66,0,0,0-1.79,0c-.28,0-.56,0-.85,0l-.52.05a1.86,1.86,0,0,0-.48.09.32.32,0,0,0,0,.6,1.86,1.86,0,0,0,.48.09l.46.05.85,0c.27,0,.53,0,.8,0h.49l.19,0a.91.91,0,0,0,.7-.16l.71,0a.61.61,0,0,0,.3-.08.42.42,0,0,0,.17-.18A.21.21,0,0,0,483.83,357Z" transform="translate(-181.36 -214.7)"/><path class="cls-12" d="M485.47,355q-.64,0-1.29,0c-.42,0-.81.12-1.22.19a11.76,11.76,0,0,1-1.18.11c-.2,0-.42.11-.42.31s.22.29.42.31A8.65,8.65,0,0,0,483,356c.39,0,.76-.11,1.15-.11l1.29,0c.43,0,1.33.09,1.33-.48S485.89,355,485.47,355Z" transform="translate(-181.36 -214.7)"/><path class="cls-12" d="M493.12,354.68a1.38,1.38,0,0,0-.63-.17H492c-.33,0-.66,0-1,0s-.67.05-1,.07l-.44.05a.75.75,0,0,0-.26-.05h-.73l-.49,0-.34,0a.47.47,0,0,0-.27.14.33.33,0,0,0-.11.22.44.44,0,0,0,.07.19.57.57,0,0,0,.31.18l.34,0,.49,0c.24,0,.49,0,.73,0a.75.75,0,0,0,.26,0l.44,0,1,.08c.33,0,.66,0,1,0h.52a1.39,1.39,0,0,0,.63-.18A.35.35,0,0,0,493.12,354.68Z" transform="translate(-181.36 -214.7)"/><path class="cls-12" d="M489.46,353a5.72,5.72,0,0,0-1.24.1c-.41.07-.83,0-1.26,0s-.83.18-1.26.23l-.65.07c-.21,0-.45.08-.59.09-.47,0-.47.52,0,.54.14,0,.38.06.59.09a4.77,4.77,0,0,0,.76.05c.41,0,.83-.08,1.24-.09a4.73,4.73,0,0,1,.65,0,4.46,4.46,0,0,0,.73,0c.4-.05.79-.14,1.2-.19a.5.5,0,0,0,.46-.52A.62.62,0,0,0,489.46,353Z" transform="translate(-181.36 -214.7)"/><path class="cls-12" d="M496.86,350.16a3.07,3.07,0,0,0-1.32-.13,6.58,6.58,0,0,0-1.09.06c-.29.05-.57.13-.86.19a2.79,2.79,0,0,1-.46.05.44.44,0,0,0-.52,0s0,0-.05,0a.34.34,0,0,0-.25.18.3.3,0,0,0,.2.36,3.75,3.75,0,0,0,2.05.05h.94a3.26,3.26,0,0,0,1.36-.13A.33.33,0,0,0,496.86,350.16Z" transform="translate(-181.36 -214.7)"/><path class="cls-12" d="M499.11,348.46a5.77,5.77,0,0,0-.72,0l-.86.08h-.08c.08,0,.08,0,0,0h-.17l-.41,0a6.75,6.75,0,0,0-.76.14c-.18,0-.35.16-.35.34s.17.3.35.34a5.29,5.29,0,0,0,.79.08c.25,0,.5,0,.74,0l.71,0,.48,0c.05,0,.16,0,0,0l.23,0c.27,0,.63-.16.61-.45S499.41,348.48,499.11,348.46Z" transform="translate(-181.36 -214.7)"/><path class="cls-12" d="M470.7,357.51a16.05,16.05,0,0,1-2.86,0,4.17,4.17,0,0,0-1.17-.07c-.41.06-.8.32-.56.7a.42.42,0,0,0,.51.08l.11,0h0c.07,0,.15,0,.06,0l.22,0c.26.05.51.12.77.18a12.41,12.41,0,0,0,2.92.12c.31,0,.66-.19.66-.49S471,357.51,470.7,357.51Z" transform="translate(-181.36 -214.7)"/><path class="cls-12" d="M465.88,355.49a9,9,0,0,0-.91.08l-.36.05-.18,0-.22,0h-.53a4.31,4.31,0,0,0-.95,0,.28.28,0,0,0,0,.56c.27.05.52.12.78.18a3.66,3.66,0,0,0,.81.09c.52,0,1-.09,1.56-.08.28,0,.65-.18.64-.47A.6.6,0,0,0,465.88,355.49Z" transform="translate(-181.36 -214.7)"/><path class="cls-12" d="M474.47,355.6a2.88,2.88,0,0,0-.83-.06h-2.05c-.95,0-1.88.1-2.82.2a.39.39,0,0,0,0,.78c.94.1,1.87.19,2.82.2h2.05a2.88,2.88,0,0,0,.83-.06c.27-.08.54-.24.54-.52S474.74,355.68,474.47,355.6Z" transform="translate(-181.36 -214.7)"/><path class="cls-12" d="M469.57,353.6a3.58,3.58,0,0,0-1.18-.05c-.33,0-.66.09-1,.13a4.39,4.39,0,0,1-.89,0,2.05,2.05,0,0,0-1.1.14l.21-.09-.2,0c-.18,0-.34.17-.31.34a.42.42,0,0,0,.42.28h.11a2.32,2.32,0,0,0,.38.07l.48.07a5.91,5.91,0,0,0,1,0c.69-.06,1.37-.18,2.05-.29C470,354.19,470,353.68,469.57,353.6Z" transform="translate(-181.36 -214.7)"/><path class="cls-12" d="M477.24,354a3.65,3.65,0,0,0-1.48-.15l-1.3,0a16.22,16.22,0,0,1-2.41.07c-.18,0-.39,0-.45.19s.09.29.25.33.31.14.48.19a2.34,2.34,0,0,0,.7.13c.44,0,.89.05,1.33.06s.93,0,1.4,0a3.65,3.65,0,0,0,1.48-.15A.38.38,0,0,0,477.24,354Z" transform="translate(-181.36 -214.7)"/><path class="cls-12" d="M473.38,352.2a15,15,0,0,0-2.68,0c-.4,0-.79.17-1.19.21s-.75-.07-1.13-.05c-.18,0-.37.08-.4.25a.32.32,0,0,0,.29.33,1.88,1.88,0,0,1,.53.14,2.3,2.3,0,0,0,.69.15,6.56,6.56,0,0,0,1.25-.07c.87-.08,1.76,0,2.64,0,.3,0,.65-.18.65-.48S473.68,352.21,473.38,352.2Z" transform="translate(-181.36 -214.7)"/><path class="cls-12" d="M486,351.87a8,8,0,0,0-1.1-.39,1.82,1.82,0,0,0-.77,0c-.14,0-.27.09-.41.13h0c.06,0,.05,0,0,0h0c-.41,0-.8,0-1.21,0l-.63,0a4.36,4.36,0,0,0-.51,0l-.09,0a.6.6,0,0,0-.56.17.3.3,0,0,0,.08.44l.23.14-.15-.19c.24.44.89.51,1.39.53s.88,0,1.32,0a2.57,2.57,0,0,0,.88-.13l.15-.05h.18l.14,0,.34.05a1.4,1.4,0,0,0,.78-.15C486.26,352.39,486.35,352,486,351.87Z" transform="translate(-181.36 -214.7)"/><path class="cls-13" d="M493.28,338.57l-.31,0a6.66,6.66,0,0,0-3.17,1.17l.38-3a7,7,0,0,0-3.49.75,14,14,0,0,0,.2-7.66,12.93,12.93,0,0,0-5.22,5.81l-.44-4.15a7.77,7.77,0,0,0-4,3.76,12.36,12.36,0,0,0-1.11-3.54,9.07,9.07,0,0,0-2.86,4.05,5.49,5.49,0,0,0-4.25-4.47l.08,5c-.49-.54-1.53-1-1.79-.33a1.09,1.09,0,0,0,0,.62l.57,2.3a6,6,0,0,0-3.72-2.05,8.62,8.62,0,0,0,2,4.76c-.69-.39-2.18-.95-3-.58-1.16.53-.32.36-.7,1.39a2.86,2.86,0,0,0-.15,1.23,1.13,1.13,0,0,0,.11,2.07,8.31,8.31,0,0,0,2.47.52,8.65,8.65,0,0,1,1.34,0c.29.07.55.3.85.37.75.17,1.51,0,2.26.17a9.28,9.28,0,0,0,2.47,0,45.47,45.47,0,0,0,5.06-1.07,5.64,5.64,0,0,0,3.39.18,27,27,0,0,0,4.8-1,10.05,10.05,0,0,0,1.66-.78,1.78,1.78,0,0,0,1.4.35c1.72-.29,7.2-1.69,7.22-3.91A2.16,2.16,0,0,0,493.28,338.57Z" transform="translate(-181.36 -214.7)"/><path class="cls-14" d="M465.81,330.56a1.24,1.24,0,0,1,0-.85.93.93,0,0,1,1.12-.32,2.77,2.77,0,0,1,1,.78c-.13-.57.55-1.07,1.13-1a2.09,2.09,0,0,1,1.35,1.07,4,4,0,0,1,1.16-2.29c.22-.22.56-.43.85-.3a.89.89,0,0,1,.3.31c1,1.54,2.41,7.56-.46,8.23-.8.18-3.12-1.49-3.75-1.94A6.77,6.77,0,0,1,465.81,330.56Z" transform="translate(-181.36 -214.7)"/><path class="cls-14" d="M477,337.18a1.23,1.23,0,0,1,.6-.61.93.93,0,0,1,1,.52,2.56,2.56,0,0,1,.17,1.23,1,1,0,0,1,1.52.05,2,2,0,0,1,.23,1.67,4.24,4.24,0,0,1,2.45-.89c.32,0,.71.07.82.36a.7.7,0,0,1,0,.43c-.33,1.8-3.55,7.11-6.1,5.67-.72-.4-1.23-3.17-1.38-3.92A6.6,6.6,0,0,1,477,337.18Z" transform="translate(-181.36 -214.7)"/><path class="cls-14" d="M482.84,327.58a1.27,1.27,0,0,1,.6-.61.92.92,0,0,1,1,.52,2.55,2.55,0,0,1,.17,1.23,1,1,0,0,1,1.52,0,2,2,0,0,1,.23,1.68,4.19,4.19,0,0,1,2.45-.89c.32,0,.71.06.83.36a.79.79,0,0,1,0,.43c-.33,1.8-3.55,7.11-6.1,5.67-.72-.4-1.23-3.17-1.38-3.92A6.66,6.66,0,0,1,482.84,327.58Z" transform="translate(-181.36 -214.7)"/><path class="cls-3" d="M334.84,434.56c-1.92,2.5-3.26,5.21-1.95,7.34,2.46,4,6.47-4.4,7.67-5.78,3.76-4.32,7.55-8.6,11.28-12.94q7.52-8.76,14.87-17.67c2.46-3,5-5.9,7.34-9a5,5,0,0,0,1.37-2.77c.08-.65-.1-3.66-1.38-3.15-3.35,1.35-5,5.58-7.34,8.45-4.77,5.77-9.89,11.24-15,16.71-4,4.29-8,8.58-11.75,13C338.83,430.17,336.59,432.28,334.84,434.56Z" transform="translate(-181.36 -214.7)"/><path class="cls-15" d="M391,421a70.77,70.77,0,0,0-12.51,1.28l-1.37.25c-4.67.88-9.34,1.92-14,3s-9,2.13-13.51,3.3c-3.25.86-6.34,2-9.58,2.73-2.84.69-5.79,1.93-6.83,4.62-1.12,2.91,1.19,6.28,4.35,7.18,4.84,1.38,9.36,1.14,14.35,1.39q7.11.36,14.18,1t14.29,1.36c9.29.91,25.9,4,29.39-7.12a12.91,12.91,0,0,0,.54-2.64C411.25,428,401.18,420.94,391,421Z" transform="translate(-181.36 -214.7)"/><ellipse class="cls-16" cx="215.23" cy="220.48" rx="9.37" ry="9.29"/><rect class="cls-3" x="410.03" y="232.36" width="12.84" height="1.12" transform="translate(-9.1 -391.72) rotate(30)"/><path class="cls-11" d="M406.37,444.57c.65.69,1.31,1.37,2,2,1.28,1.19,2.54,2.4,3.8,3.61.36.34,1.69,1.24,1.67,1.77s-1.22,1.1-1.76,1a1.09,1.09,0,0,1-.5-.35,150.94,150.94,0,0,1-13.55-15,2.42,2.42,0,0,0-1.6-1c-.6-.21-1.19-.41-1.3-1.15a1.9,1.9,0,0,1,2.18-1.89l.17,0a1.36,1.36,0,0,1,.39.17.79.79,0,0,1,.17.14,2,2,0,0,1,.33.49,1.41,1.41,0,0,1,.12.5,1.1,1.1,0,0,1,0,.36,1.45,1.45,0,0,1-.31.76C398,436.17,406,444.22,406.37,444.57Zm10.48,12.34h0Zm6.49-1h0Zm0,0Zm-6.43-.31ZM407,453.19h0Z" transform="translate(-181.36 -214.7)"/><path class="cls-8" d="M391,350.14l.11,0c-.06.12-.11.24-.16.37C390.93,350.4,391,350.27,391,350.14Z" transform="translate(-181.36 -214.7)"/><path class="cls-2" d="M420.14,429.74a1.16,1.16,0,0,0-.74.16,1.15,1.15,0,0,0-.34.63,95.4,95.4,0,0,0-3.15,17.64,1.93,1.93,0,0,0,.16,1.21,2,2,0,0,0,1,.69c4.95,1.86,18.56,1.92,21.94-3-3.94-2.19-8.95-.81-11.63-5.68-1.75-3.2.76-6.29-.6-9.49C426,430,422,429.74,420.14,429.74Z" transform="translate(-181.36 -214.7)"/><path class="cls-17" d="M425.71,451.74a27.9,27.9,0,0,1-8.78-1.2,2.44,2.44,0,0,1-1.28-.9c-1.42-2.25,0-5.49.5-7.81.75-3.84,1.39-7.65,2.43-11.44a1.58,1.58,0,0,1,.52-.89,1.64,1.64,0,0,1,1-.26c2.28,0,6.24.31,7.14,2.44a8.29,8.29,0,0,1,.22,4.79c-.24,1.61-.48,3.13.36,4.66,1.6,2.92,4.12,3.44,6.78,4a15.94,15.94,0,0,1,4.65,1.48l.48.27-.31.45C437.24,450.58,431.19,451.74,425.71,451.74Zm-5.62-21.5a.8.8,0,0,0-.39.06c-.07.05-.12.24-.16.36a95.26,95.26,0,0,0-3.13,17.55,1.58,1.58,0,0,0,.08.9,1.56,1.56,0,0,0,.79.49c4.79,1.8,17.34,1.72,21-2.38a17.37,17.37,0,0,0-3.84-1.11c-2.77-.58-5.63-1.18-7.45-4.5-1-1.83-.74-3.59-.47-5.29a7.57,7.57,0,0,0-.16-4.25c-.57-1.35-3.59-1.83-6.22-1.83h-.05Z" transform="translate(-181.36 -214.7)"/><path class="cls-18" d="M437.81,379.6a27.45,27.45,0,0,0-7.18-7.36c-1.93-1.38-3.94-2.65-5.93-4l-3.07-2c-1.3-.86-2.6-1.72-3.95-2.5a68.49,68.49,0,0,0-7.37-3.69c-2.33-1-4.72-1.88-7.08-2.82s-4.57-1.9-6.86-2.85c-1-.42-2.09-.92-3.14-1.28a7.33,7.33,0,0,1-2.83-1.27A5.51,5.51,0,0,1,389,349.1a35.09,35.09,0,0,1-.55-4,61.22,61.22,0,0,1-.21-7.78c0-.31,0-.63,0-1,0-1.13.11-2.27.17-3.41,0-.66.06-1.32.11-2a1.64,1.64,0,0,0,0-.23l-.52-.07h-.14l-3.71-.55-4.06-.6c-2.17-.31-4.33-.61-6.5-.9l-6.08-.83-6.16-.81c-3.62-.35-7.25-.63-10.87-.9-.12.27-.23.53-.35.79-.59,1.29-1.18,2.57-1.78,3.85L347.9,332c-.26.64-.52,1.29-.73,1.95v0a28.11,28.11,0,0,0-.74,3.27c-.09.61-.15,1.22-.23,1.84s-.17,1.31-.2,2a9.77,9.77,0,0,0,.06,1.08c.06.46.14.93.23,1.39s.16.91.27,1.35a11.87,11.87,0,0,0,.41,1.32c.18.47.35.94.53,1.4a17.89,17.89,0,0,0,.82,1.71q.29.48.6.93l.07.08c.3.38.62.73.95,1.09l.05.07c.36.39.71.79,1.08,1.17l.84.86c.28.3.55.61.82.92.45.52.89,1.05,1.35,1.56.12.12.23.25.35.38l.15.14c.41.4.83.79,1.27,1.17l.68.61.53.36c.5.38,1,.78,1.49,1.14a61.85,61.85,0,0,0,6.83,4.43,83.41,83.41,0,0,0,7.58,3.6c2.22.92,4.48,1.75,6.71,2.65s4.66,1.9,7,2.82,4.54,1.79,6.82,2.67,4.64,1.81,6.94,2.78,4.49,2,6.73,3l6.07,2.8c1.72.81,3.4,1.66,5,2.63.51.34,1,.7,1.51,1.08l.53.5a2.85,2.85,0,0,1,.23.26c.13.2.26.4.38.61s.13.26.19.39l.15.48c.07.4.13.8.17,1.2a74.15,74.15,0,0,1-.2,8.43c-.09,1.27-.18,2.54-.28,3.81-.25,3.14-.64,6.27-1.07,9.39-.2.8-.4,1.6-.59,2.41-.58,2.47-1,5-1.55,7.46-.48,2.25-1,4.49-1.55,6.72a1.4,1.4,0,0,0-.05.73c.25.93,2.47.86,3.24,1l2.34.49c1.62.35,3.22.71,4.84,1.09,2.89.67,3.95-.37,4.63-3,2.41-9.49,4.69-19,7-28.52a71.56,71.56,0,0,0,2.14-11.87A15.35,15.35,0,0,0,437.81,379.6Z" transform="translate(-181.36 -214.7)"/><path class="cls-11" d="M414.1,448.81a1.52,1.52,0,0,0,1.06,1.25c6.82,2.27,14.32,2.91,21.69,2.75,2.5-.06,5.16-.25,7.18-1.46,1.06-.63,1.92-1.66,1.7-2.72-.33-1.62-2.75-2.22-4.74-2.5a9.32,9.32,0,0,0-3.53,0,12.47,12.47,0,0,0-2.06.87,17.69,17.69,0,0,1-8.64,1.24c-3-.23-9.12-1-11.09-3.5-.1-.12-.24-.25-.39-.2a.38.38,0,0,0-.19.22C414.66,445.66,413.86,447.52,414.1,448.81Z" transform="translate(-181.36 -214.7)"/><path class="cls-19" d="M360.64,326.59c-.81,6.48-1.18,13.46,2.25,19.12,2,3.35,5.24,5.92,8.6,8.11,13.79,9,30.74,12.38,45.36,20.08,3.82,2,7.59,4.43,9.87,8,2.1,3.26,2.74,7.18,2.95,11,.72,13.34-3.34,26.46-7.35,39.27" transform="translate(-181.36 -214.7)"/><path class="cls-19" d="M347.5,331.22c1.35.32,3.42.7,4.78,1a64,64,0,0,0,.29,11.16,3.42,3.42,0,0,1,0,1.39,3.6,3.6,0,0,1-1.1,1.48c-1,.93-2.34,2.43-3.34,3.37" transform="translate(-181.36 -214.7)"/><path class="cls-19" d="M349.64,327.18c12.78,2.62,39,7,39,7" transform="translate(-181.36 -214.7)"/><path class="cls-19" d="M361.36,342.56c4.37-2,7.35-6.24,8.92-11.26" transform="translate(-181.36 -214.7)"/><path class="cls-2" d="M424.09,314.23a32.64,32.64,0,0,0,2.19,7.86,10.89,10.89,0,0,0,5.6,5.69,16.19,16.19,0,0,0,5.85.74A39.79,39.79,0,0,1,448.46,330l2.91.85a2.62,2.62,0,0,1,1.32.69.67.67,0,0,1-.36,1.09,4.25,4.25,0,0,1-1.66-.32s1,3.48,1,3.82a4.86,4.86,0,0,1-1.89,3.55,8.79,8.79,0,0,1-1.75.91,10.79,10.79,0,0,1-3,.95c-2,.24-.3-1.12-.18-1.88a4.07,4.07,0,0,0-.28-1.91c-1.77-5.35-8.4-3.38-13-3.34-2.51,0-5.13,0-7.37-1.1a8.44,8.44,0,0,1-1.94-1.36c-2.64-2.46-3.78-6.47-4.65-10.12l-1.34-5.65" transform="translate(-181.36 -214.7)"/><path class="cls-17" d="M444.64,342a1,1,0,0,1-.88-.36c-.33-.53.35-1.36.34-2a5.24,5.24,0,0,0-.66-2.47,7.2,7.2,0,0,0-1.59-2.08,4.17,4.17,0,0,0-1.82-.52,22.69,22.69,0,0,0-5.4.07c-1.05.1-2,.18-3,.19-2.43,0-5.18.06-7.56-1.15a8.89,8.89,0,0,1-2-1.42c-2.74-2.56-3.9-6.67-4.77-10.32L416,316.26l.79-.19,1.35,5.66a28.87,28.87,0,0,0,2.14,6.21,10.44,10.44,0,0,0,2.14,3.2,10.94,10.94,0,0,0,4,2.41,16.65,16.65,0,0,0,5.28.45c.9,0,1.87-.1,2.91-.19,4.18-.36,8.91-.78,10.43,3.8a4.39,4.39,0,0,1,.29,2.1,2.7,2.7,0,0,1-.48,1c-.08.13-.21.32-.27.45a2.16,2.16,0,0,0,.48,0,10.54,10.54,0,0,0,2.85-.91,8.16,8.16,0,0,0,1.66-.87,4.44,4.44,0,0,0,1.73-3.26,8.77,8.77,0,0,0-.43-1.75c-.13-.49-.69-1.46-.47-2s1-.07,1.43-.08c.24,0,.87-.15.59-.51a2.41,2.41,0,0,0-1.12-.55l-2.9-.85a39.27,39.27,0,0,0-10.62-1.45,16.64,16.64,0,0,1-6-.77,11.21,11.21,0,0,1-5.82-5.9,32.35,32.35,0,0,1-2.22-7.95c.17,0,.63-.21.79-.12s.2,1,.24,1.27a23.59,23.59,0,0,0,1.93,6.46A10.43,10.43,0,0,0,432,327.4a15.61,15.61,0,0,0,5.7.71,39.73,39.73,0,0,1,10.85,1.49l2.9.85a3,3,0,0,1,1.53.82,1.15,1.15,0,0,1,.17,1.1,1,1,0,0,1-.77.65c-.25.06-.83-.14-1,.05s.31,1.32.4,1.69a4.79,4.79,0,0,1,.29,1.39A5.28,5.28,0,0,1,450,340a9,9,0,0,1-1.83,1,11.22,11.22,0,0,1-3.08,1A3.57,3.57,0,0,1,444.64,342Z" transform="translate(-181.36 -214.7)"/><line class="cls-20" x1="60.46" y1="277.6" x2="141.39" y2="277.6"/><line class="cls-20" x1="267.63" y1="277.05" x2="319.53" y2="277.05"/><path class="cls-11" d="M430.88,248.56a3.8,3.8,0,0,1,1.13,2.56,3.53,3.53,0,0,0,.23-2,2.17,2.17,0,0,0-1.14-1.56,6.07,6.07,0,0,0-2.44-.15,6.54,6.54,0,0,1-2-.58C426.91,248.66,429.81,247.77,430.88,248.56Z" transform="translate(-181.36 -214.7)"/><path class="cls-11" d="M429.21,251.09a1.77,1.77,0,0,1-.2-1c0-.05,0-.09,0-.14a2,2,0,0,1,.1-.88,1.76,1.76,0,0,1,.52-.78,1.88,1.88,0,0,1,.77-.39,1.44,1.44,0,0,1,.74,0,1.87,1.87,0,0,1,1.2,1.35,2.19,2.19,0,0,1-.31,1.75,1.85,1.85,0,0,1-1.45.83h0A1.51,1.51,0,0,1,429.21,251.09Z" transform="translate(-181.36 -214.7)"/></svg>