<?xml version="1.0" encoding="utf-8"?>
<!-- Generator: Adobe Illustrator 24.0.0, SVG Export Plug-In . SVG Version: 6.00 Build 0)  -->
<svg version="1.1" id="Layer_1" xmlns="http://www.w3.org/2000/svg" xmlns:xlink="http://www.w3.org/1999/xlink" x="0px" y="0px"
	 viewBox="0 0 601.49 101.07" style="enable-background:new 0 0 601.49 101.07;" xml:space="preserve">
<g>
	<path d="M-402.89,204.76c-2.6,1.89-3.09,3.39-1.95,6.54c3.66,10.17,7.36,20.32,11.05,30.48c0.33,0.9,0.66,1.8,1.08,2.93
		c0.64-1.61,1.19-2.99,1.73-4.38c3.79-9.64,7.57-19.28,11.36-28.92c0.53-1.34,0.82-2.71,0.43-4.15c-0.33-1.21-1.02-2.08-2.29-2.46
		c-0.23-0.07-0.36-0.47-0.53-0.72c0.23-0.16,0.46-0.46,0.69-0.46c7.37-0.02,14.74-0.02,22.11-0.03c0.45,0,0.74,0.09,0.82,0.61
		c0.07,0.47-0.07,0.69-0.52,0.88c-2.11,0.91-3.21,2.62-3.2,4.83c0.01,2.4,0.3,4.81,0.54,7.2c0.62,6.11,1.27,12.23,1.92,18.34
		c0.54,5.12,1.03,10.25,1.69,15.36c0.35,2.75,1.81,4.8,4.56,5.8c0.32,0.12,0.46,0.72,0.8,1.29c-8.08,0-15.82,0-23.62,0
		c-0.08-0.36-0.15-0.71-0.23-1.09c0.48-0.25,0.96-0.45,1.38-0.72c1.69-1.12,2.34-2.83,2.36-4.74c0.02-1.71-0.17-3.43-0.34-5.13
		c-0.62-6.05-1.27-12.1-1.91-18.16c-0.32-3.06-0.64-6.11-0.96-9.17c-0.03-0.29-0.09-0.58-0.3-0.91c-0.66,1.66-1.32,3.31-1.97,4.97
		c-4.45,11.39-8.9,22.77-13.33,34.17c-0.24,0.63-0.55,0.88-1.24,0.86c-2.2-0.05-4.41-0.05-6.61,0c-0.73,0.02-1.05-0.21-1.3-0.89
		c-3.45-9.16-6.93-18.3-10.4-27.45c-1.22-3.21-2.44-6.42-3.66-9.63c-0.1-0.27-0.23-0.54-0.5-0.8c-0.23,2.13-0.47,4.26-0.68,6.4
		c-0.7,6.86-1.42,13.73-2.08,20.59c-0.19,2.03-0.37,4.09-0.27,6.12c0.1,1.99,1.12,3.56,3.14,4.22c0.83,0.27,0.48,0.8,0.44,1.36
		c-4.75,0-9.48,0-14.21,0c-0.13-0.76,0.03-1.18,0.81-1.46c2.44-0.9,3.76-2.83,4.12-5.3c0.49-3.4,0.77-6.82,1.12-10.24
		c0.4-3.96,0.78-7.91,1.18-11.87c0.59-5.94,1.22-11.87,1.74-17.81c0.24-2.77-0.63-5.06-3.42-6.26c-0.17-0.07-0.32-0.47-0.29-0.69
		c0.04-0.24,0.26-0.51,0.47-0.63c0.18-0.11,0.47-0.03,0.71-0.03c6.07,0,12.14,0.02,18.22-0.02
		C-403.34,203.56-402.92,203.87-402.89,204.76z"/>
	<path d="M-559.79,257.91c-7.79,0-15.55,0-23.31,0c-0.27-0.8-0.08-1.17,0.73-1.51c2.62-1.09,3.52-3.34,3.61-5.97
		c0.09-2.5,0.03-5,0.03-7.5c0-4.16,0.01-8.32,0-12.48c-0.01-2.02-0.16-4.04-0.92-5.95c-1.17-2.93-3.45-4.17-6.5-3.41
		c-1.13,0.28-2.22,0.77-3.28,1.27c-0.29,0.13-0.6,0.62-0.59,0.94c0.12,9.16,0.23,18.32,0.46,27.48c0.07,2.63,1.22,4.75,3.89,5.79
		c0.32,0.12,0.44,0.74,0.76,1.31c-8.13,0-15.94,0-23.75,0c-0.29-0.78-0.08-1.16,0.76-1.44c2.08-0.68,3.08-2.33,3.47-4.37
		c0.17-0.91,0.25-1.86,0.24-2.78c-0.01-7.26-0.03-14.53-0.11-21.79c-0.02-1.31-0.22-2.64-0.56-3.91c-0.43-1.61-1.52-2.79-3.04-3.52
		c-0.91-0.44-0.91-0.43-0.76-1.58c6.13-0.7,12.29-1.4,18.58-2.12c0,1.33,0,2.52,0,3.94c0.44-0.29,0.7-0.46,0.96-0.63
		c3.75-2.61,7.84-4.17,12.47-3.85c4.53,0.31,8.34,2.09,10.96,5.95c1.14,1.67,1.6,3.55,1.6,5.56c0,7.32-0.02,14.65,0.02,21.97
		c0.01,1.25,0.14,2.54,0.46,3.74c0.43,1.62,1.48,2.86,3.12,3.38C-559.7,256.7-559.55,257.11-559.79,257.91z"/>
	<path d="M-714.64,228.5c4.43,0.43,8.34-1.54,9.7-5.21c0.17-0.45,0.29-0.8,0.93-0.7c0.66,0.1,0.54,0.54,0.54,0.94
		c0,3.95,0,7.9,0,11.85c0,0.24-0.02,0.48-0.04,0.72c-0.76,0.39-1.16,0.24-1.49-0.6c-1.24-3.11-3.74-4.6-6.94-5.08
		c-0.51-0.08-1.02-0.1-1.53-0.14c-1.17-0.08-1.17-0.08-1.18,1.07c-0.03,5.03-0.06,10.07-0.08,15.1c0,1.54-0.1,3.09,0.12,4.6
		c0.18,1.22,0.6,2.48,1.23,3.53c0.46,0.77,1.34,1.45,2.19,1.76c0.88,0.33,1.06,0.71,0.82,1.56c-7.75,0-15.53,0-23.3,0
		c-0.25-0.8-0.07-1.19,0.75-1.51c2.26-0.9,3.2-2.81,3.5-5.09c0.09-0.68,0.09-1.38,0.09-2.08c0-12.3,0.02-24.6-0.02-36.9
		c0-1.25-0.2-2.52-0.52-3.73c-0.43-1.63-1.56-2.79-3.12-3.42c-0.77-0.31-0.94-0.73-0.68-1.54c0.29-0.01,0.61-0.04,0.93-0.04
		c13.99,0,27.97,0.01,41.96-0.02c0.84,0,1.13,0.26,1.26,1.08c0.7,4.37,1.44,8.73,2.24,13.09c0.15,0.83,0.06,1.35-0.98,1.55
		c-0.25-0.42-0.54-0.93-0.85-1.43c-2.25-3.69-4.92-7-8.61-9.38c-2.2-1.42-4.59-2.28-7.23-2.3c-1.36-0.01-2.73-0.06-4.07,0.06
		c-3.3,0.3-5.35,2.39-5.61,5.68c-0.1,1.26-0.05,2.53-0.04,3.79c0,3.92,0.02,7.84,0.03,11.76
		C-714.64,227.79-714.64,228.11-714.64,228.5z"/>
	<path d="M-332.99,257.95c-11.59,0.01-21-9.24-21.01-20.64c0-11.46,9.43-20.79,21-20.78c11.47,0,20.99,9.4,21.02,20.74
		C-311.95,248.6-321.44,257.94-332.99,257.95z M-325.72,236.16c-0.1-1.55-0.19-3.93-0.41-6.29c-0.11-1.25-0.39-2.5-0.66-3.73
		c-0.47-2.13-1.15-4.19-2.63-5.87c-2.09-2.36-5.38-2.26-7.27,0.25c-0.59,0.78-1.06,1.69-1.41,2.6c-1.11,2.87-1.44,5.89-1.61,8.93
		c-0.28,5-0.28,9.99,0.57,14.95c0.4,2.29,0.96,4.55,2.43,6.44c1.99,2.55,5.4,2.67,7.36,0.1c0.93-1.22,1.64-2.68,2.12-4.14
		C-325.91,245.39-325.82,241.18-325.72,236.16z"/>
	<path d="M-615.88,247.77c0.81,1.41,1.56,2.61,2.21,3.87c0.13,0.25,0.02,0.75-0.16,1.02c-1.7,2.6-4.22,4.07-7.18,4.64
		c-6.89,1.33-13.68,0.86-20.13-2c-6.09-2.71-9.42-7.59-10.3-14.16c-0.58-4.32-0.21-8.55,1.55-12.57c2.6-5.93,7.16-9.68,13.36-11.39
		c5.02-1.39,10.12-1.57,15.03,0.41c6.43,2.58,10.04,7.36,10.6,14.33c0.01,0.18-0.01,0.36,0,0.54c0.22,2.13-0.89,3.24-2.8,3.9
		c-2.29,0.8-4.65,1.09-7.03,1.09c-5.04-0.01-10.09-0.11-15.13-0.22c-0.82-0.02-1.1,0.15-1.07,1.02c0.12,3.9,0.44,7.77,1.99,11.41
		c1.24,2.93,3.16,5.23,6.52,5.62c4.57,0.52,9.22-0.84,11.71-5.85C-616.46,248.93-616.21,248.43-615.88,247.77z M-631.32,233.98
		c1.48,0,2.96,0.01,4.44,0c2.01-0.01,3.15-0.82,3.71-2.77c0.93-3.24,0.53-6.35-1.19-9.22c-2.07-3.47-6.5-4.1-9.17-1.31
		c-0.75,0.78-1.33,1.8-1.76,2.81c-1.34,3.17-1.46,6.56-1.52,9.94c0,0.18,0.44,0.52,0.68,0.53
		C-634.52,234-632.92,233.98-631.32,233.98z"/>
	<path d="M-691.72,257.9c-0.22-0.76-0.1-1.17,0.71-1.44c2.11-0.7,3.13-2.37,3.52-4.44c0.17-0.88,0.23-1.8,0.24-2.69
		c0.02-7.41,0.03-14.83-0.01-22.24c-0.01-1.13-0.15-2.29-0.4-3.39c-0.44-1.94-1.59-3.38-3.48-4.09c-0.6-0.22-0.64-0.62-0.53-1.05
		c0.06-0.23,0.38-0.53,0.61-0.56c6-0.69,12-1.36,18-2.02c0.09-0.01,0.18,0.02,0.37,0.04c0,1.12,0,2.24,0,3.57
		c0.41-0.24,0.66-0.37,0.9-0.52c3.72-2.35,7.75-3.51,12.15-2.94c4,0.52,7.23,2.26,8.87,6.21c0.11,0.27,0.19,0.56,0.32,0.98
		c-3.4,1.05-6.75,2.09-10.15,3.14c-0.24-0.57-0.44-1.07-0.67-1.55c-1.9-4.04-4.95-5.3-9.15-3.79c-2.22,0.8-2.22,0.8-2.22,3.15
		c0,8.5,0.01,17,0,25.5c0,1.47,0.19,2.88,0.89,4.2c0.6,1.14,1.51,1.95,2.68,2.46c0.93,0.41,0.94,0.39,0.76,1.49
		C-676.11,257.9-683.91,257.9-691.72,257.9z"/>
	<path d="M-528.35,226.91c0.9-1.23,1.25-2.61,1.02-4.09c-0.55-3.5-3.73-5.42-7.33-4.49c-2,0.52-3.36,1.82-4.39,3.53
		c-1.62,2.69-2.27,5.69-2.66,8.75c-0.68,5.3-0.74,10.6,0.75,15.78c0.55,1.91,1.39,3.81,2.47,5.48c3.21,4.97,8.95,4,11.97,1.61
		c1.43-1.13,2.38-2.63,3.19-4.22c0.13-0.26,0.27-0.51,0.48-0.91c0.81,1.41,1.58,2.66,2.25,3.97c0.11,0.22-0.12,0.74-0.35,0.99
		c-2.29,2.55-5.18,4.06-8.56,4.43c-5.76,0.64-11.4,0.01-16.74-2.36c-5.71-2.54-9.11-6.96-10.22-13.11
		c-0.71-3.92-0.63-7.8,0.73-11.58c1.96-5.43,5.65-9.34,10.81-11.84c5.24-2.53,10.77-3.28,16.48-2.13c3.73,0.75,7.07,2.39,9.85,5.05
		c0.45,0.43,0.55,0.82,0.26,1.34c-0.19,0.34-0.33,0.71-0.55,1.03C-520.57,226.6-525.42,228.04-528.35,226.91z"/>
	<path d="M-309.9,217.75c6.27-0.46,12.49-0.92,18.85-1.39c0,0.46,0,0.84,0,1.22c0,10.49-0.03,20.98,0.04,31.47
		c0.01,1.53,0.41,3.09,0.87,4.56c0.43,1.37,1.53,2.32,2.9,2.8c0.83,0.29,0.88,0.75,0.67,1.48c-7.76,0-15.51,0-23.31,0
		c-0.22-0.77-0.09-1.19,0.78-1.54c2.25-0.9,3.19-2.82,3.49-5.1c0.08-0.66,0.09-1.32,0.09-1.99c0.01-7.63,0.03-15.25-0.02-22.88
		c-0.01-1.3-0.24-2.64-0.61-3.89c-0.43-1.47-1.53-2.49-2.94-3.15C-310.01,218.94-310.01,218.94-309.9,217.75z"/>
	<path d="M-298.89,214.55c-4.22-0.02-7.58-3.32-7.58-7.46c0-4.21,3.45-7.61,7.69-7.59c4.11,0.02,7.5,3.47,7.48,7.61
		C-291.32,211.27-294.68,214.57-298.89,214.55z"/>
	<path d="M-499.54,206.04c0,5.06,0,10.09,0,15.31c0.43-0.26,0.73-0.44,1.02-0.63c3.19-2.09,6.67-3.39,10.51-3.26
		c4.81,0.17,8.84,1.93,11.4,6.24c0.81,1.37,1.13,2.89,1.13,4.49c0,7.51-0.01,15.01,0.02,22.52c0.01,2.34,0.38,4.61,1.52,6.69
		c1.33,2.42,3.94,3.64,6.6,2.92c0.94-0.25,1.75-0.95,2.75-1.52c-0.18,0.79-0.26,1.71-0.59,2.52c-1.31,3.21-3.89,4.78-7.21,5.02
		c-8.55,0.63-15.7-5.4-16.61-13.91c-0.13-1.21-0.18-2.43-0.18-3.65c-0.02-5.75,0.05-11.51-0.04-17.26
		c-0.03-1.82-0.22-3.71-0.75-5.45c-1.02-3.33-3.5-4.49-6.84-3.52c-2.71,0.79-2.71,0.79-2.71,3.59c0,7.69-0.03,15.39,0.03,23.08
		c0.01,1.22,0.25,2.49,0.61,3.66c0.41,1.33,1.4,2.32,2.74,2.79c0.79,0.28,0.92,0.7,0.71,1.45c-7.27,0-14.56,0-21.89,0
		c-0.21-0.7-0.12-1.11,0.68-1.4c1.98-0.71,2.85-2.35,3.2-4.29c0.15-0.82,0.2-1.68,0.2-2.52c0.01-10.82,0.01-21.64,0.01-32.46
		c0-1.64-0.16-3.25-0.96-4.72c-0.59-1.08-1.42-1.92-2.59-2.34c-0.52-0.18-0.79-0.47-0.61-0.94c0.1-0.26,0.48-0.54,0.77-0.57
		c5.6-0.65,11.2-1.27,16.8-1.9C-499.79,206-499.73,206.02-499.54,206.04z"/>
</g>
<g>
	<path d="M-423.06,396.63c-1.99,1.28-2.69,2.76-2.04,5.03c0.69,2.43,1.59,4.79,2.45,7.17c2.77,7.64,5.55,15.27,8.34,22.91
		c0.11,0.3,0.25,0.59,0.45,1.06c0.62-1.56,1.17-2.95,1.72-4.35c3.4-8.66,6.8-17.32,10.19-25.98c0.48-1.23,0.67-2.51,0.29-3.81
		c-0.26-0.91-0.78-1.67-1.75-1.91c-0.69-0.17-0.8-0.52-0.58-1.17c7,0,14.03,0,21.1,0c0.22,0.67,0.14,1.08-0.63,1.44
		c-1.69,0.78-2.58,2.26-2.54,4.06c0.05,2.43,0.32,4.86,0.56,7.29c0.44,4.49,0.92,8.99,1.41,13.48c0.65,6.05,1.24,12.1,2.02,18.13
		c0.35,2.69,1.35,5.2,3.5,7.05c1.54,1.32,3.33,1.84,5.31,1.25c0.69-0.21,1.3-0.69,2-1.07c0.27,1.13-0.09,2.14-0.87,3.04
		c-0.9,1.04-2.07,1.72-3.38,2c-5.67,1.19-10.95,0.37-15.49-3.42c-2.92-2.44-4.11-5.77-4.49-9.47c-0.55-5.48-1.14-10.96-1.72-16.44
		c-0.46-4.4-0.92-8.81-1.38-13.21c-0.03-0.32-0.09-0.64-0.3-0.98c-0.66,1.66-1.32,3.33-1.97,4.99
		c-3.96,10.12-7.92,20.24-11.86,30.37c-0.24,0.61-0.54,0.81-1.19,0.8c-2.02-0.04-4.05-0.04-6.07,0c-0.6,0.01-0.89-0.16-1.12-0.75
		c-4.19-11.13-8.41-22.24-12.63-33.36c-0.13-0.33-0.27-0.66-0.58-0.99c-0.11,0.89-0.23,1.78-0.32,2.68
		c-0.74,7.58-1.49,15.17-2.21,22.75c-0.14,1.46-0.28,2.95-0.2,4.41c0.12,2.04,1.18,3.5,3.34,4.11c-0.03,0.35-0.05,0.69-0.09,1.09
		c-4.31,0-8.59,0-12.89,0c-0.17-0.71,0.03-1.08,0.74-1.36c2.81-1.12,3.73-3.51,4-6.26c0.67-6.65,1.3-13.31,1.96-19.96
		c0.37-3.75,0.75-7.49,1.1-11.24c0.07-0.71,0.08-1.46-0.03-2.16c-0.49-3.07-2.87-4.7-6.23-4.33c-2.76,0.31-4.66,2.69-4.49,5.61
		c0.19,3.29,1.73,4.86,5.73,5.69c-0.76,0.75-1.37,1.47-2.1,2.05c-5.48,4.42-13.69,1.33-14.67-5.62c-0.53-3.73,1.06-6.71,4.15-8.84
		c3.17-2.19,6.76-2.97,10.55-2.97c7.25,0.01,14.5,0.06,21.75,0.05C-423.34,395.51-423.22,395.99-423.06,396.63z"/>
	<path d="M-522.75,395.61c0,4.88,0,9.72,0,14.75c0.41-0.25,0.7-0.43,0.98-0.61c3.07-2.02,6.43-3.27,10.13-3.14
		c4.63,0.16,8.52,1.86,10.99,6.02c0.78,1.32,1.09,2.79,1.09,4.33c0,7.23-0.01,14.47,0.02,21.7c0.01,2.25,0.37,4.44,1.47,6.45
		c1.28,2.33,3.8,3.51,6.36,2.82c0.9-0.24,1.69-0.92,2.65-1.46c-0.17,0.76-0.25,1.64-0.57,2.43c-1.26,3.09-3.75,4.6-6.95,4.84
		c-8.24,0.61-15.13-5.2-16.01-13.41c-0.12-1.17-0.17-2.34-0.18-3.52c-0.02-5.55,0.05-11.09-0.04-16.64
		c-0.03-1.76-0.21-3.58-0.72-5.25c-0.98-3.21-3.38-4.33-6.59-3.39c-2.62,0.76-2.62,0.76-2.62,3.46c0,7.41-0.03,14.83,0.03,22.24
		c0.01,1.18,0.24,2.4,0.59,3.53c0.4,1.29,1.35,2.24,2.64,2.69c0.76,0.27,0.89,0.68,0.68,1.4c-7.01,0-14.03,0-21.1,0
		c-0.21-0.68-0.11-1.07,0.66-1.35c1.91-0.68,2.75-2.26,3.09-4.13c0.14-0.79,0.2-1.62,0.2-2.43c0.01-10.43,0.01-20.86,0.01-31.28
		c0-1.58-0.16-3.13-0.93-4.55c-0.57-1.04-1.37-1.85-2.5-2.25c-0.5-0.18-0.76-0.46-0.59-0.91c0.09-0.25,0.46-0.52,0.74-0.55
		c5.39-0.63,10.79-1.23,16.19-1.83C-522.99,395.56-522.93,395.59-522.75,395.61z"/>
	<path d="M-599.54,444.86c-7.1,0-14.12,0-21.14,0c-0.25-0.74-0.05-1.08,0.69-1.36c2.12-0.79,2.89-2.59,3.18-4.67
		c0.08-0.56,0.08-1.14,0.08-1.71c0-6.66,0.03-13.32-0.03-19.98c-0.01-1.27-0.26-2.57-0.63-3.8c-0.39-1.31-1.31-2.34-2.63-2.81
		c-0.76-0.27-0.91-0.67-0.64-1.45c5.51-0.63,11.07-1.28,16.73-1.93c0,1.17,0,2.27,0,3.56c0.71-0.47,1.27-0.86,1.85-1.21
		c4.68-2.85,9.61-3.92,14.85-1.81c3.51,1.41,6.05,3.83,6.77,7.74c0.11,0.59,0.1,1.2,0.1,1.8c0.01,6.69,0,13.38,0.01,20.07
		c0,2.36,0.18,4.7,1.09,6.91c1.18,2.9,3.68,4.32,6.63,3.77c1.12-0.21,2.02-0.77,2.77-1.75c-0.02,0.39,0,0.78-0.07,1.16
		c-0.73,3.64-3.59,6.1-7.36,6.36c-7.91,0.55-14.66-4.76-15.93-12.59c-0.22-1.33-0.31-2.69-0.32-4.04
		c-0.03-5.7,0.04-11.39-0.05-17.09c-0.03-1.75-0.27-3.56-0.76-5.23c-0.85-2.91-3.1-4.05-6.07-3.36c-0.09,0.02-0.18,0.04-0.26,0.06
		c-3.21,0.88-3.26,0.94-3.21,4.23c0.12,7.11,0.22,14.22,0.36,21.33c0.02,0.99,0.14,1.99,0.37,2.94c0.4,1.65,1.39,2.88,3,3.48
		C-599.42,443.77-599.32,444.17-599.54,444.86z"/>
	<path d="M-733.9,401.71c-1.39-0.34-2.24-1.8-2.06-3.41c0.28-2.42,2.21-4.46,4.77-5.08c2.99-0.72,5.95-0.32,8.89,0.25
		c5.24,1.02,10.44,2.22,15.68,3.21c2.73,0.52,5.52,0.62,8.3,0.24c5.56-0.77,8.82-4.07,10.31-9.32c0.09-0.31,0.18-0.62,0.28-0.96
		c1.16,0.1,2.01,0.65,2.78,1.34c3.04,2.73,3.28,7.83,0.54,11.17c-2.05,2.5-4.83,3.62-7.9,4.18c-5.14,0.95-10.15,0.07-15.13-1.19
		c-0.61-0.15-1.25-0.25-1.84-0.48c-0.71-0.27-1.09-0.09-1.19,0.65c-0.1,0.74-0.28,1.49-0.28,2.23c0,4.34,0.05,8.68,0.08,13.02
		c0,0.2,0.04,0.41,0.05,0.6c4.14,0.42,7.48-1.42,8.79-4.65c0.15-0.36,0.14-0.86,0.8-0.74c0.71,0.12,0.51,0.63,0.52,1.04
		c0.01,3.71,0,7.41-0.01,11.12c0,0.06-0.03,0.12-0.06,0.26c-0.27,0.06-0.58,0.13-0.87,0.2c-2.16-4.27-5.12-6.05-9.19-5.53
		c-0.01,0.3-0.04,0.62-0.04,0.94c-0.03,5.24-0.11,10.49-0.07,15.73c0.01,1.39,0.26,2.82,0.64,4.16c0.41,1.44,1.42,2.47,2.91,3.01
		c0.29,0.1,0.43,0.65,0.74,1.16c-7.38,0-14.43,0-21.49,0c-0.25-0.7-0.09-1.08,0.65-1.37c2.05-0.8,2.92-2.5,3.22-4.55
		c0.09-0.65,0.11-1.32,0.11-1.98c0.01-11.18,0.02-22.36-0.02-33.54c0-1.21-0.17-2.48-0.54-3.63c-0.71-2.19-3.04-3.35-5.49-2.92
		c-2.34,0.4-3.81,2.14-3.85,4.52C-733.87,401.46-733.89,401.55-733.9,401.71z"/>
	<path d="M-381.56,426.14c0-10.43,8.5-18.84,19.02-18.83c10.48,0.01,19.05,8.51,19.03,18.87c-0.02,10.31-8.6,18.72-19.07,18.72
		C-373.09,444.89-381.56,436.52-381.56,426.14z M-355.77,425.82c-0.31-2.96-0.54-5.93-0.96-8.87c-0.32-2.24-1-4.42-2.52-6.2
		c-1.89-2.21-4.83-2.15-6.63,0.13c-1.37,1.74-1.9,3.82-2.24,5.94c-0.93,5.81-0.9,11.64-0.11,17.47c0.29,2.12,0.8,4.2,1.98,6.05
		c1.81,2.85,5.22,3.04,7.22,0.32c0.68-0.93,1.2-2.03,1.58-3.12C-356.16,433.75-356.01,429.8-355.77,425.82z"/>
	<path d="M-646.37,426.09c0.25,2.47,0.4,4.83,0.76,7.17c0.38,2.46,1.15,4.8,2.78,6.77c1.35,1.62,3.09,2.46,5.2,2.51
		c4.94,0.13,8.1-1.83,10.16-6.32c0.06-0.14,0.14-0.26,0.31-0.59c0.76,1.32,1.47,2.51,2.11,3.74c0.09,0.17-0.14,0.55-0.29,0.78
		c-1.58,2.38-3.92,3.69-6.63,4.19c-6.32,1.16-12.54,0.74-18.41-2.01c-5.35-2.5-8.23-6.89-9-12.68c-0.56-4.21-0.17-8.31,1.74-12.16
		c2.75-5.55,7.33-8.74,13.32-9.98c4.19-0.87,8.37-0.81,12.36,0.87c5.43,2.28,8.66,6.39,9.27,12.25c0.36,3.43,0.1,3.85-3.42,4.94
		c-1.48,0.46-3.08,0.68-4.63,0.69c-4.77,0.03-9.54-0.09-14.31-0.14C-645.4,426.09-645.75,426.09-646.37,426.09z M-646.17,423.08
		c0.41,0.02,0.73,0.04,1.06,0.05c2.62,0,5.25,0.01,7.87,0c1.96,0,2.82-0.55,3.44-2.42c0.94-2.84,0.52-5.59-0.88-8.19
		c-1.02-1.88-2.59-3.04-4.79-3.01c-2.31,0.03-3.9,1.25-4.9,3.28C-645.97,416.02-646.03,419.51-646.17,423.08z"/>
	<path d="M-674.71,444.86c-7.09,0-14.14,0-21.18,0c-0.25-0.73-0.06-1.09,0.68-1.35c1.97-0.71,2.85-2.31,3.18-4.27
		c0.12-0.74,0.17-1.5,0.17-2.25c0.01-6.69,0.03-13.38-0.01-20.07c-0.01-1.19-0.19-2.41-0.5-3.55c-0.43-1.59-1.51-2.69-3.06-3.36
		c-0.24-0.1-0.39-0.59-0.42-0.91c-0.01-0.16,0.34-0.48,0.55-0.5c5.42-0.62,10.85-1.22,16.28-1.81c0.09-0.01,0.18,0.02,0.37,0.05
		c0,1,0,2,0,3.1c1.29-0.66,2.42-1.34,3.63-1.84c3.67-1.5,7.41-1.88,11.2-0.43c2.11,0.81,3.73,2.2,4.73,4.24
		c0.22,0.45,0.36,0.94,0.58,1.52c-3.13,0.97-6.16,1.9-9.2,2.84c-0.35-0.75-0.61-1.42-0.96-2.05c-1.53-2.83-3.75-3.81-6.87-3.1
		c-2.95,0.68-3.09,0.85-3.09,3.83c0,7.35-0.01,14.7,0.01,22.06c0,0.99,0.07,2,0.3,2.95c0.39,1.64,1.36,2.9,2.98,3.51
		C-674.65,443.75-674.47,444.12-674.71,444.86z"/>
	<path d="M-544.39,436.13c0.73,1.26,1.4,2.33,1.96,3.46c0.13,0.26-0.02,0.81-0.24,1.06c-2,2.31-4.6,3.65-7.59,4.01
		c-5.18,0.63-10.26,0.08-15.07-2c-5.69-2.46-8.85-6.87-9.67-12.97c-0.99-7.29,1.17-13.41,6.98-18.04c6.41-5.11,17.08-6.49,24.6-1.82
		c1.02,0.63,1.91,1.46,2.88,2.18c0.51,0.38,0.49,0.82,0.24,1.35c-1.01,2.16-2.89,3.12-5.09,3.46c-1.27,0.2-2.6,0.04-3.81,0.04
		c0.26-0.95,0.66-1.82,0.73-2.71c0.29-3.73-2.56-5.78-6.03-5.34c-2.05,0.26-3.44,1.5-4.48,3.19c-1.43,2.3-2.06,4.87-2.42,7.51
		c-0.69,5.05-0.79,10.1,0.65,15.05c0.46,1.6,1.14,3.2,2.04,4.59c2.59,4.03,7.84,4.63,11.34,1.33c0.92-0.87,1.57-2.03,2.32-3.08
		C-544.81,437.06-544.66,436.66-544.39,436.13z"/>
	<path d="M-341.5,444.84c-0.17-0.62-0.15-1.03,0.59-1.33c2.66-1.09,3.35-3.39,3.39-5.96c0.06-4.13,0.02-8.26,0.02-12.39
		c0-3.13,0.03-6.27-0.01-9.4c-0.03-2.15-0.57-4.13-2.48-5.44c-0.34-0.24-0.8-0.34-1.1-0.61c-0.24-0.21-0.39-0.58-0.45-0.91
		c-0.02-0.11,0.38-0.4,0.6-0.42c5.36-0.42,10.71-0.82,16.07-1.22c0.11-0.01,0.23,0.02,0.45,0.04c0,0.41,0,0.79,0,1.17
		c0,9.4-0.03,18.8,0.03,28.21c0.01,1.41,0.32,2.86,0.72,4.23c0.37,1.25,1.35,2.11,2.57,2.65c0.84,0.38,0.84,0.39,0.76,1.37
		C-327.37,444.84-334.42,444.84-341.5,444.84z"/>
	<path d="M-331.55,405.51c-3.84-0.03-6.86-3.05-6.83-6.83c0.03-3.79,3.16-6.87,6.97-6.83c3.75,0.03,6.79,3.15,6.77,6.92
		C-324.68,402.57-327.72,405.54-331.55,405.51z"/>
</g>
<g>
	<g>
		<path d="M439.19,13.01c-3.07,1.96-4.14,4.24-3.14,7.73c1.06,3.73,2.45,7.37,3.77,11.03c4.25,11.75,8.54,23.49,12.82,35.23
			c0.17,0.46,0.38,0.91,0.68,1.63c0.95-2.4,1.8-4.54,2.65-6.68c5.23-13.31,10.46-26.63,15.66-39.95c0.74-1.89,1.03-3.85,0.45-5.85
			c-0.41-1.41-1.2-2.56-2.69-2.93c-1.06-0.26-1.24-0.8-0.89-1.79c10.77,0,21.57,0,32.45,0c0.34,1.03,0.22,1.66-0.97,2.21
			c-2.6,1.2-3.96,3.47-3.9,6.25c0.08,3.74,0.5,7.48,0.87,11.21c0.68,6.91,1.42,13.82,2.16,20.72c1,9.3,1.91,18.61,3.1,27.88
			c0.53,4.13,2.07,8,5.39,10.85c2.37,2.03,5.12,2.83,8.16,1.92c1.07-0.32,2-1.06,3.07-1.64c0.41,1.73-0.14,3.29-1.34,4.68
			c-1.39,1.6-3.19,2.65-5.19,3.07c-8.71,1.83-16.84,0.57-23.82-5.26c-4.48-3.75-6.32-8.88-6.9-14.56
			c-0.85-8.43-1.76-16.85-2.64-25.28c-0.71-6.77-1.41-13.54-2.12-20.31c-0.05-0.49-0.13-0.98-0.47-1.5
			c-1.01,2.56-2.03,5.11-3.04,7.68c-6.09,15.56-12.18,31.12-18.23,46.7c-0.36,0.94-0.83,1.25-1.82,1.23c-3.11-0.06-6.22-0.06-9.33,0
			c-0.93,0.02-1.38-0.24-1.72-1.15c-6.45-17.11-12.94-34.2-19.42-51.3c-0.19-0.51-0.41-1.01-0.89-1.52
			c-0.17,1.37-0.36,2.74-0.49,4.12c-1.14,11.66-2.29,23.32-3.4,34.98c-0.21,2.25-0.43,4.53-0.3,6.77c0.19,3.14,1.81,5.39,5.14,6.31
			c-0.04,0.53-0.08,1.06-0.13,1.67c-6.63,0-13.2,0-19.81,0c-0.25-1.09,0.05-1.66,1.15-2.1c4.32-1.72,5.73-5.4,6.16-9.62
			c1.03-10.23,2.01-20.46,3.01-30.69c0.56-5.76,1.16-11.52,1.69-17.28c0.1-1.1,0.12-2.24-0.05-3.33c-0.76-4.73-4.41-7.23-9.58-6.66
			c-4.24,0.47-7.17,4.13-6.91,8.63c0.29,5.06,2.65,7.48,8.81,8.74c-1.17,1.15-2.11,2.26-3.23,3.16c-8.42,6.8-21.05,2.05-22.56-8.64
			c-0.81-5.73,1.63-10.32,6.38-13.6c4.87-3.36,10.39-4.57,16.22-4.56c11.15,0.01,22.29,0.1,33.44,0.07
			C438.76,11.29,438.94,12.02,439.19,13.01z"/>
		<path d="M323.58,11.44c0,7.5,0,14.95,0,22.69c0.63-0.39,1.08-0.66,1.51-0.94c4.73-3.1,9.88-5.02,15.57-4.82
			c7.12,0.25,13.1,2.85,16.9,9.25c1.21,2.04,1.67,4.29,1.67,6.66c0,11.12-0.01,22.24,0.03,33.37c0.01,3.46,0.57,6.83,2.26,9.92
			c1.97,3.58,5.84,5.4,9.78,4.33c1.39-0.38,2.6-1.41,4.07-2.25c-0.26,1.17-0.39,2.53-0.88,3.73c-1.94,4.75-5.76,7.08-10.69,7.44
			c-12.67,0.93-23.26-8-24.61-20.61c-0.19-1.79-0.27-3.6-0.27-5.41c-0.03-8.53,0.07-17.06-0.06-25.58c-0.04-2.7-0.33-5.5-1.11-8.07
			c-1.51-4.93-5.19-6.66-10.14-5.22c-4.02,1.17-4.02,1.17-4.02,5.32c0,11.4-0.04,22.8,0.04,34.2c0.01,1.81,0.37,3.68,0.9,5.42
			c0.61,1.98,2.07,3.44,4.05,4.13c1.17,0.41,1.36,1.04,1.05,2.15c-10.78,0-21.58,0-32.44,0c-0.32-1.04-0.17-1.64,1.01-2.07
			c2.94-1.05,4.22-3.48,4.75-6.36c0.22-1.22,0.3-2.49,0.3-3.73c0.02-16.03,0.02-32.07,0.01-48.1c0-2.43-0.24-4.81-1.43-7
			c-0.87-1.6-2.1-2.85-3.84-3.46c-0.76-0.27-1.17-0.7-0.9-1.4c0.14-0.38,0.71-0.8,1.13-0.84c8.29-0.97,16.6-1.89,24.9-2.81
			C323.21,11.37,323.3,11.4,323.58,11.44z"/>
		<path d="M506.08,58.38c0-16.04,13.07-28.97,29.25-28.95c16.12,0.02,29.29,13.09,29.26,29.02c-0.03,15.85-13.23,28.79-29.33,28.78
			C519.11,87.22,506.08,74.34,506.08,58.38z M545.73,57.9c-0.48-4.55-0.83-9.12-1.47-13.65c-0.49-3.45-1.54-6.79-3.88-9.53
			c-2.91-3.4-7.42-3.31-10.19,0.2c-2.11,2.67-2.93,5.87-3.45,9.13c-1.44,8.94-1.38,17.91-0.17,26.86c0.44,3.26,1.24,6.46,3.05,9.3
			c2.79,4.38,8.02,4.68,11.1,0.49c1.05-1.43,1.85-3.11,2.43-4.8C545.13,70.08,545.37,64.01,545.73,57.9z"/>
		<path d="M134.26,58.31c0.39,3.79,0.61,7.43,1.16,11.02c0.58,3.78,1.77,7.39,4.28,10.41c2.08,2.49,4.75,3.78,8,3.86
			c7.6,0.2,12.45-2.81,15.63-9.72c0.1-0.21,0.21-0.41,0.47-0.91c1.16,2.03,2.26,3.86,3.24,5.74c0.13,0.26-0.21,0.84-0.45,1.2
			c-2.43,3.66-6.03,5.67-10.2,6.44c-9.71,1.79-19.27,1.14-28.31-3.09c-8.22-3.85-12.66-10.6-13.84-19.5
			c-0.86-6.47-0.27-12.77,2.68-18.7c4.24-8.54,11.27-13.44,20.48-15.35c6.44-1.34,12.86-1.25,19.01,1.33
			c8.35,3.51,13.31,9.83,14.26,18.83c0.55,5.28,0.16,5.92-5.26,7.6c-2.27,0.7-4.74,1.04-7.12,1.06c-7.33,0.05-14.67-0.13-22-0.22
			C135.74,58.31,135.2,58.31,134.26,58.31z M134.56,53.67c0.63,0.03,1.13,0.07,1.63,0.07c4.04,0.01,8.07,0.01,12.11,0
			c3.01-0.01,4.33-0.84,5.29-3.72c1.45-4.37,0.81-8.6-1.36-12.59c-1.57-2.89-3.98-4.67-7.37-4.63c-3.55,0.04-6,1.93-7.54,5.05
			C134.86,42.82,134.78,48.19,134.56,53.67z"/>
		<path d="M90.68,87.17c-10.9,0-21.74,0-32.57,0c-0.39-1.13-0.09-1.67,1.05-2.08c3.03-1.09,4.38-3.56,4.88-6.56
			c0.19-1.14,0.26-2.31,0.26-3.46c0.02-10.29,0.05-20.57-0.02-30.86c-0.01-1.83-0.29-3.7-0.77-5.47c-0.66-2.45-2.33-4.14-4.7-5.17
			c-0.37-0.16-0.6-0.9-0.65-1.39c-0.02-0.24,0.52-0.73,0.84-0.77c8.34-0.96,16.69-1.87,25.03-2.78c0.13-0.01,0.27,0.04,0.57,0.08
			c0,1.53,0,3.08,0,4.77c1.98-1.01,3.72-2.07,5.58-2.83c5.64-2.31,11.4-2.89,17.22-0.66c3.24,1.24,5.73,3.39,7.28,6.53
			c0.34,0.69,0.55,1.44,0.89,2.34c-4.81,1.49-9.47,2.93-14.15,4.37c-0.53-1.16-0.94-2.19-1.47-3.16c-2.36-4.34-5.76-5.86-10.56-4.76
			c-4.53,1.04-4.75,1.31-4.75,5.89c0,11.3-0.02,22.61,0.02,33.91c0,1.52,0.11,3.07,0.46,4.54c0.59,2.52,2.09,4.46,4.57,5.4
			C90.77,85.46,91.05,86.04,90.68,87.17z"/>
		<path d="M290.16,73.75c1.12,1.93,2.16,3.58,3.02,5.31c0.2,0.4-0.04,1.25-0.37,1.63c-3.08,3.55-7.07,5.61-11.67,6.16
			c-7.96,0.97-15.77,0.12-23.18-3.08c-8.74-3.78-13.6-10.57-14.87-19.95c-1.52-11.21,1.8-20.61,10.74-27.74
			c9.85-7.86,26.26-9.98,37.83-2.79c1.56,0.97,2.94,2.24,4.42,3.35c0.79,0.59,0.75,1.26,0.37,2.07c-1.55,3.33-4.45,4.8-7.82,5.32
			c-1.96,0.3-4,0.06-5.86,0.06c0.41-1.46,1.01-2.79,1.12-4.17c0.45-5.73-3.93-8.89-9.27-8.21c-3.15,0.4-5.29,2.31-6.89,4.9
			c-2.19,3.54-3.16,7.49-3.72,11.55c-1.06,7.77-1.21,15.53,0.99,23.14c0.71,2.46,1.76,4.92,3.14,7.06
			c3.99,6.19,12.06,7.12,17.44,2.05c1.42-1.34,2.42-3.13,3.57-4.74C289.52,75.17,289.75,74.56,290.16,73.75z"/>
		<path d="M567.68,87.14c-0.26-0.96-0.23-1.58,0.91-2.05c4.09-1.67,5.15-5.21,5.21-9.16c0.08-6.35,0.02-12.7,0.02-19.04
			c0-4.82,0.05-9.64-0.02-14.46c-0.05-3.31-0.87-6.35-3.81-8.37c-0.53-0.36-1.22-0.52-1.69-0.93c-0.37-0.33-0.61-0.9-0.68-1.4
			c-0.03-0.17,0.59-0.62,0.93-0.65c8.24-0.65,16.47-1.26,24.71-1.87c0.17-0.01,0.35,0.03,0.7,0.06c0,0.63,0,1.21,0,1.8
			c0,14.46-0.05,28.92,0.05,43.37c0.01,2.18,0.49,4.4,1.11,6.5c0.57,1.92,2.08,3.24,3.95,4.08c1.29,0.58,1.29,0.6,1.17,2.11
			C589.4,87.14,578.56,87.14,567.68,87.14z"/>
		<path d="M582.97,26.67c-5.9-0.05-10.55-4.69-10.51-10.5c0.04-5.83,4.87-10.56,10.71-10.51c5.77,0.05,10.45,4.84,10.41,10.64
			C593.54,22.14,588.87,26.71,582.97,26.67z"/>
	</g>
	<path d="M241.94,87.29c-10.89,0-21.71,0-32.56,0c-0.38-1.11-0.11-1.64,1.02-2.11c3.66-1.52,4.91-4.67,5.04-8.33
		c0.12-3.49,0.05-6.99,0.05-10.48c0-5.81,0.02-11.62-0.01-17.43c-0.01-2.83-0.22-5.64-1.28-8.31c-1.63-4.1-4.82-5.82-9.08-4.76
		c-1.58,0.39-3.1,1.08-4.58,1.77c-0.4,0.19-0.84,0.86-0.83,1.31c0.17,12.8,0.32,25.59,0.64,38.39c0.09,3.67,1.71,6.63,5.43,8.09
		c0.44,0.17,0.62,1.03,1.06,1.83c-11.36,0-22.26,0-33.18,0c-0.4-1.09-0.11-1.63,1.05-2.01c2.91-0.95,4.3-3.25,4.84-6.1
		c0.24-1.27,0.34-2.59,0.34-3.89c-0.02-10.15-0.04-20.29-0.16-30.44c-0.02-1.83-0.31-3.69-0.79-5.46c-0.6-2.25-2.12-3.89-4.25-4.91
		c-1.27-0.61-1.28-0.61-1.06-2.21c8.56-0.98,17.16-1.96,25.95-2.96c0,1.86,0,3.52,0,5.5c0.62-0.41,0.98-0.64,1.34-0.88
		c5.23-3.64,10.95-5.82,17.41-5.38c6.33,0.43,11.65,2.92,15.31,8.31c1.59,2.33,2.24,4.96,2.23,7.77
		c-0.01,10.23-0.03,20.46,0.03,30.69c0.01,1.75,0.2,3.54,0.65,5.23c0.6,2.26,2.06,3.99,4.36,4.73
		C242.07,85.6,242.28,86.17,241.94,87.29z"/>
	<g>
		<path d="M13.81,15.3c0.36-0.41,0.68-0.87,1.14-1.16c0.7-0.45,1.59-0.43,2.42-0.4c1.72,0.07,3.44,0.13,5.16,0.2
			c2.56,0.1,9.66-5.81,9.66-2.07c0,6.67,0.07,26.71,0.13,33.38c0,0.31,0.06,0.62,0.08,0.92c6.37,0.64,11.49-2.18,13.52-7.15
			c0.22-0.55,0.22-1.32,1.23-1.15c1.1,0.19,0.79,0.97,0.79,1.6c0.01,5.7,0,11.4-0.01,17.1c0,0.09-0.04,0.18-0.09,0.4
			c-0.42,0.1-0.89,0.21-1.33,0.31c-3.33-6.56-7.87-9.3-14.13-8.5c-0.02,0.46-0.06,0.96-0.06,1.45c-0.05,8.06-0.17,16.13-0.11,24.19
			c0.02,2.14,0.39,4.33,0.99,6.39c0.64,2.21,2.18,3.81,4.47,4.62c0.45,0.16,0.65,1,1.13,1.78c-11.35,0-22.19,0-33.05,0
			c-0.38-1.08-0.13-1.66,1-2.1c3.15-1.23,4.49-3.84,4.95-7c0.15-1,0.17-2.03,0.18-3.05c0.01-17.19,0.03-40.84-0.03-58.03
			C11.85,15.8,12.87,16.37,13.81,15.3z"/>
		<path d="M0.78,7.37c-0.09,2.23,1.05,4.77,2.39,6.17c4.77,5.02,12.12,3.15,18.1,1.97c11.37-2.24,22.41-5.12,34.1-4.68
			c4.01,0.15,8.73,0.15,11.89,3c2.17,1.96,3.23,4.64,2.82,7.53c-0.08,0.59-0.54,1.65-0.34,2.24c2.12-0.2,5.56-1,8.62-3.51
			c3.86-3.16,4.45-7.64,1.92-12.21c-2.82-5.09-10.81-6.81-16.1-7.2C54.03-0.05,43.85,1.66,34.02,3.99c-4.71,1.12-9.39,2.4-14.05,3.7
			c-4.03,1.12-8.84,2.85-12.92,1.01C5.77,8.12,4.7,6.89,4.68,5.48C4.67,4.79,4.9,4.12,5.26,3.54C4.11,3.18,2.79,3.6,1.94,4.46
			C1.17,5.24,0.82,6.27,0.78,7.37z"/>
	</g>
</g>
</svg>
