<svg id="Layer_1" data-name="Layer 1" xmlns="http://www.w3.org/2000/svg" xmlns:xlink="http://www.w3.org/1999/xlink" viewBox="0 0 250.05 331.12"><defs><style>.cls-1,.cls-10,.cls-11,.cls-13,.cls-14,.cls-19,.cls-2,.cls-20,.cls-29,.cls-3,.cls-4,.cls-5,.cls-6,.cls-7,.cls-8,.cls-9{fill:none;}.cls-2,.cls-6{stroke:#fff;}.cls-10,.cls-11,.cls-13,.cls-14,.cls-19,.cls-2,.cls-20,.cls-22,.cls-25,.cls-27,.cls-29,.cls-3,.cls-4,.cls-5,.cls-6,.cls-7,.cls-8,.cls-9{stroke-miterlimit:10;}.cls-2{stroke-width:1.12px;}.cls-10,.cls-3,.cls-4,.cls-8,.cls-9{stroke:#a7a9ac;}.cls-3{stroke-width:1.19px;}.cls-4{stroke-width:1.05px;}.cls-5,.cls-7{stroke:#263168;}.cls-5{stroke-width:1.02px;}.cls-6{stroke-width:0.88px;}.cls-7{stroke-width:0.96px;}.cls-8{stroke-width:1.17px;}.cls-9{stroke-width:1.05px;}.cls-10{stroke-width:1.19px;}.cls-11{stroke:#eabd80;stroke-width:1.04px;}.cls-12{fill:#273d25;}.cls-13{stroke:#151314;stroke-width:0.64px;}.cls-14,.cls-19,.cls-22,.cls-25,.cls-27,.cls-29{stroke:#231f20;}.cls-14{stroke-width:0.32px;}.cls-15{fill:#ee203d;}.cls-16{fill:#151314;}.cls-17{fill:#313131;}.cls-18{fill:#eabd80;}.cls-19{stroke-width:0.3px;}.cls-20{stroke:#273d25;stroke-width:1.25px;}.cls-21{fill:#010101;}.cls-22,.cls-23,.cls-25,.cls-27{fill:#fff;}.cls-22{stroke-width:0.24px;}.cls-24{fill:#58bada;}.cls-25{stroke-width:0.26px;}.cls-26{fill:#263168;}.cls-27,.cls-29{stroke-width:0.33px;}.cls-28{clip-path:url(#clip-path);}</style><clipPath id="clip-path" transform="translate(-20.61 -25.93)"><path class="cls-1" d="M226,312.24a2,2,0,0,1-.44.53c-.9.71-3.21-.6-4-1.38a.31.31,0,0,1-.13-.19.38.38,0,0,1,.08-.3c.6-1,1.53-2.08,2.25-3.08a12,12,0,0,1,2.84-2.93c.93-.66,2.69-.56,3.77-.62,1.44-.1,2.88-.14,4.32-.15.72,0,1-.1,1.6.27s1.19.71,1.73,1.12a5.66,5.66,0,0,1,2,2.4,27.11,27.11,0,0,1,1.24,3.69,65.39,65.39,0,0,1,1.39,7.72,2.1,2.1,0,0,1-.07,1.22c-.33.68-1.15.35-1.73.31l-2.85-.17a35.54,35.54,0,0,1-4.83-.44,33.49,33.49,0,0,1-3.41-.4c-2.16-.74-.28-8.37-.25-10.4a1.85,1.85,0,0,0-.36-1.37,13.33,13.33,0,0,0-2,2.16C226.67,310.7,226.34,311.61,226,312.24Z"/></clipPath></defs><title>login</title><path class="cls-2" d="M156.28,193.33H100.71l-76.12-.49" transform="translate(-20.61 -25.93)"/><path class="cls-2" d="M156.28,190.22c-.46-5.43-4.42-10-8.7-10.06-2.22,0-4.43,1-6.62.52a8.16,8.16,0,0,0-2.39-6.28,11.06,11.06,0,0,0-5.27-2.68,32,32,0,0,0-13.05-.11c-1.92.44-4,1.11-5.77.2-4.12-2.08-5.8-9.42-9.72-12.49-4.55-3.56-10.5-4.94-15.82-3.11-3.94,1.36-7.77,4.26-11.81,3.42-3.26-.67-5.74-3.61-8.66-5.4-4.87-3-11-2.56-15.89.39a27.22,27.22,0,0,0-8.31,8.5c-2.11,3.24-2.82,7.34-5.1,10.45-3.61,4.91-10,5.86-14.15,10.12-2.67,2.72-3.79,2.68-3.85,6.78" transform="translate(-20.61 -25.93)"/><line class="cls-3" x1="56.41" y1="248.44" x2="56.41" y2="298.9"/><polyline class="cls-3" points="40.44 258.69 56.41 276.29 71.29 263.02"/><path class="cls-3" d="M96.11,294.52c-1,.07-11.31,0-11.31,0l.49-9.57" transform="translate(-20.61 -25.93)"/><path class="cls-4" d="M38.79,279.28A17.23,17.23,0,0,1,46,264.55a20.61,20.61,0,0,1,9.34-3.61c1.73-.23,3.57-.07,5.26-.56,2.19-.64,3-2.17,4.58-3.68a23.6,23.6,0,0,1,12.36-5.83A31.21,31.21,0,0,1,96,254.15a21.47,21.47,0,0,1,8.31,6.84c1.63,2.39,2.64,6.53,5.35,7.81s5.9,1.51,8.73,3.39,7.37,1.62,10,3.86c3.51,3.05,3,9.24,4.16,13.39.6,2.13,2.79,3.42,3.83,5.38,1.62,3,.12,6.73-1.37,9.83" transform="translate(-20.61 -25.93)"/><path class="cls-5" d="M212.64,168.5a2.51,2.51,0,0,0,1.76-.29,12.4,12.4,0,0,1,9.62.28,4.55,4.55,0,0,0,1.62.57,2.73,2.73,0,0,0,2.06-.91,19,19,0,0,0,1.32-1.78,8.6,8.6,0,0,1,5.39-3.18" transform="translate(-20.61 -25.93)"/><path class="cls-6" d="M178,119h47l44.94-.41" transform="translate(-20.61 -25.93)"/><path class="cls-6" d="M178,116.71c.38-4,3.73-7.36,7.35-7.4,1.87,0,3.75.75,5.59.38a5.65,5.65,0,0,1,2-4.62,9.92,9.92,0,0,1,4.46-2,30.68,30.68,0,0,1,11-.08c1.63.32,3.34.81,4.88.14,2-.86,2.89-3.27,4.06-5.22,1.69-2.82,7.44-5.4,10.21-5.81,6.42-.95,12.52-2.63,18.78.24A18.17,18.17,0,0,1,253,97.61c1.51,1.9,2.28,6.77,4.46,7.58,1.3.47,3.43-.31,4.73-.49a12.77,12.77,0,0,1,5.4,0,7.37,7.37,0,0,1,2.79,1.53" transform="translate(-20.61 -25.93)"/><path class="cls-7" d="M228.06,149.51a15.68,15.68,0,0,1,10.64,2c1.43.9,2.92,2.1,4.68,1.87s2.81-1.89,4.11-3a13.49,13.49,0,0,1,4.32-2.22,22.86,22.86,0,0,1,7.37-1.62" transform="translate(-20.61 -25.93)"/><g id="dtmoFu"><path class="cls-8" d="M167.9,94.3c.15,6.81.14,13.63.51,20.43.46,8.48.93,17,1.64,25.43q1.06,13,2.59,25.89c.61,5.24,1.52,10.45,2.32,15.68,1.12,7.31,2.51,14.56,4.24,21.76.61,2.55,1.26,5.09,1.87,7.64.09.36.11.73.17,1.09" transform="translate(-20.61 -25.93)"/><path class="cls-3" d="M183.9,265.3c-5.28-10-11.08-32.83-11.31-32.82-5.87-.06-19.21-.19-19.52,0s-1.52,7.92-2.21,11c-1.58,7.11-4.64,14.71-7.3,21.48" transform="translate(-20.61 -25.93)"/><path class="cls-3" d="M200.07,279c1.67-.12,2.93-.12,2.93-1.38V266.38c0-.51-7.28-1-8-1.06-11.42-.61-23,0-34.49-.15a331.68,331.68,0,0,0-35.81,1.12,24.66,24.66,0,0,0-3.32.52c-2.1.53-1.51,3.73-1,5.73" transform="translate(-20.61 -25.93)"/><path class="cls-3" d="M199.91,278.88c-7.83-1.07-15.78-.75-23.65-.45-9.41.36-18.83.34-28.24.18l-8.45-.17c-2.69,0-5.43.2-8.14.21" transform="translate(-20.61 -25.93)"/><path class="cls-8" d="M157.54,94.3c-.16,6.5-.23,13-.49,19.5s-.6,13.11-1.11,19.65c-.67,8.75-1.43,17.49-2.44,26.21-1.1,9.45-2.38,18.87-4.1,28.23-.93,5-1.92,10-3.07,15a88.21,88.21,0,0,0-2.13,9.34" transform="translate(-20.61 -25.93)"/><path class="cls-3" d="M182.65,219.59a97.17,97.17,0,0,0,1.7,10.72,166,166,0,0,0,6.81,24.11c1.18,3.33,2.79,6.51,4.19,9.76a8.91,8.91,0,0,1,.32,1.12" transform="translate(-20.61 -25.93)"/><path class="cls-3" d="M142.79,219.59c-.65,8.69-4,16.88-6.73,25.06-2.51,7.44-5.29,15.18-10.47,21.24" transform="translate(-20.61 -25.93)"/><path class="cls-3" d="M162.72,103.89c0,14.6.17,50.67.17,65.27" transform="translate(-20.61 -25.93)"/><path class="cls-3" d="M186.89,217.11c.07,2-.65,1.93-2.3,2.06-2,.16-4,.22-6,.2-4.58-.05-9.15-.22-13.72-.23H144.52c-1.52,0-3-.1-4.55,0-1.1.1-1.54-.63-1.42-2.66a24.8,24.8,0,0,1,.19-4.18c1.85-.15,22.57-.32,31-.2,5.23.08,10.46.06,15.69,0,1.09,0,1.55.63,1.42,2.66C186.85,215.55,186.86,216.33,186.89,217.11Z" transform="translate(-20.61 -25.93)"/><path class="cls-3" d="M200.07,279.2c1.79,7.84,19.9,38.23,23.67,45.28" transform="translate(-20.61 -25.93)"/><path class="cls-3" d="M163.66,82.63c-.45,0-8.51-.6-8.51.21V94h15.14V82.8C168.06,82.31,165.86,82.73,163.66,82.63Z" transform="translate(-20.61 -25.93)"/><path class="cls-9" d="M162.72,53.23V76.64" transform="translate(-20.61 -25.93)"/><path class="cls-10" d="M168.25,82.19V76.64H157.32c-.4,2-.1,3.86-.2,5.75" transform="translate(-20.61 -25.93)"/><path class="cls-3" d="M162.72,162.06" transform="translate(-20.61 -25.93)"/><path class="cls-3" d="M162.72,152.79" transform="translate(-20.61 -25.93)"/><path class="cls-3" d="M157,211.55a228,228,0,0,0,5.9-42.39c1.9,13.27,3.94,32,6.89,42.39" transform="translate(-20.61 -25.93)"/></g><circle class="cls-11" cx="64.73" cy="36.46" r="35.94"/><path class="cls-3" d="M202,324.13c-1.21-10.29-7-23.16-15.47-29.1a36.24,36.24,0,0,0-22.66-6.57A28.08,28.08,0,0,0,153,291.28a46.42,46.42,0,0,0-9,6.23,35.54,35.54,0,0,0-5.83,5.8" transform="translate(-20.61 -25.93)"/><path class="cls-12" d="M128.37,307.78a1.58,1.58,0,0,1,.58.35,2,2,0,0,1,.66-1.69.91.91,0,0,1,.48-.24.87.87,0,0,1,.82.45,3.6,3.6,0,0,1,.36.91c0,.08.06.16.13.19a.25.25,0,0,0,.17,0,3.2,3.2,0,0,0,.57-.32.6.6,0,0,1,.63,0,1,1,0,0,0,.19.17c.3.17.64-.3,1-.22a1.06,1.06,0,0,1,.4.75c.16-.15.43.1.37.31s-.27.32-.47.4a11,11,0,0,1-5.08.57c-.5-.05-.93,0-1.24-.47S127.65,307.61,128.37,307.78Z" transform="translate(-20.61 -25.93)"/><ellipse class="cls-13" cx="138.03" cy="331.98" rx="12.16" ry="11.75" transform="translate(-31.58 -21.15) rotate(-1.91)"/><ellipse class="cls-13" cx="74.4" cy="307.21" rx="12.4" ry="11.91"/><circle class="cls-14" cx="117.31" cy="306.17" r="2.11"/><circle class="cls-14" cx="74.91" cy="306.14" r="2.11"/><path class="cls-15" d="M124.08,332a9.51,9.51,0,0,1,.12-2.05,14.33,14.33,0,0,1,2.19-5.88,9.66,9.66,0,0,1,2.59-2.81,17.67,17.67,0,0,1,4.8-2.44,14,14,0,0,1,3.29-.66c.49,0,3-.22,2.74.57-.12.43-.77.65-1.16.61l-.54-.05h-.68l-.71,0-.69.07c-.24,0-.47.08-.7.12l-.66.17a16.38,16.38,0,0,0-5.14,2.55,10.71,10.71,0,0,0-3.6,4.53,11.78,11.78,0,0,0-.78,6.07.51.51,0,0,1,0,.3c-.12.24-.51.12-.68-.1A1.87,1.87,0,0,1,124.08,332Z" transform="translate(-20.61 -25.93)"/><path class="cls-15" d="M94.63,320.57A12.46,12.46,0,0,1,107,329c.14.34.48.89.89.63s.26-.82.19-1.11a6.41,6.41,0,0,0-1.1-2.2,21.08,21.08,0,0,0-4-4.53,12.68,12.68,0,0,0-3.07-1.87,10,10,0,0,0-3.13-.69,16.7,16.7,0,0,0-4.89.24,16.26,16.26,0,0,0-8,4.78A11.59,11.59,0,0,0,81.68,327a.9.9,0,0,0-.14.65c.25.81,1.24-.25,1.44-.5a19.94,19.94,0,0,1,5-4.76A13.76,13.76,0,0,1,94.63,320.57Z" transform="translate(-20.61 -25.93)"/><path class="cls-15" d="M105.39,321.54l1,1.79c.44.81.88,1.62,1.33,2.43.33.61.59,1.25,1,1.85a1.12,1.12,0,0,0,.3.35c.8.52.69-.4.44-.89l-3.3-6.31-1.65-3.15a7.57,7.57,0,0,0-.76-1.47,1.35,1.35,0,0,0-1.14-.33c-.08,0-.18,0-.2.1a.18.18,0,0,0,0,.14c.85,1.38,1.53,2.87,2.31,4.3l.35.65C105.19,321.18,105.29,321.36,105.39,321.54Z" transform="translate(-20.61 -25.93)"/><path class="cls-15" d="M110,327.16a18.06,18.06,0,0,0-3.37.42l-.37.08c-1.26.27-2.51.59-3.76.91s-2.43.65-3.63,1c-.88.26-1.71.58-2.58.82a2.41,2.41,0,0,0-1.83,1.34,1.65,1.65,0,0,0,1.18,2,15.71,15.71,0,0,0,3.87.33c1.28.05,2.55.12,3.83.23l3.85.32c2.5.22,7,1,7.91-2.15a4.21,4.21,0,0,0,.14-.76C115.5,329.07,112.77,327.1,110,327.16Z" transform="translate(-20.61 -25.93)"/><polygon class="cls-15" points="85.97 304.25 85.97 304.25 85.97 304.25 85.97 304.25"/><path class="cls-15" d="M132.62,329.2c-.28-.41-.53-.8-.74-1.13-2.61-4.07-5.23-8.58-6.53-13.24-.2-.72-.41-1.43-.67-2.13,0-.1-.08-.21-.13-.31l-.12.22c-.13.25-.27.49-.41.72-.3.5-.6,1-.92,1.46s-.67,1-1,1.49c-1.88,2.68-3.85,5.49-6.67,7.27a9.57,9.57,0,0,1-6.71.91c-.39-.08-2.92-.8-1.64-1.47.36-.19,1.19.07,1.58.11.59.07,1.18.15,1.77.2a8.17,8.17,0,0,0,3.44-.33,9.89,9.89,0,0,0,3.55-2.63,31.47,31.47,0,0,0,2.37-2.66c.72-.93,1.24-2,1.9-2.93l.29-.42a32.8,32.8,0,0,0,1.76-2.87l.18-.35s0-.05,0-.08a1.56,1.56,0,0,1,.16-.2l.1-.08a.48.48,0,0,1,.16-.08.49.49,0,0,1,.17,0,.48.48,0,0,1,.23.07,1.46,1.46,0,0,1,.54.69,3.49,3.49,0,0,1,.2.44,18.45,18.45,0,0,1,.66,1.94,47.29,47.29,0,0,0,3.21,8.12,48.25,48.25,0,0,0,4.92,7.37c.49.64,1.33,2,2.22,2.08.31,0,.54-.15.85,0,.73.29.5.89-.15,1C135.38,332.75,133.73,330.81,132.62,329.2Z" transform="translate(-20.61 -25.93)"/><path class="cls-15" d="M136.74,308.74l0,0Z" transform="translate(-20.61 -25.93)"/><path class="cls-15" d="M114.51,331.37a.24.24,0,0,1-.13-.07.29.29,0,0,1-.07-.12.79.79,0,0,1-.08-.31,1.55,1.55,0,0,1,0-.43,1.17,1.17,0,0,1,.15-.42c.15-.28.29-.57.45-.84s.33-.55.5-.81c.35-.55.7-1.1,1.06-1.64l1.1-1.68,1.08-1.65,1-1.65c.36-.56.72-1.12,1.07-1.68s.72-1.12,1.07-1.69l1.07-1.68L124,315c.34-.55.67-1.12,1-1.69l.08-.15a.79.79,0,0,1,.14-.18.45.45,0,0,1,.25-.12.46.46,0,0,1,.28.06.81.81,0,0,1,.31.49.91.91,0,0,1,0,.23.66.66,0,0,1,0,.14.8.8,0,0,1-.19.45l-.09.06-.08.15-.25.43-.5.84c-.35.57-.71,1.14-1.07,1.7L122.79,319c-.35.56-.71,1.12-1.07,1.68s-.71,1.14-1.07,1.7l-1.09,1.69-1.09,1.67c-.36.55-.71,1.1-1.07,1.64s-.72,1.1-1.07,1.65c-.18.27-.35.55-.52.82s-.31.55-.46.83l-.11.21a.86.86,0,0,1-.25.31.75.75,0,0,1-.25.13h-.09A.23.23,0,0,1,114.51,331.37Z" transform="translate(-20.61 -25.93)"/><path class="cls-16" d="M104.3,314.29a2.89,2.89,0,0,1-.75.09c.06.3.07.67-.18.83a.74.74,0,0,1-.29.08,4.38,4.38,0,0,1-.52,0,.7.7,0,0,1-.38-.07c-.32-.18-.26-.7-.52-.95s-1.43-.29-1.85-.29H99.2c-.22,0-.43,0-.65,0a.32.32,0,0,1-.16,0,7.11,7.11,0,0,1-.79-.1l-.3-.07-.31-.12-.15-.09a.75.75,0,0,1-.25-.25.62.62,0,0,1-.08-.37.48.48,0,0,1,0-.17,1.09,1.09,0,0,1,.08-.15.72.72,0,0,1,.25-.18,1.63,1.63,0,0,1,.28-.07l.6-.12.59-.1.69-.09h.11a5.68,5.68,0,0,1,.59,0c1.12,0,1.87.58,2.93.76.63.11,2.47-.35,2.33.83A.85.85,0,0,1,104.3,314.29Zm-5.22.59Zm0-1.24h0Z" transform="translate(-20.61 -25.93)"/><path class="cls-17" d="M126.55,306.33c0-.21-.08-.39-.42-.5-.74-.25-1.37.88-2.14.55-.22-.09-.36-.31-.69-.22a1.85,1.85,0,0,0-.29.13l-.15.09-.09.06-.5.17-.64.17-.31.09-.28.07a.39.39,0,0,0-.11.06.22.22,0,0,0-.11,0c-.15,0-.26.23-.33.42a4.68,4.68,0,0,0-.18.78,3.88,3.88,0,0,0,0,.48,2.46,2.46,0,0,0,0,.28,1.17,1.17,0,0,0,0,.2l.07.13.07.07a.18.18,0,0,0,.13.06h.06l.19,0h0a.37.37,0,0,0,.14,0,1.06,1.06,0,0,0,.21-.11l.38-.24h0l.65-.33.64-.31.61-.31.15-.08.1-.05a.35.35,0,0,0,.11-.1.78.78,0,0,0,.11-.18,1.59,1.59,0,0,1,1-.47c.41.15.14.65.48.9.07.05.16.07.21.15s0,.27-.08.38c-.29.37-.68.62-1,1a2.16,2.16,0,0,0-.53,1.19c0,.1-.14.15-.21.22-.25.22-.13.62,0,.92,0,.1.1.21.2.25a.47.47,0,0,0,.17,0,1.66,1.66,0,0,0,1.05-.37.79.79,0,0,0,.14-1,.29.29,0,0,1-.37-.23c0-.42.63-.91.91-1.11a2.74,2.74,0,0,0,.64-.53.83.83,0,0,0,.17-.78,2,2,0,0,0-.37-.51C126.13,307.21,126.52,306.72,126.55,306.33Z" transform="translate(-20.61 -25.93)"/><polygon class="cls-17" points="109.5 279.38 109.5 279.38 109.5 279.38 109.5 279.38"/><polygon class="cls-17" points="109.51 279.38 109.51 279.38 109.51 279.38 109.51 279.38"/><rect class="cls-16" x="114.37" y="335.38" width="5.55" height="0.81" rx="0.32" transform="translate(30.84 -39.66) rotate(8.59)"/><polygon class="cls-18" points="105.18 284.62 105.18 284.63 105.18 284.63 105.18 284.62"/><polygon class="cls-18" points="105.31 284.83 105.31 284.83 105.31 284.83 105.31 284.83"/><polygon class="cls-18" points="105.31 284.83 105.3 284.83 105.31 284.83 105.31 284.83"/><path class="cls-18" d="M125.9,310.75h0Z" transform="translate(-20.61 -25.93)"/><path class="cls-18" d="M134.56,315.55c0-.08-.14-.1-.22-.09a5.67,5.67,0,0,0-.57.1l-.27.05-.25,0h0c-.05,0-.11,0-.11.08s.06.08.11.08h0a.88.88,0,0,0,.28,0l.31,0a5.58,5.58,0,0,0,.59-.09C134.51,315.69,134.58,315.62,134.56,315.55Z" transform="translate(-20.61 -25.93)"/><path class="cls-18" d="M137,309a.32.32,0,0,0-.06-.19c-.23-.43-1.17-.19-1.51-.08a19.44,19.44,0,0,1-2.52.53c-1.76.28-3.52.5-5.3.63a4.78,4.78,0,0,0-1.93.25.53.53,0,0,0,.12.95l.15,0v0a3,3,0,0,0,.28.91c.13.37.22.74.34,1.1.22.69.46,1.38.66,2.07.09.34.19.67.31,1s.33.67.47,1,.14.35.41.4a5.73,5.73,0,0,0,1,.08,16,16,0,0,0,2.4-.26c.82-.14,1.63-.29,2.42-.48l.51-.14a3.71,3.71,0,0,0,.48-.1.73.73,0,0,0,.45-.56c.2-.71.38-1.43.53-2.15a11.47,11.47,0,0,0,.14-1.16c0-.4.12-.79.16-1.18l.09-1.2a4.48,4.48,0,0,1,0-1C136.69,309.25,137,309.19,137,309Zm-1.25.72-.11.06a2.81,2.81,0,0,1-1,.28,38.77,38.77,0,0,1-4.31.73,22.41,22.41,0,0,1-2.84.13c-.34,0-1.43.11-1.63-.2s.43-.37.64-.37l2.2-.08c.66,0,1.33-.05,2-.12s1.34-.18,2-.3a23.13,23.13,0,0,0,3.3-.73.69.69,0,0,1,.25,0,.18.18,0,0,1,.17.14C136.42,309.34,136,309.57,135.74,309.7Z" transform="translate(-20.61 -25.93)"/><path class="cls-15" d="M96.05,331.05c-.46.6-.78,1.25-.47,1.77.59,1,1.56-1.06,1.85-1.39.91-1,1.82-2.07,2.72-3.12,1.21-1.4,2.4-2.82,3.59-4.25.59-.72,1.2-1.42,1.77-2.16a1.3,1.3,0,0,0,.33-.66c0-.16,0-.89-.34-.76-.8.32-1.2,1.34-1.77,2-1.15,1.39-2.38,2.7-3.61,4-1,1-1.92,2.07-2.83,3.14C97,330,96.48,330.5,96.05,331.05Z" transform="translate(-20.61 -25.93)"/><path class="cls-19" d="M109.31,327.94a17.62,17.62,0,0,0-3,.4l-.32.07c-1.11.23-2.22.51-3.32.79s-2.14.55-3.2.85c-.77.22-1.5.49-2.26.69a2.15,2.15,0,0,0-1.59,1.09c-.23.65.36,1.38,1.13,1.55a16,16,0,0,0,3.46.18c1.14,0,2.27,0,3.41.09l3.44.18c2.24.11,6.26.65,7-1.85a3.17,3.17,0,0,0,.1-.59C114.24,329.32,111.74,327.84,109.31,327.94Z" transform="translate(-20.61 -25.93)"/><path class="cls-16" d="M113.28,333.48l.49.48.91.87c.09.08.41.3.4.43s-.29.26-.42.23a.25.25,0,0,1-.12-.08,37.37,37.37,0,0,1-3.26-3.63.65.65,0,0,0-.39-.25c-.14,0-.29-.09-.31-.27a.46.46,0,0,1,.52-.46h.05l.09,0,0,0a.83.83,0,0,1,.08.12.53.53,0,0,1,0,.12.28.28,0,0,1,0,.09.27.27,0,0,1-.08.18C111.26,331.45,113.2,333.39,113.28,333.48Zm2.52,3Zm1.57-.25Zm0,0Zm-1.55-.07Zm-2.39-.58h0Z" transform="translate(-20.61 -25.93)"/><line class="cls-3" x1="38.86" y1="265.36" x2="46.75" y2="265.63"/><line class="cls-3" x1="49.12" y1="254.95" x2="49.64" y2="269.1"/><line class="cls-20" x1="131.82" y1="298.73" x2="246.17" y2="298.73"/><path class="cls-21" d="M225.33,293a.59.59,0,0,1,0,.13c-.13,1.25.32,2.49.24,3.74a.54.54,0,0,1-.08.28.63.63,0,0,1-.46.19c-.33,0-.66.09-1,.09a.08.08,0,0,1-.08,0v0c0-.47.16-.93.16-1.4a.7.7,0,0,0,0-.25.17.17,0,0,0-.17-.14.17.17,0,0,0-.12.06,4.15,4.15,0,0,0-.24.34.36.36,0,0,1-.36.17,2.74,2.74,0,0,1-.21-1.67,1.91,1.91,0,0,1,.27-.79c.12-.18.16-.46.31-.63a.71.71,0,0,1,.14-.1l.26-.16a.12.12,0,0,1,.08,0h.08c.14,0,.2-.3.33-.37a.67.67,0,0,1,.39-.08A.56.56,0,0,1,225.33,293Z" transform="translate(-20.61 -25.93)"/><path class="cls-22" d="M239.64,348.56a.3.3,0,0,1,.2.08.35.35,0,0,1,.07.2,28.13,28.13,0,0,1,.1,5.27.43.43,0,0,1-.43.5c-1.5.32-5.42-.27-6.17-1.86,1.23-.46,2.61.16,3.6-1.13.65-.86.07-1.87.61-2.74C237.93,348.37,239.09,348.47,239.64,348.56Z" transform="translate(-20.61 -25.93)"/><path class="cls-16" d="M240.47,354.37a.32.32,0,0,1-.07.23.51.51,0,0,1-.26.1,18.66,18.66,0,0,1-6.36-.18,4.22,4.22,0,0,1-2-.75c-.27-.23-.48-.57-.36-.86.17-.46.89-.53,1.47-.52a2.87,2.87,0,0,1,1,.15,3.94,3.94,0,0,1,.55.35,5.18,5.18,0,0,0,2.43.75,16.14,16.14,0,0,0,3.22-.3A1.66,1.66,0,0,1,240.47,354.37Z" transform="translate(-20.61 -25.93)"/><path class="cls-16" d="M228.18,292.88h0l0,0Z" transform="translate(-20.61 -25.93)"/><path class="cls-23" d="M227.44,289.72a.34.34,0,0,0,.12-.09.6.6,0,0,0,.15-.31.5.5,0,0,0,0-.21c0-.06,0-.13,0-.19s0-.17,0-.26c-.07-.52-.09-1.05-.11-1.58v.09l0,.17h0v0l0,.13h0l0,.14h0c0,.11,0,.22,0,.33h0v.07h0l0,.19v0h0v0h0v0h0v0h0v0h0v0h0c0,.22-.06.46-.07.69v.05c0,.08,0,.15,0,.22h0c0,.06,0,.12,0,.19v.06h0v0h.11A.17.17,0,0,0,227.44,289.72Z" transform="translate(-20.61 -25.93)"/><path class="cls-24" d="M242.66,326.11l.12-.05-.2.09Z" transform="translate(-20.61 -25.93)"/><path class="cls-25" d="M227.7,350.37a.34.34,0,0,1,.22.09.35.35,0,0,1,.07.21,29.11,29.11,0,0,1,0,5.6.64.64,0,0,1-.11.36.66.66,0,0,1-.36.16c-1.62.31-5.81-.4-6.59-2.1,1.33-.47,2.8.23,3.88-1.13.71-.89.1-2,.69-2.89C225.88,350.13,227.12,350.27,227.7,350.37Z" transform="translate(-20.61 -25.93)"/><path class="cls-26" d="M225.48,333.55a62.77,62.77,0,0,1,4.31-13.16,1.51,1.51,0,0,1,.5-.71,1.71,1.71,0,0,1,1.12-.13l7.51.94a.67.67,0,0,1,.71.71c.66,4.62-.24,9.27-.46,13.89a42.48,42.48,0,0,0,1.22,13.34c.07.26.15.52.23.78a.44.44,0,0,1,0,.3c-.31.63-2.07.67-2.64.72-1.4.11-1.7-.49-2-1.81a49.54,49.54,0,0,1-1.1-9.8,61.46,61.46,0,0,0-.72-9.2.47.47,0,0,0-.12-.28.51.51,0,0,0-.29-.1,1.76,1.76,0,0,0-.56,0,1.6,1.6,0,0,0-1,1,28.36,28.36,0,0,0-1.68,5.42c-.49,1.92-.9,3.87-1.23,5.82a61.73,61.73,0,0,0-.85,9.39.57.57,0,0,1,0,.26.56.56,0,0,1-.3.19,6.55,6.55,0,0,1-3.4.24.38.38,0,0,1-.21-.1.29.29,0,0,1,0-.18,58.78,58.78,0,0,1-.19-8.18,64.73,64.73,0,0,1,.81-7.08C225.18,335,225.32,334.29,225.48,333.55Z" transform="translate(-20.61 -25.93)"/><path class="cls-16" d="M228.5,356.55a.3.3,0,0,1-.07.24.63.63,0,0,1-.28.1,20.39,20.39,0,0,1-6.82-.31,4.57,4.57,0,0,1-2.13-.83.87.87,0,0,1-.38-.93c.19-.48,1-.54,1.59-.52a3,3,0,0,1,1.09.18,3.87,3.87,0,0,1,.58.38,5.55,5.55,0,0,0,2.6.84,17.85,17.85,0,0,0,3.46-.25A1.73,1.73,0,0,1,228.5,356.55Z" transform="translate(-20.61 -25.93)"/><path class="cls-21" d="M243.08,299a7.52,7.52,0,0,0-.65-2c-1-1.74-3.55-1.44-4.12-3.54A20.73,20.73,0,0,1,238,291a6,6,0,0,0-.89-2.32,3.67,3.67,0,0,0-.86-.94,4.48,4.48,0,0,0-2.12-.69c-1.44-.18-2.88-.07-4.31-.15h-.55a4.57,4.57,0,0,0-.52.05,3.78,3.78,0,0,0-2.09.72,6.36,6.36,0,0,0-1.72,2,3,3,0,0,0-.56,1.77c.11,1,1.07,1.64,1.59,2.5a24.64,24.64,0,0,1,.28-3.09c0-.22.14-.5.38-.5.41,0,.58,2.26.58,2.54a10.16,10.16,0,0,1-.43,2.5,2.74,2.74,0,0,0,0,2c.49,1,1.91,1.28,2.41,2.25a3,3,0,0,1-.37,2.63A19.63,19.63,0,0,0,243.08,299Zm-20.25-5.78h0v0Zm1.23-.39Zm2.48-.35h0v0h0Z" transform="translate(-20.61 -25.93)"/><rect class="cls-15" x="227.74" y="292.56" width="4.01" height="0.35" transform="translate(544.7 427.66) rotate(153.74)"/><path class="cls-27" d="M223.35,298.78a7.21,7.21,0,0,0,.82-2.93.4.4,0,0,0-.07-.37c-.13-.12-.36,0-.45.15s-.13.35-.26.48a.14.14,0,0,1-.13.06.23.23,0,0,1-.08-.11c-.35-1-.38-3,.95-3.37a2.49,2.49,0,0,0-1.55-.08,1,1,0,0,0-.51.28,1.27,1.27,0,0,0-.24.68,24.65,24.65,0,0,0-.18,4.54c.07,1.21.44,2.34.42,3.58a36,36,0,0,1-.34,3.75c-.21,1.83-.53,3.61-.58,5.46a5.16,5.16,0,0,0,.27,2.14,2,2,0,0,0,1.59,1.3,2.2,2.2,0,0,0,1.84-1" transform="translate(-20.61 -25.93)"/><g class="cls-28"><path class="cls-23" d="M225.78,312.15a1.34,1.34,0,0,1-.68.61,1.42,1.42,0,0,1-.76-.08l-1.76-.56a.94.94,0,0,1-.6-1.64c1.25-2.07,2.56-4.21,4.55-5.59s14.86-1.17,16.79.29a8.55,8.55,0,0,1,1.24,1.24A55.19,55.19,0,0,1,253,319.77a1.66,1.66,0,0,1,.2,1.18c-.23.63-1.08.72-1.75.7-4.1-.17-18.18-1.37-22.18-2.29a.77.77,0,0,1-.39-.17.8.8,0,0,1-.16-.61l.12-7.78C228.85,307,226.84,311.27,225.78,312.15Z" transform="translate(-20.61 -25.93)"/><path class="cls-21" d="M225.58,313.26a.42.42,0,0,0,.47-.54c-.1-.42-.81-.49-1.16-.6l-1.08-.33c-.67-.22-1.29-.59-2-.79-.23-.06-.54-.25-.78-.21s-.49.27-.42.48.79.39,1,.48l2.52,1c.36.14.71.27,1,.42l.14.06.08,0A.45.45,0,0,0,225.58,313.26Z" transform="translate(-20.61 -25.93)"/><path class="cls-21" d="M226.23,311.65a.74.74,0,0,0,.39,0c.09,0,.19-.11.2-.21a.47.47,0,0,0-.09-.28.81.81,0,0,0-.3-.25.7.7,0,0,0-.2-.08l-.13,0-.27-.09-.53-.17-1.07-.35-1-.33-.54-.17-.26-.07c-.31-.06-.42.1-.55.35a.19.19,0,0,0,0,.14c0,.1.13.14.23.17l1.26.4a6.28,6.28,0,0,1,.73.25l1.07.4.52.19.26.1.18.06Z" transform="translate(-20.61 -25.93)"/><path class="cls-21" d="M227.26,310.41a.32.32,0,0,0,.18-.13c.34-.42-.08-.62-.45-.76l-.54-.21c-.7-.26-1.4-.53-2.09-.81-.28-.11-.76-.41-1.06-.34s-.53.45-.42.62a.24.24,0,0,0,.08.06c.6.24,1.2.39,1.8.65l1.76.76A1.12,1.12,0,0,0,227.26,310.41Z" transform="translate(-20.61 -25.93)"/><path class="cls-21" d="M228,309.19a.75.75,0,0,0,.42,0c.09,0,.2-.08.23-.17a.34.34,0,0,0,0-.26.78.78,0,0,0-.33-.32,2.68,2.68,0,0,0-.3-.12l-.24-.08c-.71-.27-1.43-.55-2.14-.85-.25-.1-.5-.21-.76-.29l-.24-.07-.21-.05c-.59-.12-.6.5-.15.71.64.3,1.35.46,2,.76.33.16.66.3,1,.44l.05,0h0l.05,0h0l.14.06h0l0,0,0,0,.28.11.27.11Z" transform="translate(-20.61 -25.93)"/><path class="cls-21" d="M228.53,307.9a.34.34,0,0,0,.32-.23c.18-.39-.18-.54-.49-.67l-.26-.11h0l-.23-.1-.09,0,.05,0-.05,0h0l0,0h0l-.06,0,0,0q-.5-.22-1-.42c-.16-.07-.33-.13-.51-.19a1.82,1.82,0,0,0-1-.21c-.26.06-.39.26-.21.48s.75.31,1,.4a7.31,7.31,0,0,1,.95.4c.34.16.67.34,1,.51A1.53,1.53,0,0,0,228.53,307.9Z" transform="translate(-20.61 -25.93)"/><path class="cls-21" d="M228,306.18a.66.66,0,0,0,.37,0,.36.36,0,0,0,.15-.08.23.23,0,0,0,.08-.11.38.38,0,0,0,0-.15.51.51,0,0,0-.09-.16.64.64,0,0,0-.27-.22,1.34,1.34,0,0,0-.26-.09h0l-.08,0h.05l-1.08-.29-.55-.12-.3,0c-.27,0-.14.19-.3.34s-.06.06,0,.1,0,0,.06,0a8.92,8.92,0,0,1,2,.68l.28.12Z" transform="translate(-20.61 -25.93)"/><path class="cls-21" d="M227.29,304.71a2.22,2.22,0,0,0-.6-.24c-.22,0-.62-.22-.33-.45s.64,0,.82.07l.46.11.24.06.18.06.12.08a.58.58,0,0,1,.22.27.26.26,0,0,1,0,.11.09.09,0,0,1,0,.05s0,0,0,0-.33.14-.55.08A3.33,3.33,0,0,1,227.29,304.71Zm1.13.13h0Z" transform="translate(-20.61 -25.93)"/><path class="cls-21" d="M229.32,305.67a.71.71,0,0,0,.25,0h.14l.3,0,.5-.05c.37,0,10.75.58,11.12.55l.64-.07.28,0,.18,0a.32.32,0,0,0,.09,0h0l.08-.05a.17.17,0,0,0,.07-.15.2.2,0,0,0-.09-.15h0l0,0-.06,0-.08,0h-1c-.37,0-10.75-.65-11.12-.64l-1.11,0h-.17a.85.85,0,0,0-.24.09.43.43,0,0,0-.23.25.22.22,0,0,0,.06.24.9.9,0,0,0,.3.17Z" transform="translate(-20.61 -25.93)"/><path class="cls-21" d="M229.3,306.79a1.38,1.38,0,0,0,.39.11,3.69,3.69,0,0,0,1.05,0A6.25,6.25,0,0,1,232,307c.88.09,11.79.78,12.68.84a3.15,3.15,0,0,0,1-.05.52.52,0,0,0-.29-.44,1.73,1.73,0,0,0-.55-.15c-.61-.08-1.23-.21-1.84-.24s-11.36-.64-12-.63a3.85,3.85,0,0,0-1.52.08C229.13,306.59,229.16,306.71,229.3,306.79Z" transform="translate(-20.61 -25.93)"/><path class="cls-21" d="M230,308.33a7.45,7.45,0,0,0,.77.11,10.8,10.8,0,0,0,1.27.19c.69.07,11.42.65,12.12.66l.71,0c.74,0,1.48.17,2.22.15a.11.11,0,0,0,.08,0,.13.13,0,0,0,0-.06c0-.53-.51-.56-1-.6l-2.79-.17-12.19-.79c-.2,0-1.94-.27-1.5.37A.57.57,0,0,0,230,308.33Z" transform="translate(-20.61 -25.93)"/><path class="cls-21" d="M229.09,310a.41.41,0,0,0,0,.11.34.34,0,0,0,.09.19.48.48,0,0,0,.39,0,4.53,4.53,0,0,1,1.22,0,13.12,13.12,0,0,0,1.53.11c.72,0,11.46.69,12.18.7.87,0,1.72,0,2.59.13a3.56,3.56,0,0,0,1,.09c.27-.07.42-.25.17-.45s-.68-.14-.93-.17l-1.1-.13c-.76-.08-1.52-.13-2.29-.18l-12.19-.79a5.74,5.74,0,0,0-2.3,0,.57.57,0,0,0-.37.26A.29.29,0,0,0,229.09,310Z" transform="translate(-20.61 -25.93)"/><path class="cls-21" d="M228.62,311.78a.24.24,0,0,0,0,.15.41.41,0,0,0,0,.19c.1.17.34.17.54.15a11.13,11.13,0,0,1,2.23.12c.74.11,1.51.1,2.26.15l12.18.79,1.12.09q.59,0,1.17.12c.28,0,1,.26,1.17-.05a.32.32,0,0,0-.13-.4.9.9,0,0,0-.46-.15c-1.06-.18-2.13-.16-3.2-.34-.77-.09-11.56-.81-12.34-.88s-1.67-.13-2.51-.15c-.43,0-.86,0-1.29,0C229.1,311.6,228.7,311.52,228.62,311.78Z" transform="translate(-20.61 -25.93)"/><path class="cls-21" d="M228.05,313.69a1.51,1.51,0,0,0,.85.39l1.14.09,2.19.19,2.23.19c.77.07,11.55.8,12.31.88,1,.1,2.07.07,3.1.13.18,0,.4,0,.49-.15a.33.33,0,0,0-.16-.41,1,1,0,0,0-.48-.11c-1.93-.15-13.86-1-15.78-1.22-.74-.1-1.49-.2-2.23-.28a17.17,17.17,0,0,0-3.12-.21.88.88,0,0,0-.32.07C228,313.39,227.94,313.55,228.05,313.69Z" transform="translate(-20.61 -25.93)"/><path class="cls-21" d="M228.06,315.57a.57.57,0,0,0,.26.43c.28.23.92.16,1.25.2l2.25.28,2.17.24c.75.08,11.51.82,12.26.91s1.47.18,2.2.29l1,.15.44.07h0a9.63,9.63,0,0,0,2.32.24.39.39,0,0,0,.19-.06.29.29,0,0,0,0-.41,1.19,1.19,0,0,0-.81-.33c-1.25-.16-2.49-.27-3.72-.49-.78-.13-11.56-.91-12.34-1s-1.44-.2-2.17-.3l-2.29-.33-2.22-.3C228.41,315.08,228.05,315.28,228.06,315.57Z" transform="translate(-20.61 -25.93)"/><path class="cls-21" d="M227.71,318a.74.74,0,0,0,0,.18c.12.32.27.23.65.29.72.13,1.46.21,2.19.29l2.47.27,2.35.24c.84.09,11.7.84,12.54.94s1.59.19,2.39.27c.59.07,1.18.12,1.78.15s1.34-.59,1.18-.69a1.47,1.47,0,0,0-.55-.17,25.62,25.62,0,0,0-3.27-.29c-1,0-2-.27-3-.41-.82-.11-11.66-.87-12.48-1s-1.61-.19-2.41-.3C231.07,317.72,227.66,317,227.71,318Z" transform="translate(-20.61 -25.93)"/></g><path class="cls-29" d="M234.19,303.63a3.66,3.66,0,0,1-.75-2.11" transform="translate(-20.61 -25.93)"/><path class="cls-29" d="M230.82,303.7c0,.08-.13,0-.15-.09l-.54-3c-.66-.65-2.43-.53-3.27-.92a2.25,2.25,0,0,1-1-1.58,13.29,13.29,0,0,1-.42-2.51,2.69,2.69,0,0,0-.39-1.56" transform="translate(-20.61 -25.93)"/><path class="cls-29" d="M223.38,298.54c.17,3,.28,6.09.35,9.14l-.06-.35" transform="translate(-20.61 -25.93)"/><path class="cls-21" d="M221.66,294.59c0-.29.22-.79,0-1s-.55-.21-.73-.28l-.72-.28A.71.71,0,0,0,220,293a.39.39,0,0,0-.29.25,5,5,0,0,0-.17,1.39,3.18,3.18,0,0,0,.07,1.41.3.3,0,0,0,.11.14.48.48,0,0,0,.17.05,6.13,6.13,0,0,0,1.35-.08.75.75,0,0,0,.29-.09C221.76,295.86,221.63,294.9,221.66,294.59Z" transform="translate(-20.61 -25.93)"/><line class="cls-27" x1="198.03" y1="265.64" x2="196.76" y2="264.37"/><line class="cls-27" x1="196.85" y1="267.48" x2="194.86" y2="266.89"/><line class="cls-27" x1="196.78" y1="269.46" x2="194.93" y2="269.69"/></svg>