<svg xmlns="http://www.w3.org/2000/svg" viewBox="0 0 405.01 249.44"><defs><style>.cls-1,.cls-9{fill:none;}.cls-2{fill:#151314;}.cls-3{fill:#ede6be;}.cls-4{fill:#ee203d;}.cls-5{fill:#010101;}.cls-6{fill:#eabd80;}.cls-7{fill:#264423;}.cls-8{fill:#e8caca;}.cls-9{stroke:#151314;stroke-linecap:round;stroke-linejoin:round;stroke-width:0;}.cls-10{fill:#f9f1d2;}</style></defs><title>FrenchMoi_login</title><g id="Layer_2" data-name="Layer 2"><path class="cls-1" d="M475.54,268.2a12,12,0,0,0-2.32.12,11.11,11.11,0,0,1,1.71.48.76.76,0,0,1,.3.23c1-.13,1.93-.27,2.9-.42l-.22-.06A14.57,14.57,0,0,0,475.54,268.2Z" transform="translate(-210.48 -149.81)"/><path class="cls-1" d="M453.35,239s0,0,0,0l0,0v0Z" transform="translate(-210.48 -149.81)"/><path class="cls-1" d="M329.28,248.73h0l.23,0Z" transform="translate(-210.48 -149.81)"/><path class="cls-1" d="M461.1,237.93a9.79,9.79,0,0,0,3.24,0,4.06,4.06,0,0,0,1.38-.49,2.77,2.77,0,0,0,.48-.54l-.45,0a2.08,2.08,0,0,1-.92-.1,11,11,0,0,0-3.67.3,6.35,6.35,0,0,0-1.28.63C460.29,237.83,460.7,237.88,461.1,237.93Z" transform="translate(-210.48 -149.81)"/><path class="cls-1" d="M453.43,239.05v0h0Z" transform="translate(-210.48 -149.81)"/><path class="cls-1" d="M452.84,238.05v0h0Z" transform="translate(-210.48 -149.81)"/><path class="cls-1" d="M572.21,353.13a15.11,15.11,0,0,1-1.35-2.81,23.12,23.12,0,0,1-6.06-2c-.11,1.19-.25,2.37-.44,3.54A26.23,26.23,0,0,0,572.21,353.13Z" transform="translate(-210.48 -149.81)"/><path class="cls-1" d="M483.14,267a8.72,8.72,0,0,0-1.91-.12,12.81,12.81,0,0,0-2,.23,8.08,8.08,0,0,0-1,.24,21.64,21.64,0,0,0,2.54.67.79.79,0,0,1,.34.14l1.69-.28,2.13-.36h0C484.38,267.3,483.77,267.08,483.14,267Z" transform="translate(-210.48 -149.81)"/><path class="cls-1" d="M470.23,268.65a.68.68,0,0,1-.3-.28c-.2-.06-.41-.11-.61-.15a11,11,0,0,0-4.19.11c.18.43.35.83.82,1a11.7,11.7,0,0,0,1.77.2,28,28,0,0,0,4.76-.15l-.06,0A8.83,8.83,0,0,1,470.23,268.65Z" transform="translate(-210.48 -149.81)"/><polygon class="cls-1" points="119.02 97.3 119.02 97.3 119.02 97.3 119.02 97.3"/><path class="cls-1" d="M469.65,222.86c.06-.17.14-.32.21-.49a2.72,2.72,0,0,1-.25.32C469.62,222.74,469.64,222.8,469.65,222.86Z" transform="translate(-210.48 -149.81)"/><path class="cls-1" d="M452.83,238.17v0a1.63,1.63,0,0,0,.11.31l0,0a1.09,1.09,0,0,0,.13.17l0,0h0a1.42,1.42,0,0,1,.22.2l0,0h0l0,0h0a.51.51,0,0,1,.26.3c1.75.26,3.4-1.63,4.67-2.5a7.86,7.86,0,0,1,1.94-1h-.08a10.47,10.47,0,0,0-1.48-.06c-1.95.15-3.55,1.42-5.51,1.51a2,2,0,0,1-.19.42l-.16.24h0l0,.08h0v0A.23.23,0,0,0,452.83,238.17Z" transform="translate(-210.48 -149.81)"/><path class="cls-1" d="M564.25,352.5c-.16.94-.35,1.88-.56,2.8a23.94,23.94,0,0,0,10,.28l.33-.07a14.69,14.69,0,0,1-1.44-1.75h-.32A26.56,26.56,0,0,1,564.25,352.5Z" transform="translate(-210.48 -149.81)"/><path class="cls-1" d="M569.36,356.62a24.56,24.56,0,0,1-5.13-.54l.2.08a20.1,20.1,0,0,0,11.29.81l-.15-.11c-.34-.27-.66-.54-1-.83a6.74,6.74,0,0,1-.75.17A24.21,24.21,0,0,1,569.36,356.62Z" transform="translate(-210.48 -149.81)"/><path class="cls-1" d="M453.42,239h0s0,0,0,0h0Z" transform="translate(-210.48 -149.81)"/><polygon class="cls-1" points="119.04 97.3 119.04 97.3 119.04 97.3 119.04 97.3"/><path class="cls-1" d="M469.09,238a4.89,4.89,0,0,0,2-.65,5.9,5.9,0,0,0,1.49-1.26l.25-.33a2.61,2.61,0,0,0-.51-.09h-.38l-.51.09-.56.12c-.67.16-1.35.29-2,.43a2.36,2.36,0,0,1-1,2.09.89.89,0,0,1,.19-.1A8.68,8.68,0,0,1,469.09,238Z" transform="translate(-210.48 -149.81)"/><path class="cls-1" d="M473.54,234a5.07,5.07,0,0,1,.56.13,2.83,2.83,0,0,1-.4-.17Z" transform="translate(-210.48 -149.81)"/><path class="cls-1" d="M477.53,236.69a2.7,2.7,0,0,0,.83-.68,5.32,5.32,0,0,0,.37-.46c-.08,0-.17-.07-.25-.12a.79.79,0,0,1-.17-.2c-.43.05-.87.14-1.32.22s-.76.12-1.13.21l-.31.07a4.24,4.24,0,0,1-1,1.35,6.32,6.32,0,0,1-1.12,1.07,9.65,9.65,0,0,0,2.39-.68C476.42,237.22,477,237,477.53,236.69Z" transform="translate(-210.48 -149.81)"/><path class="cls-1" d="M490.37,234.48a9.48,9.48,0,0,0,2.71-.89,11.43,11.43,0,0,0,2-1.75l.07-.08h0l-.65.19-.09,0c-.13,0-.26.09-.4.12-.87.23-1.79.35-2.67.54-.31.06-.61.13-.91.21l-.35.09-.27.08-.23.08-.15.07s0,0-.05,0l.05,0-.12,0a.69.69,0,0,1-.22.14,2.49,2.49,0,0,1-.19.3,6.64,6.64,0,0,1-.9,1A7.32,7.32,0,0,0,490.37,234.48Z" transform="translate(-210.48 -149.81)"/><path class="cls-1" d="M489.32,265.86a15.41,15.41,0,0,0-2.8.13c-.45.06-.88.16-1.31.25l1,.26c.32.07.65.14,1,.19l.27,0a1.08,1.08,0,0,1,1.11,0c1-.21,1.89-.44,2.81-.69a7,7,0,0,1-.79,0C490.18,266,489.75,265.88,489.32,265.86Z" transform="translate(-210.48 -149.81)"/><path class="cls-1" d="M481.11,236.87c.76-.3,1.48-.65,2.21-1a6.73,6.73,0,0,0,1-.54c.32-.24.59-.53.88-.79a9,9,0,0,0,1.5-1.53,1.67,1.67,0,0,0-.74.22c-.35.17-.7.34-1.07.48s-.89.3-1.33.46-.74.34-1.11.51a8.47,8.47,0,0,1-1.31.46,3.17,3.17,0,0,1-1,1.78c-.16.16-.34.32-.52.47h0A9.35,9.35,0,0,0,481.11,236.87Z" transform="translate(-210.48 -149.81)"/><path class="cls-1" d="M497.56,233.5a8.18,8.18,0,0,1,1.09-.36c.29-.07.6-.06.89-.14a.93.93,0,0,0,.38-.25,4.53,4.53,0,0,1,.7-.43l.26-.11.17-.08.06,0c.22-.14.41-.32.62-.47s.47-.33.69-.51a.93.93,0,0,0,.18-.16v0a.55.55,0,0,0,0-.12c0-.17,0-.35-.06-.51a.69.69,0,0,0-.18-.3l0,0h-.11c-.27.06-.49.11-.72.18a17.26,17.26,0,0,0-1.72.71,6.58,6.58,0,0,1-1.8.6,4.13,4.13,0,0,1-1.36,1.58l-1.12.94h.08A4.47,4.47,0,0,0,497.56,233.5Z" transform="translate(-210.48 -149.81)"/><path class="cls-1" d="M493.64,264.44c-.59.17-1.2.28-1.81.41h.09c.48,0,.95.13,1.44.14a14.48,14.48,0,0,1,1.47.08.68.68,0,0,1,.31.13l.25-.08c.6-.23.68-.66.83-1.18,0-.06,0-.12,0-.17a8.45,8.45,0,0,1-.85.28C494.83,264.19,494.23,264.27,493.64,264.44Z" transform="translate(-210.48 -149.81)"/><polygon class="cls-1" points="118.71 104.68 118.71 104.68 118.71 104.68 118.71 104.68"/><path class="cls-1" d="M376.76,315.38c.85,0,1.7-.07,2.55-.08,8.73-.08,17.38,4.25,21.58,10.95.25-.45.49-.89.75-1.33.76-1.26,1.55-2.5,2.35-3.72,1.65-2.55,3.33-5.06,5-7.57l5.19-7.74q2.56-3.81,5.11-7.63t5-7.59c1.7-2.58,3.38-5.17,5.07-7.77l5.05-7.79q2.52-3.89,5.06-7.77t5.18-8.06q2.37-3.75,4.64-7.62c-.37-.94-.75-1.86-1.11-2.8-.19-.49-.38-1-.58-1.47l-.57,1c-.63,1.13-1.27,2.24-1.94,3.33q-2.12,3.44-4.35,6.73-2.37,3.5-4.81,6.9c-8.91,12.34-18.2,25.31-31.39,33.43-8.8,5.41-21.38,6-31.25,3.85a33.43,33.43,0,0,1-3.53-1.08l6.75,13.27C376.6,315,376.68,315.19,376.76,315.38Z" transform="translate(-210.48 -149.81)"/><path class="cls-1" d="M452.84,238.1h0S452.83,238.13,452.84,238.1Z" transform="translate(-210.48 -149.81)"/><path class="cls-2" d="M236.25,156.38c.3-.19.6-.38.9-.55a7.91,7.91,0,0,1,8.5.56c.37.29.73.61,1.09.93a6.69,6.69,0,0,0,3.5,2,3.44,3.44,0,0,0,.46,0,5.55,5.55,0,0,0,4.11-2.28,20.78,20.78,0,0,0,1.27-1.78,15.67,15.67,0,0,1,1.54-2.07,7.75,7.75,0,0,1,7.14-2.25l.21-1a8.81,8.81,0,0,0-8.11,2.56,17,17,0,0,0-1.64,2.2c-.4.6-.78,1.17-1.21,1.7s-1.94,2.09-3.64,1.88a5.85,5.85,0,0,1-2.94-1.78c-.38-.34-.75-.68-1.15-1a9,9,0,0,0-9.65-.64c-.31.17-.62.38-.94.58-1.12.72-2.19,1.4-3.26,1.11l-.28,1C233.67,158,235,157.16,236.25,156.38Z" transform="translate(-210.48 -149.81)"/><path class="cls-2" d="M322.82,188.9l.09,0a13.48,13.48,0,0,1,11.46.37l.25.14a4.86,4.86,0,0,0,1.95.7h.2a3.82,3.82,0,0,0,2.78-1.44,12.7,12.7,0,0,0,1.13-1.65c.17-.29.35-.58.54-.86a10,10,0,0,1,6.34-4.17l-.2-1a11,11,0,0,0-7,4.61q-.3.45-.57.9a10.42,10.42,0,0,1-1,1.5,2.76,2.76,0,0,1-2.11,1.09,4.08,4.08,0,0,1-1.54-.59l-.26-.14a14.54,14.54,0,0,0-12.36-.4l-.09,0a2.39,2.39,0,0,1-1.69.35l-.37,1A3.19,3.19,0,0,0,322.82,188.9Z" transform="translate(-210.48 -149.81)"/><path class="cls-2" d="M280.72,210.77A6.17,6.17,0,0,1,287,211l.15.09a2.8,2.8,0,0,0,1.24.54h.14a2.28,2.28,0,0,0,1.79-1.11,9.11,9.11,0,0,0,.66-1.18l.3-.59a5.61,5.61,0,0,1,3.49-2.83l-.23-1a6.61,6.61,0,0,0-4.17,3.34c-.11.21-.22.42-.32.63a7.26,7.26,0,0,1-.58,1,1.3,1.3,0,0,1-1,.67,1.89,1.89,0,0,1-.76-.37l-.15-.1a7.24,7.24,0,0,0-7.41-.26c-.26.14-.57.31-.72.24l-.45.94A1.84,1.84,0,0,0,280.72,210.77Z" transform="translate(-210.48 -149.81)"/><path d="M587,360.7a14.27,14.27,0,0,1-.86,5.49,16.28,16.28,0,0,0-.76,4.71c0,.42,0,.83,0,1.24h0a35.89,35.89,0,0,0,2.38,6.45q2.28,4.46,4.86,8.75c2.18,3.63,4.87,6.65,7.44,10a7.85,7.85,0,0,0,1,1.09,1.27,1.27,0,0,1-.06-.18,2.26,2.26,0,0,1,.22-1.37c.7-1.57,2.16-2.23,3.5-3.1l.27-.16a7.41,7.41,0,0,1-1.48-1.36,29.42,29.42,0,0,1-5.26-7.26c-4.13-7.61-7.35-15.74-8.17-24.41-.42.05-.84.09-1.26.11C588.21,360.71,587.59,360.72,587,360.7Z" transform="translate(-210.48 -149.81)"/><path d="M582.48,360.11a18.19,18.19,0,0,1-6.76-3.14,20.1,20.1,0,0,1-11.29-.81l-.2-.08c-.23,0-.46-.1-.69-.16a54.2,54.2,0,0,1-8,17.92,13.41,13.41,0,0,1,5.43-.08l8.49,2.1a.46.46,0,0,1,.27.15.51.51,0,0,1,0,.3,25.67,25.67,0,0,1-1,3.31,18.69,18.69,0,0,1-1.78,3.82,12.07,12.07,0,0,1-5,4.71,14.11,14.11,0,0,0,.46,2.5q.1.32.24.63a4.53,4.53,0,0,0,1.11,1.58,23.81,23.81,0,0,0,2.25-1.33c3.58-2.36,5.87-7,7.7-10.74.85-1.74,1.31-3.66,2.28-5.31a1.78,1.78,0,0,1,.46-.52c.46-2.63,2.49-5,4-7.1C582.37,365.2,580.69,362.61,582.48,360.11Z" transform="translate(-210.48 -149.81)"/><path class="cls-3" d="M586.12,366.19a14.27,14.27,0,0,0,.86-5.49,21.27,21.27,0,0,1-4.5-.59c-1.79,2.5-.11,5.09-2,7.75-1.48,2.09-3.51,4.47-4,7.1a4.92,4.92,0,0,1,1.83-.8c.92-.24,1.74-.59,2.64-.85s1.49-.69,2.25-.89,1.43-.15,2.12-.28c0-.41,0-.82,0-1.24A16.28,16.28,0,0,1,586.12,366.19Z" transform="translate(-210.48 -149.81)"/><path class="cls-3" d="M562.72,391.28q-.13-.31-.24-.63a14.11,14.11,0,0,1-.46-2.5,8.24,8.24,0,0,1-1.07.43c-1.51.48-3.15.23-4.59,1.07a2.87,2.87,0,0,0-.9.87,7.91,7.91,0,0,0,2.74.09l.15.61a4.45,4.45,0,0,1-1,.09,12.47,12.47,0,0,1-2.2-.22,1.76,1.76,0,0,0,.06,1.52,16.59,16.59,0,0,0,2.8-.16l.11.62a17.3,17.3,0,0,1-2.28.16,4.12,4.12,0,0,0,1.29.45,9.37,9.37,0,0,0,6.69-.82A4.53,4.53,0,0,1,562.72,391.28Z" transform="translate(-210.48 -149.81)"/><path class="cls-3" d="M601.22,396.85a2.26,2.26,0,0,0-.22,1.37,1.27,1.27,0,0,0,.06.18,3,3,0,0,0,.67.44,4.38,4.38,0,0,0,1.44.27A22.52,22.52,0,0,0,607,399c.32,0,.65-.09,1-.16a3.16,3.16,0,0,0-2.75-1.77h0v-.63h0a3.77,3.77,0,0,1,3.37,2.24,4,4,0,0,0,1.58-.88.62.62,0,0,1,0-.1,2.94,2.94,0,0,0-2.53-2l0-.62a3.59,3.59,0,0,1,3,2.09c0-.08.09-.15.13-.24a2.65,2.65,0,0,0-.81-2.94c-1.18-1-2.35-.61-3.68-.34a1.84,1.84,0,0,1-1.29-.12l-.27.16C603.38,394.62,601.92,395.28,601.22,396.85Z" transform="translate(-210.48 -149.81)"/><path d="M605.24,396.46h0v.63h0a3.16,3.16,0,0,1,2.75,1.77l.62-.16A3.77,3.77,0,0,0,605.24,396.46Z" transform="translate(-210.48 -149.81)"/><path d="M607.67,395.14l0,.62a2.94,2.94,0,0,1,2.53,2,.62.62,0,0,0,0,.1,2.63,2.63,0,0,0,.45-.59A3.59,3.59,0,0,0,607.67,395.14Z" transform="translate(-210.48 -149.81)"/><path d="M558,392.45a16.59,16.59,0,0,1-2.8.16,1.14,1.14,0,0,0,.15.23,1.65,1.65,0,0,0,.48.39,17.3,17.3,0,0,0,2.28-.16Z" transform="translate(-210.48 -149.81)"/><path d="M558.35,391.22l-.15-.61a7.91,7.91,0,0,1-2.74-.09,2.59,2.59,0,0,0-.3.57,12.47,12.47,0,0,0,2.2.22A4.45,4.45,0,0,0,558.35,391.22Z" transform="translate(-210.48 -149.81)"/><path class="cls-2" d="M555.53,373.84a54.2,54.2,0,0,0,8-17.92c-.39-.09-.78-.2-1.17-.31-5.76,23.92-28,41.8-54.48,41.8-30.85,0-55.95-24.25-55.95-54a53.31,53.31,0,0,1,21-42.14l-.6-1.06a54.53,54.53,0,0,0-21.58,43.2c0,25.89,18.53,47.67,43.45,53.63h6.44v1h-.95a60.25,60.25,0,0,0,8.22.58A57.66,57.66,0,0,0,555.53,373.84Z" transform="translate(-210.48 -149.81)"/><path class="cls-2" d="M563.09,352.11c-.16,1-.36,1.93-.57,2.88.38.12.77.22,1.17.31.21-.92.4-1.86.56-2.8C563.86,352.38,563.47,352.25,563.09,352.11Z" transform="translate(-210.48 -149.81)"/><path class="cls-2" d="M476.1,298.93a57,57,0,0,1,31.79-9.61c30.85,0,56,24.25,56,54.05,0,1.24-.06,2.46-.15,3.69.38.22.77.42,1.16.62.12-1.43.19-2.86.19-4.31,0-30.47-25.64-55.26-57.15-55.26a58.2,58.2,0,0,0-32.37,9.75Z" transform="translate(-210.48 -149.81)"/><path class="cls-2" d="M564.36,351.89c.19-1.17.33-2.35.44-3.54-.39-.19-.78-.38-1.17-.6-.1,1.26-.23,2.5-.43,3.73Z" transform="translate(-210.48 -149.81)"/><path class="cls-2" d="M364.54,349.75c-3.35,27.16-27.46,48.3-56.63,48.3a60.69,60.69,0,0,1-6.79-.4v1h-1.65a60.1,60.1,0,0,0,8.44.6c29.8,0,54.43-21.62,57.83-49.39Z" transform="translate(-210.48 -149.81)"/><path class="cls-2" d="M300.93,397.62c-28.17-3.31-50.06-26.41-50.06-54.33,0-30.2,25.59-54.77,57-54.77a57.41,57.41,0,0,1,50.63,29.6l1.24-.26a58.62,58.62,0,0,0-51.87-30.55c-32.12,0-58.25,25.11-58.25,56,0,26.24,18.9,48.31,44.3,54.33Z" transform="translate(-210.48 -149.81)"/><path class="cls-2" d="M266,345c0-.11,0-.22,0-.33h-1c0,21.89,18.92,39.69,42.19,39.69A44.1,44.1,0,0,0,324.05,381l-.4-1-.36.14a43.06,43.06,0,0,1-16.13,3.09C284.58,383.27,266.2,366.11,266,345Z" transform="translate(-210.48 -149.81)"/><path class="cls-2" d="M533.24,309.67A44,44,0,0,0,517.82,302l-.27,1,.37.11a42.91,42.91,0,0,1,14.69,7.35C550.54,324.21,554.7,349,542,365.93l-.19.27.82.63C555.92,349.45,551.71,323.81,533.24,309.67Z" transform="translate(-210.48 -149.81)"/><path class="cls-2" d="M507.39,354.23a10.31,10.31,0,1,0-6.85-18c.17.18.33.37.51.54l.2.22a9.33,9.33,0,1,1-2.62,3.91c-.28-.33-.53-.65-.76-.95a10.32,10.32,0,0,0,9.52,14.28Z" transform="translate(-210.48 -149.81)"/><path class="cls-2" d="M300,338.32a10.3,10.3,0,0,0,17,7.85c-.46-.06-.93-.15-1.39-.24a9.17,9.17,0,0,1-5.28,1.66,9.27,9.27,0,0,1,0-18.54,9.06,9.06,0,0,1,3.9.87c.41-.13.82-.25,1.22-.35l.22-.06a10.22,10.22,0,0,0-5.34-1.5A10.32,10.32,0,0,0,300,338.32Z" transform="translate(-210.48 -149.81)"/><path class="cls-4" d="M494.26,287.28c1-.28,2-.51,3.08-.74s2.16-.39,3.26-.52,2.13-.22,3.2-.3,2.21-.08,3.32-.09,2.09,0,3.14.08c.84.07,1.69.14,2.53.25,1.82.22,4.84-.77,5.44-2.77,1.1-3.64-10.46-2.93-12.7-2.8a67.56,67.56,0,0,0-15.37,2.89,78,78,0,0,0-18,8.28q1.17,2.24,2.37,4.45A76.9,76.9,0,0,1,494.26,287.28Z" transform="translate(-210.48 -149.81)"/><path class="cls-4" d="M467.74,294.37c-4.95,3.31-8.86,7.95-12.18,12.92a66.17,66.17,0,0,0-10.49,27.24,42.39,42.39,0,0,0-.68,9.51,9.09,9.09,0,0,0,1.64,4.79c.79,1,2.6,1.61,3.18.47a2.26,2.26,0,0,0,.09-1.39,55,55,0,0,1,4-28.15,50.06,50.06,0,0,1,17-20.9c.31-.23.64-.44,1-.66q-1.23-2.25-2.44-4.51Z" transform="translate(-210.48 -149.81)"/><path class="cls-4" d="M368.41,316.22a51.79,51.79,0,0,0-3.13-5.19c-5.21-7.81-11.14-15.23-18.35-21.24a59.41,59.41,0,0,0-14.16-8.89c-4.9-2.15-9.34-2.77-14.52-3.35a76.28,76.28,0,0,0-22.77.86c-14.72,2.8-27,11.5-37.66,21.78a54,54,0,0,0-10.27,12.7,4.13,4.13,0,0,0-.69,3c1.1,3.77,5.78-1.09,6.72-2.26,6.66-8.34,14.22-16.23,23.37-21.85,9.69-5.94,20-7.3,31.14-8,12.2-.72,26.28,4.26,36.29,11.07,8.09,5.5,13.74,13.68,18,22.39l1.21-.25C365.21,316.75,366.8,316.47,368.41,316.22Z" transform="translate(-210.48 -149.81)"/><path class="cls-4" d="M376.52,314.85l-6.75-13.27c-3.7-1.34-8.24-3.68-4-5.82a2.88,2.88,0,0,1,.94-.25q-2.6-5.08-5.17-10.17L354,270.58c-1-2.05-1.95-5.13-3.44-6.86a4,4,0,0,0-.61-.57c-.47.06-.9.09-1.21.14-1.05.16-2.11.22-3.17.28a4.85,4.85,0,0,1-.66,0h-.21c3.78,6.37,6.85,13.2,10.32,19.8.53,1,1.07,2,1.62,3s.91,1.7,1.38,2.55c1.51,2.79,3,5.57,4.54,8.37,2,3.78,4,7.58,6.06,11.36,1.25,2.33,2.24,4.74,3.51,7.07,1.54-.17,3.07-.29,4.61-.36C376.68,315.19,376.6,315,376.52,314.85Z" transform="translate(-210.48 -149.81)"/><path class="cls-4" d="M383.8,324.15a10,10,0,1,0,6,18c-1.51-1.76-3-3.54-4.41-5.36a2.7,2.7,0,0,0-1.79-1.16c-.67-.24-1.33-.45-1.46-1.28a2.14,2.14,0,0,1,2.44-2.12.64.64,0,0,1,.2,0,1.41,1.41,0,0,1,.44.18.93.93,0,0,1,.18.16,2,2,0,0,1,.37.55,1.78,1.78,0,0,1,.14.55,2,2,0,0,1,0,.42,1.54,1.54,0,0,1-.36.84c-.13.17,2.95,3.36,5.58,6a9.93,9.93,0,0,0,2.76-6.86A10.07,10.07,0,0,0,383.8,324.15Z" transform="translate(-210.48 -149.81)"/><path class="cls-4" d="M398.14,339.41a14.57,14.57,0,0,0,.58-2.85,13.58,13.58,0,0,0-3.8-10.63c-4-4.43-10.64-7.18-17.26-7.18h-.1a78,78,0,0,0-13.92,1.42l-1.53.29c-5.61,1.06-11.05,2.29-15.63,3.35s-9.77,2.3-15.11,3.69c-1.62.43-3.23.92-4.78,1.39-1.94.58-3.94,1.19-6,1.67-4,1-6.42,2.57-7.31,4.88a4.79,4.79,0,0,0,.29,3.88,6.92,6.92,0,0,0,4.26,3.51,48,48,0,0,0,12.23,1.41c1.22,0,2.47.07,3.73.14,5.1.25,10.45.64,15.9,1.14s10.67,1,16,1.53c1,.1,2.14.23,3.31.36,7.86.88,17.82,2,24-1.6-.91-1-1.8-2-2.69-3.05a10.76,10.76,0,1,1,4.32-8.59,10.7,10.7,0,0,1-3,7.41l3,3.06A10.93,10.93,0,0,0,398.14,339.41Zm-35-10.23v0h0Z" transform="translate(-210.48 -149.81)"/><path class="cls-4" d="M402.14,334.54a2.86,2.86,0,0,1-1.16.57l-.39.06a1.69,1.69,0,0,1-.67-.05l-.17-.07a12.29,12.29,0,0,1-.06,1.6,15.73,15.73,0,0,1-.62,3.05,11.87,11.87,0,0,1-3.68,5.63c.53.54,1.06,1.08,1.62,1.6l.65.62a13.38,13.38,0,0,0,5.08-7.27,18,18,0,0,0,.7-3.49,16.28,16.28,0,0,0-.07-3.7v0A4.83,4.83,0,0,1,402.14,334.54Z" transform="translate(-210.48 -149.81)"/><path class="cls-4" d="M380.75,349.24a106.65,106.65,0,0,1-11.82-.86c-1.16-.13-2.27-.26-3.29-.36q-8-.78-16-1.52c-5.43-.51-10.77-.89-15.85-1.15-1.27-.06-2.5-.1-3.72-.13-4.23-.13-8.22-.24-12.47-1.45a8,8,0,0,1-4.87-4,5.77,5.77,0,0,1-.32-4.67c1-2.64,3.63-4.43,8-5.47,2-.48,4-1.08,5.9-1.67,1.57-.47,3.19-1,4.82-1.39,5.35-1.4,10.66-2.65,15.14-3.7s10-2.3,15.67-3.36l1.53-.29a78.06,78.06,0,0,1,14.09-1.43h.11c6.88,0,13.77,2.86,18,7.49a16.3,16.3,0,0,1,3.21,5.16,6.82,6.82,0,0,1,.62-1.6c.47-.86.93-1.73,1.41-2.58-4.2-6.7-12.85-11-21.58-10.95-.85,0-1.7,0-2.55.08-1.54.07-3.07.19-4.61.36-1.25.13-2.5.3-3.74.48-1.61.25-3.2.53-4.79.84l-1.21.25-.5.1-2.13.45-1.24.26c-4.73,1-9.46,2.17-14.17,3.34-5.67,1.42-11.33,2.87-16.94,4.44-4,1.13-7.83,2.57-11.81,3.61l-.22.06c-.4.1-.81.22-1.22.35-3.16,1-6.2,2.64-7.37,5.79-1.42,3.85,1.45,8.28,5.4,9.45a32.24,32.24,0,0,0,3.35.77c.46.09.93.18,1.39.24,4.36.64,8.64.52,13.25.74q8.9.42,17.76,1.26,8.3.76,16.58,1.58l1.2.12h.12c8.39.81,21.54,3.13,29.9-1.17-.7-.73-1.39-1.46-2.07-2.2C390.16,348.6,385.5,349.24,380.75,349.24Z" transform="translate(-210.48 -149.81)"/><path class="cls-4" d="M363.14,329.18v0h0Z" transform="translate(-210.48 -149.81)"/><path class="cls-4" d="M472.91,301.23c2,3.58,4,7.13,6.15,10.63q3.78,6.28,7.8,12.41Q492,332,497.53,339.51l.34.44c.23.3.48.62.76.95,2.45,3,6.73,7.06,10.18,4.61a2.62,2.62,0,0,0,.91-3c-.82-2.15-2.67-1.11-4.16-1.65s-3.16-2.67-4.31-3.89l-.2-.22c-.18-.17-.34-.36-.51-.54a68.45,68.45,0,0,1-7.13-9q-6.33-9.37-12.08-19.14c-1.79-3-3.53-6.12-5.23-9.21l-.58-1.07-1-1.85q-1.2-2.22-2.37-4.45c-2.5-4.8-4.91-9.64-7.19-14.55q-3.72-8-7-16.11c-2.14-5.25-3.74-10.66-5.83-15.91-.29-.71-.59-1.4-.92-2.08l0-.09a4.25,4.25,0,0,1-.62.78,7.51,7.51,0,0,1-4.88,1.72,1.84,1.84,0,0,1-.78-.08,2,2,0,0,1-.93-1.12c-.11-.24-.22-.5-.32-.77a149.94,149.94,0,0,1-8.13,12.91c-.45.66-.91,1.31-1.37,2-3.13,4.44-5.6,9.23-9,13.53A142,142,0,0,1,413.94,284c-4.89,4.89-10.13,9.76-16.65,12-5.14,1.8-10.63,1.81-16,1.33-2.75-.25-5.48-.64-8.21-1-1.53-.2-4.5-1.08-6.4-.85a2.88,2.88,0,0,0-.94.25c-4.22,2.14.32,4.48,4,5.82a33.43,33.43,0,0,0,3.53,1.08c9.87,2.19,22.45,1.56,31.25-3.85,13.19-8.12,22.48-21.09,31.39-33.43q2.44-3.4,4.81-6.9,2.24-3.3,4.35-6.73c.67-1.09,1.31-2.2,1.94-3.33l.57-1c.2.49.39,1,.58,1.47.36.94.74,1.86,1.11,2.8l.12-.2.39-.67a3.65,3.65,0,0,1,.64-.84,2.17,2.17,0,0,1,1.2-.57,2,2,0,0,1,1.28.33,3.58,3.58,0,0,1,1.43,2.29,4.61,4.61,0,0,1,.09,1.05q0,.33,0,.66a3.41,3.41,0,0,1-.93,2.06,1.85,1.85,0,0,1-.39.3c-.13.23-.26.46-.4.68l-.81,1.38a391.41,391.41,0,0,0,16.88,35.56q1.22,2.26,2.44,4.51c.36.66.74,1.31,1.1,2Z" transform="translate(-210.48 -149.81)"/><path class="cls-4" d="M453.1,256.07a1.85,1.85,0,0,0,.39-.3,3.41,3.41,0,0,0,.93-2.06q0-.33,0-.66a4.61,4.61,0,0,0-.09-1.05,3.58,3.58,0,0,0-1.43-2.29,2,2,0,0,0-1.28-.33,2.17,2.17,0,0,0-1.2.57,3.65,3.65,0,0,0-.64.84l-.39.67-.12.2q-2.26,3.87-4.64,7.62-2.57,4.07-5.18,8.06t-5.06,7.77l-5.05,7.79c-1.69,2.6-3.37,5.19-5.07,7.77s-3.32,5.07-5,7.59-3.4,5.09-5.11,7.63L409,313.63c-1.68,2.51-3.36,5-5,7.57-.8,1.22-1.59,2.46-2.35,3.72-.26.44-.5.88-.75,1.33-.48.85-.94,1.72-1.41,2.58a6.82,6.82,0,0,0-.62,1.6,13.54,13.54,0,0,1,.89,4.62l.17.07a1.69,1.69,0,0,0,.67.05l.39-.06a2.86,2.86,0,0,0,1.16-.57,4.83,4.83,0,0,0,1.22-1.42v0l.51-.94c.71-1.31,1.42-2.6,2.19-3.84s1.6-2.54,2.42-3.8c1.67-2.55,3.37-5.07,5.06-7.6l5.1-7.59c1.72-2.57,3.44-5.13,5.15-7.71s3.42-5.18,5.12-7.79,3.41-5.22,5.11-7.84,3.36-5.19,5.05-7.78,3.34-5.15,5-7.72,3.38-5.23,5-7.88q1.2-1.91,2.37-3.85c.12-.21.24-.42.37-.62l.81-1.38C452.84,256.53,453,256.3,453.1,256.07Z" transform="translate(-210.48 -149.81)"/><path class="cls-2" d="M345.59,263.57c1.06-.06,2.12-.12,3.17-.28.31-.05.74-.08,1.21-.14,1.24-.16,2.77-.5,3.29-1.76,1.72-4.23-3.73-2.55-4.69-2.53l-1,0c-2.77,0-5.37-1.34-8.11-.9a1.67,1.67,0,0,0-.92.37c-.87.78-.86,2.85-.75,4.54l.59.06c1.85.2,3.74.59,5.57.61h1A4.85,4.85,0,0,0,345.59,263.57Z" transform="translate(-210.48 -149.81)"/><polygon class="cls-2" points="119.04 97.3 119.04 97.3 119.04 97.3 119.04 97.3"/><path class="cls-2" d="M318.81,254.15a5.63,5.63,0,0,0,.68.38,10.72,10.72,0,0,0,1.46.56c.46.13.92.24,1.39.33a30.23,30.23,0,0,0,3.67.49,2.13,2.13,0,0,0,.75.19c1,.11,2,.13,3,.16l2.83,0h5.52c1.93,0,3.86,0,5.79.07,1.06,0,2.11.08,3.16.13,1.87.11,3.75.23,5.62.4l.63.06.38,0a1.05,1.05,0,0,0,.89-.34.78.78,0,0,0,.16-.62.85.85,0,0,0-.26-.47,2.67,2.67,0,0,0-.49-.3c-.21-.1-.43-.19-.65-.27-.86-.3-1.75-.53-2.59-.86-.42-.16-.83-.35-1.24-.52s-.84-.33-1.27-.48c-.84-.31-1.7-.6-2.53-.95-.5-.23-1-.48-1.47-.76-.3-.19-.6-.38-.89-.59s-.59-.43-.87-.66l-.82-.66c-.29-.23-.57-.46-.87-.67a8,8,0,0,0-1.23-.74l-.75-.34c-.22-.09-.46-.15-.69-.22a13.08,13.08,0,0,0-2.85-.49c-1-.07-2-.08-3-.07s-1.83.05-2.74.13h-.06l-.35,0c-1.11.1-2.21.26-3.3.44l-2.71.47c-.94.17-1.88.34-2.81.54h0l-.13,0h-.05a6.3,6.3,0,0,0-1.13.31,2.68,2.68,0,0,0-1.16.82,3.36,3.36,0,0,0-.41.71,2.91,2.91,0,0,0-.2.77,2.82,2.82,0,0,0,.36,1.72A3.53,3.53,0,0,0,318.81,254.15Zm10.47-5.42h0l.23,0-.23,0Zm-.09,5.76Z" transform="translate(-210.48 -149.81)"/><polygon class="cls-2" points="119.04 97.3 119.04 97.3 119.05 97.3 119.04 97.3"/><path class="cls-2" d="M329.05,247.15h0Z" transform="translate(-210.48 -149.81)"/><path class="cls-5" d="M444.84,245.24a1.84,1.84,0,0,0,.78.08,7.51,7.51,0,0,0,4.88-1.72,4.25,4.25,0,0,0,.62-.78,3.76,3.76,0,0,0,.41-3.41.83.83,0,0,1-.09-.16,3.28,3.28,0,0,0-.26-.43,1.36,1.36,0,0,1-1.75-1c-.24-1.93,3-4.23,4.24-5.15a13.93,13.93,0,0,0,3-2.49,3.88,3.88,0,0,0,.81-3.63,9.22,9.22,0,0,0-1.73-2.33c-1.32-1.67.49-3.94.62-5.75.07-1-.34-1.79-1.93-2.33-3.46-1.16-6.4,4.09-10,2.58-1-.44-1.66-1.43-3.19-1a6.56,6.56,0,0,0-1.37.6l-.71.41a2.55,2.55,0,0,0-.39.28c-.77.28-1.54.56-2.31.78l-3,.81-1.43.39c-.44.12-.89.21-1.32.37a2.38,2.38,0,0,0-.51.24,1,1,0,0,0-.51-.07c-.7.11-1.2,1-1.52,1.94a18.71,18.71,0,0,0-.84,3.62,15.63,15.63,0,0,0-.17,2.26,7.6,7.6,0,0,0,.09,1.27,4.53,4.53,0,0,0,.24.93,2.71,2.71,0,0,0,.32.61,2.67,2.67,0,0,0,.31.35,1.07,1.07,0,0,0,.59.27,1.31,1.31,0,0,0,.28,0,4.9,4.9,0,0,0,.89-.24l.07,0h.18a1.63,1.63,0,0,0,.64-.16,6.09,6.09,0,0,0,1-.52l1.79-1.12.05,0c1-.53,2-1,3-1.54s2-1,3-1.47l2.85-1.44.68-.34c.16-.08.32-.15.48-.25a2.24,2.24,0,0,0,.51-.47,3,3,0,0,0,.5-.82c.33-.78,3.63-2.49,4.49-2.19,1.91.67.65,3,2.23,4.15.32.24.75.36,1,.7.36.54,0,1.27-.4,1.78-1.33,1.7-3.15,2.89-4.58,4.49-2,2.2-1.83,3.14-2.45,5.52-.12.47-.64.69-1,1-1,.84-.73,2.27-.25,3.53.1.27.21.53.32.77A2,2,0,0,0,444.84,245.24Z" transform="translate(-210.48 -149.81)"/><polygon class="cls-5" points="262.43 63.89 262.42 63.89 262.43 63.89 262.43 63.89"/><polygon class="cls-5" points="262.47 63.89 262.47 63.89 262.47 63.89 262.47 63.89"/><path class="cls-2" d="M403.14,353c0,.73-1.37,1.23-2,1.08a1.32,1.32,0,0,1-.55-.39l-.56-.55-.21,1.4a.89.89,0,0,0,.75,1l23.73,3.57a.9.9,0,0,0,1-.76l.29-2a.89.89,0,0,0-.75-1L402.46,352C402.84,352.33,403.15,352.69,403.14,353Zm10.63,4.37h0Zm0,0h0Z" transform="translate(-210.48 -149.81)"/><path class="cls-6" d="M489.39,233.17l-.05,0C489.43,233.16,489.43,233.16,489.39,233.17Z" transform="translate(-210.48 -149.81)"/><path class="cls-6" d="M452.84,238.08h0Z" transform="translate(-210.48 -149.81)"/><polygon class="cls-6" points="242.95 89.24 242.95 89.24 242.95 89.24 242.95 89.24"/><path class="cls-6" d="M453.44,239.05h0Z" transform="translate(-210.48 -149.81)"/><path class="cls-6" d="M453.4,239v0h0Z" transform="translate(-210.48 -149.81)"/><path class="cls-6" d="M453.39,239l0,0,0,0Z" transform="translate(-210.48 -149.81)"/><path class="cls-6" d="M451.57,239.5l.05,0a0,0,0,0,0,0,0,2.47,2.47,0,0,0,1.23.91,3.82,3.82,0,0,0,.67.15.39.39,0,0,0,0,.15,14.41,14.41,0,0,0,1.27,4.23c.61,1.69,1.05,3.41,1.6,5.11,1,3.21,2.13,6.38,3.05,9.62.45,1.56.91,3.13,1.47,4.67s1.52,3.12,2.17,4.71c.39,1,.67,1.64,1.94,1.86a25.32,25.32,0,0,0,4.68.36,76.17,76.17,0,0,0,11.18-1.23c3.77-.62,7.53-1.32,11.25-2.2.8-.2,1.57-.48,2.37-.67a20.47,20.47,0,0,0,2.23-.45,3.46,3.46,0,0,0,2.06-2.61c1-3.3,1.79-6.64,2.44-10,.35-1.8.51-3.59.69-5.4s.55-3.66.71-5.51.29-3.7.44-5.56a17.58,17.58,0,0,0,0-4.86,6.13,6.13,0,0,0,1.55-1.24.92.92,0,0,0,.18-.87c-.08-.31,0-.63-.14-.94a2.42,2.42,0,0,0-1.78-1.45,5,5,0,0,0-2.43.27c-.45.13-.89.26-1.32.42s-.79.37-1.21.52a6,6,0,0,1-1.72.27l-.39,0h-.22a11.86,11.86,0,0,0-1.75.36,14.17,14.17,0,0,1-1.57.34,22.22,22.22,0,0,1-6,2,2,2,0,0,1-1.56-.39,13.09,13.09,0,0,1-1.86.87,29.91,29.91,0,0,1-5.39,1.16,7.31,7.31,0,0,1-3.39,0,5.07,5.07,0,0,0-.56-.13,48.84,48.84,0,0,1-5.5,1.16,9.88,9.88,0,0,1-2.77,0c-.84-.15-1.69,0-2.53-.19-.33-.08-.63-.33-.95-.41a10.82,10.82,0,0,0-1.5,0,8.69,8.69,0,0,1-1.79-.29,10.18,10.18,0,0,0-2.88.85c-.51.23-1,.49-1.52.7s-1.23.34-1.79.62a.44.44,0,0,0-.29.53l0,.1-.17.11a1.41,1.41,0,0,0-.74,1.15,2,2,0,0,0,.29.88.83.83,0,0,0,.09.16A.36.36,0,0,0,451.57,239.5Zm16.15,30a11.7,11.7,0,0,1-1.77-.2c-.47-.14-.64-.54-.82-1a11,11,0,0,1,4.19-.11c.2,0,.41.09.61.15a.68.68,0,0,0,.3.28,8.83,8.83,0,0,0,2.19.68l.06,0A28,28,0,0,1,467.72,269.5Zm7.51-.47a.76.76,0,0,0-.3-.23,11.11,11.11,0,0,0-1.71-.48,12,12,0,0,1,2.32-.12,14.57,14.57,0,0,1,2.37.35l.22.06C477.16,268.76,476.2,268.9,475.23,269Zm7.65-1.19-1.69.28a.79.79,0,0,0-.34-.14,21.64,21.64,0,0,1-2.54-.67,8.08,8.08,0,0,1,1-.24,12.81,12.81,0,0,1,2-.23,8.72,8.72,0,0,1,1.91.12c.63.12,1.24.34,1.86.51h0Zm5.71-1.08a1.08,1.08,0,0,0-1.11,0l-.27,0c-.32-.05-.65-.12-1-.19l-1-.26c.43-.09.86-.19,1.31-.25a15.41,15.41,0,0,1,2.8-.13c.43,0,.86.12,1.29.17a7,7,0,0,0,.79,0C490.48,266.32,489.54,266.55,488.59,266.76Zm7.63-2.82c-.15.52-.23.95-.83,1.18l-.25.08a.68.68,0,0,0-.31-.13,14.48,14.48,0,0,0-1.47-.08c-.49,0-1-.1-1.44-.14h-.09c.61-.13,1.22-.24,1.81-.41s1.19-.25,1.78-.39a8.45,8.45,0,0,0,.85-.28C496.25,263.82,496.24,263.88,496.22,263.94Zm.39-30.89a4.13,4.13,0,0,0,1.36-1.58,6.58,6.58,0,0,0,1.8-.6,17.26,17.26,0,0,1,1.72-.71c.23-.07.45-.12.72-.18h.11l0,0a.69.69,0,0,1,.18.3c0,.16,0,.34.06.51a.55.55,0,0,1,0,.12v0a.93.93,0,0,1-.18.16c-.22.18-.46.35-.69.51s-.4.33-.62.47l-.06,0-.17.08-.26.11a4.53,4.53,0,0,0-.7.43.93.93,0,0,1-.38.25c-.29.08-.6.07-.89.14a8.18,8.18,0,0,0-1.09.36,4.47,4.47,0,0,1-2,.49h-.08Zm-7.75.6a2.49,2.49,0,0,0,.19-.3.69.69,0,0,0,.22-.14l.12,0,.15-.07.23-.08.27-.08.35-.09c.3-.08.6-.15.91-.21.88-.19,1.8-.31,2.67-.54.14,0,.27-.08.4-.12l.09,0,.65-.19h0l-.07.08a11.43,11.43,0,0,1-2,1.75,9.48,9.48,0,0,1-2.71.89,7.32,7.32,0,0,1-2.41.18A6.64,6.64,0,0,0,488.86,233.65Zm-8.76,3.25a3.17,3.17,0,0,0,1-1.78,8.47,8.47,0,0,0,1.31-.46c.37-.17.72-.37,1.11-.51s.89-.29,1.33-.46.72-.31,1.07-.48a1.67,1.67,0,0,1,.74-.22,9,9,0,0,1-1.5,1.53c-.29.26-.56.55-.88.79a6.73,6.73,0,0,1-1,.54c-.73.37-1.45.72-2.21,1a9.35,9.35,0,0,1-1.5.49h0C479.76,237.22,479.94,237.06,480.1,236.9Zm-5.51.18a4.24,4.24,0,0,0,1-1.35l.31-.07c.37-.09.76-.15,1.13-.21s.89-.17,1.32-.22a.79.79,0,0,0,.17.2c.08,0,.17.08.25.12a5.32,5.32,0,0,1-.37.46,2.7,2.7,0,0,1-.83.68c-.55.27-1.11.53-1.67.78a9.65,9.65,0,0,1-2.39.68A6.32,6.32,0,0,0,474.59,237.08Zm-5.79-.78c.68-.14,1.36-.27,2-.43l.56-.12.51-.09h.38a2.61,2.61,0,0,1,.51.09l-.25.33a5.9,5.9,0,0,1-1.49,1.26,4.89,4.89,0,0,1-2,.65,8.68,8.68,0,0,0-1.14.3.89.89,0,0,0-.19.1A2.36,2.36,0,0,0,468.8,236.3Zm-1.08,3.93a7,7,0,0,0,1.65-.42c.76-.2,1.46-.29,2.15-.53a5.57,5.57,0,0,0,1.42.14,11.77,11.77,0,0,0,3.4-.52c.67-.22,1.32-.52,2-.78.5.61,2,.46,2.67.31a16.49,16.49,0,0,0,3.19-1.11c.42-.19.85-.35,1.25-.57a6.82,6.82,0,0,0,1.31-1l.21-.17a7.06,7.06,0,0,0,3.3.2,13.42,13.42,0,0,0,3.39-.68,5.61,5.61,0,0,0,1.24-.65.4.4,0,0,0,.26.31,4.59,4.59,0,0,0,2.3.07c.69-.11,1.35-.35,2.05-.4a4.38,4.38,0,0,0,1.08-.2c0,.29-.05.59-.05.86,0,.73,0,1.45,0,2.18-.09,1.59-.28,3.17-.37,4.77-.14,2.89-.68,5.75-.94,8.63a60.63,60.63,0,0,1-1.83,9.2c-.22.86-.45,1.73-.69,2.6a5.12,5.12,0,0,0-1.4.38c-.57.22-1.21.3-1.8.48l-2,.57c-.68.2-1.31.54-2,.67a.52.52,0,0,0-.28.14,20.09,20.09,0,0,0-2.68.26c-.91.13-1.73.54-2.65.65a.36.36,0,0,0-.35.25,10.8,10.8,0,0,0-2.95,0,14,14,0,0,0-1.71.35,4.86,4.86,0,0,0-.76.26,5.19,5.19,0,0,1-.81.42.41.41,0,0,0-.27.18,15.09,15.09,0,0,0-1.77-.15,17,17,0,0,0-2.76.24,9.93,9.93,0,0,0-1.89.3,8.2,8.2,0,0,0-1.73-.38,12.34,12.34,0,0,0-3.32.24l-.81.16a44.38,44.38,0,0,1-3-7.6c-1-3.22-2.05-6.38-3.24-9.54-.63-1.69-1.14-3.4-1.8-5.08a27.41,27.41,0,0,1-1.86-4.64,6.66,6.66,0,0,0,3.29-1.55.66.66,0,0,0,.25,0c.32,0,.65-.08,1-.06a8.31,8.31,0,0,1,1.22.28,14.91,14.91,0,0,0,2.41.36,9,9,0,0,0,2.76-.29.87.87,0,0,0,.48.44A3.61,3.61,0,0,0,467.72,240.23Zm-2.89-3.35a2.08,2.08,0,0,0,.92.1l.45,0a2.77,2.77,0,0,1-.48.54,4.06,4.06,0,0,1-1.38.49,9.79,9.79,0,0,1-3.24,0c-.4-.05-.81-.1-1.22-.12a6.35,6.35,0,0,1,1.28-.63A11,11,0,0,1,464.83,236.88Zm-12,1.17v0h0l0-.08h0l.16-.24a2,2,0,0,0,.19-.42c2-.09,3.56-1.36,5.51-1.51a10.47,10.47,0,0,1,1.48.06h.08a7.86,7.86,0,0,0-1.94,1c-1.27.87-2.92,2.76-4.67,2.5a.51.51,0,0,0-.26-.3h0v0h0s0,0,0,0l0,0s0,0,0,0a1.42,1.42,0,0,0-.22-.2h0l0,0a1.09,1.09,0,0,1-.13-.17l0,0a1.63,1.63,0,0,1-.11-.31v0a.23.23,0,0,1,0-.07s0,0,0,0Z" transform="translate(-210.48 -149.81)"/><path class="cls-6" d="M473.72,264.21a4.1,4.1,0,0,1-1.27.15c-.64.08-1.26.22-1.9.25-1.44.08-2.9,0-4.34.12-.65,0-.65.7,0,.76a31.48,31.48,0,0,0,4.76.12c.68-.05,1.36-.16,2-.24a2.08,2.08,0,0,0,1.5-.57C474.85,264.38,474.12,264,473.72,264.21Z" transform="translate(-210.48 -149.81)"/><path class="cls-6" d="M476.84,262.21a2.21,2.21,0,0,0-.37.08l-.21,0c-.3,0-.6,0-.91,0s-.57.1-.86.14c-.61.08-1.23.14-1.84.23s-1.16.34-1.77.46-.39.71.13.68,1-.17,1.57-.23,1.14-.09,1.71-.14,1-.17,1.56-.17a3.06,3.06,0,0,0,1.41-.23c.15-.08.35-.23.32-.41A.63.63,0,0,0,476.84,262.21Z" transform="translate(-210.48 -149.81)"/><path class="cls-6" d="M484.21,262.45a12.4,12.4,0,0,0-2.77.38c-.44.11-.89.18-1.35.26a5.37,5.37,0,0,0-.67.15,3.36,3.36,0,0,1-.64.18c-.36,0-.44.52,0,.57a5.48,5.48,0,0,0,1.34-.06c.5-.05,1-.07,1.5-.13a17.6,17.6,0,0,1,2.61-.25c.35,0,.75-.22.75-.55S484.56,262.44,484.21,262.45Z" transform="translate(-210.48 -149.81)"/><path class="cls-6" d="M480.67,261a5.06,5.06,0,0,0,.68-.09c.13,0,.31-.13.4-.15s.36-.15.39-.33a.37.37,0,0,0-.26-.39,1.26,1.26,0,0,0-.72-.08l-.57.09c-.42,0-.84.07-1.25.12s-.83.1-1.25.13a6.89,6.89,0,0,0-1.36.13c-.23.07-.39.24-.29.45v0c0,.25.39.34.6.2.35,0,.7.06,1,.05s.88,0,1.32-.07S480.25,261,480.67,261Z" transform="translate(-210.48 -149.81)"/><path class="cls-6" d="M492.6,260.84a26.35,26.35,0,0,0-2.63.47c-.42.09-.84.17-1.26.23a8.12,8.12,0,0,0-1.2.2h-.1c-.24,0-.51.15-.51.38s.27.38.51.38h.15a4.64,4.64,0,0,0,1.29.07q.72,0,1.44-.12c.92-.1,1.85-.26,2.74-.44.38-.08.71-.4.58-.75S493,260.79,492.6,260.84Z" transform="translate(-210.48 -149.81)"/><path class="cls-6" d="M489,260.32c.3-.27.15-.62-.25-.71a3.21,3.21,0,0,0-1.38,0l-.59.08-.29,0h-.18l-1.19.08c-.42,0-.84.1-1.26.15a.35.35,0,0,0,0,.7c.44,0,.9.13,1.34.14h1.19c.44,0,.87,0,1.31-.09A2.17,2.17,0,0,0,489,260.32Z" transform="translate(-210.48 -149.81)"/><path class="cls-6" d="M466.63,258.22c.52-.05,1-.09,1.56-.1s1.41.08,1.7-.35a.33.33,0,0,0,0-.42c-.28-.43-1.16-.35-1.64-.33a17.07,17.07,0,0,0-1.74.17,26.77,26.77,0,0,1-3.11.14c-.25,0-.54.15-.54.4s.29.39.54.4A23.24,23.24,0,0,0,466.63,258.22Z" transform="translate(-210.48 -149.81)"/><path class="cls-6" d="M473.56,258.38l-.74.14c-.45.08-.91.14-1.37.2-.94.11-1.9.17-2.84.25-.23,0-.47.12-.47.34s.25.33.47.35a23.54,23.54,0,0,0,3,.07,8,8,0,0,0,3.08-.55c.53-.26.27-.86-.31-.85A4.85,4.85,0,0,0,473.56,258.38Z" transform="translate(-210.48 -149.81)"/><path class="cls-6" d="M476.61,257.16c.54-.05,1.07,0,1.61-.1a.6.6,0,0,0,.55-.63c-.07-.33-.41-.47-.76-.49a8.55,8.55,0,0,0-1.6.11c-.46.05-.92.11-1.38.19-.93.17-1.88.36-2.82.45-.22,0-.47.11-.47.34s.25.33.47.35a11,11,0,0,0,1.52.05l1.44-.12Z" transform="translate(-210.48 -149.81)"/><path class="cls-6" d="M473.41,254.21a22.63,22.63,0,0,0-2.74.42c-.95.11-1.92.05-2.86.14-.22,0-.46.11-.46.33s.25.32.46.34a23.76,23.76,0,0,0,2.93.13c.9,0,1.77-.3,2.67-.28.34,0,.73-.21.73-.54S473.75,254.21,473.41,254.21Z" transform="translate(-210.48 -149.81)"/><path class="cls-6" d="M464.16,254.33l.61,0a14.21,14.21,0,0,0,2.61,0,.48.48,0,0,0,0-.95,9.85,9.85,0,0,0-1.44-.06l-1.29,0a4.65,4.65,0,0,0-1.29.08,2.92,2.92,0,0,0-.56.21,2.69,2.69,0,0,0-.55.31c-.31.25-.05.66.35.64s.72-.21,1.1-.26Z" transform="translate(-210.48 -149.81)"/><path class="cls-6" d="M471.34,252.44a3.78,3.78,0,0,0-.9.18,2.27,2.27,0,0,0-.72.29h0a.27.27,0,0,0-.09.45c.41.5,1.12.22,1.68.16a11.77,11.77,0,0,1,1.78,0c.6,0,1.2,0,1.8,0l1-.09a1.78,1.78,0,0,0,1-.29.47.47,0,0,0-.15-.84,4.7,4.7,0,0,0-1.87,0c-.6,0-1.2.06-1.8.05A17.17,17.17,0,0,0,471.34,252.44Z" transform="translate(-210.48 -149.81)"/><path class="cls-6" d="M472.39,251.06c0-.36-.41-.56-.78-.58-1.11,0-2.21.15-3.32.2l-1.67.07a5.54,5.54,0,0,0-1.78.2c-.34.16-.22.44,0,.57h0a5.54,5.54,0,0,0,1.78.2l1.67.07a30.75,30.75,0,0,0,3.32-.16C472,251.62,472.39,251.44,472.39,251.06Z" transform="translate(-210.48 -149.81)"/><path class="cls-6" d="M485.28,254.91l.05,0h.06l.14,0h.28a11.28,11.28,0,0,0,1.16-.07c.44-.06.87-.07,1.32-.16l.19,0h.38a1.88,1.88,0,0,0,.34,0c.41.09.9-.09.94-.5a1,1,0,0,0,0-.25c-.13-.4-.73-.47-1.1-.33h-.14a2.54,2.54,0,0,0-.39,0,5.78,5.78,0,0,0-.77.19c-.17,0-.46.08-.68.13s-.48.12-.73.16l-.13,0h0l-.23,0a6.18,6.18,0,0,0-.62.07,1.19,1.19,0,0,0-.94.58c-.08.18.09.35.27.41a.6.6,0,0,0,.59-.14C485.15,255,485.22,254.94,485.28,254.91Z" transform="translate(-210.48 -149.81)"/><path class="cls-6" d="M496.72,252.84a5,5,0,0,0-1.34,0c-.4,0-.79.18-1.15.21s-.81,0-1.21.05a8.56,8.56,0,0,0-1.33.13.33.33,0,0,0,0,.66,12.46,12.46,0,0,0,2.59.2,3.59,3.59,0,0,0,.65-.07l.32-.06s.22,0,.13,0c.45,0,.89.05,1.34,0a.58.58,0,0,0,.51-.5C497.23,253.09,497,252.9,496.72,252.84Z" transform="translate(-210.48 -149.81)"/><path class="cls-6" d="M493.87,251.84c.06-.37-.35-.6-.72-.61a9.86,9.86,0,0,0-2.66.18,5.87,5.87,0,0,1-1.18.23,3.39,3.39,0,0,0-1.43.23.29.29,0,0,0,0,.49,2.91,2.91,0,0,0,1.38.21,7.35,7.35,0,0,0,1.41-.17,5,5,0,0,1,1.15-.14c.44,0,.88.05,1.33.05h0A.7.7,0,0,0,493.87,251.84Z" transform="translate(-210.48 -149.81)"/><path class="cls-6" d="M486.25,250.76a18.74,18.74,0,0,0,2.13-.12.53.53,0,0,0,.47-.45.52.52,0,0,0-.47-.45,2.69,2.69,0,0,0-.63-.06l-.46,0-1,.08c-.68.06-1.36.14-2,.19-.24,0-.52.13-.52.38s.28.37.52.39A17.37,17.37,0,0,0,486.25,250.76Z" transform="translate(-210.48 -149.81)"/><path class="cls-6" d="M495.08,250.45l.21-.07.06,0a.69.69,0,0,0,.56-.36.5.5,0,0,0-.33-.6,1.66,1.66,0,0,0-.7-.11,1.64,1.64,0,0,0-.49.1h-.15s-.33,0-.17,0l-.67-.08a8.29,8.29,0,0,0-1.22,0,8.1,8.1,0,0,0-1.3.16c-.46.11-.46.6,0,.71a8.12,8.12,0,0,0,1.3.17l.59,0h.28l.14,0a8.2,8.2,0,0,0,1.2.15A2,2,0,0,0,495.08,250.45Z" transform="translate(-210.48 -149.81)"/><path class="cls-6" d="M488,248.22l-.14,0h-.39c-.21-.18-.68-.14-.69.17s.15.33.33.44c-.13-.08.07,0,.1,0l.09,0a1.51,1.51,0,0,0,.37.07,6.93,6.93,0,0,0,1.64-.05c.37,0,.75-.12,1.13-.16a9.25,9.25,0,0,1,1.18,0,1.89,1.89,0,0,0,1.24-.36.42.42,0,0,0,0-.7.84.84,0,0,0-.95,0h-.14l-.48,0a9.28,9.28,0,0,0-1.17.12l-.94.18C488.82,248.11,488.43,248.16,488,248.22Z" transform="translate(-210.48 -149.81)"/><path class="cls-6" d="M487.5,245.92l-.59.1h-.2l-.26,0-1.19.06-1.09.09-.55,0h-.14a.76.76,0,0,0-.55-.16c-.23,0-.54.19-.51.43v.15a.47.47,0,0,0,.31.39,4.51,4.51,0,0,0,1.27.22c.41,0,.81,0,1.22,0a13.07,13.07,0,0,0,2.72-.14c.38-.07.71-.4.58-.76A.93.93,0,0,0,487.5,245.92Z" transform="translate(-210.48 -149.81)"/><path class="cls-6" d="M494.42,245.4c-.43,0-.85,0-1.27.09l-.56.07-.48.06-1.2.07c-.27,0-.56,0-.85,0H490a.33.33,0,0,0-.34.23c0,.12.06.19.16.24a3.23,3.23,0,0,0,2.19.49c.8,0,1.59-.13,2.4-.13.36,0,.77-.22.77-.57S494.78,245.4,494.42,245.4Z" transform="translate(-210.48 -149.81)"/><path class="cls-6" d="M475.75,247a1.84,1.84,0,0,0,.52.1c.18,0,.35,0,.53.06s.63,0,.95,0l.89,0a3.23,3.23,0,0,1,.44,0h.11l.22,0a1,1,0,0,0,.78-.17c.26,0,.53,0,.8,0a.74.74,0,0,0,.33-.09.48.48,0,0,0,.19-.21.26.26,0,0,0,0-.21l-.05-.1-.14-.11a.73.73,0,0,0-.33-.08c-.28,0-.55,0-.83,0a.77.77,0,0,0-.35-.17,8.28,8.28,0,0,0-2,0c-.32,0-.64,0-.95,0s-.4,0-.6.06a1.51,1.51,0,0,0-.52.11A.34.34,0,0,0,475.75,247Z" transform="translate(-210.48 -149.81)"/><path class="cls-6" d="M483.35,244.38c-.48,0-1,0-1.44,0a10.28,10.28,0,0,0-1.37.21,12,12,0,0,1-1.33.12c-.22,0-.47.12-.47.35s.25.33.47.34a9.45,9.45,0,0,0,1.41.09c.44,0,.85-.12,1.29-.12s1,0,1.44,0,1.48.1,1.48-.53S483.82,244.38,483.35,244.38Z" transform="translate(-210.48 -149.81)"/><path class="cls-6" d="M487.91,244a1,1,0,0,0-.3-.07h-.81l-.55,0-.39.05a.57.57,0,0,0-.3.15.37.37,0,0,0-.12.25.45.45,0,0,0,.08.22.53.53,0,0,0,.34.19l.39,0,.55,0h.81a.8.8,0,0,0,.3-.06,4.1,4.1,0,0,0,.49.06l1.11.08c.37,0,.75,0,1.12,0h.57a1.61,1.61,0,0,0,.72-.19.4.4,0,0,0,0-.77,1.61,1.61,0,0,0-.72-.19h-.57c-.37,0-.75,0-1.12,0l-1.11.08A3.86,3.86,0,0,0,487.91,244Z" transform="translate(-210.48 -149.81)"/><path class="cls-6" d="M482.88,242.58c-.24,0-.51.1-.67.11-.52,0-.52.58,0,.6.16,0,.43.07.67.11a5.92,5.92,0,0,0,.84,0c.47,0,.93-.09,1.4-.1.24,0,.48,0,.72,0a4.5,4.5,0,0,0,.82,0c.45-.05.89-.16,1.34-.21a.56.56,0,0,0,.52-.58c-.06-.3-.38-.44-.71-.46a5.89,5.89,0,0,0-1.39.11c-.45.07-.92,0-1.4,0s-.94.19-1.42.25C483.36,242.55,483.12,242.55,482.88,242.58Z" transform="translate(-210.48 -149.81)"/><path class="cls-6" d="M491.23,239.75a4.23,4.23,0,0,0,2.29.07h.15a1.92,1.92,0,0,1,.24,0h.67a3.69,3.69,0,0,0,1.52-.14.37.37,0,0,0,0-.71,3.5,3.5,0,0,0-1.48-.15,7,7,0,0,0-1.21.07c-.33.06-.65.15-1,.21a2.59,2.59,0,0,1-.52.06.51.51,0,0,0-.58,0s0,0-.06.05a.35.35,0,0,0-.27.21A.33.33,0,0,0,491.23,239.75Z" transform="translate(-210.48 -149.81)"/><path class="cls-6" d="M495.27,238.11a6.54,6.54,0,0,0,.89.09c.27,0,.55,0,.83,0l.79,0a4.9,4.9,0,0,0,.54,0c.05,0,.18,0,.05,0l.25,0c.3,0,.7-.18.68-.51s-.35-.49-.68-.51a7.3,7.3,0,0,0-.81,0l-.95.09h-.09l-.18,0-.46,0a8.13,8.13,0,0,0-.86.15c-.2,0-.39.19-.39.38S495.07,238.06,495.27,238.11Z" transform="translate(-210.48 -149.81)"/><path class="cls-6" d="M462.35,247.92h.12l.2,0c.29,0,.58.12.87.19a14.27,14.27,0,0,0,3.27.14c.34,0,.74-.21.74-.55s-.4-.55-.74-.55a19,19,0,0,1-3.2,0,4.89,4.89,0,0,0-1.32-.08c-.46.06-.89.36-.63.79a.49.49,0,0,0,.58.08Z" transform="translate(-210.48 -149.81)"/><path class="cls-6" d="M462.12,245.45a.66.66,0,0,0-.72-.53c-.34,0-.67.05-1,.09l-.4.05-.2,0-.25,0h-.6a4.7,4.7,0,0,0-1.06,0,.32.32,0,0,0,0,.63c.3.05.58.13.87.2a3.91,3.91,0,0,0,.91.1c.58,0,1.16-.1,1.74-.08C461.73,246,462.14,245.76,462.12,245.45Z" transform="translate(-210.48 -149.81)"/><path class="cls-6" d="M471,245a3.62,3.62,0,0,0-.93-.07h-2.29a30.5,30.5,0,0,0-3.17.22.44.44,0,0,0,0,.87,30.5,30.5,0,0,0,3.17.22h2.29a3.62,3.62,0,0,0,.93-.07c.3-.09.6-.27.6-.59S471.33,245.13,471,245Z" transform="translate(-210.48 -149.81)"/><path class="cls-6" d="M461,243.69h.13c.13,0,.28.05.42.08l.54.07a6.31,6.31,0,0,0,1.15,0c.78-.07,1.53-.21,2.3-.33.5-.08.48-.65,0-.74a4.17,4.17,0,0,0-1.32-.06l-1.12.15a5.49,5.49,0,0,1-1,0,2.13,2.13,0,0,0-1.23.15l.23-.1-.22,0c-.2,0-.38.2-.35.39A.45.45,0,0,0,461,243.69Z" transform="translate(-210.48 -149.81)"/><path class="cls-6" d="M468.32,243.22c-.2,0-.44,0-.51.22s.1.33.29.37.34.15.53.21a2.91,2.91,0,0,0,.78.15c.5,0,1,.06,1.5.07l1.56,0a4,4,0,0,0,1.66-.17.42.42,0,0,0,0-.81,4,4,0,0,0-1.66-.17l-1.45,0A18.77,18.77,0,0,1,468.32,243.22Z" transform="translate(-210.48 -149.81)"/><path class="cls-6" d="M464.2,241.43a.44.44,0,0,0-.44.29.35.35,0,0,0,.33.36,2.34,2.34,0,0,1,.59.16,2.53,2.53,0,0,0,.77.17,8.22,8.22,0,0,0,1.4-.08c1-.09,2,0,3,0,.34,0,.72-.19.72-.53s-.39-.51-.72-.53a17.68,17.68,0,0,0-3,0c-.45.06-.89.19-1.33.24S464.63,241.41,464.2,241.43Z" transform="translate(-210.48 -149.81)"/><path class="cls-6" d="M478,241.35l.25.15-.17-.21c.28.49,1,.57,1.56.59l1.48,0a3,3,0,0,0,1-.15l.16-.06s0,0,0,0h.18l.16,0,.38.05a1.56,1.56,0,0,0,.88-.16c.32-.17.42-.6,0-.75a9,9,0,0,0-1.23-.43,2.12,2.12,0,0,0-.87,0c-.16,0-.3.1-.45.14h0c.06,0,0,0,0,0h-.05c-.45,0-.9,0-1.35,0l-.7,0a3.71,3.71,0,0,0-.58,0l-.09,0a.68.68,0,0,0-.63.19A.34.34,0,0,0,478,241.35Z" transform="translate(-210.48 -149.81)"/><path class="cls-7" d="M461.79,234.57c.32.08.62.33.95.41.84.19,1.69,0,2.53.19a9.88,9.88,0,0,0,2.77,0,48.84,48.84,0,0,0,5.5-1.16l.16,0a2.83,2.83,0,0,0,.4.17,7.31,7.31,0,0,0,3.39,0,29.91,29.91,0,0,0,5.39-1.16,13.09,13.09,0,0,0,1.86-.87,2,2,0,0,0,1.56.39,22.22,22.22,0,0,0,6-2c1.22-.67,2.12-1.48,2.13-2.43A2.42,2.42,0,0,0,492.1,226l-.35,0a7.41,7.41,0,0,0-3.55,1.3l.42-3.3a7.89,7.89,0,0,0-3.91.84,15.18,15.18,0,0,0,.66-3.27c-1.11,1-2.34,1.52-3.45.89-.47-.26-.86-1.42-1.14-2.52a14.51,14.51,0,0,0-1.69,2.83l-.49-4.64a8.71,8.71,0,0,0-4.51,4.21,13.2,13.2,0,0,0-1.24-4,10.11,10.11,0,0,0-2.62,3.2,3,3,0,0,1-.37.85c-.07.17-.15.32-.21.49,0-.06,0-.12,0-.17a2,2,0,0,1-1.05.62c-.73.17-2.56-1-3.61-1.74l0,1.91c-.55-.6-1.71-1.12-2-.37a1.12,1.12,0,0,0,0,.7l.63,2.57a6.78,6.78,0,0,0-4.16-2.3,9.78,9.78,0,0,0,2.2,5.34c-.76-.44-2.44-1.06-3.33-.65-1.3.59-.36.4-.78,1.56a3.22,3.22,0,0,0-.17,1.37,1.28,1.28,0,0,0,.12,2.33c.33.11.66.2,1,.28a8.69,8.69,0,0,0,1.79.29A10.82,10.82,0,0,1,461.79,234.57Zm12.06-10.15a1.37,1.37,0,0,1,.67-.69,1,1,0,0,1,1.17.58,2.92,2.92,0,0,1,.19,1.38,1.1,1.1,0,0,1,1.7.05,2.22,2.22,0,0,1,.26,1.87,4.75,4.75,0,0,1,2.74-1c.36,0,.79.07.92.4a.9.9,0,0,1,0,.49c-.37,2-4,8-6.83,6.35-.81-.45-1.38-3.55-1.55-4.4A7.41,7.41,0,0,1,473.85,224.42Z" transform="translate(-210.48 -149.81)"/><path class="cls-8" d="M469.61,222.69a2.72,2.72,0,0,0,.25-.32,3,3,0,0,0,.37-.85c.69-2.33-.33-6.18-1.16-7.42a1,1,0,0,0-.34-.35c-.33-.15-.7.09-1,.33a4.5,4.5,0,0,0-1.3,2.57,2.28,2.28,0,0,0-1.51-1.19c-.66-.1-1.41.46-1.27,1.1a3,3,0,0,0-1.1-.87,1,1,0,0,0-1.26.36,1.32,1.32,0,0,0,0,.94,7.61,7.61,0,0,0,3,4.16l.6.42c1.05.73,2.88,1.91,3.61,1.74A2,2,0,0,0,469.61,222.69Z" transform="translate(-210.48 -149.81)"/><path class="cls-8" d="M474.68,233.86c2.85,1.6,6.46-4.34,6.83-6.35a.9.9,0,0,0,0-.49c-.13-.33-.56-.41-.92-.4a4.75,4.75,0,0,0-2.74,1,2.22,2.22,0,0,0-.26-1.87,1.1,1.1,0,0,0-1.7-.05,2.92,2.92,0,0,0-.19-1.38,1,1,0,0,0-1.17-.58,1.37,1.37,0,0,0-.67.69,7.41,7.41,0,0,0-.72,5C473.3,230.31,473.87,233.41,474.68,233.86Z" transform="translate(-210.48 -149.81)"/><path class="cls-8" d="M481.92,222.41c1.11.63,2.34.1,3.45-.89a12.29,12.29,0,0,0,3.38-5.46.87.87,0,0,0,0-.48c-.13-.33-.57-.41-.93-.4a4.68,4.68,0,0,0-2.74,1,2.19,2.19,0,0,0-.26-1.87,1.1,1.1,0,0,0-1.7-.06,2.9,2.9,0,0,0-.19-1.37,1,1,0,0,0-1.16-.58,1.31,1.31,0,0,0-.67.68,7.38,7.38,0,0,0-.72,5.05c.06.35.21,1.09.4,1.87C481.06,221,481.45,222.15,481.92,222.41Z" transform="translate(-210.48 -149.81)"/><path d="M377.66,317.78h-.11a78.06,78.06,0,0,0-14.09,1.43l-1.53.29c-5.63,1.06-11.08,2.29-15.67,3.36s-9.79,2.3-15.14,3.7c-1.63.43-3.25.92-4.82,1.39-1.92.59-3.91,1.19-5.9,1.67-4.36,1-7,2.83-8,5.47a5.77,5.77,0,0,0,.32,4.67,8,8,0,0,0,4.87,4c4.25,1.21,8.24,1.32,12.47,1.45,1.22,0,2.45.07,3.72.13,5.08.26,10.42.64,15.85,1.15s10.67,1,16,1.52c1,.1,2.13.23,3.29.36a106.65,106.65,0,0,0,11.82.86c4.75,0,9.41-.64,12.94-2.73-.21-.24-.43-.46-.65-.7-6.18,3.59-16.14,2.48-24,1.6-1.17-.13-2.28-.26-3.31-.36q-8-.78-16-1.53c-5.45-.5-10.8-.89-15.9-1.14-1.26-.07-2.51-.1-3.73-.14a48,48,0,0,1-12.23-1.41,6.92,6.92,0,0,1-4.26-3.51,4.79,4.79,0,0,1-.29-3.88c.89-2.31,3.28-3.91,7.31-4.88,2-.48,4-1.09,6-1.67,1.55-.47,3.16-1,4.78-1.39,5.34-1.39,10.63-2.65,15.11-3.69s10-2.29,15.63-3.35l1.53-.29a78,78,0,0,1,13.92-1.42h.1c6.62,0,13.23,2.75,17.26,7.18a13.58,13.58,0,0,1,3.8,10.63,14.57,14.57,0,0,1-.58,2.85,10.93,10.93,0,0,1-3.42,5.23l0,0,.63.65a11.87,11.87,0,0,0,3.68-5.63,15.73,15.73,0,0,0,.62-3.05,12.29,12.29,0,0,0,.06-1.6,13.54,13.54,0,0,0-.89-4.62,16.3,16.3,0,0,0-3.21-5.16C391.43,320.64,384.54,317.78,377.66,317.78Z" transform="translate(-210.48 -149.81)"/><path d="M383.8,323.38a10.79,10.79,0,1,0,6.55,19.38l-.51-.58a10,10,0,1,1,4.06-8,9.93,9.93,0,0,1-2.76,6.86l.54.55a10.7,10.7,0,0,0,3-7.41A10.84,10.84,0,0,0,383.8,323.38Z" transform="translate(-210.48 -149.81)"/><path class="cls-9" d="M406.5,358.5h0" transform="translate(-210.48 -149.81)"/><polygon class="cls-2" points="196.09 207.18 196.09 207.18 196.09 207.18 196.09 207.18"/><path class="cls-2" d="M406.51,357h0Z" transform="translate(-210.48 -149.81)"/><path class="cls-2" d="M395.4,354.32Z" transform="translate(-210.48 -149.81)"/><path class="cls-2" d="M395.39,345.33l-.63-.65,0,0-3-3.06-.54-.55c-2.63-2.68-5.71-5.87-5.58-6a1.54,1.54,0,0,0,.36-.84,2,2,0,0,0,0-.42,1.78,1.78,0,0,0-.14-.55,2,2,0,0,0-.37-.55.93.93,0,0,0-.18-.16,1.41,1.41,0,0,0-.44-.18.64.64,0,0,0-.2,0,2.14,2.14,0,0,0-2.44,2.12c.13.83.79,1,1.46,1.28a2.7,2.7,0,0,1,1.79,1.16c1.41,1.82,2.9,3.6,4.41,5.36l.51.58c.89,1,1.78,2.05,2.69,3.05.22.24.44.46.65.7.68.74,1.37,1.47,2.07,2.2q2.12,2.24,4.29,4.39l.56.55a1.32,1.32,0,0,0,.55.39c.61.15,2-.35,2-1.08,0-.27-.3-.63-.68-1s-1-.8-1.2-1q-1.78-1.73-3.6-3.42l-.65-.62C396.45,346.41,395.92,345.87,395.39,345.33Z" transform="translate(-210.48 -149.81)"/><path class="cls-2" d="M413.78,357.33h0Z" transform="translate(-210.48 -149.81)"/><path class="cls-2" d="M413.77,357.33Z" transform="translate(-210.48 -149.81)"/><polygon class="cls-2" points="90.63 247.83 90.63 247.81 90.45 247.81 83.48 247.81 0 247.81 0 248.85 88.99 248.85 90.63 248.85 90.63 247.83"/><polygon class="cls-2" points="290.13 247.19 283.7 247.19 232 247.19 232 248.22 289.19 248.22 290.13 248.22 290.13 247.19"/><path d="M588.84,335.4c0,1.26,0,2.52,0,3.78a43.1,43.1,0,0,1-.49,6.33c0,.24-.1.48-.16.71a17.27,17.27,0,0,0,.39-1.73,16.39,16.39,0,0,1,.92-4c.47-1.06,1.17-1.86,2.09-.64,1.2,1.6,1.59,3.72,2.7,5.36l0,0a11.78,11.78,0,0,1,2.55-4.43c.23-.79.56-1.35,1-1.48a.59.59,0,0,1,.54.1,10.86,10.86,0,0,1,6.47-2.29c.79,0,2.89-.12,2.83,1.08a6,6,0,0,1-.77,2,12.49,12.49,0,0,1-1.18,1.95,14.35,14.35,0,0,1-7.16,5c-.38.12-.79.24-1.21.34a8.67,8.67,0,0,0,3.85.38,23.7,23.7,0,0,0,6.61-2.2l.24-.1q.11-.8.15-1.59c-.25.17-.48.36-.73.53A8.43,8.43,0,0,1,604.3,346l-.11-.62a7.79,7.79,0,0,0,2.89-1.36c.38-.25.74-.53,1.11-.8.13-5.26-1.5-10.72-3.25-15.47-1.66-4.48-3.73-9.36-8.06-11.36a81.62,81.62,0,0,0,1,11.88,1.32,1.32,0,0,1-1.5,1.86,72.62,72.62,0,0,0-9.19.93c.18.35.34.71.49,1.07C588.11,333.12,588.87,334.26,588.84,335.4Z" transform="translate(-210.48 -149.81)"/><path class="cls-3" d="M601.16,347.86a8.67,8.67,0,0,1-3.85-.38,7.86,7.86,0,0,1-2.64.32c-1.3-.12-.67-1.77-.41-2.59-1.11-1.64-1.5-3.76-2.7-5.36-.92-1.22-1.62-.42-2.09.64a16.39,16.39,0,0,0-.92,4,17.27,17.27,0,0,1-.39,1.73,11.65,11.65,0,0,1-1,2.65,0,0,0,0,0,0,0,.86.86,0,0,1-.07.1,8.21,8.21,0,0,1-.48.81,6.68,6.68,0,0,1-1.41,1.63,12.74,12.74,0,0,1-2,1.15,18.37,18.37,0,0,1-3.07,1.18,11.63,11.63,0,0,1-7.24,0h-.26a14.69,14.69,0,0,0,1.44,1.75,3.65,3.65,0,0,0,1.8-.79l.43.46a3.92,3.92,0,0,1-1.69.85c.31.29.63.56,1,.83l.15.11a18.19,18.19,0,0,0,6.76,3.14,21.27,21.27,0,0,0,4.5.59c.61,0,1.23,0,1.84,0,.42,0,.84-.06,1.26-.11,6.34-.68,13-3.76,16.13-9.4a18.29,18.29,0,0,1-2.66.26v-.62a19.38,19.38,0,0,0,3-.34,13.9,13.9,0,0,0,.91-2.36c0-.13.07-.27.1-.4a10.88,10.88,0,0,1-3.54,1.14l-.08-.63a10.68,10.68,0,0,0,3.82-1.33c.09-.44.17-.88.23-1.32l-.24.1A23.7,23.7,0,0,1,601.16,347.86Zm-7.31,4.92c-.26.45-.56.64-.89.58a.94.94,0,0,1-.47-.3,3.92,3.92,0,0,1-.77-1.29,3.17,3.17,0,0,1-.9,1.64.82.82,0,0,1-.5.2h0a1.1,1.1,0,0,1-.82-.56,4.16,4.16,0,0,1-.63-1.53l.71-.14a3.48,3.48,0,0,0,.52,1.27.8.8,0,0,0,.22.24.34.34,0,0,0,.09-.06c.58-.46.83-2,1-3,0-.11,0-.2,0-.3l-1.17-.88a.81.81,0,0,1-.16-.16c-.28-.47.68-.6.93-.59.44,0,2.33-.13,2.22.55a.76.76,0,0,1,0,.11,1.17,1.17,0,0,1-.28.38c-.22.22-.45.44-.69.65l-.09.07a4,4,0,0,0,.86,2.88l.08.07s.06-.08.13-.21a10,10,0,0,0,.6-1.33l.68.24A9.88,9.88,0,0,1,593.85,352.78Z" transform="translate(-210.48 -149.81)"/><path d="M574.79,350v.63h0a22.1,22.1,0,0,1-3.9-.35,15.11,15.11,0,0,0,1.35,2.81c.48,0,1,0,1.45,0l0,.63-.81,0a11.63,11.63,0,0,0,7.24,0,18.37,18.37,0,0,0,3.07-1.18,12.74,12.74,0,0,0,2-1.15,6.68,6.68,0,0,0,1.41-1.63,8.21,8.21,0,0,0,.48-.81,1,1,0,0,1-.66.36,14.72,14.72,0,0,1-2.55.22,13.82,13.82,0,0,1-6.79-1.76.53.53,0,0,1-.15.11c-.43.19-.88-.23-1.24-1-.13-.11-.28-.2-.41-.31a12.85,12.85,0,0,1-2.67-3,1,1,0,0,1-.21-.93,1.07,1.07,0,0,1,.6-.52,10.18,10.18,0,0,1,2.4-.71,1.4,1.4,0,0,1,.6-.82c.37-.16.75.12,1.08.69a10.28,10.28,0,0,1,3.67.72,11.5,11.5,0,0,1,6.34,6.21.91.91,0,0,1,.07.61,11.65,11.65,0,0,0,1-2.65c.06-.23.12-.47.16-.71a43.1,43.1,0,0,0,.49-6.33c.06-1.26,0-2.52,0-3.78s-.73-2.28-1.15-3.32c-.15-.36-.31-.72-.49-1.07a75.62,75.62,0,0,0-7.43,1.61,54.43,54.43,0,0,0-6.1-12.5,1.11,1.11,0,0,0-.54-.51c-.52-.15-.92.45-1.11,1-2.17,5.82-2.33,12.17-2.46,18.39,0,1.74,0,3.49.09,5.21a24,24,0,0,0,1,5.46,21.91,21.91,0,0,0,4.13.41Z" transform="translate(-210.48 -149.81)"/><path class="cls-10" d="M572.8,342.84c-.06.16.06.39.18.57a12.37,12.37,0,0,0,2.5,2.8,9.06,9.06,0,0,1-.17-4.33,9.9,9.9,0,0,0-2.11.65A.76.76,0,0,0,572.8,342.84Z" transform="translate(-210.48 -149.81)"/><path class="cls-10" d="M577.39,347.51a13.68,13.68,0,0,0,9,1.46c.25-.05.4-.11.44-.21a.59.59,0,0,0-.07-.35,11,11,0,0,0-6.12-6,9.53,9.53,0,0,0-3.33-.69,7.47,7.47,0,0,1,.51,2A6.63,6.63,0,0,1,577.39,347.51Z" transform="translate(-210.48 -149.81)"/><path d="M587.2,348.87a.91.91,0,0,0-.07-.61,11.5,11.5,0,0,0-6.34-6.21,10.28,10.28,0,0,0-3.67-.72,3,3,0,0,1,.19.4,9.53,9.53,0,0,1,3.33.69,11,11,0,0,1,6.12,6,.59.59,0,0,1,.07.35c0,.1-.19.16-.44.21a13.68,13.68,0,0,1-9-1.46,1.18,1.18,0,0,1-.27.31,13.82,13.82,0,0,0,6.79,1.76,14.72,14.72,0,0,0,2.55-.22,1,1,0,0,0,.66-.36.86.86,0,0,0,.07-.1A0,0,0,0,1,587.2,348.87Z" transform="translate(-210.48 -149.81)"/><path d="M575.48,346.21a12.37,12.37,0,0,1-2.5-2.8c-.12-.18-.24-.41-.18-.57a.76.76,0,0,1,.4-.31,9.9,9.9,0,0,1,2.11-.65,4.17,4.17,0,0,1,.13-.42,10.18,10.18,0,0,0-2.4.71,1.07,1.07,0,0,0-.6.52,1,1,0,0,0,.21.93,12.85,12.85,0,0,0,2.67,3c.13.11.28.2.41.31A5.16,5.16,0,0,1,575.48,346.21Z" transform="translate(-210.48 -149.81)"/><path class="cls-10" d="M598.72,346.35c.31-.11.62-.2.91-.33a12.71,12.71,0,0,0,5-3.94,15.32,15.32,0,0,0,1.14-1.85c.16-.34.32-.68.45-1a2.52,2.52,0,0,0,.28-.84c0-.91-2.63-.58-3.26-.48A9,9,0,0,0,598.8,340a6.75,6.75,0,0,1,.59,2.65A7.34,7.34,0,0,1,598.72,346.35Z" transform="translate(-210.48 -149.81)"/><path class="cls-10" d="M596.55,342.58a11.35,11.35,0,0,0-1.23,2.79,8,8,0,0,0-.28,1.34c0,.44.26.4.6.36l.78-.1c.37-.06.73-.16,1.09-.25a5,5,0,0,1-1-3.16C596.53,343.23,596.54,342.9,596.55,342.58Z" transform="translate(-210.48 -149.81)"/><path d="M594.67,347.8a7.86,7.86,0,0,0,2.64-.32c.42-.1.83-.22,1.21-.34a14.35,14.35,0,0,0,7.16-5,12.49,12.49,0,0,0,1.18-1.95,6,6,0,0,0,.77-2c.06-1.2-2-1.09-2.83-1.08a10.86,10.86,0,0,0-6.47,2.29,1.63,1.63,0,0,1,.47.59,9,9,0,0,1,4.42-2.07c.63-.1,3.22-.43,3.26.48a2.52,2.52,0,0,1-.28.84c-.13.35-.29.69-.45,1a15.32,15.32,0,0,1-1.14,1.85,12.71,12.71,0,0,1-5,3.94c-.29.13-.6.22-.91.33a1.17,1.17,0,0,1-.57.56.64.64,0,0,1-.64-.19c-.36.09-.72.19-1.09.25l-.78.1c-.34,0-.64.08-.6-.36a8,8,0,0,1,.28-1.34,11.35,11.35,0,0,1,1.23-2.79,8.79,8.79,0,0,1,.28-1.84,11.78,11.78,0,0,0-2.55,4.43l0,0C594,346,593.37,347.68,594.67,347.8Z" transform="translate(-210.48 -149.81)"/><path d="M577.39,347.51a6.63,6.63,0,0,0,.43-3.79,7.47,7.47,0,0,0-.51-2,3,3,0,0,0-.19-.4c-.33-.57-.71-.85-1.08-.69a1.4,1.4,0,0,0-.6.82,4.17,4.17,0,0,0-.13.42,9.06,9.06,0,0,0,.17,4.33,5.16,5.16,0,0,0,.25.7c.36.79.81,1.21,1.24,1a.53.53,0,0,0,.15-.11A1.18,1.18,0,0,0,577.39,347.51Z" transform="translate(-210.48 -149.81)"/><path d="M596.55,342.58c0,.32,0,.65,0,1a5,5,0,0,0,1,3.16.64.64,0,0,0,.64.19,1.17,1.17,0,0,0,.57-.56,7.34,7.34,0,0,0,.67-3.75,6.75,6.75,0,0,0-.59-2.65,1.63,1.63,0,0,0-.47-.59.59.59,0,0,0-.54-.1c-.4.13-.73.69-1,1.48A8.79,8.79,0,0,0,596.55,342.58Z" transform="translate(-210.48 -149.81)"/><path class="cls-2" d="M591.48,349.26l.71.14h0a2.54,2.54,0,0,0,0,.29l.09-.07c.24-.21.47-.43.69-.65a1.17,1.17,0,0,0,.28-.38.76.76,0,0,0,0-.11c.11-.68-1.78-.54-2.22-.55-.25,0-1.21.12-.93.59a.81.81,0,0,0,.16.16l1.17.88c0-.1,0-.2.05-.29Z" transform="translate(-210.48 -149.81)"/><path class="cls-2" d="M593.22,352.43c-.07.13-.13.19-.13.21l-.08-.07a4,4,0,0,1-.86-2.88,2.54,2.54,0,0,1,0-.29h0l-.71-.14h0c0,.09,0,.19-.05.29s0,.19,0,.3c-.17,1-.42,2.52-1,3a.34.34,0,0,1-.09.06.8.8,0,0,1-.22-.24,3.48,3.48,0,0,1-.52-1.27l-.71.14a4.16,4.16,0,0,0,.63,1.53,1.1,1.1,0,0,0,.82.56h0a.82.82,0,0,0,.5-.2,3.17,3.17,0,0,0,.9-1.64,3.92,3.92,0,0,0,.77,1.29.94.94,0,0,0,.47.3c.33.06.63-.13.89-.58a9.88,9.88,0,0,0,.65-1.44l-.68-.24A10,10,0,0,1,593.22,352.43Z" transform="translate(-210.48 -149.81)"/><path class="cls-2" d="M569.36,356.62a24.21,24.21,0,0,0,4.49-.42,6.74,6.74,0,0,0,.75-.17,3.92,3.92,0,0,0,1.69-.85l-.43-.46a3.65,3.65,0,0,1-1.8.79l-.33.07a23.94,23.94,0,0,1-10-.28c-.4-.09-.79-.19-1.17-.31a24.07,24.07,0,0,1-3-1.08l-.25.57a23.62,23.62,0,0,0,3.08,1.13c.39.11.78.22,1.17.31.23.06.46.12.69.16A24.56,24.56,0,0,0,569.36,356.62Z" transform="translate(-210.48 -149.81)"/><path class="cls-2" d="M564.36,351.89l-1.16-.41a25.88,25.88,0,0,1-3.81-1.77l-.31.54a26.09,26.09,0,0,0,4,1.86c.38.14.77.27,1.16.39a26.56,26.56,0,0,0,8,1.27h.58l.81,0,0-.63c-.48,0-1,0-1.45,0A26.23,26.23,0,0,1,564.36,351.89Z" transform="translate(-210.48 -149.81)"/><path class="cls-2" d="M563.69,347.06a22.65,22.65,0,0,1-2.53-1.68l-.39.49a22,22,0,0,0,2.86,1.88c.39.22.78.41,1.17.6a23.12,23.12,0,0,0,6.06,2,22.1,22.1,0,0,0,3.9.35h0V350h0a21.91,21.91,0,0,1-4.13-.41,22.26,22.26,0,0,1-5.78-1.95C564.46,347.48,564.07,347.28,563.69,347.06Z" transform="translate(-210.48 -149.81)"/><path class="cls-2" d="M604.19,345.33l.11.62a8.43,8.43,0,0,0,3.13-1.45c.25-.17.48-.36.73-.53a38.08,38.08,0,0,0,7-6.34l-.48-.41a37.14,37.14,0,0,1-6.45,5.95c-.37.27-.73.55-1.11.8A7.79,7.79,0,0,1,604.19,345.33Z" transform="translate(-210.48 -149.81)"/><path class="cls-2" d="M604,348.84a10.88,10.88,0,0,0,3.54-1.14,26.44,26.44,0,0,0,3-1.86c1.66-1.14,3.3-2.36,4.87-3.61l-.39-.49c-1.56,1.24-3.19,2.45-4.83,3.58-.78.53-1.61,1.08-2.49,1.56a10.68,10.68,0,0,1-3.82,1.33Z" transform="translate(-210.48 -149.81)"/><path class="cls-2" d="M603.55,351.42a18.29,18.29,0,0,0,2.66-.26,20.12,20.12,0,0,0,8.2-3.29l-.36-.51a19.93,19.93,0,0,1-10.51,3.44Z" transform="translate(-210.48 -149.81)"/></g></svg>